<svg width="403" height="143" viewBox="0 0 403 143" fill="none" xmlns="http://www.w3.org/2000/svg">
<path d="M0 86.5401V64.9098L45.3183 67.4891V86.5401H0Z" fill="#E66245"/>
<path d="M31.4448 40.7009L94.1831 35.0397L89.4227 129.801H31.4448V40.7009Z" fill="#DB4726"/>
<path d="M7.72855 129.801L2.40869 82.4153H86.616V129.801H7.72855Z" fill="#DB4726"/>
<path d="M54.9332 82.4246H23.2417V105.088H54.9332V82.4246Z" fill="#B13216"/>
<path d="M47.1582 87.611V63.4014L92.3438 66.4928L91.0636 88.1231L47.1582 87.611Z" fill="#E66245"/>
<path d="M308.817 83.2688V61.6385L354.136 64.2179V83.2688H308.817Z" fill="#E66245"/>
<path d="M340.262 37.4287L403 31.7675L398.24 126.529H340.262V37.4287Z" fill="#DB4726"/>
<path d="M316.546 126.529L311.226 79.1436H395.433V126.529H316.546Z" fill="#DB4726"/>
<path d="M363.751 79.1436H332.059V101.807H363.751V79.1436Z" fill="#B13216"/>
<path d="M355.975 84.3402V60.1306L401.16 63.222L399.88 84.8523L355.975 84.3402Z" fill="#E66245"/>
<path d="M286.324 53.1982H122.689V105.164H286.324V53.1982Z" fill="#5C988D"/>
<path d="M286.315 53.1986H122.689L157.586 0H250.29L286.315 53.1986Z" fill="#5C988D"/>
<path d="M141.797 120.517C139.294 121.001 135.889 121.456 131.84 121.427C128.161 121.399 125.05 120.972 122.68 120.517V102.908C125.022 102.471 128.474 102.054 132.637 102.301C137.359 102.585 141.057 103.609 143.39 104.425C142.859 109.792 142.328 115.159 141.797 120.517Z" fill="#1D0803"/>
<path d="M286.314 120.811C284 121.143 281.174 121.418 277.95 121.428C274.555 121.437 271.596 121.162 269.188 120.811L267.168 104.539C269.444 103.818 272.554 103.031 276.357 102.642C280.368 102.225 283.801 102.377 286.314 102.642V120.811Z" fill="#1D0803"/>
<path d="M144.784 87.5932C151.712 87.5932 157.329 81.9763 157.329 75.0475C157.329 68.1186 151.712 62.5017 144.784 62.5017C137.855 62.5017 132.238 68.1186 132.238 75.0475C132.238 81.9763 137.855 87.5932 144.784 87.5932Z" fill="#FFC145"/>
<path d="M261.631 86.0003C267.79 86.0003 272.783 81.0075 272.783 74.8486C272.783 68.6896 267.79 63.6968 261.631 63.6968C255.472 63.6968 250.479 68.6896 250.479 74.8486C250.479 81.0075 255.472 86.0003 261.631 86.0003Z" fill="#FFC145"/>
<path d="M170.064 70.0681H237.592L230.612 85.9898H176.124L170.064 70.0681Z" fill="#80B2A9"/>
<path d="M162.498 6.76086H244.401L264.021 40.2067L147.373 43.393L162.498 6.76086Z" fill="#FCF7ED"/>
<path d="M133.565 36.6134L125.363 49.1212L117.909 46.5798L121.257 36.6134H133.565Z" fill="#5C988D"/>
<path d="M275.087 36.6134H284.721L290.297 45.7833L282.692 49.1212L275.087 36.6134Z" fill="#5C988D"/>
<path d="M109.09 134.626H303.45L305.005 138.145H102.414L109.09 134.626Z" fill="#DB4726"/>
<path d="M181.074 129.887C180.799 130.19 180.543 130.513 180.259 130.835C179.234 131.319 179.728 129.081 180.164 128.199C180.467 128.057 180.865 128.038 181.302 128.085C184.469 123.192 185.958 119.332 185.958 117.142C185.958 115.871 185.465 115.179 184.535 115.179C183.672 115.179 182.648 116.336 182.762 120.556C181.672 121.106 180.856 121.106 180.78 120.281C180.477 116.374 182.572 114.022 185.209 114.022C187.029 114.022 188.281 114.923 188.281 116.867C188.281 119.152 186.678 122.898 182.316 128.341C183.739 128.73 185.417 129.498 187.048 129.242C187.864 129.128 187.579 130.304 187.399 130.996C187.38 131.11 187.285 131.157 187.191 131.186C184.725 131.698 182.838 130.219 181.065 129.896L181.074 129.887Z" fill="#1D0803"/>
<path d="M200.143 125.591L197.934 130.74C195.933 131.366 195.648 129.564 196.796 123.419C195.933 125.335 195.184 127.573 194.188 130.598C192.604 131.243 192.064 130.787 192.111 129.924C192.253 127.061 192.642 123.087 192.946 121.608C194.254 120.916 195.136 121.03 194.947 121.883C194.738 122.898 194.273 125.809 193.941 128.692C196.388 121.001 197.602 119.266 199.185 121.048C198.417 123.4 198.047 126.501 198.066 128.369C199.204 125.686 199.716 124.026 200.608 122.67C201.404 121.447 202.239 121.817 202.96 122.736C201.376 127.724 201.49 129.83 202.353 129.83C202.846 129.83 203.405 129.507 204.05 127.933C204.401 127.677 204.979 127.838 204.866 128.255C204.448 129.687 203.235 130.939 201.888 130.939C200.371 130.939 199.584 128.511 200.143 125.581V125.591Z" fill="#1D0803"/>
<path d="M206.251 129.033C206.555 130.095 207.18 130.626 207.93 130.626C209.001 130.626 210.025 129.26 210.632 127.487C211.211 127.165 211.543 127.506 211.495 127.762C211.22 129.308 209.418 131.574 207.465 131.574C205.644 131.574 204.013 130.142 204.013 127.26C204.013 121.997 206.574 120.887 207.693 120.887C209.068 120.887 209.627 121.835 209.627 123.011C209.627 125.505 207.949 127.677 206.251 129.042V129.033ZM206.061 127.99C207.067 126.814 207.93 125.012 207.93 122.774C207.93 122.262 207.816 122.035 207.56 122.035C207.143 122.035 206.043 123.58 206.043 127.373C206.043 127.601 206.043 127.81 206.061 127.999V127.99Z" fill="#1D0803"/>
<path d="M211.144 120.166L209.882 120.261C209.209 120.327 209.228 119.521 209.465 119.085H211.305L211.817 115.832C212.822 115.188 214.377 114.884 214.074 115.994C213.865 117.037 213.657 118.051 213.467 119.066L215.032 119.047C216.037 119.047 216.103 119.35 215.781 119.967L213.287 120.062C212.263 125.789 211.77 130.407 212.983 130.407C214.358 130.407 215.269 128.426 215.686 127.269C216.056 127.041 216.615 127.126 216.549 127.544C216.359 128.862 214.595 131.327 212.794 131.327C209.977 131.327 210.044 127.563 211.144 120.175V120.166Z" fill="#1D0803"/>
<path d="M217.64 129.033C217.943 130.095 218.569 130.626 219.318 130.626C220.39 130.626 221.414 129.26 222.021 127.487C222.599 127.165 222.931 127.506 222.884 127.762C222.609 129.308 220.807 131.574 218.854 131.574C217.033 131.574 215.402 130.142 215.402 127.26C215.402 121.997 217.962 120.887 219.081 120.887C220.456 120.887 221.016 121.835 221.016 123.011C221.016 125.505 219.337 127.677 217.64 129.042V129.033ZM217.46 127.99C218.465 126.814 219.328 125.012 219.328 122.774C219.328 122.262 219.214 122.035 218.958 122.035C218.541 122.035 217.441 123.58 217.441 127.373C217.441 127.601 217.441 127.81 217.46 127.999V127.99Z" fill="#1D0803"/>
<path d="M224.705 124.548C224.354 124.567 224.003 124.595 223.7 124.595C223.605 125.961 223.283 127.345 222.562 128.749C222.258 129.327 221.727 129.138 221.557 128.701C222.088 127.592 222.42 125.98 222.533 124.406C221.832 124.178 221.443 123.619 221.443 122.462C221.443 121.542 222.097 119.664 223.52 120.338C223.614 121.22 223.709 122.073 223.757 122.926C224.847 122.945 226.156 122.765 226.649 122.443C227 122.462 227.322 122.585 227.142 123.201C225.767 127.933 226.26 129.83 226.952 129.83C227.446 129.83 228.005 129.508 228.65 127.933C229.001 127.677 229.579 127.839 229.465 128.256C229.048 129.688 227.834 130.939 226.459 130.939C225.369 130.939 223.804 129.669 224.714 124.539L224.705 124.548Z" fill="#1D0803"/>
<path d="M97.8726 136.741L109.148 142.526L108.607 129.999L97.8726 136.741Z" fill="#DB4726"/>
<path d="M302.264 130.134L300.965 141.987L313.169 134.941L302.264 130.134Z" fill="#DB4726"/>
</svg>
