<svg width="46" height="46" viewBox="0 0 46 46" fill="none" xmlns="http://www.w3.org/2000/svg">
<circle cx="23" cy="23" r="23" fill="#832A16"/>
<path d="M16.176 32V15.92L16.944 16.736H12.216V15.2H17.904V32H16.176ZM26.7679 32.144C25.5679 32.144 24.4239 31.952 23.3359 31.568C22.2479 31.168 21.3839 30.64 20.7439 29.984L21.5839 28.616C22.1119 29.176 22.8319 29.64 23.7439 30.008C24.6719 30.376 25.6719 30.56 26.7439 30.56C28.1679 30.56 29.2479 30.248 29.9839 29.624C30.7359 28.984 31.1119 28.152 31.1119 27.128C31.1119 26.408 30.9359 25.792 30.5839 25.28C30.2479 24.752 29.6719 24.344 28.8559 24.056C28.0399 23.768 26.9199 23.624 25.4959 23.624H21.9199L22.7839 15.2H31.9759V16.736H23.4799L24.3679 15.896L23.6239 22.952L22.7359 22.088H25.8799C27.5759 22.088 28.9359 22.296 29.9599 22.712C30.9839 23.128 31.7199 23.712 32.1679 24.464C32.6319 25.2 32.8639 26.064 32.8639 27.056C32.8639 28 32.6399 28.864 32.1919 29.648C31.7439 30.416 31.0719 31.024 30.1759 31.472C29.2799 31.92 28.1439 32.144 26.7679 32.144Z" fill="#FEFBF6"/>
</svg>
