<svg width="566" height="358" viewBox="0 0 566 358" fill="none" xmlns="http://www.w3.org/2000/svg">
<path d="M563 3H3V353H563V3Z" fill="#438479"/>
<path d="M70.8398 39V131.22" stroke="#FFAC05" stroke-width="3" stroke-miterlimit="10"/>
<path d="M27 84.3594H117.71" stroke="#FFAC05" stroke-width="3" stroke-miterlimit="10"/>
<path d="M59.2617 73.7695L83.4517 96.4495" stroke="#FFAC05" stroke-width="3" stroke-miterlimit="10"/>
<path d="M83.4517 72.2598L59.2617 97.9598" stroke="#FFAC05" stroke-width="3" stroke-miterlimit="10"/>
<path d="M286.181 341.079L203.181 294.039L150.031 94.2793L285.301 134.989L286.181 341.079Z" fill="#80B2A9"/>
<path d="M366.771 282.321L286.181 341.081L285.301 134.991L415.971 89.6406L366.771 282.321Z" fill="#5C988D"/>
<path d="M285.301 134.991L415.971 89.6405L300.361 48.3105L150.031 94.2805L285.301 134.991Z" fill="#B3D1CB"/>
<path d="M340.019 117.331L227.969 70.2706L253.969 62.8906L390.029 98.8906L340.019 117.331Z" fill="#FFC145"/>
<path d="M340.022 117.331L328.352 311.641L343.882 298.971L390.032 98.8906L340.022 117.331Z" fill="#FFAC05"/>
<path d="M230.45 118.92L366.68 71.5204L346.79 64.6504L195.43 107.84L230.45 118.92Z" fill="#FFC145"/>
<path d="M230.45 118.92L245.16 318.01L227.99 308.25L195.43 107.84L230.45 118.92Z" fill="#FFAC05"/>
<path d="M286.36 257.69L179.78 205.77L174.48 186.27L285.44 228.67L286.36 257.69Z" fill="#FFAC05"/>
<path d="M286.361 257.689L387.631 201.089L393.421 176.539L285.441 228.669L286.361 257.689Z" fill="#FFAC05"/>
<path d="M293.741 77.8593C289.994 74.1126 287.184 70.6793 285.311 67.5593C281.341 60.9393 271.991 39.4693 277.821 34.7793C274.071 33.8393 269.331 32.3793 259.091 33.8393C245.981 35.7093 236.621 44.1393 232.871 46.9493C233.811 58.1893 259.091 76.9193 274.071 85.3393L293.741 77.8493V77.8593Z" fill="#FFAC05"/>
<path d="M274.081 85.3506C272.211 77.8606 267.201 70.2106 260.031 61.9406C247.861 47.8906 240.361 48.8306 232.871 46.9606C236.001 44.3906 245.081 36.9706 252.541 34.7906C263.911 31.4706 273.581 33.5806 277.821 34.7906C281.291 39.3706 285.711 46.2506 289.061 55.3906C292.321 64.2906 293.401 72.2106 293.741 77.8606C286.251 80.6706 281.571 82.5406 274.071 85.3506H274.081Z" fill="#FFC145"/>
<path d="M293.92 83.1702C298.113 79.0502 301.26 75.2736 303.36 71.8402C307.81 64.5602 318.29 40.9602 311.75 35.8002C315.95 34.7702 321.26 33.1602 332.73 34.7702C347.42 36.8302 357.91 46.1002 362.1 49.1802C361.05 61.5402 332.73 82.1302 315.94 91.4002L293.91 83.1602L293.92 83.1702Z" fill="#FFAC05"/>
<path d="M315.952 91.4095C318.052 83.1695 323.662 74.7595 331.692 65.6695C345.332 50.2295 353.722 51.2595 362.112 49.1995C358.602 46.3795 348.432 38.2095 340.082 35.8095C327.342 32.1595 316.522 34.4795 311.762 35.8095C307.882 40.8495 302.922 48.4095 299.172 58.4595C295.522 68.2495 294.312 76.9495 293.922 83.1695C302.312 86.2595 307.562 88.3195 315.952 91.4095Z" fill="#FFC145"/>
<path d="M521.551 199.27V257.22" stroke="#FFAC05" stroke-width="2" stroke-miterlimit="10"/>
<path d="M494 227.77H551" stroke="#FFAC05" stroke-width="2" stroke-miterlimit="10"/>
<path d="M514.898 221.119L530.098 235.379" stroke="#FFAC05" stroke-width="2" stroke-miterlimit="10"/>
<path d="M530.098 220.17L514.898 236.32" stroke="#FFAC05" stroke-width="2" stroke-miterlimit="10"/>
<path d="M473.75 33.4707V79.2207" stroke="#FFAC05" stroke-width="2" stroke-miterlimit="10"/>
<path d="M452 55.9707H497" stroke="#FFAC05" stroke-width="2" stroke-miterlimit="10"/>
<path d="M468.5 50.7207L480.5 61.9707" stroke="#FFAC05" stroke-width="2" stroke-miterlimit="10"/>
<path d="M480.5 49.9707L468.5 62.7207" stroke="#FFAC05" stroke-width="2" stroke-miterlimit="10"/>
<g filter="url(#filter0_d_494_14329)">
<path d="M130.962 290.869L96.7717 292.919L87.0117 223.159L130.562 219.689L130.962 290.869Z" fill="#DB4726"/>
</g>
<g filter="url(#filter1_d_494_14329)">
<path d="M183.382 292.44L139.772 294.63L139.012 224.76L172.772 222.74L183.382 292.44Z" fill="#DB4726"/>
</g>
<g filter="url(#filter2_d_494_14329)">
<path d="M225.341 283.92L187.271 285.77L180.031 215.01L225.761 212.27L225.341 283.92Z" fill="#DB4726"/>
</g>
<g filter="url(#filter3_d_494_14329)">
<path d="M278.161 285.04L234.591 288.08L231.141 216.23L267.871 213.6L278.161 285.04Z" fill="#DB4726"/>
</g>
<g filter="url(#filter4_d_494_14329)">
<path d="M320.561 276.919L286.001 279.849L275.711 208.409L318.471 206.279L320.561 276.919Z" fill="#DB4726"/>
</g>
<g filter="url(#filter5_d_494_14329)">
<path d="M374.622 277.11L330.202 280.21L329.762 208.6L364.812 206.5L374.622 277.11Z" fill="#DB4726"/>
</g>
<g filter="url(#filter6_d_494_14329)">
<path d="M421.468 271.731L383.888 274.411L377.898 203.141L424.058 200.381L421.468 271.731Z" fill="#DB4726"/>
</g>
<g filter="url(#filter7_d_494_14329)">
<path d="M478.999 272.57L435.859 275.59L431.629 205.07L468.809 202.84L478.999 272.57Z" fill="#DB4726"/>
</g>
<path d="M104.628 275C104.298 275.02 104.188 274.97 104.168 274.64L104.108 273.6C104.088 273.27 104.188 273.16 104.518 273.14L106.048 272.99C107.138 272.87 107.178 272.54 106.928 268.37L105.228 240.01L103.258 240.13C99.6384 240.35 98.6184 243.49 98.8784 248.7L98.9684 250.29C98.9884 250.62 98.8884 250.79 98.6184 250.81L97.4684 250.88C97.0884 250.9 97.0184 250.74 96.9984 250.41L96.3084 238.84C96.2884 238.51 96.3384 238.34 96.7184 238.32L120.088 236.92C120.418 236.9 120.478 237.06 120.498 237.39L121.188 248.96C121.208 249.29 121.158 249.46 120.838 249.48L119.688 249.55C119.408 249.57 119.298 249.41 119.278 249.08L119.178 247.49C118.758 242.29 117.418 239.28 113.748 239.5L111.828 239.62L113.528 267.98C113.778 272.15 113.848 272.47 114.898 272.47L116.488 272.43C116.818 272.41 116.938 272.51 116.948 272.84L117.008 273.88C117.028 274.21 116.918 274.27 116.588 274.29L104.628 275.01V275Z" fill="black"/>
<path d="M151.249 280.041C150.919 280.061 150.809 280.011 150.789 279.681L150.729 278.641C150.709 278.311 150.819 278.251 151.139 278.181L152.729 278.031C153.769 277.861 153.799 277.581 153.549 273.411L152.109 249.331C151.859 245.161 151.789 244.831 150.739 244.841L149.149 244.881C148.819 244.841 148.699 244.801 148.679 244.471L148.619 243.431C148.599 243.101 148.709 243.041 149.039 243.021L160.999 242.301C161.329 242.281 161.439 242.331 161.459 242.661L161.519 243.701C161.539 244.031 161.429 244.091 161.109 244.161L159.579 244.311C158.489 244.431 158.509 244.761 158.759 248.931L160.199 273.011C160.449 277.181 160.469 277.451 161.569 277.501L163.109 277.461C163.439 277.491 163.559 277.541 163.569 277.871L163.629 278.911C163.649 279.241 163.539 279.301 163.209 279.321L151.249 280.041Z" fill="black"/>
<path d="M194.859 268.43C194.529 268.45 194.419 268.4 194.399 268.07L194.339 267.03C194.319 266.7 194.429 266.64 194.749 266.57L196.339 266.42C197.319 266.3 197.409 265.97 197.159 261.8L195.719 237.72C195.469 233.55 195.339 233.23 194.349 233.23L192.759 233.27C192.429 233.23 192.309 233.19 192.289 232.86L192.229 231.82C192.209 231.49 192.319 231.43 192.649 231.41L205.379 230.65C205.709 230.63 205.819 230.68 205.839 231.01L205.899 232.05C205.919 232.38 205.819 232.5 205.489 232.51L203.129 232.71C202.089 232.83 202.059 233.16 202.309 237.33L204.009 265.69L209.219 265.38C212.949 265.16 214.099 261.45 213.949 254.36C213.929 253.98 214.029 253.86 214.299 253.84L215.449 253.77C215.779 253.75 215.839 253.86 215.859 254.24L216.059 266.67C216.079 267 216.029 267.17 215.649 267.19L194.859 268.44V268.43Z" fill="black"/>
<path d="M243.3 274.219C242.97 274.239 242.86 274.189 242.84 273.859L242.78 272.819C242.76 272.489 242.87 272.429 243.19 272.359L244.78 272.209C245.76 272.089 245.85 271.759 245.6 267.589L244.16 243.509C243.91 239.339 243.78 239.019 242.79 239.019L241.2 239.059C240.87 239.019 240.75 238.979 240.73 238.649L240.67 237.609C240.65 237.279 240.76 237.219 241.09 237.199L253.82 236.439C254.15 236.419 254.26 236.469 254.28 236.799L254.34 237.839C254.36 238.169 254.26 238.289 253.93 238.299L251.57 238.499C250.53 238.619 250.5 238.949 250.75 243.119L252.45 271.479L257.66 271.169C261.39 270.949 262.54 267.239 262.39 260.149C262.37 259.769 262.47 259.649 262.74 259.629L263.89 259.559C264.22 259.539 264.28 259.649 264.3 260.029L264.5 272.459C264.52 272.789 264.47 272.959 264.09 272.979L243.3 274.229V274.219Z" fill="black"/>
<path d="M294.709 262.81C294.379 262.83 294.269 262.78 294.249 262.45L294.189 261.41C294.169 261.08 294.269 260.96 294.599 260.95L296.189 260.8C297.229 260.68 297.319 260.35 297.069 256.18L296.449 245.81L290.569 234.05C287.869 228.49 287.299 228.14 286.249 228.09L285.749 228.07C285.419 228.03 285.299 227.99 285.289 227.66L285.229 226.62C285.209 226.29 285.319 226.23 285.649 226.21L297.549 225.5C297.879 225.48 297.989 225.53 298.009 225.86L298.069 226.9C298.089 227.23 297.979 227.29 297.659 227.36L296.729 227.47C296.179 227.5 295.919 227.79 295.959 228.4C296.009 229.22 296.599 230.73 298.029 233.61L301.829 241.86H301.889L303.639 236.19C304.479 233.61 305.269 231.19 305.149 229.27C305.069 227.84 304.469 227.05 303.419 227.06H302.649C302.319 227.02 302.199 226.97 302.189 226.64L302.129 225.6C302.109 225.27 302.219 225.21 302.549 225.19L311.429 224.66C311.759 224.64 311.869 224.69 311.889 225.02L311.949 226.06C311.969 226.39 311.859 226.45 311.539 226.52L311.159 226.6C310.229 226.77 309.669 227.46 308.719 229.94C307.939 231.58 307.119 233.61 306.369 235.81L303.029 245.2L303.659 255.79C303.909 259.96 303.979 260.28 305.029 260.28L306.619 260.24C306.949 260.22 307.069 260.32 307.079 260.65L307.139 261.69C307.159 262.02 307.049 262.08 306.719 262.1L294.709 262.82V262.81Z" fill="black"/>
<path d="M356.709 267.419C356.329 267.439 356.209 267.339 356.019 266.909L348.449 250.909C347.399 252.619 346.989 254.129 347.129 256.439L347.429 261.489C347.679 265.659 347.759 265.979 348.799 265.979L350.389 265.939C350.719 265.969 350.839 266.019 350.849 266.349L350.909 267.389C350.929 267.719 350.819 267.779 350.489 267.799L338.479 268.519C338.149 268.539 338.089 268.489 338.069 268.159L338.009 267.119C337.989 266.789 338.039 266.729 338.369 266.659L339.959 266.509C340.999 266.389 341.029 266.059 340.779 261.889L339.339 237.809C339.089 233.639 339.009 233.309 337.969 233.319L336.429 233.359C336.099 233.319 335.979 233.279 335.969 232.949L335.909 231.909C335.889 231.579 335.999 231.519 336.329 231.499L348.289 230.779C348.619 230.759 348.729 230.809 348.749 231.139L348.809 232.179C348.829 232.509 348.719 232.569 348.399 232.639L346.809 232.789C345.769 232.909 345.739 233.239 345.989 237.409L346.749 250.129H346.799C347.449 248.159 349.009 245.589 352.699 239.309C353.779 237.209 354.729 235.439 354.639 234.019C354.569 232.919 354.098 232.399 353.108 232.409H352.119C351.789 232.379 351.729 232.329 351.709 231.999L351.649 230.959C351.629 230.629 351.679 230.569 352.009 230.549L362.159 229.939C362.489 229.919 362.599 229.969 362.619 230.299L362.679 231.339C362.699 231.669 362.589 231.729 362.269 231.799L361.608 231.889C359.479 232.239 358.779 233.269 356.239 237.829L352.589 243.939L360.149 259.829C362.299 264.439 362.659 264.959 363.879 265.059L364.429 265.079C364.759 265.119 364.819 265.169 364.839 265.499L364.899 266.539C364.919 266.869 364.869 266.929 364.539 266.949L356.699 267.419H356.709Z" fill="black"/>
<path d="M408.219 256.8C407.839 256.82 407.719 256.72 407.529 256.29L399.959 240.29C398.909 242 398.499 243.52 398.639 245.82L398.939 250.87C399.189 255.04 399.269 255.36 400.309 255.36L401.899 255.32C402.229 255.36 402.339 255.4 402.359 255.73L402.419 256.77C402.439 257.1 402.329 257.16 401.999 257.18L389.989 257.9C389.659 257.92 389.599 257.87 389.579 257.54L389.519 256.5C389.499 256.17 389.549 256.11 389.879 256.04L391.469 255.89C392.509 255.77 392.539 255.44 392.289 251.27L390.849 227.19C390.599 223.02 390.529 222.69 389.479 222.7L387.939 222.74C387.609 222.7 387.489 222.66 387.469 222.33L387.409 221.29C387.389 220.96 387.499 220.9 387.829 220.88L399.789 220.16C400.119 220.14 400.229 220.19 400.249 220.52L400.309 221.56C400.329 221.89 400.219 221.95 399.899 222.02L398.309 222.17C397.269 222.29 397.239 222.62 397.489 226.79L398.249 239.51H398.299C398.949 237.54 400.509 234.97 404.199 228.69C405.279 226.59 406.219 224.83 406.139 223.4C406.069 222.3 405.598 221.78 404.608 221.79H403.619C403.289 221.76 403.229 221.71 403.209 221.38L403.149 220.34C403.129 220.01 403.179 219.95 403.509 219.93L413.659 219.32C413.989 219.3 414.099 219.35 414.119 219.68L414.179 220.72C414.199 221.05 414.089 221.11 413.769 221.18L413.108 221.27C410.979 221.62 410.279 222.65 407.739 227.21L404.089 233.32L411.649 249.21C413.799 253.81 414.159 254.34 415.379 254.44L415.929 254.46C416.259 254.5 416.319 254.55 416.339 254.88L416.399 255.92C416.419 256.25 416.369 256.31 416.039 256.33L408.199 256.8H408.219Z" fill="black"/>
<path d="M442.25 259.391C441.92 259.411 441.86 259.361 441.84 259.031L441.78 257.991C441.76 257.661 441.81 257.551 442.14 257.531L443.73 257.381C444.77 257.261 444.86 256.931 444.61 252.761L443.17 228.681C442.92 224.511 442.79 224.191 441.75 224.201L440.21 224.241C439.88 224.201 439.76 224.161 439.75 223.831L439.69 222.791C439.67 222.461 439.78 222.401 440.11 222.381L459.64 221.211C460.02 221.191 460.09 221.351 460.11 221.681L460.75 232.321C460.77 232.701 460.72 232.821 460.34 232.841L459.19 232.911C458.92 232.931 458.86 232.821 458.78 232.441L458.74 231.731C458.27 226.581 456.98 223.581 453.36 223.801L449.52 224.031L450.39 238.461L452.2 238.351C454.39 238.221 455 236.421 454.95 233.731L454.97 233.231C454.95 232.851 455 232.731 455.32 232.711L456.31 232.651C456.69 232.631 456.76 232.791 456.78 233.121L457.51 245.301C457.53 245.681 457.48 245.801 457.1 245.821L456.11 245.881C455.78 245.901 455.72 245.791 455.7 245.411L455.6 244.651C455.39 242.021 454.51 240.311 452.32 240.441L450.51 240.551L451.48 256.671L456.96 256.341C460.8 256.111 461.6 252.041 461.66 247.531L461.69 247.031C461.73 246.701 461.77 246.531 462.04 246.511L463.19 246.441C463.57 246.421 463.64 246.581 463.66 246.911L463.81 257.631C463.83 257.961 463.78 258.131 463.4 258.151L442.28 259.421L442.25 259.391Z" fill="black"/>
<defs>
<filter id="filter0_d_494_14329" x="75.0117" y="211.689" width="63.9492" height="93.2305" filterUnits="userSpaceOnUse" color-interpolation-filters="sRGB">
<feFlood flood-opacity="0" result="BackgroundImageFix"/>
<feColorMatrix in="SourceAlpha" type="matrix" values="0 0 0 0 0 0 0 0 0 0 0 0 0 0 0 0 0 0 127 0" result="hardAlpha"/>
<feOffset dx="-2" dy="2"/>
<feGaussianBlur stdDeviation="5"/>
<feColorMatrix type="matrix" values="0 0 0 0 0 0 0 0 0 0 0 0 0 0 0 0 0 0 0.08 0"/>
<feBlend mode="normal" in2="BackgroundImageFix" result="effect1_dropShadow_494_14329"/>
<feBlend mode="normal" in="SourceGraphic" in2="effect1_dropShadow_494_14329" result="shape"/>
</filter>
<filter id="filter1_d_494_14329" x="127.012" y="214.74" width="64.3711" height="91.8906" filterUnits="userSpaceOnUse" color-interpolation-filters="sRGB">
<feFlood flood-opacity="0" result="BackgroundImageFix"/>
<feColorMatrix in="SourceAlpha" type="matrix" values="0 0 0 0 0 0 0 0 0 0 0 0 0 0 0 0 0 0 127 0" result="hardAlpha"/>
<feOffset dx="-2" dy="2"/>
<feGaussianBlur stdDeviation="5"/>
<feColorMatrix type="matrix" values="0 0 0 0 0 0 0 0 0 0 0 0 0 0 0 0 0 0 0.08 0"/>
<feBlend mode="normal" in2="BackgroundImageFix" result="effect1_dropShadow_494_14329"/>
<feBlend mode="normal" in="SourceGraphic" in2="effect1_dropShadow_494_14329" result="shape"/>
</filter>
<filter id="filter2_d_494_14329" x="168.031" y="204.27" width="65.7305" height="93.5" filterUnits="userSpaceOnUse" color-interpolation-filters="sRGB">
<feFlood flood-opacity="0" result="BackgroundImageFix"/>
<feColorMatrix in="SourceAlpha" type="matrix" values="0 0 0 0 0 0 0 0 0 0 0 0 0 0 0 0 0 0 127 0" result="hardAlpha"/>
<feOffset dx="-2" dy="2"/>
<feGaussianBlur stdDeviation="5"/>
<feColorMatrix type="matrix" values="0 0 0 0 0 0 0 0 0 0 0 0 0 0 0 0 0 0 0.08 0"/>
<feBlend mode="normal" in2="BackgroundImageFix" result="effect1_dropShadow_494_14329"/>
<feBlend mode="normal" in="SourceGraphic" in2="effect1_dropShadow_494_14329" result="shape"/>
</filter>
<filter id="filter3_d_494_14329" x="219.141" y="205.6" width="67.0195" height="94.4805" filterUnits="userSpaceOnUse" color-interpolation-filters="sRGB">
<feFlood flood-opacity="0" result="BackgroundImageFix"/>
<feColorMatrix in="SourceAlpha" type="matrix" values="0 0 0 0 0 0 0 0 0 0 0 0 0 0 0 0 0 0 127 0" result="hardAlpha"/>
<feOffset dx="-2" dy="2"/>
<feGaussianBlur stdDeviation="5"/>
<feColorMatrix type="matrix" values="0 0 0 0 0 0 0 0 0 0 0 0 0 0 0 0 0 0 0.08 0"/>
<feBlend mode="normal" in2="BackgroundImageFix" result="effect1_dropShadow_494_14329"/>
<feBlend mode="normal" in="SourceGraphic" in2="effect1_dropShadow_494_14329" result="shape"/>
</filter>
<filter id="filter4_d_494_14329" x="263.711" y="198.279" width="64.8516" height="93.5703" filterUnits="userSpaceOnUse" color-interpolation-filters="sRGB">
<feFlood flood-opacity="0" result="BackgroundImageFix"/>
<feColorMatrix in="SourceAlpha" type="matrix" values="0 0 0 0 0 0 0 0 0 0 0 0 0 0 0 0 0 0 127 0" result="hardAlpha"/>
<feOffset dx="-2" dy="2"/>
<feGaussianBlur stdDeviation="5"/>
<feColorMatrix type="matrix" values="0 0 0 0 0 0 0 0 0 0 0 0 0 0 0 0 0 0 0.08 0"/>
<feBlend mode="normal" in2="BackgroundImageFix" result="effect1_dropShadow_494_14329"/>
<feBlend mode="normal" in="SourceGraphic" in2="effect1_dropShadow_494_14329" result="shape"/>
</filter>
<filter id="filter5_d_494_14329" x="317.762" y="198.5" width="64.8594" height="93.7109" filterUnits="userSpaceOnUse" color-interpolation-filters="sRGB">
<feFlood flood-opacity="0" result="BackgroundImageFix"/>
<feColorMatrix in="SourceAlpha" type="matrix" values="0 0 0 0 0 0 0 0 0 0 0 0 0 0 0 0 0 0 127 0" result="hardAlpha"/>
<feOffset dx="-2" dy="2"/>
<feGaussianBlur stdDeviation="5"/>
<feColorMatrix type="matrix" values="0 0 0 0 0 0 0 0 0 0 0 0 0 0 0 0 0 0 0.08 0"/>
<feBlend mode="normal" in2="BackgroundImageFix" result="effect1_dropShadow_494_14329"/>
<feBlend mode="normal" in="SourceGraphic" in2="effect1_dropShadow_494_14329" result="shape"/>
</filter>
<filter id="filter6_d_494_14329" x="365.898" y="192.381" width="66.1602" height="94.0293" filterUnits="userSpaceOnUse" color-interpolation-filters="sRGB">
<feFlood flood-opacity="0" result="BackgroundImageFix"/>
<feColorMatrix in="SourceAlpha" type="matrix" values="0 0 0 0 0 0 0 0 0 0 0 0 0 0 0 0 0 0 127 0" result="hardAlpha"/>
<feOffset dx="-2" dy="2"/>
<feGaussianBlur stdDeviation="5"/>
<feColorMatrix type="matrix" values="0 0 0 0 0 0 0 0 0 0 0 0 0 0 0 0 0 0 0.08 0"/>
<feBlend mode="normal" in2="BackgroundImageFix" result="effect1_dropShadow_494_14329"/>
<feBlend mode="normal" in="SourceGraphic" in2="effect1_dropShadow_494_14329" result="shape"/>
</filter>
<filter id="filter7_d_494_14329" x="419.629" y="194.84" width="67.3711" height="92.75" filterUnits="userSpaceOnUse" color-interpolation-filters="sRGB">
<feFlood flood-opacity="0" result="BackgroundImageFix"/>
<feColorMatrix in="SourceAlpha" type="matrix" values="0 0 0 0 0 0 0 0 0 0 0 0 0 0 0 0 0 0 127 0" result="hardAlpha"/>
<feOffset dx="-2" dy="2"/>
<feGaussianBlur stdDeviation="5"/>
<feColorMatrix type="matrix" values="0 0 0 0 0 0 0 0 0 0 0 0 0 0 0 0 0 0 0.08 0"/>
<feBlend mode="normal" in2="BackgroundImageFix" result="effect1_dropShadow_494_14329"/>
<feBlend mode="normal" in="SourceGraphic" in2="effect1_dropShadow_494_14329" result="shape"/>
</filter>
</defs>
</svg>
