<svg width="393" height="852" viewBox="0 0 393 852" fill="none" xmlns="http://www.w3.org/2000/svg">
<g clip-path="url(#clip0_357_8587)">
<path d="M393 0H0V852H393V0Z" fill="#FCF7ED"/>
<g filter="url(#filter0_d_357_8587)">
<path d="M388 77L369 807L69 831L15 92L388 77Z" fill="#FFAC05"/>
</g>
<g filter="url(#filter1_d_357_8587)">
<path d="M359 31L336 760L36 783L15 91L359 31Z" fill="#5C988D"/>
</g>
<path d="M217 673L34 709L27 514L230 633L217 673Z" fill="#B3D1CB"/>
<path d="M112.58 427.05C113.94 426.28 114.95 426.63 114.65 427.63C113.65 431.21 111.36 434.59 108.06 434.93C101.4 435.63 99.7502 427.07 100.8 409.86C98.1802 417.15 95.7702 426.98 93.4702 435.2C90.1002 437.09 88.5702 436.74 88.6202 434.51C88.7202 429.99 89.0202 411.09 88.7002 401.6C85.5702 412.19 82.8102 425.82 80.8702 435.72C78.9802 437.97 76.0302 438.91 75.9902 436.34L75.9302 402.07C75.9402 400.02 75.3102 399.51 73.6302 399.91L64.0802 402.05C62.2902 402.52 62.1902 399.97 63.6402 398.45L77.8302 396.63C79.5302 396.4 81.6902 397.2 81.5702 399.89C81.2502 407.22 80.9002 415.87 80.7602 425.41C82.9702 414.23 85.0802 402.6 87.7502 394.17C88.3602 392.28 91.5402 393.03 94.3102 395.25L93.6002 426C95.3902 416.29 98.8902 404.75 99.9402 402.81C100.94 400.88 104.25 403.27 106.28 406.71C104.76 417.36 104.93 432.51 108.91 432.1C110.11 431.98 111.39 431.04 112.58 427.04V427.05Z" fill="black"/>
<path d="M118.201 429.149C119.211 431.669 120.891 432.799 122.711 432.609C125.331 432.339 127.481 428.749 128.501 424.249C129.841 423.309 130.721 424.079 130.681 424.709C130.401 428.559 126.601 434.549 121.821 435.039C117.381 435.499 113.031 432.419 112.281 425.369C110.921 412.509 116.891 409.149 119.621 408.859C122.981 408.509 124.591 410.679 124.891 413.559C125.531 419.649 122.001 425.379 118.201 429.139V429.149ZM117.471 426.659C119.611 423.529 121.251 418.909 120.671 413.439C120.541 412.199 120.201 411.669 119.571 411.729C118.551 411.839 116.271 415.899 117.251 425.149C117.311 425.709 117.361 426.219 117.471 426.669V426.659Z" fill="black"/>
<path d="M134.281 416.4C133.431 416.55 132.591 416.69 131.851 416.77C131.971 420.12 131.541 423.59 130.141 427.21C129.551 428.7 128.191 428.38 127.681 427.35C128.701 424.51 129.081 420.47 128.961 416.61C127.191 416.22 126.081 414.97 125.781 412.15C125.541 409.89 126.651 405.16 130.291 406.43C130.751 408.55 131.191 410.61 131.531 412.69C134.211 412.47 137.351 411.68 138.461 410.77C139.321 410.74 140.151 410.94 139.851 412.51C137.721 424.42 139.401 428.92 141.111 428.74C142.311 428.62 143.591 427.68 144.781 423.68C145.571 422.97 147.031 423.22 146.851 424.26C146.201 427.86 143.561 431.22 140.201 431.57C137.531 431.85 133.381 429.15 134.281 416.39V416.4Z" fill="black"/>
<path d="M150.388 425.78C151.398 428.3 153.078 429.43 154.898 429.24C157.518 428.97 159.668 425.38 160.688 420.88C162.028 419.94 162.908 420.71 162.868 421.34C162.588 425.19 158.788 431.18 154.008 431.67C149.568 432.13 145.218 429.05 144.468 422C143.108 409.14 149.078 405.78 151.808 405.49C155.168 405.14 156.778 407.31 157.078 410.19C157.718 416.28 154.188 422.01 150.388 425.77V425.78ZM149.668 423.29C151.808 420.16 153.448 415.54 152.868 410.07C152.738 408.83 152.398 408.29 151.768 408.36C150.748 408.47 148.468 412.53 149.448 421.78C149.508 422.34 149.558 422.85 149.668 423.3V423.29Z" fill="black"/>
<path d="M176.111 423.101C177.121 425.621 178.801 426.751 180.621 426.561C183.241 426.291 185.391 422.701 186.411 418.201C187.751 417.261 188.631 418.021 188.591 418.661C188.311 422.511 184.511 428.491 179.731 428.991C175.291 429.451 170.941 426.371 170.191 419.321C168.831 406.461 174.801 403.101 177.531 402.811C180.891 402.461 182.501 404.631 182.801 407.511C183.441 413.601 179.911 419.331 176.111 423.091V423.101ZM175.381 420.611C177.521 417.481 179.161 412.861 178.581 407.391C178.451 406.151 178.111 405.611 177.481 405.681C176.461 405.791 174.181 409.851 175.161 419.101C175.221 419.661 175.271 420.171 175.381 420.621V420.611Z" fill="black"/>
<path d="M195.14 408.96C193.46 413.75 191.79 419.17 189.97 425.87C187.13 427.25 185.82 426.36 185.66 424.84C185.29 420.83 185.19 412.23 185.42 404.11L187.37 402.99C189.21 401.94 190.77 402.52 190.69 403.95C190.42 408.43 189.31 415.39 189.22 421.04C191.56 412.18 193.06 407.87 195.15 402.63C195.83 400.91 198.13 400.38 200.57 402.75C198.89 418.38 200.71 422.52 202.3 422.36C203.49 422.24 204.78 421.3 205.96 417.3C206.75 416.59 208.21 416.84 208.03 417.88C207.38 421.48 204.74 424.84 201.38 425.19C196.94 425.65 194.68 418.99 195.12 408.96H195.14Z" fill="black"/>
<path d="M221.639 384.35C222.609 393.49 222.239 403.56 220.469 411.33C221.069 417.54 221.709 420.32 222.619 420.23C223.809 420.11 225.099 419.17 226.279 415.17C227.069 414.46 228.529 414.71 228.349 415.75C227.699 419.35 225.059 422.71 221.699 423.06C219.989 423.24 218.789 421.65 217.959 418.72C216.389 421.85 214.349 423.77 211.909 424.09C208.609 424.43 205.829 419.93 205.239 414.29C204.559 407.86 207.069 400.58 211.559 400.11C213.779 399.88 215.099 400.37 216.309 400.98C216.179 395.97 216.199 390.16 216.239 383.99C220.229 380.38 221.309 381.35 221.629 384.34L221.639 384.35ZM216.389 403.21C215.439 402.97 214.569 402.89 213.609 402.99C209.169 403.45 209.859 421.35 213.039 421.01C215.259 420.78 216.349 416.44 216.679 409.79C216.529 407.81 216.469 405.59 216.389 403.21Z" fill="black"/>
<path d="M243.439 399.58C242.979 397.97 244.209 396.53 246.049 396C248.919 399.75 251.439 399.66 254.339 397.7C254.659 397.5 255.039 397.8 255.139 398.19C255.459 399.58 251.429 401.71 249.119 401.61C250.059 408.81 247.539 420.36 241.789 420.97C234.509 421.73 233.449 402 237.069 381.83C239.119 380.02 243.089 378.92 242.639 381.7C237.909 408.77 240.549 418.42 242.589 418.2C245.609 417.88 246.009 410.26 243.439 399.58Z" fill="black"/>
<path d="M272.709 410.32C273.499 409.61 274.959 409.86 274.789 410.9C274.139 414.5 271.499 417.86 268.149 418.27C266.729 418.42 264.789 418.05 263.669 415.09C262.269 418.14 260.749 418.99 258.929 419.18C254.829 419.61 252.689 415.67 252.169 410.71C251.479 404.17 254.229 395.9 261.449 395.14C263.899 394.89 267.139 396.14 266.779 399.83C267.379 400.11 267.889 401.08 267.499 403.35C266.229 410.38 266.499 415.66 269.059 415.39C270.259 415.27 271.539 414.33 272.719 410.33L272.709 410.32ZM260.749 397.94C257.619 398.27 256.709 406 257.279 411.36C257.599 414.35 258.459 416.54 259.659 416.41C261.309 416.24 262.889 413.22 262.679 404.18C261.799 404.04 261.469 403.68 261.439 402.77C262.659 401.22 263.029 397.7 260.759 397.94H260.749Z" fill="black"/>
<path d="M278.648 401.32C277.798 401.47 276.958 401.61 276.218 401.69C276.338 405.04 275.908 408.51 274.508 412.13C273.918 413.62 272.558 413.3 272.048 412.27C273.068 409.43 273.448 405.39 273.328 401.53C271.558 401.14 270.448 399.89 270.148 397.07C269.908 394.81 271.018 390.08 274.658 391.35C275.118 393.47 275.558 395.53 275.898 397.61C278.578 397.39 281.718 396.6 282.828 395.69C283.688 395.66 284.518 395.86 284.218 397.43C282.088 409.34 283.768 413.84 285.478 413.66C286.678 413.54 287.958 412.6 289.138 408.6C289.928 407.89 291.388 408.14 291.218 409.18C290.568 412.78 287.928 416.14 284.568 416.49C281.898 416.77 277.748 414.07 278.648 401.31V401.32Z" fill="black"/>
<path d="M294.771 410.7C295.781 413.22 297.461 414.35 299.281 414.16C301.901 413.89 304.051 410.3 305.071 405.8C306.411 404.86 307.291 405.62 307.251 406.26C306.971 410.11 303.171 416.1 298.391 416.6C293.951 417.06 289.601 413.98 288.851 406.93C287.491 394.07 293.461 390.71 296.191 390.42C299.551 390.07 301.161 392.24 301.461 395.12C302.101 401.21 298.571 406.94 294.771 410.7ZM294.051 408.21C296.191 405.08 297.831 400.46 297.251 394.99C297.121 393.75 296.771 393.21 296.151 393.28C295.131 393.39 292.851 397.45 293.831 406.7C293.891 407.26 293.941 407.77 294.051 408.22V408.21Z" fill="black"/>
<path d="M61.1409 502.53C60.7709 502.57 60.7009 502.51 60.6709 502.15L60.5509 500.99C60.5109 500.62 60.5509 500.5 60.9309 500.46L62.7109 500.21C63.8709 500.03 63.9609 499.65 63.4709 495.01L60.6509 468.26C60.1609 463.63 60.0009 463.28 58.8309 463.34L57.1009 463.46C56.7209 463.44 56.6009 463.39 56.5609 463.02L56.4409 461.86C56.4009 461.49 56.5209 461.42 56.8909 461.38L78.7809 459.08C79.2109 459.04 79.2909 459.21 79.3309 459.58L80.5809 471.4C80.6209 471.83 80.5809 471.96 80.1509 472L78.8609 472.14C78.5509 472.17 78.4809 472.06 78.3709 471.64L78.2909 470.85C77.5009 465.14 75.9109 461.86 71.8509 462.28L67.5509 462.73L69.2409 478.76L71.2709 478.55C73.7309 478.29 74.3209 476.26 74.1309 473.26V472.71C74.0909 472.28 74.1309 472.16 74.5109 472.12L75.6209 472C76.0509 471.96 76.1309 472.13 76.1709 472.5L77.6009 486.03C77.6409 486.46 77.6009 486.58 77.1709 486.63L76.0609 486.75C75.6909 486.79 75.6209 486.67 75.5709 486.25L75.4209 485.4C75.0509 482.48 73.9809 480.62 71.5209 480.88L69.4909 481.09L71.3809 499.01L77.5309 498.37C81.8309 497.92 82.5309 493.35 82.3709 488.31V487.76C82.4009 487.39 82.4409 487.2 82.7509 487.17L84.0409 487.03C84.4709 486.99 84.5509 487.16 84.5909 487.53L85.2909 499.47C85.3309 499.84 85.2909 500.03 84.8509 500.07L61.1809 502.55L61.1409 502.53Z" fill="black"/>
<path d="M111.27 498.07C111.02 498.1 110.89 497.99 110.67 497.7L91.4701 467.67H91.4101L93.1701 484.37C94.2701 494.79 95.7601 496.61 98.4801 496.44L99.9001 496.35C100.28 496.37 100.4 496.42 100.44 496.79L100.56 497.95C100.6 498.32 100.48 498.39 100.11 498.43L88.3701 499.66C88.0001 499.7 87.8701 499.66 87.8301 499.28L87.7101 498.12C87.6701 497.75 87.7901 497.68 88.1501 497.58L88.8201 497.45C90.6501 497.13 91.4201 495.02 90.3301 484.66L88.3101 465.46C87.8101 460.77 87.5901 460.42 86.4801 460.48L84.5601 460.56C84.1901 460.6 84.0601 460.56 84.0201 460.19L83.8901 458.97C83.8501 458.6 83.9701 458.53 84.3401 458.49L93.5001 457.53C93.8701 457.49 94.0001 457.6 94.2301 457.95L110.75 484.37H110.87L109.42 470.65C108.32 460.23 106.77 458.48 104.11 458.58L102.69 458.67C102.31 458.65 102.18 458.6 102.15 458.23L102.03 457.07C101.99 456.7 102.11 456.63 102.48 456.59L114.1 455.37C114.47 455.33 114.6 455.37 114.64 455.75L114.76 456.91C114.8 457.28 114.68 457.35 114.32 457.45L113.65 457.58C111.89 457.95 111.11 460 112.2 470.36L115.03 497.24C115.06 497.54 114.95 497.68 114.58 497.72L111.26 498.07H111.27Z" fill="black"/>
<path d="M147.208 493.501L132.518 495.041C132.148 495.081 132.078 495.021 132.048 494.661L131.928 493.501C131.888 493.131 131.948 493.071 132.308 492.971L134.088 492.721C135.248 492.541 135.338 492.161 134.848 487.521L132.028 460.771C131.538 456.141 131.378 455.791 130.198 455.851L128.468 455.971C128.088 455.951 127.968 455.901 127.928 455.531L127.808 454.371C127.768 454.001 127.888 453.931 128.258 453.891L142.648 452.381C148.178 451.801 154.418 453.181 155.238 460.921C155.798 466.221 152.628 469.761 147.818 471.311V471.431C153.158 471.241 158.298 473.411 159.028 480.361C159.958 489.141 153.568 492.831 147.238 493.491L147.208 493.501ZM141.338 454.991L138.878 455.251L140.578 471.401L143.098 471.141C146.788 470.751 148.278 468.381 147.638 462.341C146.958 455.881 144.898 454.621 141.328 454.991H141.338ZM143.298 473.581L140.838 473.841L142.698 491.511L146.078 491.161C150.008 490.751 151.668 488.171 150.978 481.651C150.268 474.951 148.018 473.091 143.288 473.581H143.298Z" fill="black"/>
<path d="M163.25 491.821C162.88 491.861 162.75 491.821 162.71 491.441L162.59 490.281C162.55 489.911 162.67 489.841 163.03 489.741L164.81 489.491C165.97 489.241 166 488.931 165.51 484.301L162.69 457.551C162.2 452.921 162.1 452.561 160.93 452.621L159.14 452.741C158.76 452.721 158.64 452.671 158.6 452.301L158.48 451.141C158.44 450.771 158.56 450.701 158.93 450.661L172.33 449.251C172.7 449.211 172.83 449.251 172.87 449.631L172.99 450.791C173.03 451.161 172.91 451.231 172.55 451.331L170.84 451.571C169.62 451.761 169.66 452.131 170.14 456.761L172.96 483.511C173.45 488.141 173.48 488.451 174.72 488.441L176.45 488.321C176.83 488.341 176.95 488.391 176.99 488.761L177.11 489.921C177.15 490.291 177.03 490.361 176.66 490.401L163.26 491.811L163.25 491.821Z" fill="black"/>
<path d="M194.691 489.32C185.221 490.31 178.921 483.03 177.581 470.29C176.211 457.31 181.031 447.56 190.621 446.56C200.091 445.57 206.391 452.85 207.731 465.59C209.101 478.57 204.281 488.32 194.691 489.32ZM190.681 448.95C184.591 449.59 184.451 457.67 185.671 469.25C186.791 479.85 188.471 487.57 194.621 486.92C200.771 486.28 200.851 478.19 199.631 466.62C198.511 456.02 196.831 448.3 190.681 448.95Z" fill="black"/>
<path d="M239.328 484.2C238.958 484.24 238.888 484.12 238.658 483.78L237.768 482.4H237.648C235.688 483.85 232.548 485.35 229.048 485.72C219.398 486.73 213.128 479.13 211.778 466.4C210.398 453.3 214.888 444.02 225.278 442.93C228.348 442.61 231.088 443.18 232.858 444.04L232.948 443.17C232.968 442.8 233.018 442.61 233.448 442.56L234.248 442.48C234.678 442.44 234.758 442.61 234.798 442.98L236.138 455.72C236.178 456.09 236.128 456.22 235.698 456.26L234.468 456.39C234.158 456.42 234.028 456.31 233.988 455.95L233.828 454.98C233.168 449.87 230.378 444.68 225.828 445.16C219.188 445.86 218.528 452.58 219.898 465.56C221.298 478.78 223.708 483.95 229.048 483.39C230.708 483.22 232.178 482.45 233.258 481.47L232.578 475.01C232.088 470.38 231.988 470.02 230.818 470.08L227.788 470.28C227.418 470.32 227.288 470.27 227.248 469.9L227.128 468.74C227.088 468.37 227.208 468.3 227.578 468.26L241.538 466.8C241.908 466.76 241.978 466.82 242.008 467.18L242.128 468.34C242.168 468.71 242.108 468.77 241.748 468.81L240.288 469.09C239.128 469.33 239.038 469.65 239.528 474.28L240.508 483.6C240.548 483.97 240.508 484.09 240.068 484.14L239.328 484.22V484.2Z" fill="black"/>
<path d="M260.99 459.75V459.87C265.86 460.59 268.48 463.03 269.53 470.56C270.45 476.93 271.17 478.46 272.46 478.32C273.2 478.24 273.51 477.1 273.53 475.5C273.56 475.19 273.67 475.05 274.04 475.08L274.8 475.25C275.11 475.28 275.2 475.46 275.17 475.83C275.17 479.4 273.36 481.07 270.41 481.38C265.18 481.93 263.26 477.88 262.13 471.28C260.96 463.76 259.52 461.26 256.38 461.59L253.86 461.85L255.24 474.89C255.73 479.52 255.77 479.89 257 479.82L258.79 479.69C259.16 479.65 259.23 479.77 259.27 480.13L259.39 481.29C259.43 481.66 259.37 481.72 259 481.76L245.54 483.17C245.17 483.21 245.1 483.15 245.06 482.79L244.94 481.63C244.9 481.26 244.95 481.14 245.32 481.1L247.1 480.85C248.26 480.67 248.35 480.29 247.86 475.65L245.04 448.9C244.55 444.27 244.39 443.92 243.21 443.98L241.48 444.1C241.11 444.08 240.98 444.03 240.94 443.66L240.82 442.5C240.78 442.13 240.9 442.06 241.27 442.02L255.9 440.48C262.36 439.8 267.78 441.76 268.55 449.07C269.12 454.49 266.03 458.21 260.97 459.72L260.99 459.75ZM254.58 443.11L251.94 443.39L253.64 459.48L256.35 459.2C260.04 458.81 261.51 456.25 260.89 450.41C260.22 444.01 258.16 442.75 254.59 443.12L254.58 443.11Z" fill="black"/>
<path d="M293.821 478.12C293.451 478.16 293.321 478.11 293.281 477.74L293.161 476.58C293.121 476.21 293.241 476.14 293.601 476.04L294.821 475.85C295.671 475.7 296.211 475.46 296.091 474.3C295.981 473.26 295.501 471.65 294.401 468.93L292.601 463.64L283.381 464.61L283.271 465.36C282.851 467.87 282.551 470.92 282.801 473.3C283.041 475.62 283.921 476.88 285.351 476.85L286.401 476.8C286.771 476.82 286.901 476.87 286.941 477.24L287.061 478.4C287.101 478.77 286.981 478.84 286.611 478.88L276.531 479.94C276.161 479.98 276.031 479.94 275.991 479.56L275.871 478.4C275.831 478.03 275.951 477.96 276.311 477.86L276.791 477.75C278.001 477.44 278.351 476.6 279.031 473.08C279.451 471.13 280.031 467.86 280.491 465.1L285.251 437.12C285.271 436.75 285.321 436.62 285.691 436.58L289.321 436.2C289.691 436.16 289.761 436.22 289.931 436.63L302.391 468.1C304.781 474.26 305.131 474.65 306.441 474.64L307.251 474.62C307.631 474.64 307.751 474.69 307.791 475.06L307.911 476.22C307.951 476.59 307.831 476.66 307.461 476.7L293.811 478.13L293.821 478.12ZM286.261 447.05H286.201L283.871 462.09L291.621 461.28L286.271 447.05H286.261Z" fill="black"/>
<path d="M309.739 476.45C309.369 476.49 309.299 476.43 309.269 476.07L309.149 474.91C309.109 474.54 309.149 474.42 309.529 474.38L311.309 474.13C312.469 473.95 312.559 473.57 312.069 468.93L309.249 442.18C308.759 437.55 308.599 437.2 307.429 437.26L305.699 437.38C305.319 437.36 305.199 437.31 305.159 436.94L305.039 435.78C304.999 435.41 305.119 435.34 305.489 435.3L327.379 433C327.809 432.96 327.889 433.13 327.929 433.5L329.299 446.48C329.339 446.85 329.299 447.03 328.869 447.08L327.579 447.22C327.269 447.25 327.129 447.08 327.089 446.72L326.889 444.83C326.219 439.05 324.509 435.78 320.449 436.2L316.149 436.65L317.969 453.9L319.999 453.69C322.519 453.43 323.049 451.4 322.859 448.4V447.85C322.819 447.42 322.859 447.3 323.239 447.26L324.349 447.14C324.779 447.1 324.849 447.21 324.899 447.64L326.389 461.72C326.429 462.15 326.389 462.27 325.959 462.32L324.849 462.44C324.479 462.48 324.409 462.36 324.359 461.94L324.149 460.54C323.839 457.55 322.779 455.75 320.249 456.02L318.219 456.23L319.479 468.17C319.969 472.8 320.069 473.16 321.239 473.1L324.069 472.86C324.439 472.82 324.569 472.93 324.609 473.3L324.729 474.46C324.769 474.83 324.649 474.9 324.279 474.94L309.769 476.46L309.739 476.45Z" fill="black"/>
<path d="M81.3914 534.951L80.7114 528.511L79.5614 528.631L79.4414 527.491L80.5914 527.371L80.3714 525.241C80.2314 523.921 80.9914 522.921 82.2514 522.781C82.3514 522.771 82.5114 522.771 82.6614 522.821L82.7814 523.931C82.6714 523.911 82.5714 523.921 82.5014 523.931C81.8914 523.991 81.4614 524.481 81.5314 525.121L81.7514 527.251L83.1114 527.111L83.2314 528.251L81.8714 528.391L82.5514 534.831L81.4014 534.951H81.3914Z" fill="black"/>
<path d="M84.3812 530.8C84.1512 528.58 85.7712 526.57 87.9112 526.35C88.8212 526.25 89.6012 526.47 90.2512 526.91L90.1912 526.36L91.3312 526.24L92.1312 533.82L90.9912 533.94L90.9312 533.39C90.3912 533.96 89.6712 534.33 88.7612 534.42C86.6312 534.64 84.6212 533.03 84.3912 530.8H84.3812ZM90.7812 532.12L90.3612 528.15C89.7412 527.66 88.9712 527.37 88.1312 527.46C86.5212 527.63 85.3312 529.08 85.5012 530.68C85.6712 532.27 87.1312 533.43 88.7412 533.26C89.5812 533.17 90.2812 532.75 90.7712 532.12H90.7812Z" fill="black"/>
<path d="M94.3781 533.581L93.5781 526.001L94.7081 525.881L94.7781 526.501C95.0981 525.991 95.7181 525.531 96.5381 525.441C97.8181 525.311 98.9081 526.151 99.0781 527.731L99.6381 533.031L98.4981 533.151L97.9581 527.991C97.8481 526.991 97.1881 526.511 96.3781 526.601C95.6981 526.671 95.1081 527.141 94.9081 527.721L95.5081 533.471L94.3781 533.591V533.581Z" fill="black"/>
<path d="M102.188 532.759L101.508 526.299L100.358 526.419L100.238 525.289L101.388 525.169L101.118 522.629L102.208 521.939L102.538 525.059L103.898 524.919L104.018 526.049L102.658 526.189L103.338 532.649L102.188 532.769V532.759Z" fill="black"/>
<path d="M105.272 528.599C105.042 526.379 106.662 524.369 108.792 524.149C109.702 524.049 110.482 524.269 111.132 524.709L111.072 524.159L112.202 524.039L113.002 531.619L111.872 531.739L111.812 531.189C111.272 531.759 110.552 532.129 109.642 532.219C107.512 532.439 105.502 530.829 105.272 528.599ZM111.682 529.919L111.262 525.949C110.642 525.449 109.872 525.169 109.032 525.259C107.422 525.429 106.232 526.879 106.402 528.479C106.572 530.069 108.032 531.229 109.642 531.059C110.482 530.969 111.182 530.549 111.672 529.919H111.682Z" fill="black"/>
<path d="M114.86 531.63L114.74 530.49C114.85 530.51 114.99 530.52 115.1 530.5C115.85 530.42 116.28 529.83 116.21 529.14C116.15 528.59 115.79 528.19 115.39 527.77C114.93 527.26 114.41 526.7 114.31 525.77C114.18 524.52 115.06 523.49 116.42 523.34H116.47L116.59 524.46H116.54C115.93 524.53 115.45 525.04 115.53 525.75C115.59 526.3 115.95 526.69 116.33 527.1C116.8 527.59 117.3 528.12 117.4 529.07C117.54 530.37 116.61 531.48 115.21 531.63C115.1 531.64 114.95 531.64 114.86 531.63Z" fill="black"/>
<path d="M119.731 530.91L119.051 524.45L117.901 524.57L117.781 523.44L118.931 523.32L118.661 520.78L119.751 520.09L120.081 523.21L121.441 523.07L121.561 524.2L120.201 524.34L120.881 530.8L119.731 530.92V530.91Z" fill="black"/>
<path d="M122.711 521.561L122.531 519.831L123.661 519.711L123.841 521.441L122.711 521.561ZM123.651 530.501L122.851 522.921L123.981 522.801L124.781 530.381L123.651 530.501Z" fill="black"/>
<path d="M126.658 530.39L126.538 529.25C126.648 529.27 126.788 529.28 126.898 529.26C127.648 529.18 128.078 528.59 128.008 527.9C127.948 527.35 127.588 526.95 127.198 526.53C126.738 526.02 126.218 525.46 126.118 524.53C125.988 523.28 126.868 522.24 128.228 522.1H128.278L128.398 523.22H128.348C127.738 523.29 127.258 523.8 127.338 524.51C127.398 525.06 127.758 525.45 128.138 525.86C128.618 526.35 129.108 526.88 129.208 527.83C129.348 529.13 128.418 530.24 127.018 530.39C126.908 530.4 126.758 530.39 126.668 530.39H126.658Z" fill="black"/>
<path d="M131.25 529.701L130 517.841L131.13 517.721L131.9 525.061L133.83 521.761L135.3 521.611L132.94 525.521L136.32 529.171L134.87 529.321L132.3 526.531L132.09 526.891L132.37 529.591L131.24 529.711L131.25 529.701Z" fill="black"/>
<path d="M136.201 525.341C135.971 523.121 137.591 521.111 139.851 520.881C142.031 520.651 144.031 522.141 144.341 524.491C144.361 524.661 144.371 524.801 144.371 524.981L137.421 525.711C137.791 527.051 139.121 527.981 140.571 527.831C141.371 527.751 142.061 527.341 142.541 526.761L143.431 527.471C142.771 528.281 141.811 528.831 140.691 528.951C138.441 529.191 136.431 527.581 136.201 525.341ZM143.121 524.141C142.751 522.801 141.411 521.851 139.961 522.011C138.511 522.161 137.401 523.361 137.321 524.761L143.121 524.151V524.141Z" fill="black"/>
<path d="M151.43 527.57L150.75 521.13L149.6 521.25L149.48 520.11L150.63 519.99L150.41 517.86C150.27 516.54 151.03 515.54 152.29 515.4C152.4 515.39 152.55 515.39 152.7 515.44L152.82 516.55C152.71 516.53 152.61 516.54 152.54 516.55C151.93 516.62 151.5 517.1 151.57 517.74L151.79 519.87L153.15 519.73L153.27 520.87L151.91 521.01L152.59 527.45L151.44 527.57H151.43ZM154.31 518.23L154.13 516.5L155.27 516.38L155.45 518.11L154.31 518.23ZM155.25 527.17L154.45 519.59L155.59 519.47L156.39 527.05L155.25 527.17Z" fill="black"/>
<path d="M158.68 526.8L157.43 514.94L158.57 514.82L159.82 526.68L158.68 526.8Z" fill="black"/>
<path d="M162.081 526.45L161.281 518.87L162.411 518.75L162.481 519.37C162.801 518.86 163.421 518.4 164.241 518.31C165.041 518.23 165.781 518.55 166.261 519.18C166.651 518.51 167.421 517.97 168.311 517.88C169.641 517.74 170.731 518.59 170.901 520.16L171.461 525.46L170.331 525.58L169.791 520.42C169.681 519.42 169.021 518.94 168.211 519.03C167.511 519.1 166.911 519.59 166.711 520.19C166.741 520.33 166.771 520.46 166.791 520.6L167.351 525.9L166.211 526.02L165.671 520.86C165.561 519.86 164.901 519.38 164.091 519.47C163.411 519.54 162.821 520.01 162.621 520.59L163.221 526.34L162.091 526.46L162.081 526.45Z" fill="black"/>
<path d="M172.901 521.47C172.671 519.25 174.291 517.24 176.551 517.01C178.811 516.78 180.811 518.38 181.041 520.62C181.271 522.85 179.651 524.85 177.391 525.08C175.131 525.31 173.131 523.71 172.901 521.48V521.47ZM179.911 520.73C179.741 519.14 178.281 517.96 176.671 518.13C175.061 518.3 173.871 519.75 174.041 521.35C174.211 522.94 175.671 524.12 177.281 523.95C178.891 523.78 180.081 522.33 179.911 520.73Z" fill="black"/>
<path d="M183.61 527.42L182.48 516.63L183.62 516.51L183.68 517.06C184.22 516.5 184.94 516.12 185.85 516.03C187.98 515.81 189.99 517.43 190.22 519.65C190.45 521.88 188.83 523.88 186.7 524.1C185.79 524.2 185.01 523.98 184.36 523.54L184.75 527.3L183.61 527.42ZM189.08 519.77C188.91 518.18 187.45 517 185.84 517.17C185 517.26 184.31 517.7 183.8 518.31L184.22 522.28C184.84 522.79 185.61 523.06 186.45 522.97C188.06 522.8 189.25 521.36 189.08 519.77Z" fill="black"/>
<path d="M192.449 523.24L191.199 511.38L192.339 511.26L193.589 523.12L192.449 523.24Z" fill="black"/>
<path d="M195.022 519.14C194.792 516.92 196.412 514.91 198.672 514.68C200.852 514.45 202.852 515.94 203.162 518.29C203.182 518.46 203.192 518.6 203.192 518.78L196.242 519.51C196.612 520.85 197.952 521.78 199.392 521.63C200.192 521.55 200.872 521.14 201.362 520.56L202.252 521.27C201.592 522.07 200.632 522.63 199.512 522.75C197.262 522.99 195.252 521.38 195.022 519.15V519.14ZM201.942 517.94C201.572 516.6 200.232 515.65 198.782 515.8C197.332 515.95 196.222 517.16 196.142 518.55L201.942 517.94Z" fill="black"/>
<path d="M207.319 522.04L203.289 514.43L204.529 514.3L207.009 519.13L208.439 513.88L209.679 513.75L207.319 522.03V522.04Z" fill="black"/>
<path d="M210.612 517.501C210.382 515.281 212.002 513.271 214.262 513.041C216.442 512.811 218.432 514.301 218.752 516.651C218.772 516.821 218.782 516.961 218.782 517.141L211.832 517.871C212.202 519.211 213.542 520.141 214.992 519.991C215.792 519.911 216.472 519.501 216.962 518.921L217.852 519.631C217.192 520.431 216.232 520.991 215.112 521.111C212.862 521.351 210.852 519.741 210.622 517.511L210.612 517.501ZM217.532 516.291C217.162 514.951 215.822 514.001 214.372 514.161C212.922 514.311 211.812 515.521 211.732 516.911L217.532 516.301V516.291Z" fill="black"/>
<path d="M220.98 520.24L219.73 508.38L220.87 508.26L222.12 520.12L220.98 520.24Z" fill="black"/>
<path d="M223.969 520.13L223.849 518.99C223.959 519.01 224.099 519.02 224.209 519C224.959 518.92 225.389 518.33 225.319 517.64C225.259 517.09 224.899 516.69 224.499 516.27C224.039 515.76 223.519 515.2 223.419 514.27C223.289 513.02 224.169 511.99 225.529 511.84H225.579L225.699 512.96H225.649C225.039 513.03 224.559 513.54 224.639 514.25C224.699 514.8 225.059 515.19 225.439 515.6C225.909 516.09 226.409 516.62 226.509 517.57C226.649 518.87 225.719 519.98 224.319 520.13C224.209 520.14 224.059 520.14 223.969 520.13Z" fill="black"/>
<path d="M227.729 515.69C227.499 513.47 229.119 511.46 231.379 511.23C233.559 511 235.549 512.49 235.869 514.84C235.889 515.01 235.899 515.15 235.899 515.33L228.949 516.06C229.319 517.4 230.659 518.33 232.109 518.18C232.909 518.1 233.589 517.69 234.079 517.11L234.969 517.82C234.309 518.62 233.349 519.18 232.229 519.3C229.979 519.54 227.969 517.93 227.739 515.69H227.729ZM234.649 514.49C234.279 513.15 232.939 512.2 231.499 512.36C230.049 512.51 228.939 513.71 228.859 515.11L234.659 514.5L234.649 514.49Z" fill="black"/>
<path d="M238.101 518.429L237.301 510.849L238.441 510.729L238.511 511.369C238.811 510.849 239.451 510.379 240.271 510.289L240.391 511.419H240.341C239.611 511.499 238.891 512.069 238.661 512.739L239.241 518.319L238.101 518.439V518.429Z" fill="black"/>
<path d="M246.65 517.739L246.53 516.599C246.64 516.619 246.78 516.629 246.89 516.609C247.64 516.529 248.07 515.939 248 515.249C247.94 514.699 247.58 514.299 247.19 513.879C246.73 513.369 246.21 512.809 246.11 511.879C245.98 510.629 246.86 509.599 248.22 509.449H248.27L248.39 510.569H248.34C247.73 510.639 247.25 511.149 247.33 511.859C247.39 512.409 247.75 512.799 248.13 513.209C248.61 513.699 249.1 514.229 249.2 515.179C249.34 516.479 248.41 517.589 247.01 517.739C246.91 517.749 246.75 517.749 246.66 517.739H246.65Z" fill="black"/>
<path d="M250.301 508.11L250.121 506.38L251.251 506.26L251.431 507.99L250.301 508.11ZM251.241 517.05L250.441 509.47L251.571 509.35L252.371 516.93L251.241 517.05Z" fill="black"/>
<path d="M253.83 512.94C253.6 510.72 255.22 508.71 257.35 508.49C258.26 508.39 259.04 508.61 259.69 509.05L259.18 504.22L260.31 504.1L261.56 515.96L260.43 516.08L260.37 515.53C259.83 516.1 259.11 516.47 258.2 516.56C256.07 516.78 254.06 515.18 253.83 512.94ZM260.24 514.26L259.82 510.29C259.2 509.8 258.43 509.51 257.59 509.6C255.98 509.77 254.79 511.22 254.96 512.82C255.13 514.41 256.59 515.57 258.2 515.4C259.04 515.31 259.74 514.89 260.23 514.26H260.24Z" fill="black"/>
<path d="M262.998 511.97C262.768 509.75 264.388 507.74 266.648 507.51C268.828 507.28 270.818 508.77 271.138 511.12C271.158 511.29 271.168 511.43 271.168 511.61L264.218 512.34C264.588 513.68 265.928 514.61 267.378 514.46C268.178 514.38 268.858 513.97 269.348 513.39L270.238 514.1C269.578 514.9 268.618 515.46 267.498 515.58C265.248 515.82 263.238 514.21 263.008 511.97H262.998ZM269.918 510.77C269.548 509.43 268.208 508.48 266.768 508.64C265.318 508.79 264.208 509.99 264.128 511.39L269.928 510.78L269.918 510.77Z" fill="black"/>
<path d="M273.378 514.71L272.578 507.13L273.718 507.01L273.788 507.63C274.108 507.12 274.728 506.66 275.548 506.57C276.828 506.44 277.918 507.28 278.088 508.86L278.648 514.16L277.518 514.28L276.978 509.12C276.868 508.12 276.208 507.64 275.398 507.73C274.718 507.8 274.128 508.27 273.928 508.85L274.528 514.6L273.388 514.72L273.378 514.71Z" fill="black"/>
<path d="M286.18 513.36L285.07 502.82L286.09 501.07L287.37 513.24L286.18 513.36Z" fill="black"/>
<path d="M295.789 503.47C295.839 503.95 295.789 504.43 295.639 504.89L293.189 512.62L291.879 512.76L293.719 506.95C293.429 507.07 293.119 507.14 292.789 507.17C290.919 507.37 289.259 506.02 289.069 504.18C288.879 502.34 290.219 500.7 292.089 500.5C293.939 500.3 295.599 501.64 295.789 503.47ZM294.569 503.6C294.449 502.42 293.389 501.57 292.219 501.69C291.029 501.81 290.169 502.87 290.299 504.05C290.419 505.23 291.479 506.08 292.669 505.95C293.839 505.83 294.699 504.77 294.579 503.6H294.569Z" fill="black"/>
<path d="M298.971 512.3L298.851 511.16H298.941C300.631 510.97 301.971 509.36 301.781 507.56C301.611 505.98 300.301 504.74 298.691 504.66L299.841 501.12L297.011 501.42L296.891 500.24L301.551 499.75L300.231 503.83C301.731 504.44 302.771 505.82 302.941 507.43C303.201 509.87 301.411 512.04 299.071 512.28H298.981L298.971 512.3Z" fill="black"/>
<path d="M309.868 510.869L309.628 508.579L303.988 509.169L309.728 498.109L310.688 507.269L312.578 507.069L312.698 508.249L310.808 508.449L311.048 510.739L309.858 510.869H309.868ZM305.878 507.789L309.508 507.409L308.928 501.919L305.868 507.789H305.878Z" fill="black"/>
<path d="M65.12 215.83L37.56 218.68L27.25 162.64L62.32 158.33L65.12 215.83Z" fill="#DB4726"/>
<path d="M107.528 215.29L72.3581 218.57L69.3281 162.14L96.5381 159.33L107.528 215.29Z" fill="#DB4726"/>
<path d="M141.141 206.949L110.441 209.769L102.141 152.829L138.991 149.029L141.141 206.949Z" fill="#DB4726"/>
<path d="M183.86 206.03L148.76 209.99L143.48 152.05L173.07 148.65L183.86 206.03Z" fill="#DB4726"/>
<path d="M57.041 202.73C56.781 202.76 56.721 202.67 56.561 202.42L55.921 201.41H55.831C54.421 202.46 52.161 203.54 49.641 203.8C42.701 204.52 38.201 198.99 37.241 189.75C36.261 180.24 39.501 173.52 46.971 172.75C49.181 172.52 51.151 172.95 52.421 173.57L52.491 172.94C52.511 172.67 52.541 172.53 52.851 172.5L53.431 172.44C53.741 172.41 53.801 172.54 53.821 172.8L54.771 182.04C54.801 182.3 54.771 182.4 54.451 182.43L53.571 182.52C53.351 182.54 53.251 182.46 53.221 182.2L53.101 181.5C52.631 177.79 50.631 174.02 47.361 174.36C42.581 174.85 42.111 179.73 43.081 189.15C44.071 198.74 45.801 202.5 49.641 202.1C50.831 201.98 51.891 201.42 52.671 200.72L52.191 196.03C51.841 192.67 51.771 192.41 50.931 192.45L48.751 192.59C48.491 192.62 48.391 192.59 48.371 192.32L48.281 191.48C48.251 191.21 48.341 191.16 48.601 191.13L58.641 190.09C58.911 190.06 58.951 190.1 58.981 190.37L59.071 191.21C59.101 191.48 59.061 191.52 58.791 191.55L57.741 191.75C56.911 191.93 56.841 192.16 57.191 195.52L57.891 202.28C57.921 202.55 57.891 202.64 57.571 202.67L57.041 202.72V202.73Z" fill="black"/>
<path d="M77.1116 206.5C76.8416 206.53 76.8016 206.49 76.7716 206.22L76.6816 205.38C76.6516 205.11 76.6816 205.02 76.9516 204.99L78.2316 204.82C79.0716 204.69 79.1316 204.41 78.7816 201.05L76.7816 181.64C76.4316 178.28 76.3216 178.02 75.4716 178.07L74.2316 178.15C73.9616 178.13 73.8716 178.1 73.8416 177.83L73.7516 176.99C73.7216 176.72 73.8116 176.67 74.0716 176.64L89.8116 175.02C90.1216 174.99 90.1816 175.12 90.2116 175.38L91.0916 183.96C91.1216 184.27 91.0916 184.36 90.7816 184.39L89.8516 184.49C89.6316 184.51 89.5816 184.43 89.5016 184.12L89.4416 183.55C88.8816 179.41 87.7416 177.02 84.8216 177.32L81.7316 177.64L82.9316 189.27L84.3916 189.12C86.1616 188.94 86.5916 187.46 86.4516 185.29V184.89C86.4216 184.58 86.4516 184.49 86.7216 184.46L87.5116 184.38C87.8216 184.35 87.8816 184.48 87.9116 184.74L88.9216 194.56C88.9516 194.87 88.9216 194.96 88.6116 194.99L87.8216 195.07C87.5516 195.1 87.5016 195.01 87.4716 194.7L87.3616 194.08C87.1016 191.96 86.3316 190.61 84.5616 190.79L83.1016 190.94L84.4416 203.94L88.8616 203.48C91.9516 203.16 92.4616 199.85 92.3516 196.19V195.79C92.3716 195.52 92.4016 195.38 92.6216 195.36L93.5516 195.26C93.8616 195.23 93.9216 195.36 93.9416 195.62L94.4316 204.28C94.4616 204.55 94.4316 204.68 94.1216 204.71L77.1016 206.47L77.1116 206.5Z" fill="black"/>
<path d="M132.099 194.36C131.919 194.38 131.829 194.3 131.669 194.09L117.889 172.27H117.849L119.099 184.39C119.879 191.95 120.959 193.27 122.909 193.16L123.929 193.1C124.199 193.12 124.289 193.15 124.319 193.42L124.409 194.26C124.439 194.52 124.349 194.58 124.089 194.61L115.639 195.48C115.369 195.51 115.279 195.48 115.249 195.21L115.159 194.37C115.129 194.1 115.219 194.05 115.479 193.98L115.959 193.89C117.279 193.67 117.839 192.13 117.059 184.62L115.619 170.69C115.269 167.29 115.109 167.03 114.309 167.07L112.929 167.12C112.669 167.15 112.569 167.12 112.549 166.85L112.459 165.97C112.429 165.7 112.519 165.65 112.779 165.62L119.369 164.94C119.639 164.91 119.729 164.99 119.889 165.24L131.749 184.44H131.839L130.809 174.48C130.029 166.92 128.919 165.65 126.999 165.71L125.979 165.77C125.709 165.75 125.619 165.72 125.589 165.45L125.499 164.61C125.469 164.34 125.559 164.29 125.819 164.26L134.179 163.4C134.449 163.37 134.539 163.4 134.559 163.67L134.649 164.51C134.679 164.77 134.599 164.83 134.329 164.9L133.849 165C132.579 165.26 132.019 166.75 132.799 174.27L134.809 193.77C134.829 193.99 134.749 194.09 134.489 194.12L132.099 194.37V194.36Z" fill="black"/>
<path d="M159.8 197.98C159.53 198.01 159.44 197.98 159.41 197.71L159.32 196.87C159.29 196.6 159.37 196.51 159.64 196.48L160.87 196.31C161.75 196.17 161.77 195.9 161.42 192.54L159.06 169.68L157.47 169.84C154.55 170.14 153.84 172.72 154.22 176.92L154.35 178.2C154.38 178.47 154.3 178.61 154.08 178.63L153.15 178.73C152.84 178.76 152.78 178.63 152.75 178.37L151.79 169.04C151.76 168.77 151.79 168.64 152.1 168.61L170.94 166.67C171.21 166.64 171.26 166.77 171.29 167.04L172.25 176.37C172.28 176.64 172.25 176.77 171.98 176.8L171.05 176.9C170.83 176.92 170.73 176.8 170.7 176.53L170.57 175.25C170.05 171.06 168.86 168.68 165.9 168.99L164.35 169.15L166.71 192.01C167.06 195.37 167.13 195.63 167.97 195.59L169.26 195.5C169.53 195.47 169.62 195.55 169.65 195.82L169.74 196.66C169.77 196.92 169.68 196.98 169.42 197.01L159.78 198L159.8 197.98Z" fill="black"/>
<path d="M219.018 202.161L191.188 205.721L180.398 148.351L214.878 145.141L219.018 202.161Z" fill="#DB4726"/>
<path d="M262.71 200.441L226.92 204.481L224.09 146.631L252.33 143.721L262.71 200.441Z" fill="#DB4726"/>
<path d="M300.391 194.461L270.111 197.931L262.801 140.551L300.001 136.711L300.391 194.461Z" fill="#DB4726"/>
<path d="M346.901 193.15L312.141 197.08L306.281 140.24L336.251 137.15L346.901 193.15Z" fill="#DB4726"/>
<path d="M204.189 190.74C197.379 191.44 192.859 186.14 191.899 176.9C190.929 167.48 194.399 160.42 201.299 159.71C208.109 159.01 212.629 164.31 213.589 173.55C214.559 182.97 211.089 190.03 204.189 190.74ZM201.339 161.45C196.959 161.9 196.849 167.77 197.719 176.17C198.509 183.86 199.719 189.46 204.139 189C208.559 188.54 208.629 182.68 207.759 174.28C206.969 166.59 205.759 160.99 201.339 161.45Z" fill="black"/>
<path d="M233.241 194.69C232.971 194.72 232.931 194.68 232.901 194.41L232.811 193.57C232.781 193.3 232.811 193.21 233.081 193.18L234.361 193C235.201 192.87 235.261 192.59 234.911 189.23L232.911 169.82C232.561 166.46 232.451 166.2 231.601 166.25L230.361 166.33C230.091 166.31 230.001 166.28 229.971 166.01L229.881 165.17C229.851 164.9 229.931 164.85 230.201 164.82L245.941 163.2C246.251 163.17 246.311 163.3 246.331 163.56L247.301 172.98C247.331 173.25 247.301 173.38 246.991 173.41L246.061 173.51C245.841 173.53 245.741 173.41 245.711 173.14L245.571 171.77C245.091 167.57 243.861 165.2 240.951 165.5L237.851 165.82L239.141 178.33L240.601 178.18C242.411 177.99 242.801 176.52 242.661 174.35V173.95C242.631 173.64 242.661 173.55 242.931 173.52L243.731 173.44C244.041 173.41 244.091 173.49 244.121 173.8L245.171 184.01C245.201 184.32 245.171 184.41 244.861 184.45L244.061 184.53C243.791 184.56 243.741 184.47 243.711 184.16L243.561 183.15C243.341 180.98 242.581 179.68 240.761 179.86L239.301 180.01L240.191 188.68C240.541 192.04 240.611 192.3 241.451 192.26L243.491 192.09C243.761 192.06 243.851 192.14 243.881 192.41L243.971 193.25C244.001 193.51 243.911 193.57 243.651 193.6L233.221 194.68L233.241 194.69Z" fill="black"/>
<path d="M278.999 183.849C278.729 183.879 278.639 183.849 278.619 183.579L278.529 182.739C278.499 182.469 278.579 182.379 278.849 182.349L280.079 182.179C280.959 182.049 280.979 181.769 280.629 178.409L278.269 155.549L276.679 155.709C273.759 156.009 273.039 158.589 273.429 162.789L273.559 164.069C273.589 164.339 273.509 164.479 273.289 164.499L272.359 164.599C272.049 164.629 271.989 164.499 271.969 164.239L271.009 154.909C270.979 154.639 271.009 154.509 271.319 154.479L290.159 152.539C290.419 152.509 290.479 152.639 290.509 152.909L291.469 162.239C291.499 162.509 291.469 162.639 291.199 162.669L290.269 162.769C290.049 162.789 289.949 162.669 289.919 162.399L289.789 161.119C289.269 156.929 288.079 154.549 285.119 154.859L283.569 155.019L285.929 177.879C286.279 181.239 286.349 181.499 287.189 181.459L288.479 181.369C288.739 181.339 288.839 181.419 288.869 181.689L288.959 182.529C288.989 182.789 288.899 182.849 288.639 182.879L278.999 183.869V183.849Z" fill="black"/>
<path d="M316.76 183.719C316.5 183.749 316.45 183.709 316.42 183.439L316.33 182.599C316.3 182.329 316.33 182.239 316.6 182.209L317.88 182.029C318.72 181.899 318.78 181.619 318.43 178.259L316.43 158.849C316.08 155.489 315.97 155.229 315.12 155.269L313.88 155.349C313.61 155.329 313.52 155.299 313.49 155.029L313.4 154.189C313.37 153.919 313.45 153.869 313.72 153.839L329.46 152.219C329.77 152.189 329.83 152.319 329.86 152.579L330.74 161.159C330.77 161.469 330.74 161.559 330.43 161.589L329.5 161.689C329.28 161.709 329.22 161.629 329.15 161.319L329.09 160.739C328.53 156.599 327.39 154.209 324.47 154.509L321.37 154.829L322.57 166.459L324.03 166.309C325.8 166.129 326.23 164.649 326.09 162.479V162.079C326.06 161.769 326.09 161.679 326.36 161.649L327.16 161.569C327.47 161.539 327.53 161.669 327.55 161.929L328.56 171.739C328.59 172.049 328.56 172.139 328.25 172.179L327.46 172.259C327.19 172.289 327.14 172.199 327.11 171.889L327 171.279C326.74 169.159 325.97 167.809 324.2 167.989L322.74 168.139L324.08 181.139L328.5 180.679C331.6 180.359 332.1 177.049 331.99 173.389V172.989C332.01 172.719 332.04 172.579 332.26 172.559L333.19 172.459C333.5 172.429 333.56 172.559 333.58 172.819L334.07 181.479C334.1 181.739 334.07 181.879 333.76 181.909L316.74 183.669L316.76 183.719Z" fill="black"/>
<path d="M246.26 295.96L208.82 299.82L194.82 223.69L242.46 217.83L246.26 295.96Z" fill="#DB4726"/>
<path d="M145.131 310.639L103.431 314.469L92.1406 237.119L142.221 231.949L145.131 310.639Z" fill="#DB4726"/>
<path d="M307.218 295.349L258.588 300.839L254.738 222.239L293.118 218.279L307.218 295.349Z" fill="#DB4726"/>
<path d="M203.511 307.939L154.881 313.419L151.031 234.829L189.411 230.869L203.511 307.939Z" fill="#DB4726"/>
<path d="M165.738 296.55C165.378 296.59 165.248 296.54 165.218 296.18L165.098 295.04C165.058 294.68 165.178 294.61 165.528 294.51L167.268 294.27C168.398 294.03 168.428 293.73 167.958 289.16L165.238 262.79C164.768 258.23 164.668 257.87 163.528 257.93L161.778 258.05C161.408 258.03 161.288 257.98 161.248 257.62L161.128 256.48C161.088 256.12 161.208 256.05 161.568 256.01L174.658 254.66C175.018 254.62 175.148 254.67 175.188 255.03L175.308 256.17C175.348 256.53 175.228 256.6 174.878 256.7L173.198 256.93C172.008 257.11 172.038 257.47 172.508 262.04L175.228 288.41C175.698 292.98 175.728 293.28 176.938 293.27L178.628 293.16C178.998 293.18 179.118 293.23 179.158 293.59L179.278 294.73C179.318 295.09 179.198 295.16 178.838 295.2L165.748 296.55H165.738Z" fill="black"/>
<path d="M235.062 277.42C234.822 277.44 234.692 277.34 234.482 277.06L215.762 247.43H215.702L217.402 263.89C218.462 274.16 219.922 275.95 222.572 275.8L223.962 275.72C224.332 275.74 224.452 275.79 224.492 276.15L224.612 277.29C224.652 277.65 224.532 277.72 224.172 277.76L212.702 278.94C212.342 278.98 212.212 278.94 212.182 278.57L212.062 277.43C212.022 277.07 212.142 277 212.492 276.9L213.152 276.77C214.942 276.46 215.702 274.38 214.642 264.17L212.692 245.25C212.212 240.63 212.002 240.28 210.912 240.33L209.042 240.4C208.682 240.44 208.552 240.39 208.522 240.03L208.402 238.83C208.362 238.47 208.482 238.4 208.842 238.36L217.792 237.44C218.152 237.4 218.282 237.51 218.502 237.85L234.602 263.93H234.722L233.332 250.4C232.272 240.13 230.762 238.4 228.162 238.49L226.772 238.57C226.402 238.55 226.282 238.5 226.242 238.14L226.122 237C226.082 236.64 226.202 236.57 226.562 236.53L237.912 235.36C238.272 235.32 238.402 235.36 238.432 235.73L238.552 236.87C238.592 237.23 238.472 237.3 238.122 237.4L237.472 237.53C235.752 237.89 234.982 239.91 236.042 250.12L238.772 276.61C238.802 276.91 238.692 277.04 238.332 277.08L235.092 277.41L235.062 277.42Z" fill="black"/>
<path d="M284.111 285.14C274.861 286.09 268.721 278.9 267.421 266.34C266.101 253.55 270.821 243.96 280.191 242.99C289.441 242.04 295.581 249.23 296.881 261.78C298.201 274.57 293.481 284.17 284.111 285.13V285.14ZM280.251 245.35C274.301 245.96 274.151 253.93 275.331 265.34C276.411 275.79 278.041 283.39 284.051 282.77C290.051 282.15 290.151 274.19 288.971 262.78C287.891 252.33 286.261 244.73 280.251 245.35Z" fill="black"/>
<path d="M130.651 293.781C130.231 293.821 130.101 293.721 129.871 293.251L120.811 276.041C119.731 277.971 119.361 279.651 119.621 282.171L120.191 287.701C120.661 292.261 120.761 292.621 121.911 292.561L123.661 292.441C124.031 292.461 124.151 292.511 124.191 292.871L124.311 294.011C124.351 294.371 124.231 294.441 123.871 294.481L110.721 295.841C110.361 295.881 110.291 295.821 110.261 295.461L110.141 294.321C110.101 293.961 110.161 293.891 110.511 293.801L112.251 293.561C113.381 293.381 113.411 293.021 112.941 288.451L110.221 262.081C109.751 257.521 109.651 257.161 108.511 257.221L106.821 257.331C106.451 257.311 106.331 257.261 106.291 256.901L106.171 255.761C106.131 255.401 106.251 255.331 106.611 255.291L119.701 253.941C120.061 253.901 120.191 253.951 120.231 254.311L120.351 255.451C120.391 255.811 120.271 255.881 119.921 255.981L118.191 256.221C117.051 256.401 117.031 256.761 117.501 261.331L118.941 275.261H119.001C119.621 273.071 121.211 270.171 124.971 263.111C126.061 260.751 127.011 258.771 126.851 257.211C126.731 256.011 126.181 255.461 125.101 255.511L124.011 255.561C123.641 255.541 123.581 255.481 123.541 255.121L123.421 253.981C123.381 253.621 123.441 253.551 123.801 253.521L134.911 252.371C135.271 252.331 135.401 252.381 135.431 252.741L135.551 253.881C135.591 254.241 135.471 254.311 135.121 254.411L134.411 254.541C132.091 255.021 131.361 256.191 128.791 261.311L125.071 268.191L134.121 285.281C136.691 290.231 137.121 290.801 138.461 290.841H139.071C139.441 290.861 139.501 290.921 139.541 291.271L139.661 292.411C139.701 292.771 139.641 292.841 139.281 292.871L130.691 293.761L130.651 293.781Z" fill="black"/>
<path d="M64.9297 371.15L315.93 339.15" stroke="#B3D1CB" stroke-width="4" stroke-miterlimit="10"/>
<g filter="url(#filter2_d_357_8587)">
<path d="M262 681.26L217.07 672.65L229.7 633L269.16 654.47L262 681.25V681.26Z" fill="#D9D9D9"/>
<path d="M329.001 805L317.121 726" stroke="#7F7F7F" stroke-width="4"/>
<path d="M272 826.999L288.04 719.689" stroke="#7F7F7F" stroke-width="4"/>
<path d="M361.69 735.719L240.73 711.529L271.53 616.859L378.81 671.659L361.69 735.729V735.719Z" fill="#D3D2D2"/>
<path d="M326.489 649.529C330.253 635.443 322.516 621.142 309.209 617.586C295.902 614.03 282.063 622.567 278.299 636.653C274.536 650.739 282.272 665.041 295.579 668.596C308.886 672.152 322.725 663.615 326.489 649.529Z" fill="#B3A9A9"/>
<path d="M369.412 665.641C372.534 653.956 366.116 642.093 355.077 639.143C344.037 636.193 332.557 643.274 329.435 654.959C326.312 666.645 332.731 678.508 343.77 681.458C354.809 684.408 366.29 677.327 369.412 665.641Z" fill="#B3A9A9"/>
</g>
<path d="M328.501 528.99L324.281 599.09" stroke="#DB4726" stroke-width="3" stroke-miterlimit="10"/>
<path d="M293.102 561.461L362.052 565.611" stroke="#DB4726" stroke-width="3" stroke-miterlimit="10"/>
<path d="M318.859 554.939L336.209 573.279" stroke="#DB4726" stroke-width="3" stroke-miterlimit="10"/>
<path d="M337.322 554.9L317.762 573.33" stroke="#DB4726" stroke-width="3" stroke-miterlimit="10"/>
<path d="M78.0703 717.07L80.7003 787.24" stroke="#DB4726" stroke-width="3" stroke-miterlimit="10"/>
<path d="M46 752.83L115.03 750.24" stroke="#DB4726" stroke-width="3" stroke-miterlimit="10"/>
<path d="M71.0117 743.83L90.0617 760.4" stroke="#DB4726" stroke-width="3" stroke-miterlimit="10"/>
<path d="M89.3692 741.99L71.6992 762.24" stroke="#DB4726" stroke-width="3" stroke-miterlimit="10"/>
<path d="M47.3516 295.24L49.6716 357.25" stroke="#DB4726" stroke-width="3" stroke-miterlimit="10"/>
<path d="M19.0117 326.841L80.0017 324.551" stroke="#DB4726" stroke-width="3" stroke-miterlimit="10"/>
<path d="M41.1094 318.891L57.9394 333.531" stroke="#DB4726" stroke-width="3" stroke-miterlimit="10"/>
<path d="M57.3288 317.26L41.7188 335.15" stroke="#DB4726" stroke-width="3" stroke-miterlimit="10"/>
</g>
<defs>
<filter id="filter0_d_357_8587" x="-1" y="69" width="397" height="778" filterUnits="userSpaceOnUse" color-interpolation-filters="sRGB">
<feFlood flood-opacity="0" result="BackgroundImageFix"/>
<feColorMatrix in="SourceAlpha" type="matrix" values="0 0 0 0 0 0 0 0 0 0 0 0 0 0 0 0 0 0 127 0" result="hardAlpha"/>
<feOffset dx="-4" dy="4"/>
<feGaussianBlur stdDeviation="6"/>
<feColorMatrix type="matrix" values="0 0 0 0 0 0 0 0 0 0 0 0 0 0 0 0 0 0 0.15 0"/>
<feBlend mode="normal" in2="BackgroundImageFix" result="effect1_dropShadow_357_8587"/>
<feBlend mode="normal" in="SourceGraphic" in2="effect1_dropShadow_357_8587" result="shape"/>
</filter>
<filter id="filter1_d_357_8587" x="-1" y="23" width="368" height="776" filterUnits="userSpaceOnUse" color-interpolation-filters="sRGB">
<feFlood flood-opacity="0" result="BackgroundImageFix"/>
<feColorMatrix in="SourceAlpha" type="matrix" values="0 0 0 0 0 0 0 0 0 0 0 0 0 0 0 0 0 0 127 0" result="hardAlpha"/>
<feOffset dx="-4" dy="4"/>
<feGaussianBlur stdDeviation="6"/>
<feColorMatrix type="matrix" values="0 0 0 0 0 0 0 0 0 0 0 0 0 0 0 0 0 0 0.15 0"/>
<feBlend mode="normal" in2="BackgroundImageFix" result="effect1_dropShadow_357_8587"/>
<feBlend mode="normal" in="SourceGraphic" in2="effect1_dropShadow_357_8587" result="shape"/>
</filter>
<filter id="filter2_d_357_8587" x="205.07" y="608.779" width="181.738" height="230.516" filterUnits="userSpaceOnUse" color-interpolation-filters="sRGB">
<feFlood flood-opacity="0" result="BackgroundImageFix"/>
<feColorMatrix in="SourceAlpha" type="matrix" values="0 0 0 0 0 0 0 0 0 0 0 0 0 0 0 0 0 0 127 0" result="hardAlpha"/>
<feOffset dx="-2" dy="2"/>
<feGaussianBlur stdDeviation="5"/>
<feColorMatrix type="matrix" values="0 0 0 0 0 0 0 0 0 0 0 0 0 0 0 0 0 0 0.08 0"/>
<feBlend mode="normal" in2="BackgroundImageFix" result="effect1_dropShadow_357_8587"/>
<feBlend mode="normal" in="SourceGraphic" in2="effect1_dropShadow_357_8587" result="shape"/>
</filter>
<clipPath id="clip0_357_8587">
<rect width="393" height="852" fill="white"/>
</clipPath>
</defs>
</svg>
