<svg width="1366" height="768" viewBox="0 0 1366 768" fill="none" xmlns="http://www.w3.org/2000/svg">
<g clip-path="url(#clip0_357_8481)">
<path d="M1366 0H0V768H1366V0Z" fill="#FCF7ED"/>
<g filter="url(#filter0_d_357_8481)">
<path d="M1241.43 665L63.1017 537.25L52.0117 178.56L1271 52.75L1241.43 665Z" fill="#FFAC05"/>
</g>
<g filter="url(#filter1_d_357_8481)">
<path d="M1210.05 616.41L34 503.8L40.94 143.03L1229.88 20L1210.05 616.41Z" fill="#5C988D"/>
</g>
<path d="M1178.65 515.009L1115.33 500.709L1133.94 448.109L1189.27 479.389L1178.64 515.009H1178.65Z" fill="#D9D9D9"/>
<path d="M1275 719.001L1255.65 578.561" stroke="#7F7F7F" stroke-width="4"/>
<path d="M1185 744.001L1214.7 568.301" stroke="#7F7F7F" stroke-width="4"/>
<path d="M1318.43 594.34L1148.01 554.47L1193.35 428.91L1343.86 509.15L1318.43 594.34Z" fill="#D3D2D2"/>
<path d="M1236.46 501.53C1256.01 501.53 1271.85 485.685 1271.85 466.14C1271.85 446.595 1256.01 430.75 1236.46 430.75C1216.91 430.75 1201.07 446.595 1201.07 466.14C1201.07 485.685 1216.91 501.53 1236.46 501.53Z" fill="#B3A9A9"/>
<path d="M1302.56 521.529C1318.78 521.529 1331.93 508.38 1331.93 492.159C1331.93 475.938 1318.78 462.789 1302.56 462.789C1286.34 462.789 1273.19 475.938 1273.19 492.159C1273.19 508.38 1286.34 521.529 1302.56 521.529Z" fill="#B3A9A9"/>
<path d="M1115 500.5L784 576L34 504L41 142.5L1050 38.5L1134 448.5L1115 500.5Z" fill="#B3D1CB"/>
<g filter="url(#filter2_d_357_8481)">
<path d="M480.511 647.759L303.421 759.629L331.511 647.889L300.621 513.439L480.511 647.759Z" fill="#538279"/>
<path d="M230.351 36.3691L188.571 708.869L172.221 708.719C123.341 707.519 84.781 663.169 86.091 609.659L98.931 66.5091" fill="#538279"/>
<path d="M172.221 708.708C123.341 707.508 84.781 663.158 86.091 609.648L86.731 583.488L348.711 589.918L345.691 712.968L172.221 708.708Z" fill="#538279"/>
</g>
<path d="M279.391 417V487.22" stroke="#DB4726" stroke-width="3" stroke-miterlimit="10"/>
<path d="M246 451.539H315.07" stroke="#DB4726" stroke-width="3" stroke-miterlimit="10"/>
<path d="M271.328 443.48L289.748 460.75" stroke="#DB4726" stroke-width="3" stroke-miterlimit="10"/>
<path d="M289.748 442.33L271.328 461.9" stroke="#DB4726" stroke-width="3" stroke-miterlimit="10"/>
<path d="M994.391 471V541.22" stroke="#DB4726" stroke-width="3" stroke-miterlimit="10"/>
<path d="M961 505.539H1030.07" stroke="#DB4726" stroke-width="3" stroke-miterlimit="10"/>
<path d="M986.328 497.48L1004.75 514.75" stroke="#DB4726" stroke-width="3" stroke-miterlimit="10"/>
<path d="M1004.75 496.33L986.328 515.9" stroke="#DB4726" stroke-width="3" stroke-miterlimit="10"/>
<path d="M1027.5 158.99L1023.28 229.09" stroke="#DB4726" stroke-width="3" stroke-miterlimit="10"/>
<path d="M992.102 191.461L1061.05 195.611" stroke="#DB4726" stroke-width="3" stroke-miterlimit="10"/>
<path d="M1017.86 184.939L1035.21 203.279" stroke="#DB4726" stroke-width="3" stroke-miterlimit="10"/>
<path d="M1036.32 184.9L1016.76 203.33" stroke="#DB4726" stroke-width="3" stroke-miterlimit="10"/>
<path d="M469.07 440.381L422.62 445.171L405.25 350.731L464.35 343.461L469.07 440.381Z" fill="#DB4726"/>
<path d="M540.56 439.461L481.28 444.991L476.16 349.871L522.03 345.141L540.56 439.461Z" fill="#DB4726"/>
<path d="M597.209 425.399L545.469 430.149L531.469 334.189L593.589 327.779L597.209 425.399Z" fill="#DB4726"/>
<path d="M669.22 423.851L610.06 430.531L601.16 332.871L651.03 327.141L669.22 423.851Z" fill="#DB4726"/>
<path d="M726.5 410.311L679.59 416.321L661.41 319.621L719.53 314.211L726.5 410.311Z" fill="#DB4726"/>
<path d="M800.139 407.411L739.819 414.221L735.039 316.721L782.649 311.811L800.139 407.411Z" fill="#DB4726"/>
<path d="M863.649 397.34L812.609 403.19L800.289 306.47L862.999 300L863.649 397.34Z" fill="#DB4726"/>
<path d="M942.05 395.12L883.47 401.75L873.59 305.95L924.1 300.74L942.05 395.12Z" fill="#DB4726"/>
<path d="M455.452 418.289C455.002 418.339 454.912 418.199 454.642 417.769L453.562 416.069H453.412C451.032 417.839 447.232 419.659 442.982 420.099C431.282 421.309 423.702 411.999 422.092 396.429C420.442 380.409 425.902 369.079 438.492 367.779C442.222 367.399 445.532 368.109 447.672 369.169L447.792 368.099C447.822 367.639 447.872 367.419 448.392 367.359L449.362 367.259C449.882 367.209 449.982 367.419 450.022 367.869L451.632 383.439C451.682 383.889 451.622 384.039 451.102 384.099L449.612 384.249C449.242 384.289 449.072 384.159 449.032 383.709L448.832 382.529C448.042 376.289 444.672 369.929 439.162 370.499C431.112 371.329 430.302 379.549 431.942 395.419C433.612 411.589 436.522 417.909 443.002 417.249C445.012 417.039 446.802 416.109 448.112 414.919L447.302 407.019C446.722 401.359 446.592 400.919 445.172 400.989L441.502 401.219C441.052 401.269 440.902 401.209 440.852 400.759L440.702 399.339C440.652 398.889 440.792 398.799 441.242 398.759L458.152 397.019C458.602 396.969 458.682 397.039 458.732 397.489L458.882 398.909C458.932 399.359 458.862 399.439 458.412 399.489L456.642 399.819C455.242 400.109 455.132 400.499 455.712 406.159L456.892 417.559C456.942 418.009 456.882 418.159 456.352 418.219L455.462 418.309L455.452 418.289Z" fill="black"/>
<path d="M489.291 424.661C488.841 424.711 488.761 424.641 488.711 424.191L488.561 422.771C488.511 422.321 488.571 422.171 489.021 422.121L491.171 421.821C492.581 421.601 492.681 421.141 492.101 415.481L488.731 382.771C488.151 377.111 487.951 376.681 486.531 376.751L484.441 376.891C483.981 376.861 483.831 376.801 483.781 376.361L483.631 374.941C483.581 374.491 483.721 374.401 484.171 374.361L510.701 371.621C511.221 371.571 511.321 371.781 511.371 372.231L512.861 386.691C512.911 387.211 512.861 387.371 512.331 387.421L510.771 387.581C510.401 387.621 510.311 387.481 510.181 386.961L510.081 385.991C509.131 379.011 507.211 374.991 502.301 375.501L497.081 376.041L499.101 395.641L501.561 395.391C504.541 395.081 505.261 392.601 505.031 388.931V388.251C504.981 387.731 505.041 387.571 505.491 387.531L506.831 387.391C507.351 387.341 507.451 387.551 507.501 388.001L509.211 404.541C509.261 405.061 509.211 405.221 508.681 405.271L507.341 405.411C506.891 405.461 506.801 405.311 506.751 404.791L506.571 403.751C506.131 400.181 504.841 397.901 501.861 398.211L499.401 398.461L501.661 420.371L509.111 419.601C514.321 419.061 515.181 413.481 515.001 407.321V406.641C515.031 406.181 515.091 405.951 515.461 405.911L517.021 405.751C517.541 405.701 517.641 405.91 517.691 406.361L518.521 420.961C518.571 421.411 518.521 421.641 517.991 421.691L489.301 424.651L489.291 424.661Z" fill="black"/>
<path d="M581.961 404.191C581.661 404.221 581.501 404.091 581.231 403.741L558.011 366.981H557.941L560.051 387.401C561.361 400.141 563.171 402.361 566.471 402.171L568.191 402.071C568.651 402.101 568.801 402.161 568.851 402.601L569.001 404.021C569.051 404.471 568.901 404.561 568.461 404.601L554.231 406.071C553.781 406.121 553.631 406.061 553.581 405.611L553.431 404.191C553.381 403.741 553.531 403.651 553.971 403.531L554.781 403.371C557.001 402.991 557.941 400.411 556.631 387.741L554.211 364.271C553.621 358.531 553.351 358.111 552.001 358.171L549.681 358.261C549.231 358.311 549.081 358.251 549.031 357.801L548.881 356.311C548.831 355.861 548.971 355.771 549.421 355.731L560.521 354.581C560.971 354.531 561.131 354.671 561.401 355.091L581.381 387.441L581.531 387.421L579.801 370.661C578.491 357.921 576.611 355.781 573.381 355.891L571.661 355.991C571.211 355.961 571.051 355.901 571.001 355.461L570.851 354.041C570.801 353.591 570.951 353.501 571.391 353.461L585.471 352.011C585.921 351.961 586.071 352.021 586.121 352.471L586.271 353.891C586.321 354.341 586.181 354.431 585.741 354.551L584.931 354.711C582.791 355.161 581.851 357.661 583.151 370.331L586.541 403.191C586.581 403.561 586.451 403.731 586.001 403.771L581.981 404.191H581.961Z" fill="black"/>
<path d="M628.66 410.281C628.21 410.331 628.06 410.271 628.01 409.821L627.86 408.401C627.81 407.951 627.95 407.791 628.4 407.741L630.48 407.451C631.96 407.221 631.99 406.771 631.41 401.101L627.44 362.581L624.76 362.861C619.84 363.371 618.63 367.711 619.29 374.801L619.51 376.961C619.56 377.411 619.43 377.651 619.06 377.681L617.5 377.841C616.98 377.891 616.88 377.681 616.83 377.231L615.21 361.511C615.16 361.061 615.21 360.831 615.74 360.781L647.48 357.511C647.93 357.461 648.02 357.681 648.07 358.131L649.69 373.851C649.74 374.301 649.69 374.531 649.24 374.571L647.67 374.731C647.3 374.771 647.13 374.561 647.08 374.111L646.86 371.951C645.98 364.891 643.98 360.881 638.99 361.391L636.38 361.661L640.35 400.181C640.93 405.841 641.06 406.281 642.48 406.211L644.65 406.061C645.1 406.011 645.26 406.151 645.31 406.601L645.46 408.021C645.51 408.471 645.36 408.561 644.92 408.601L628.68 410.271L628.66 410.281Z" fill="black"/>
<path d="M701.499 391.07C690.019 392.25 682.399 383.32 680.799 367.75C679.159 351.88 685.009 339.98 696.639 338.78C708.109 337.6 715.739 346.52 717.339 362.1C718.979 377.97 713.129 389.87 701.499 391.07ZM696.709 341.71C689.329 342.47 689.149 352.35 690.609 366.51C691.949 379.47 693.969 388.91 701.419 388.14C708.869 387.37 708.979 377.5 707.519 363.34C706.179 350.38 704.159 340.95 696.709 341.71Z" fill="black"/>
<path d="M750.47 397.719C750.02 397.769 749.94 397.699 749.89 397.249L749.74 395.829C749.69 395.379 749.75 395.229 750.2 395.179L752.35 394.879C753.76 394.659 753.86 394.199 753.28 388.539L749.91 355.829C749.33 350.169 749.13 349.739 747.71 349.809L745.62 349.949C745.16 349.919 745.01 349.859 744.96 349.419L744.81 347.999C744.76 347.549 744.9 347.459 745.35 347.419L771.88 344.679C772.4 344.629 772.5 344.839 772.55 345.289L774.19 361.159C774.24 361.609 774.19 361.839 773.66 361.889L772.09 362.049C771.72 362.089 771.55 361.879 771.5 361.429L771.26 359.119C770.46 352.049 768.39 348.049 763.47 348.549L758.26 349.089L760.43 370.179L762.89 369.929C765.94 369.609 766.59 367.139 766.37 363.469V362.789C766.32 362.269 766.38 362.109 766.83 362.069L768.17 361.929C768.69 361.879 768.78 362.019 768.84 362.539L770.62 379.749C770.67 380.269 770.62 380.429 770.09 380.479L768.75 380.619C768.3 380.669 768.21 380.529 768.16 379.999L767.91 378.289C767.53 374.639 766.25 372.439 763.2 372.749L760.74 372.999L762.25 387.599C762.83 393.259 762.95 393.699 764.38 393.629L767.82 393.349C768.27 393.299 768.43 393.439 768.48 393.889L768.63 395.309C768.68 395.759 768.53 395.849 768.09 395.889L750.51 397.699L750.47 397.719Z" fill="black"/>
<path d="M827.61 379.461C827.16 379.511 827.01 379.451 826.96 379.001L826.81 377.581C826.76 377.131 826.9 376.971 827.35 376.921L829.43 376.631C830.91 376.401 830.94 375.951 830.36 370.281L826.39 331.761L823.71 332.041C818.79 332.551 817.58 336.891 818.24 343.971L818.46 346.131C818.51 346.581 818.38 346.821 818.01 346.851L816.45 347.011C815.93 347.061 815.83 346.851 815.78 346.401L814.16 330.681C814.11 330.231 814.16 330.001 814.69 329.951L846.43 326.681C846.88 326.631 846.97 326.851 847.02 327.301L848.64 343.021C848.69 343.471 848.64 343.701 848.19 343.741L846.63 343.901C846.26 343.941 846.09 343.731 846.04 343.281L845.82 341.121C844.94 334.061 842.94 330.051 837.95 330.561L835.34 330.831L839.31 369.351C839.89 375.011 840.02 375.451 841.44 375.381L843.61 375.231C844.06 375.181 844.22 375.321 844.27 375.771L844.42 377.191C844.47 377.641 844.33 377.731 843.88 377.771L827.64 379.441L827.61 379.461Z" fill="black"/>
<path d="M891.251 379.241C890.801 379.291 890.721 379.221 890.671 378.771L890.521 377.351C890.471 376.901 890.531 376.751 890.981 376.701L893.131 376.401C894.541 376.181 894.641 375.721 894.061 370.061L890.691 337.351C890.111 331.691 889.911 331.261 888.491 331.331L886.401 331.471C885.941 331.441 885.791 331.381 885.741 330.941L885.591 329.521C885.541 329.071 885.691 328.981 886.131 328.941L912.661 326.201C913.181 326.151 913.281 326.361 913.331 326.811L914.821 341.261C914.871 341.781 914.821 341.941 914.291 341.991L912.731 342.151C912.361 342.191 912.271 342.051 912.141 341.531L912.041 340.561C911.091 333.581 909.171 329.561 904.261 330.071L899.041 330.611L901.061 350.211L903.521 349.961C906.501 349.651 907.221 347.171 907.001 343.501V342.821C906.951 342.301 907.011 342.141 907.461 342.101L908.801 341.961C909.321 341.911 909.421 342.121 909.461 342.571L911.171 359.111C911.221 359.631 911.171 359.791 910.641 359.841L909.301 359.981C908.851 360.031 908.761 359.881 908.711 359.361L908.531 358.321C908.091 354.751 906.801 352.471 903.821 352.781L901.361 353.031L903.621 374.941L911.071 374.171C916.291 373.631 917.141 368.051 916.961 361.891V361.211C916.991 360.751 917.051 360.521 917.421 360.481L918.981 360.321C919.501 360.271 919.601 360.481 919.651 360.931L920.481 375.531C920.531 375.981 920.481 376.211 919.951 376.261L891.261 379.221L891.251 379.241Z" fill="black"/>
<path d="M806.441 521.779L759.991 526.569L742.621 432.129L801.721 424.859L806.441 521.779Z" fill="#DB4726"/>
<path d="M680.978 540.001L629.248 544.751L615.238 448.781L677.368 442.381L680.978 540.001Z" fill="#DB4726"/>
<path d="M882.051 521.02L821.731 527.83L816.961 430.33L864.571 425.42L882.051 521.02Z" fill="#DB4726"/>
<path d="M753.401 536.639L693.071 543.449L688.301 445.939L735.911 441.029L753.401 536.639Z" fill="#DB4726"/>
<path d="M706.55 522.52C706.1 522.57 705.95 522.51 705.9 522.06L705.75 520.64C705.7 520.19 705.85 520.1 706.29 519.98L708.44 519.68C709.84 519.39 709.88 519.01 709.29 513.34L705.92 480.63C705.34 474.97 705.22 474.53 703.79 474.6L701.62 474.75C701.17 474.72 701.01 474.66 700.96 474.21L700.81 472.79C700.76 472.34 700.91 472.25 701.35 472.21L717.59 470.53C718.04 470.48 718.19 470.54 718.24 470.99L718.39 472.41C718.44 472.86 718.3 472.95 717.85 473.07L715.77 473.36C714.29 473.59 714.33 474.03 714.92 479.7L718.29 512.41C718.87 518.07 718.91 518.45 720.42 518.44L722.51 518.3C722.97 518.33 723.12 518.39 723.17 518.84L723.32 520.26C723.37 520.71 723.22 520.8 722.78 520.84L706.54 522.52H706.55Z" fill="black"/>
<path d="M792.551 498.781C792.251 498.811 792.091 498.681 791.821 498.331L768.601 461.571H768.521L770.631 481.991C771.941 494.731 773.751 496.951 777.051 496.761L778.771 496.661C779.221 496.691 779.381 496.751 779.431 497.191L779.581 498.611C779.631 499.061 779.481 499.151 779.041 499.191L764.811 500.661C764.361 500.711 764.211 500.651 764.161 500.201L764.011 498.781C763.961 498.331 764.111 498.241 764.551 498.121L765.361 497.961C767.581 497.581 768.521 495.001 767.211 482.331L764.791 458.861C764.201 453.121 763.931 452.701 762.581 452.761L760.251 452.851C759.801 452.901 759.651 452.841 759.601 452.391L759.451 450.901C759.401 450.451 759.541 450.361 759.991 450.321L771.091 449.171C771.541 449.121 771.701 449.261 771.971 449.681L791.951 482.031L792.101 482.011L790.371 465.251C789.061 452.511 787.181 450.371 783.951 450.481L782.231 450.581C781.771 450.551 781.621 450.491 781.571 450.041L781.421 448.621C781.371 448.171 781.521 448.081 781.961 448.041L796.041 446.591C796.491 446.541 796.641 446.601 796.691 447.051L796.841 448.471C796.891 448.921 796.751 449.011 796.311 449.131L795.501 449.291C793.361 449.741 792.421 452.241 793.721 464.911L797.111 497.771C797.151 498.141 797.021 498.311 796.571 498.351L792.551 498.771V498.781Z" fill="black"/>
<path d="M853.382 508.361C841.912 509.541 834.282 500.621 832.682 485.041C831.042 469.171 836.892 457.271 848.522 456.071C859.992 454.891 867.622 463.821 869.222 479.391C870.862 495.261 865.002 507.161 853.382 508.361ZM848.602 459.001C841.222 459.761 841.042 469.641 842.502 483.801C843.842 496.761 845.862 506.191 853.312 505.431C860.762 504.661 860.872 494.791 859.412 480.631C858.072 467.671 856.042 458.241 848.602 459.001Z" fill="black"/>
<path d="M663.019 519.08C662.499 519.13 662.329 519 662.049 518.43L650.809 497.07C649.479 499.47 649.009 501.55 649.329 504.68L650.039 511.54C650.619 517.2 650.739 517.64 652.169 517.57L654.339 517.42C654.789 517.45 654.949 517.51 654.999 517.96L655.149 519.38C655.199 519.83 655.049 519.92 654.609 519.96L638.289 521.64C637.839 521.69 637.759 521.62 637.709 521.17L637.559 519.75C637.509 519.3 637.579 519.22 638.019 519.1L640.169 518.8C641.579 518.58 641.609 518.12 641.019 512.46L637.649 479.75C637.069 474.09 636.949 473.65 635.519 473.72L633.429 473.86C632.969 473.83 632.819 473.77 632.769 473.33L632.619 471.91C632.569 471.46 632.709 471.37 633.159 471.33L649.399 469.66C649.849 469.61 649.999 469.67 650.049 470.12L650.199 471.54C650.249 471.99 650.099 472.08 649.669 472.2L647.519 472.5C646.109 472.72 646.079 473.17 646.669 478.84L648.449 496.13H648.519C649.299 493.41 651.259 489.82 655.929 481.05C657.279 478.12 658.459 475.67 658.259 473.73C658.109 472.24 657.429 471.56 656.079 471.62L654.729 471.68C654.269 471.65 654.189 471.58 654.149 471.14L653.999 469.72C653.949 469.27 654.019 469.19 654.469 469.14L668.249 467.72C668.699 467.67 668.849 467.73 668.899 468.18L669.049 469.6C669.099 470.05 668.959 470.14 668.519 470.26L667.629 470.43C664.749 471.03 663.849 472.48 660.669 478.83L656.049 487.36L667.269 508.57C670.469 514.72 670.989 515.42 672.649 515.47H673.399C673.859 515.5 673.939 515.56 673.979 516.01L674.129 517.43C674.179 517.88 674.109 517.96 673.659 518.01L662.999 519.11L663.019 519.08Z" fill="black"/>
<path d="M249.559 205.32L422.809 190.9" stroke="#5C988D" stroke-width="4" stroke-miterlimit="10"/>
<path d="M843.398 153.649L1042.67 135.369" stroke="#5C988D" stroke-width="4" stroke-miterlimit="10"/>
<path d="M537.232 169.34C538.902 168.39 540.162 168.82 539.792 170.06C538.552 174.48 535.732 178.65 531.662 179.08C523.442 179.94 521.402 169.38 522.702 148.13C519.462 157.13 516.492 169.26 513.662 179.41C509.512 181.74 507.612 181.31 507.682 178.56C507.802 172.99 508.172 149.65 507.782 137.94C503.912 151.01 500.512 167.84 498.112 180.06C495.782 182.84 492.142 183.99 492.092 180.83L492.012 138.53C492.022 135.99 491.252 135.37 489.172 135.87L477.382 138.51C475.172 139.09 475.052 135.94 476.842 134.06L494.352 131.81C496.452 131.52 499.112 132.51 498.972 135.83C498.582 144.88 498.152 155.55 497.972 167.33C500.702 153.53 503.302 139.18 506.592 128.77C507.342 126.44 511.272 127.37 514.682 130.11L513.802 168.07C516.012 156.08 520.322 141.84 521.632 139.45C522.872 137.07 526.942 140.02 529.452 144.26C527.582 157.41 527.782 176.11 532.702 175.6C534.172 175.45 535.762 174.29 537.222 169.36L537.232 169.34Z" fill="black"/>
<path d="M544.169 171.921C545.419 175.031 547.489 176.431 549.729 176.201C552.959 175.861 555.609 171.431 556.869 165.881C558.519 164.721 559.619 165.661 559.559 166.441C559.209 171.191 554.529 178.581 548.629 179.201C543.149 179.771 537.779 175.971 536.859 167.271C535.179 151.401 542.549 147.251 545.919 146.901C550.059 146.471 552.049 149.151 552.429 152.701C553.229 160.221 548.859 167.291 544.169 171.931V171.921ZM543.279 168.851C545.919 164.981 547.949 159.281 547.229 152.531C547.069 151.001 546.639 150.341 545.869 150.421C544.609 150.551 541.799 155.561 543.009 166.981C543.079 167.681 543.149 168.301 543.279 168.851Z" fill="black"/>
<path d="M564.009 156.191C562.959 156.371 561.919 156.551 561.009 156.651C561.159 160.791 560.619 165.071 558.899 169.541C558.169 171.371 556.499 170.991 555.869 169.711C557.129 166.201 557.599 161.221 557.449 156.451C555.269 155.971 553.899 154.431 553.529 150.951C553.239 148.161 554.599 142.321 559.099 143.891C559.659 146.511 560.209 149.051 560.629 151.611C563.939 151.341 567.809 150.371 569.179 149.241C570.239 149.201 571.259 149.451 570.899 151.381C568.269 166.091 570.349 171.641 572.449 171.421C573.919 171.271 575.509 170.111 576.969 165.181C577.939 164.301 579.749 164.611 579.529 165.901C578.719 170.351 575.469 174.491 571.329 174.921C568.029 175.261 562.919 171.931 564.019 156.181L564.009 156.191Z" fill="black"/>
<path d="M583.911 167.77C585.161 170.88 587.231 172.28 589.471 172.04C592.701 171.7 595.361 167.27 596.611 161.72C598.261 160.56 599.361 161.5 599.301 162.29C598.951 167.04 594.271 174.43 588.371 175.05C582.891 175.62 577.521 171.82 576.601 163.12C574.921 147.25 582.291 143.1 585.661 142.75C589.801 142.32 591.791 145 592.171 148.55C592.971 156.07 588.601 163.14 583.911 167.78V167.77ZM583.021 164.7C585.661 160.83 587.691 155.13 586.971 148.38C586.811 146.85 586.381 146.19 585.611 146.27C584.351 146.4 581.541 151.41 582.751 162.83C582.821 163.53 582.891 164.15 583.021 164.7Z" fill="black"/>
<path d="M615.641 164.45C616.891 167.56 618.961 168.96 621.201 168.72C624.431 168.38 627.091 163.95 628.341 158.4C629.991 157.24 631.091 158.18 631.031 158.96C630.681 163.71 626.001 171.1 620.101 171.72C614.621 172.29 609.251 168.49 608.331 159.79C606.651 143.92 614.021 139.77 617.391 139.42C621.531 138.99 623.521 141.67 623.901 145.22C624.701 152.74 620.331 159.81 615.641 164.46V164.45ZM614.751 161.38C617.391 157.51 619.421 151.81 618.701 145.06C618.541 143.53 618.111 142.87 617.341 142.95C616.081 143.08 613.271 148.09 614.481 159.51C614.551 160.21 614.621 160.83 614.751 161.38Z" fill="black"/>
<path d="M639.139 147.01C637.069 152.93 635.009 159.62 632.759 167.88C629.249 169.59 627.639 168.48 627.439 166.61C626.989 161.66 626.859 151.04 627.139 141.02L629.549 139.64C631.829 138.35 633.749 139.06 633.649 140.83C633.309 146.36 631.949 154.95 631.839 161.93C634.729 151 636.579 145.67 639.159 139.2C639.999 137.07 642.839 136.42 645.849 139.35C643.779 158.64 646.019 163.76 647.989 163.55C649.459 163.4 651.049 162.24 652.509 157.31C653.479 156.43 655.289 156.74 655.069 158.03C654.259 162.48 651.009 166.62 646.869 167.05C641.389 167.62 638.599 159.4 639.139 147.02V147.01Z" fill="black"/>
<path d="M671.851 116.63C673.041 127.91 672.591 140.34 670.411 149.93C671.151 157.6 671.941 161.03 673.061 160.91C674.541 160.76 676.121 159.6 677.581 154.67C678.551 153.79 680.361 154.1 680.141 155.39C679.331 159.84 676.081 163.98 671.941 164.41C669.831 164.63 668.351 162.67 667.321 159.05C665.391 162.91 662.871 165.29 659.861 165.67C655.791 166.1 652.361 160.54 651.621 153.58C650.781 145.64 653.881 136.66 659.421 136.08C662.161 135.79 663.781 136.4 665.281 137.16C665.121 130.98 665.141 123.8 665.191 116.19C670.111 111.73 671.451 112.93 671.841 116.62L671.851 116.63ZM665.361 139.9C664.191 139.6 663.121 139.5 661.921 139.63C656.441 140.2 657.291 162.29 661.221 161.87C663.961 161.58 665.311 156.23 665.721 148.03C665.531 145.59 665.461 142.85 665.361 139.9Z" fill="black"/>
<path d="M698.75 135.43C698.19 133.45 699.7 131.67 701.97 131.01C705.51 135.64 708.62 135.52 712.2 133.11C712.6 132.86 713.07 133.23 713.19 133.71C713.59 135.43 708.61 138.06 705.76 137.94C706.91 146.83 703.81 161.09 696.72 161.83C687.73 162.77 686.43 138.41 690.89 113.52C693.42 111.28 698.32 109.93 697.76 113.37C691.93 146.78 695.18 158.69 697.7 158.42C701.42 158.03 701.92 148.62 698.74 135.43H698.75Z" fill="black"/>
<path d="M734.872 148.691C735.842 147.811 737.652 148.121 737.432 149.411C736.622 153.861 733.372 158.001 729.242 158.501C727.492 158.681 725.092 158.231 723.712 154.571C721.982 158.341 720.102 159.381 717.852 159.621C712.792 160.151 710.152 155.291 709.502 149.161C708.652 141.081 712.042 130.871 720.962 129.941C723.982 129.621 727.982 131.181 727.542 135.731C728.292 136.071 728.912 137.281 728.432 140.071C726.862 148.751 727.202 155.261 730.362 154.931C731.832 154.781 733.422 153.621 734.882 148.691H734.872ZM720.122 133.411C716.262 133.811 715.142 143.361 715.842 149.981C716.232 153.671 717.302 156.371 718.772 156.221C720.812 156.011 722.762 152.281 722.502 141.121C721.422 140.951 721.012 140.501 720.972 139.381C722.472 137.461 722.932 133.121 720.132 133.421L720.122 133.411Z" fill="black"/>
<path d="M742.209 137.569C741.159 137.749 740.119 137.929 739.209 138.029C739.359 142.169 738.819 146.449 737.099 150.919C736.369 152.759 734.699 152.369 734.069 151.089C735.329 147.579 735.799 142.599 735.649 137.829C733.469 137.349 732.099 135.809 731.729 132.329C731.439 129.539 732.799 123.699 737.299 125.269C737.859 127.889 738.409 130.429 738.829 132.989C742.139 132.719 746.009 131.749 747.379 130.619C748.439 130.579 749.459 130.829 749.099 132.759C746.469 147.469 748.549 153.019 750.649 152.799C752.119 152.649 753.709 151.489 755.169 146.559C756.139 145.679 757.949 145.989 757.729 147.279C756.919 151.729 753.669 155.869 749.529 156.299C746.229 156.639 741.119 153.309 742.219 137.559L742.209 137.569Z" fill="black"/>
<path d="M762.11 149.15C763.36 152.26 765.43 153.66 767.67 153.42C770.9 153.08 773.56 148.65 774.81 143.1C776.46 141.94 777.56 142.88 777.5 143.66C777.15 148.41 772.47 155.8 766.57 156.42C761.09 156.99 755.72 153.19 754.8 144.49C753.12 128.62 760.49 124.47 763.86 124.12C768 123.69 769.99 126.37 770.37 129.92C771.17 137.44 766.8 144.51 762.11 149.16V149.15ZM761.22 146.08C763.86 142.21 765.89 136.51 765.17 129.76C765.01 128.23 764.58 127.57 763.81 127.65C762.55 127.78 759.74 132.79 760.95 144.21C761.02 144.91 761.09 145.53 761.22 146.08Z" fill="black"/>
<path d="M473.749 262.501C473.289 262.551 473.209 262.481 473.159 262.031L473.009 260.601C472.959 260.151 473.019 259.991 473.479 259.941L475.669 259.631C477.099 259.401 477.209 258.941 476.599 253.221L473.119 220.201C472.519 214.481 472.319 214.051 470.869 214.121L468.739 214.271C468.279 214.241 468.119 214.181 468.069 213.731L467.919 212.301C467.869 211.851 468.019 211.761 468.469 211.711L495.479 208.881C496.009 208.821 496.109 209.041 496.159 209.491L497.699 224.081C497.749 224.611 497.699 224.771 497.159 224.821L495.569 224.991C495.189 225.031 495.099 224.891 494.969 224.371L494.869 223.391C493.899 216.341 491.929 212.291 486.929 212.811L481.619 213.371L483.709 233.151L486.209 232.891C489.249 232.571 489.979 230.061 489.739 226.361V225.671C489.689 225.141 489.739 224.981 490.199 224.941L491.569 224.801C492.099 224.741 492.199 224.961 492.249 225.411L494.009 242.111C494.069 242.641 494.009 242.801 493.469 242.851L492.099 242.991C491.639 243.041 491.549 242.901 491.499 242.371L491.309 241.331C490.849 237.731 489.539 235.431 486.499 235.751L483.999 236.011L486.329 258.121L493.919 257.321C499.229 256.761 500.089 251.121 499.899 244.901V244.221C499.929 243.761 499.979 243.531 500.359 243.491L501.949 243.321C502.479 243.261 502.579 243.481 502.629 243.931L503.489 258.671C503.539 259.121 503.489 259.351 502.949 259.411L473.739 262.481L473.749 262.501Z" fill="black"/>
<path d="M535.621 256.989C535.321 257.019 535.151 256.889 534.881 256.529L511.181 219.469H511.101L513.271 240.089C514.631 252.949 516.471 255.189 519.831 254.989L521.581 254.879C522.041 254.909 522.201 254.969 522.251 255.419L522.401 256.849C522.451 257.299 522.301 257.389 521.851 257.439L507.361 258.959C506.901 259.009 506.741 258.949 506.701 258.499L506.551 257.069C506.501 256.619 506.651 256.529 507.091 256.409L507.921 256.249C510.181 255.859 511.131 253.249 509.791 240.459L507.291 216.769C506.681 210.979 506.401 210.549 505.031 210.619L502.661 210.719C502.201 210.769 502.041 210.709 502.001 210.259L501.841 208.759C501.791 208.309 501.941 208.219 502.391 208.169L513.691 206.979C514.151 206.929 514.311 207.069 514.591 207.499L534.981 240.119L535.131 240.099L533.341 223.179C531.981 210.319 530.071 208.159 526.781 208.279L525.031 208.389C524.571 208.359 524.411 208.299 524.361 207.849L524.211 206.419C524.161 205.969 524.311 205.879 524.761 205.829L539.101 204.329C539.561 204.279 539.721 204.339 539.761 204.789L539.911 206.219C539.961 206.669 539.811 206.759 539.371 206.889L538.541 207.049C536.361 207.509 535.401 210.039 536.751 222.829L540.251 255.999C540.291 256.379 540.151 256.539 539.701 256.589L535.601 257.019L535.621 256.989Z" fill="black"/>
<path d="M579.971 251.351L561.841 253.251C561.381 253.301 561.301 253.231 561.251 252.781L561.101 251.351C561.051 250.901 561.121 250.821 561.571 250.691L563.761 250.381C565.191 250.151 565.301 249.691 564.701 243.971L561.221 210.951C560.621 205.231 560.421 204.801 558.971 204.871L556.841 205.021C556.381 204.991 556.221 204.931 556.171 204.481L556.021 203.051C555.971 202.601 556.121 202.511 556.571 202.461L574.331 200.601C581.161 199.881 588.861 201.591 589.861 211.141C590.551 217.681 586.641 222.051 580.701 223.961L580.721 224.111C587.291 223.881 593.641 226.561 594.541 235.131C595.681 245.961 587.801 250.511 579.991 251.341L579.971 251.351ZM572.741 203.821L569.701 204.141L571.801 224.071L574.911 223.741C579.461 223.261 581.301 220.331 580.521 212.881C579.681 204.911 577.141 203.351 572.741 203.811V203.821ZM575.161 226.761L572.121 227.081L574.421 248.891L578.591 248.451C583.451 247.941 585.491 244.761 584.641 236.711C583.771 228.441 580.991 226.141 575.151 226.751L575.161 226.761Z" fill="black"/>
<path d="M599.779 249.271C599.319 249.321 599.159 249.261 599.119 248.811L598.969 247.381C598.919 246.931 599.069 246.841 599.509 246.721L601.699 246.411C603.129 246.111 603.159 245.721 602.559 240.011L599.079 206.991C598.479 201.271 598.349 200.831 596.899 200.911L594.689 201.071C594.229 201.041 594.069 200.981 594.019 200.531L593.869 199.101C593.819 198.651 593.969 198.561 594.419 198.511L610.959 196.771C611.419 196.721 611.579 196.781 611.619 197.231L611.769 198.661C611.819 199.111 611.669 199.201 611.229 199.331L609.109 199.631C607.599 199.861 607.649 200.321 608.249 206.031L611.729 239.051C612.329 244.771 612.369 245.141 613.909 245.131L616.039 244.981C616.499 245.011 616.659 245.071 616.709 245.521L616.859 246.951C616.909 247.401 616.759 247.491 616.309 247.541L599.769 249.281L599.779 249.271Z" fill="black"/>
<path d="M638.579 246.191C626.899 247.421 619.119 238.421 617.459 222.701C615.769 206.681 621.709 194.651 633.549 193.411C645.239 192.181 653.009 201.181 654.669 216.901C656.359 232.921 650.419 244.951 638.579 246.201V246.191ZM633.629 196.361C626.119 197.151 625.939 207.131 627.449 221.421C628.829 234.511 630.909 244.031 638.499 243.231C646.089 242.431 646.189 232.461 644.679 218.171C643.299 205.081 641.219 195.561 633.629 196.361Z" fill="black"/>
<path d="M693.681 239.881C693.221 239.931 693.131 239.791 692.861 239.361L691.761 237.651L691.611 237.671C689.191 239.451 685.321 241.301 680.991 241.751C669.081 243.001 661.341 233.621 659.681 217.901C657.971 201.731 663.521 190.271 676.341 188.931C680.131 188.531 683.511 189.241 685.691 190.311L685.811 189.231C685.841 188.771 685.891 188.541 686.421 188.481L687.411 188.381C687.941 188.321 688.041 188.541 688.091 188.991L689.751 204.711C689.801 205.161 689.741 205.321 689.211 205.381L687.691 205.541C687.311 205.581 687.141 205.451 687.101 204.991L686.901 203.791C686.081 197.491 682.641 191.081 677.031 191.671C668.841 192.531 668.021 200.831 669.711 216.851C671.431 233.171 674.411 239.561 681.011 238.861C683.061 238.651 684.881 237.691 686.211 236.491L685.371 228.521C684.771 222.801 684.641 222.361 683.191 222.441L679.461 222.681C679.001 222.731 678.851 222.671 678.801 222.221L678.651 220.791C678.601 220.341 678.751 220.251 679.201 220.201L696.421 218.391C696.881 218.341 696.961 218.411 697.011 218.861L697.161 220.291C697.211 220.741 697.141 220.831 696.691 220.871L694.891 221.211C693.461 221.511 693.351 221.901 693.961 227.621L695.171 239.131C695.221 239.581 695.161 239.741 694.631 239.801L693.721 239.891L693.681 239.881Z" fill="black"/>
<path d="M720.42 209.689L720.44 209.839C726.44 210.729 729.67 213.739 730.96 223.039C732.09 230.909 732.99 232.789 734.58 232.619C735.49 232.519 735.88 231.119 735.9 229.139C735.94 228.759 736.07 228.589 736.53 228.619L737.47 228.829C737.86 228.869 737.96 229.079 737.93 229.539C737.93 233.949 735.7 236.009 732.05 236.389C725.6 237.069 723.23 232.069 721.84 223.919C720.4 214.639 718.62 211.559 714.75 211.959L711.64 212.289L713.34 228.389C713.94 234.109 713.99 234.559 715.52 234.469L717.73 234.319C718.19 234.269 718.28 234.409 718.32 234.859L718.47 236.289C718.52 236.739 718.45 236.819 717.99 236.869L701.37 238.609C700.91 238.659 700.83 238.589 700.78 238.139L700.63 236.709C700.58 236.259 700.64 236.099 701.1 236.049L703.29 235.739C704.72 235.509 704.83 235.049 704.22 229.329L700.74 196.309C700.14 190.589 699.94 190.159 698.49 190.229L696.36 190.379C695.9 190.349 695.74 190.289 695.69 189.839L695.54 188.409C695.49 187.959 695.64 187.869 696.09 187.819L714.15 185.929C722.12 185.089 728.82 187.509 729.77 196.539C730.48 203.229 726.66 207.819 720.42 209.689ZM712.5 189.149L709.24 189.489L711.33 209.349L714.67 208.999C719.22 208.519 721.04 205.369 720.28 198.139C719.45 190.239 716.9 188.679 712.5 189.139V189.149Z" fill="black"/>
<path d="M760.942 232.369C760.482 232.419 760.322 232.359 760.282 231.909L760.132 230.479C760.082 230.029 760.232 229.939 760.672 229.819L762.182 229.579C763.232 229.389 763.892 229.099 763.742 227.669C763.612 226.389 763.012 224.399 761.662 221.039L759.442 214.499L748.062 215.689L747.932 216.619C747.412 219.719 747.042 223.479 747.352 226.409C747.652 229.269 748.742 230.829 750.502 230.789L751.802 230.729C752.262 230.759 752.422 230.819 752.472 231.269L752.622 232.699C752.672 233.149 752.522 233.239 752.072 233.289L739.632 234.599C739.172 234.649 739.012 234.589 738.972 234.139L738.822 232.709C738.772 232.259 738.922 232.169 739.362 232.049L739.962 231.909C741.452 231.529 741.882 230.489 742.732 226.139C743.242 223.729 743.972 219.699 744.532 216.289L750.402 181.749C750.432 181.289 750.492 181.129 750.942 181.079L755.422 180.609C755.882 180.559 755.962 180.629 756.172 181.139L771.542 219.989C774.492 227.589 774.922 228.079 776.532 228.059L777.522 228.029C777.982 228.059 778.142 228.119 778.192 228.569L778.342 229.999C778.392 230.449 778.242 230.539 777.792 230.589L760.952 232.359L760.942 232.369ZM751.602 194.029H751.522L748.642 212.589L758.202 211.589L751.592 194.029H751.602Z" fill="black"/>
<path d="M780.589 230.3C780.129 230.35 780.049 230.28 779.999 229.83L779.849 228.4C779.799 227.95 779.859 227.79 780.319 227.74L782.509 227.43C783.939 227.2 784.049 226.74 783.439 221.02L779.959 188C779.359 182.28 779.159 181.85 777.709 181.92L775.579 182.07C775.119 182.04 774.959 181.98 774.909 181.53L774.759 180.1C774.709 179.65 774.859 179.56 775.309 179.51L802.319 176.68C802.849 176.62 802.949 176.84 802.999 177.29L804.689 193.31C804.739 193.76 804.689 193.99 804.149 194.05L802.559 194.22C802.179 194.26 802.009 194.05 801.959 193.6L801.709 191.27C800.879 184.13 798.769 180.09 793.759 180.62L788.449 181.18L790.699 202.47L793.199 202.21C796.309 201.88 796.969 199.38 796.729 195.68V194.99C796.679 194.46 796.729 194.31 797.189 194.26L798.559 194.12C799.089 194.06 799.179 194.21 799.239 194.73L801.069 212.11C801.129 212.64 801.069 212.79 800.529 212.85L799.159 212.99C798.699 213.04 798.609 212.9 798.559 212.37L798.299 210.65C797.909 206.96 796.599 204.74 793.489 205.07L790.989 205.33L792.539 220.07C793.139 225.79 793.269 226.23 794.719 226.15L798.219 225.86C798.669 225.81 798.839 225.95 798.889 226.4L799.039 227.83C799.089 228.28 798.939 228.37 798.489 228.42L780.579 230.3H780.589Z" fill="black"/>
<path d="M502.439 295.111L501.609 287.161L500.189 287.311L500.039 285.901L501.459 285.751L501.179 283.121C501.009 281.501 501.949 280.251 503.499 280.091C503.629 280.081 503.829 280.081 504.009 280.141L504.149 281.511C504.009 281.481 503.889 281.491 503.799 281.511C503.049 281.591 502.519 282.191 502.599 282.981L502.879 285.611L504.559 285.431L504.709 286.841L503.029 287.021L503.859 294.971L502.439 295.121V295.111Z" fill="black"/>
<path d="M506.129 289.99C505.839 287.25 507.849 284.77 510.479 284.49C511.599 284.37 512.569 284.64 513.359 285.18L513.289 284.5L514.689 284.35L515.669 293.72L514.269 293.87L514.199 293.19C513.529 293.89 512.639 294.35 511.519 294.47C508.889 294.75 506.409 292.76 506.119 290L506.129 289.99ZM514.039 291.62L513.529 286.72C512.769 286.11 511.819 285.76 510.779 285.86C508.799 286.07 507.329 287.87 507.529 289.83C507.739 291.8 509.539 293.23 511.529 293.02C512.569 292.91 513.429 292.39 514.039 291.61V291.62Z" fill="black"/>
<path d="M518.48 293.42L517.5 284.05L518.9 283.9L518.98 284.67C519.37 284.04 520.14 283.47 521.15 283.36C522.72 283.19 524.08 284.24 524.28 286.19L524.97 292.73L523.57 292.88L522.9 286.51C522.77 285.27 521.95 284.69 520.95 284.79C520.11 284.88 519.38 285.45 519.13 286.17L519.88 293.27L518.48 293.42Z" fill="black"/>
<path d="M528.121 292.399L527.281 284.419L525.861 284.569L525.711 283.179L527.131 283.029L526.801 279.889L528.151 279.029L528.551 282.879L530.231 282.699L530.381 284.089L528.701 284.269L529.541 292.249L528.121 292.399Z" fill="black"/>
<path d="M531.918 287.271C531.628 284.531 533.639 282.051 536.269 281.771C537.389 281.651 538.359 281.921 539.149 282.461L539.079 281.781L540.478 281.631L541.459 291.001L540.058 291.151L539.988 290.471C539.318 291.171 538.428 291.631 537.308 291.751C534.678 292.031 532.198 290.041 531.908 287.281L531.918 287.271ZM539.829 288.901L539.319 284.001C538.559 283.391 537.609 283.031 536.569 283.141C534.589 283.351 533.119 285.151 533.319 287.111C533.529 289.081 535.329 290.511 537.319 290.301C538.359 290.191 539.219 289.671 539.829 288.891V288.901Z" fill="black"/>
<path d="M543.76 291.01L543.61 289.6C543.74 289.63 543.92 289.63 544.05 289.62C544.98 289.52 545.51 288.8 545.42 287.94C545.35 287.26 544.9 286.76 544.42 286.25C543.85 285.62 543.21 284.93 543.09 283.77C542.93 282.23 544.01 280.95 545.7 280.77H545.77L545.92 282.15H545.85C545.1 282.24 544.51 282.86 544.6 283.74C544.67 284.42 545.11 284.9 545.58 285.41C546.17 286.02 546.78 286.67 546.9 287.84C547.07 289.44 545.93 290.82 544.2 291C544.07 291.01 543.87 291.01 543.76 291V291.01Z" fill="black"/>
<path d="M549.769 290.12L548.929 282.14L547.509 282.29L547.359 280.9L548.779 280.75L548.449 277.61L549.799 276.75L550.199 280.6L551.879 280.42L552.029 281.81L550.349 281.99L551.189 289.97L549.769 290.12Z" fill="black"/>
<path d="M553.439 278.579L553.219 276.439L554.619 276.289L554.839 278.429L553.439 278.579ZM554.599 289.609L553.619 280.239L555.019 280.089L555.999 289.459L554.599 289.609Z" fill="black"/>
<path d="M558.309 289.48L558.159 288.07C558.289 288.1 558.469 288.1 558.599 288.09C559.529 287.99 560.059 287.26 559.969 286.41C559.899 285.73 559.449 285.23 558.959 284.72C558.389 284.09 557.749 283.4 557.629 282.24C557.469 280.7 558.549 279.42 560.239 279.24H560.299L560.449 280.62H560.389C559.639 280.71 559.049 281.33 559.139 282.21C559.209 282.89 559.649 283.37 560.119 283.88C560.709 284.49 561.319 285.14 561.439 286.31C561.609 287.91 560.469 289.29 558.739 289.47C558.609 289.48 558.409 289.48 558.299 289.47L558.309 289.48Z" fill="black"/>
<path d="M563.981 288.62L562.441 273.97L563.841 273.82L564.791 282.89L567.171 278.81L568.981 278.62L566.061 283.45L570.241 287.96L568.451 288.15L565.281 284.7L565.021 285.14L565.371 288.47L563.971 288.62H563.981Z" fill="black"/>
<path d="M570.09 283.239C569.8 280.499 571.81 278.019 574.59 277.729C577.29 277.449 579.75 279.279 580.14 282.179C580.16 282.389 580.18 282.559 580.18 282.779L571.6 283.679C572.06 285.339 573.7 286.489 575.49 286.299C576.48 286.199 577.32 285.699 577.92 284.979L579.02 285.859C578.21 286.849 577.02 287.539 575.64 287.689C572.86 287.979 570.38 285.999 570.09 283.239ZM578.63 281.759C578.17 280.099 576.52 278.929 574.73 279.119C572.94 279.309 571.57 280.789 571.47 282.509L578.63 281.759Z" fill="black"/>
<path d="M588.888 285.999L588.058 278.049L586.638 278.199L586.488 276.789L587.908 276.639L587.628 274.009C587.458 272.389 588.398 271.139 589.948 270.979C590.078 270.969 590.278 270.969 590.458 271.039L590.598 272.409C590.468 272.379 590.338 272.389 590.248 272.409C589.498 272.489 588.968 273.089 589.048 273.879L589.328 276.509L591.008 276.329L591.158 277.739L589.478 277.919L590.308 285.869L588.888 286.019V285.999ZM592.448 274.459L592.228 272.319L593.628 272.169L593.848 274.309L592.448 274.459ZM593.608 285.499L592.628 276.129L594.028 275.979L595.008 285.349L593.608 285.499Z" fill="black"/>
<path d="M597.841 285.05L596.301 270.4L597.701 270.25L599.241 284.9L597.841 285.05Z" fill="black"/>
<path d="M602.039 284.61L601.059 275.24L602.459 275.09L602.539 275.86C602.929 275.23 603.699 274.66 604.709 274.55C605.699 274.45 606.619 274.85 607.199 275.63C607.679 274.8 608.629 274.14 609.729 274.02C611.369 273.85 612.719 274.89 612.929 276.84L613.619 283.38L612.219 283.53L611.549 277.16C611.419 275.92 610.599 275.34 609.599 275.44C608.739 275.53 607.989 276.13 607.739 276.87C607.779 277.04 607.819 277.21 607.839 277.38L608.529 283.92L607.129 284.07L606.459 277.7C606.329 276.46 605.509 275.88 604.509 275.98C603.669 276.07 602.939 276.64 602.689 277.36L603.439 284.46L602.039 284.61Z" fill="black"/>
<path d="M615.399 278.47C615.109 275.73 617.119 273.25 619.899 272.96C622.679 272.67 625.159 274.65 625.449 277.41C625.739 280.17 623.729 282.63 620.949 282.92C618.169 283.21 615.689 281.23 615.399 278.47ZM624.039 277.56C623.829 275.59 622.019 274.14 620.039 274.35C618.059 274.56 616.589 276.36 616.799 278.32C617.009 280.29 618.819 281.74 620.799 281.53C622.779 281.32 624.249 279.52 624.049 277.56H624.039Z" fill="black"/>
<path d="M628.611 285.811L627.211 272.491L628.611 272.341L628.681 273.021C629.351 272.321 630.241 271.861 631.361 271.741C633.991 271.461 636.471 273.471 636.761 276.211C637.051 278.971 635.041 281.431 632.411 281.711C631.291 281.831 630.321 281.561 629.521 281.021L630.011 285.661L628.611 285.811ZM635.361 276.361C635.151 274.391 633.351 272.941 631.361 273.151C630.321 273.261 629.471 273.801 628.851 274.561L629.361 279.461C630.121 280.091 631.071 280.431 632.111 280.321C634.091 280.111 635.561 278.331 635.361 276.371V276.361Z" fill="black"/>
<path d="M639.521 280.659L637.98 266.009L639.38 265.859L640.92 280.509L639.521 280.659Z" fill="black"/>
<path d="M642.7 275.591C642.41 272.851 644.42 270.371 647.2 270.081C649.9 269.801 652.36 271.631 652.75 274.531C652.77 274.741 652.79 274.911 652.79 275.131L644.21 276.031C644.67 277.691 646.31 278.841 648.1 278.651C649.09 278.551 649.93 278.051 650.53 277.331L651.63 278.211C650.82 279.201 649.63 279.891 648.25 280.041C645.47 280.331 642.99 278.351 642.7 275.591ZM651.24 274.101C650.78 272.441 649.13 271.271 647.34 271.461C645.55 271.651 644.18 273.131 644.08 274.851L651.24 274.101Z" fill="black"/>
<path d="M657.878 279.179L652.898 269.779L654.428 269.619L657.498 275.589L659.258 269.109L660.788 268.949L657.868 279.179H657.878Z" fill="black"/>
<path d="M661.93 273.56C661.64 270.82 663.65 268.34 666.43 268.05C669.13 267.77 671.59 269.6 671.98 272.5C672 272.71 672.02 272.88 672.02 273.1L663.44 274.01C663.9 275.67 665.54 276.82 667.33 276.63C668.32 276.52 669.16 276.03 669.76 275.31L670.86 276.19C670.05 277.18 668.86 277.87 667.48 278.02C664.7 278.31 662.22 276.33 661.93 273.57V273.56ZM670.47 272.08C670.01 270.42 668.36 269.25 666.57 269.44C664.78 269.63 663.41 271.11 663.31 272.83L670.47 272.08Z" fill="black"/>
<path d="M674.739 276.95L673.199 262.3L674.599 262.15L676.139 276.8L674.739 276.95Z" fill="black"/>
<path d="M678.43 276.82L678.28 275.41C678.41 275.44 678.59 275.44 678.72 275.43C679.65 275.33 680.18 274.61 680.09 273.75C680.02 273.07 679.57 272.57 679.08 272.06C678.51 271.43 677.87 270.74 677.75 269.59C677.59 268.05 678.67 266.77 680.36 266.59H680.43L680.58 267.97H680.51C679.76 268.06 679.17 268.68 679.26 269.56C679.33 270.24 679.77 270.72 680.24 271.23C680.83 271.84 681.44 272.49 681.56 273.66C681.73 275.26 680.59 276.64 678.86 276.82C678.73 276.83 678.53 276.83 678.42 276.82H678.43Z" fill="black"/>
<path d="M683.059 271.329C682.769 268.589 684.779 266.109 687.559 265.819C690.259 265.539 692.719 267.369 693.109 270.269C693.129 270.479 693.149 270.649 693.149 270.869L684.569 271.779C685.029 273.439 686.669 274.579 688.459 274.399C689.449 274.299 690.289 273.799 690.889 273.079L691.989 273.959C691.179 274.949 689.989 275.639 688.609 275.789C685.829 276.079 683.349 274.099 683.059 271.339V271.329ZM691.609 269.849C691.149 268.189 689.499 267.019 687.709 267.209C685.919 267.399 684.549 268.879 684.449 270.599L691.609 269.849Z" fill="black"/>
<path d="M695.871 274.72L694.891 265.35L696.291 265.2L696.371 265.99C696.741 265.35 697.531 264.77 698.541 264.66L698.691 266.05H698.621C697.721 266.15 696.831 266.85 696.551 267.68L697.271 274.56L695.871 274.71V274.72Z" fill="black"/>
<path d="M706.418 273.871L706.268 272.461C706.398 272.491 706.578 272.491 706.708 272.481C707.638 272.381 708.168 271.661 708.078 270.801C708.008 270.121 707.558 269.621 707.068 269.111C706.498 268.481 705.858 267.791 705.738 266.631C705.578 265.091 706.658 263.811 708.348 263.631H708.418L708.568 265.011H708.508C707.748 265.101 707.168 265.721 707.258 266.601C707.328 267.291 707.768 267.761 708.238 268.271C708.828 268.881 709.438 269.531 709.558 270.701C709.728 272.301 708.588 273.681 706.858 273.861C706.728 273.871 706.528 273.871 706.418 273.861V273.871Z" fill="black"/>
<path d="M710.931 261.979L710.711 259.839L712.111 259.689L712.331 261.829L710.931 261.979ZM712.081 273.009L711.101 263.639L712.501 263.489L713.481 272.859L712.081 273.009Z" fill="black"/>
<path d="M715.282 267.94C714.992 265.2 717.002 262.72 719.632 262.44C720.752 262.32 721.722 262.59 722.512 263.13L721.882 257.17L723.282 257.02L724.822 271.67L723.422 271.82L723.352 271.14C722.682 271.84 721.792 272.3 720.672 272.42C718.042 272.7 715.562 270.71 715.272 267.95L715.282 267.94ZM723.192 269.57L722.682 264.68C721.922 264.07 720.972 263.71 719.932 263.82C717.952 264.03 716.482 265.83 716.692 267.8C716.902 269.77 718.702 271.2 720.692 270.99C721.732 270.88 722.592 270.36 723.202 269.58L723.192 269.57Z" fill="black"/>
<path d="M726.598 266.739C726.308 263.999 728.318 261.519 731.098 261.229C733.798 260.949 736.258 262.779 736.648 265.679C736.668 265.889 736.688 266.059 736.688 266.279L728.108 267.189C728.568 268.849 730.208 269.989 731.998 269.809C732.988 269.709 733.828 269.209 734.428 268.489L735.528 269.369C734.718 270.359 733.528 271.049 732.148 271.199C729.368 271.489 726.888 269.509 726.598 266.749V266.739ZM735.138 265.259C734.678 263.599 733.028 262.429 731.238 262.619C729.448 262.809 728.078 264.289 727.978 266.009L735.138 265.259Z" fill="black"/>
<path d="M739.41 270.131L738.43 260.761L739.83 260.611L739.91 261.381C740.3 260.751 741.07 260.181 742.08 260.071C743.65 259.901 745.01 260.951 745.21 262.901L745.9 269.441L744.5 269.591L743.83 263.221C743.7 261.981 742.87 261.401 741.88 261.501C741.04 261.591 740.31 262.161 740.06 262.881L740.81 269.981L739.41 270.131Z" fill="black"/>
<path d="M755.21 268.459L753.84 255.439L755.1 253.279L756.68 268.309L755.21 268.459Z" fill="black"/>
<path d="M767.081 256.25C767.141 256.85 767.081 257.44 766.891 258L763.861 267.55L762.241 267.72L764.521 260.54C764.171 260.68 763.781 260.77 763.371 260.81C761.061 261.05 759.011 259.39 758.781 257.12C758.541 254.85 760.201 252.82 762.511 252.58C764.801 252.34 766.841 253.98 767.081 256.25ZM765.571 256.41C765.421 254.96 764.111 253.91 762.661 254.06C761.191 254.21 760.131 255.52 760.281 256.97C760.431 258.42 761.741 259.48 763.211 259.32C764.661 259.17 765.721 257.87 765.571 256.41Z" fill="black"/>
<path d="M770.99 267.14L770.84 265.73H770.95C773.04 265.5 774.69 263.51 774.45 261.28C774.25 259.33 772.62 257.8 770.63 257.7L772.05 253.34L768.56 253.71L768.41 252.26L774.17 251.65L772.54 256.69C774.39 257.45 775.68 259.15 775.88 261.14C776.2 264.15 773.99 266.83 771.1 267.14H770.99Z" fill="black"/>
<path d="M784.451 265.381L784.151 262.561L777.191 263.291L784.281 249.641L785.471 260.951L787.801 260.701L787.951 262.151L785.621 262.401L785.921 265.221L784.451 265.381ZM779.521 261.581L784.011 261.111L783.301 254.331L779.531 261.581H779.521Z" fill="black"/>
</g>
<defs>
<filter id="filter0_d_357_8481" x="36.0117" y="44.75" width="1242.99" height="636.25" filterUnits="userSpaceOnUse" color-interpolation-filters="sRGB">
<feFlood flood-opacity="0" result="BackgroundImageFix"/>
<feColorMatrix in="SourceAlpha" type="matrix" values="0 0 0 0 0 0 0 0 0 0 0 0 0 0 0 0 0 0 127 0" result="hardAlpha"/>
<feOffset dx="-4" dy="4"/>
<feGaussianBlur stdDeviation="6"/>
<feColorMatrix type="matrix" values="0 0 0 0 0 0 0 0 0 0 0 0 0 0 0 0 0 0 0.15 0"/>
<feBlend mode="normal" in2="BackgroundImageFix" result="effect1_dropShadow_357_8481"/>
<feBlend mode="normal" in="SourceGraphic" in2="effect1_dropShadow_357_8481" result="shape"/>
</filter>
<filter id="filter1_d_357_8481" x="18" y="12" width="1219.88" height="620.41" filterUnits="userSpaceOnUse" color-interpolation-filters="sRGB">
<feFlood flood-opacity="0" result="BackgroundImageFix"/>
<feColorMatrix in="SourceAlpha" type="matrix" values="0 0 0 0 0 0 0 0 0 0 0 0 0 0 0 0 0 0 127 0" result="hardAlpha"/>
<feOffset dx="-4" dy="4"/>
<feGaussianBlur stdDeviation="6"/>
<feColorMatrix type="matrix" values="0 0 0 0 0 0 0 0 0 0 0 0 0 0 0 0 0 0 0.15 0"/>
<feBlend mode="normal" in2="BackgroundImageFix" result="effect1_dropShadow_357_8481"/>
<feBlend mode="normal" in="SourceGraphic" in2="effect1_dropShadow_357_8481" result="shape"/>
</filter>
<filter id="filter2_d_357_8481" x="70.0586" y="28.3691" width="418.453" height="747.26" filterUnits="userSpaceOnUse" color-interpolation-filters="sRGB">
<feFlood flood-opacity="0" result="BackgroundImageFix"/>
<feColorMatrix in="SourceAlpha" type="matrix" values="0 0 0 0 0 0 0 0 0 0 0 0 0 0 0 0 0 0 127 0" result="hardAlpha"/>
<feOffset dx="-4" dy="4"/>
<feGaussianBlur stdDeviation="6"/>
<feColorMatrix type="matrix" values="0 0 0 0 0 0 0 0 0 0 0 0 0 0 0 0 0 0 0.15 0"/>
<feBlend mode="normal" in2="BackgroundImageFix" result="effect1_dropShadow_357_8481"/>
<feBlend mode="normal" in="SourceGraphic" in2="effect1_dropShadow_357_8481" result="shape"/>
</filter>
<clipPath id="clip0_357_8481">
<rect width="1366" height="768" fill="white"/>
</clipPath>
</defs>
</svg>
