<svg width="1024" height="768" viewBox="0 0 1024 768" fill="none" xmlns="http://www.w3.org/2000/svg">
<g clip-path="url(#clip0_357_8375)">
<path d="M1026.5 -0.5H0.5V768.5H1026.5V-0.5Z" fill="#FCF7ED"/>
<g filter="url(#filter0_d_357_8375)">
<path d="M957.81 668.5L47.25 576.5L27.5 187.5L982.5 80.5L957.81 668.5Z" fill="#FFAC05"/>
</g>
<g filter="url(#filter1_d_357_8375)">
<path d="M926.84 634.5L21.5 544.5L28.37 148.5L944.5 48.5L926.84 634.5Z" fill="#5C988D"/>
</g>
<path d="M895.5 547.76L850.57 539.15L863.2 499.5L902.66 520.97L895.5 547.75V547.76Z" fill="#D9D9D9"/>
<path d="M965.731 696.17L950.621 592.5" stroke="#7F7F7F" stroke-width="4"/>
<path d="M902.32 717.589L921.54 586.189" stroke="#7F7F7F" stroke-width="4"/>
<path d="M995.19 602.219L874.23 578.029L905.031 483.359L1012.31 538.159L995.19 602.229V602.219Z" fill="#D3D2D2"/>
<path d="M959.938 516.019C963.702 501.933 955.965 487.632 942.658 484.076C929.351 480.52 915.512 489.057 911.749 503.143C907.985 517.229 915.721 531.531 929.028 535.087C942.335 538.642 956.174 530.106 959.938 516.019Z" fill="#B3A9A9"/>
<path d="M1002.86 532.142C1005.98 520.456 999.565 508.593 988.526 505.643C977.486 502.693 966.006 509.774 962.884 521.459C959.762 533.145 966.18 545.008 977.219 547.958C988.259 550.908 999.739 543.827 1002.86 532.142Z" fill="#B3A9A9"/>
<path d="M851.5 539.5L608.5 602.5L21.5 544.5L27.5 148.5L814.5 62.5L862.5 499.5L851.5 539.5Z" fill="#B3D1CB"/>
<g filter="url(#filter2_d_357_8375)">
<path d="M368.2 659.21L230.51 752.62L252.48 659.52L228.68 547.59L368.2 659.21Z" fill="#538279"/>
<path d="M179.499 52.5L141.389 695.5L128.689 695.4C90.7291 694.47 60.8491 657.58 61.9391 613.02L74.4891 82.5" fill="#538279"/>
<path d="M128.701 695.4C90.7408 694.47 60.8608 657.58 61.9508 613.02L62.5008 601.5L265.501 606.5L263.411 698.71L128.701 695.4Z" fill="#538279"/>
</g>
<path d="M198.5 200.5L329.31 189.4" stroke="#5C988D" stroke-width="4" stroke-miterlimit="10"/>
<path d="M643.5 157.5L799.5 143.5" stroke="#5C988D" stroke-width="4" stroke-miterlimit="10"/>
<path d="M403.701 165.43C405.071 164.65 406.101 165.01 405.801 166.02C404.791 169.64 402.471 173.05 399.141 173.4C392.411 174.1 390.741 165.46 391.811 148.06C389.161 155.43 386.721 165.36 384.411 173.68C381.011 175.59 379.461 175.23 379.511 172.98C379.611 168.42 379.911 149.31 379.591 139.71C376.421 150.42 373.641 164.19 371.671 174.2C369.761 176.48 366.781 177.42 366.741 174.83L366.681 140.2C366.691 138.12 366.061 137.61 364.351 138.02L354.701 140.18C352.891 140.66 352.791 138.07 354.261 136.54L368.601 134.7C370.321 134.46 372.501 135.27 372.381 137.99C372.061 145.4 371.711 154.14 371.561 163.78C373.791 152.48 375.921 140.73 378.621 132.2C379.231 130.29 382.451 131.05 385.251 133.29L384.531 164.37C386.341 154.56 389.871 142.89 390.941 140.93C391.961 138.98 395.291 141.4 397.351 144.87C395.821 155.64 395.981 170.95 400.011 170.53C401.221 170.4 402.511 169.46 403.711 165.42L403.701 165.43Z" fill="black"/>
<path d="M409.381 167.54C410.401 170.08 412.101 171.23 413.941 171.04C416.591 170.76 418.761 167.14 419.791 162.59C421.141 161.64 422.041 162.41 421.991 163.05C421.701 166.94 417.871 172.99 413.041 173.5C408.551 173.97 404.161 170.85 403.401 163.73C402.021 150.73 408.061 147.33 410.821 147.05C414.211 146.7 415.841 148.89 416.151 151.8C416.801 157.96 413.231 163.75 409.391 167.55L409.381 167.54ZM408.651 165.02C410.821 161.85 412.471 157.19 411.891 151.66C411.761 150.41 411.411 149.87 410.781 149.93C409.741 150.04 407.451 154.14 408.441 163.49C408.501 164.06 408.561 164.57 408.661 165.02H408.651Z" fill="black"/>
<path d="M425.629 154.66C424.769 154.81 423.919 154.95 423.169 155.03C423.289 158.42 422.849 161.92 421.439 165.59C420.849 167.09 419.469 166.77 418.959 165.73C419.989 162.86 420.379 158.78 420.249 154.87C418.459 154.48 417.339 153.21 417.039 150.36C416.799 148.08 417.919 143.29 421.599 144.58C422.059 146.72 422.509 148.81 422.849 150.91C425.559 150.69 428.729 149.89 429.849 148.97C430.719 148.94 431.549 149.14 431.259 150.73C429.099 162.77 430.809 167.32 432.529 167.14C433.739 167.01 435.029 166.07 436.229 162.03C437.029 161.31 438.509 161.56 438.329 162.62C437.669 166.26 434.999 169.65 431.609 170.01C428.909 170.29 424.719 167.56 425.619 154.67L425.629 154.66Z" fill="black"/>
<path d="M441.92 164.14C442.94 166.68 444.64 167.83 446.48 167.64C449.13 167.36 451.3 163.74 452.33 159.19C453.68 158.24 454.58 159.01 454.53 159.65C454.24 163.54 450.41 169.59 445.58 170.1C441.09 170.57 436.69 167.46 435.94 160.33C434.56 147.33 440.6 143.93 443.36 143.65C446.75 143.3 448.38 145.49 448.69 148.4C449.34 154.56 445.77 160.35 441.93 164.15L441.92 164.14ZM441.19 161.62C443.36 158.45 445.01 153.79 444.43 148.26C444.3 147.01 443.95 146.47 443.32 146.53C442.28 146.64 439.99 150.74 440.98 160.09C441.04 160.66 441.09 161.17 441.2 161.62H441.19Z" fill="black"/>
<path d="M467.909 161.429C468.929 163.969 470.629 165.119 472.469 164.929C475.119 164.649 477.289 161.029 478.319 156.479C479.669 155.529 480.569 156.299 480.519 156.939C480.229 160.829 476.399 166.879 471.569 167.389C467.079 167.859 462.689 164.739 461.929 157.619C460.549 144.619 466.589 141.229 469.349 140.939C472.739 140.589 474.369 142.779 474.679 145.689C475.329 151.849 471.759 157.639 467.919 161.439L467.909 161.429ZM467.179 158.909C469.349 155.739 470.999 151.079 470.419 145.549C470.289 144.299 469.939 143.759 469.309 143.819C468.269 143.929 465.979 148.029 466.969 157.379C467.029 157.949 467.089 158.459 467.189 158.909H467.179Z" fill="black"/>
<path d="M487.15 147.141C485.45 151.991 483.77 157.471 481.92 164.231C479.05 165.621 477.73 164.731 477.57 163.191C477.2 159.141 477.09 150.441 477.33 142.231L479.3 141.101C481.16 140.041 482.74 140.631 482.66 142.081C482.38 146.601 481.27 153.641 481.18 159.351C483.55 150.401 485.06 146.031 487.18 140.741C487.87 139.001 490.19 138.471 492.66 140.861C490.96 156.661 492.8 160.851 494.41 160.681C495.62 160.551 496.91 159.611 498.11 155.571C498.91 154.851 500.39 155.101 500.21 156.161C499.55 159.801 496.88 163.191 493.49 163.551C489 164.021 486.72 157.281 487.16 147.151L487.15 147.141Z" fill="black"/>
<path d="M513.928 122.259C514.908 131.499 514.528 141.679 512.748 149.529C513.358 155.809 513.998 158.619 514.918 158.529C516.128 158.399 517.418 157.459 518.618 153.419C519.418 152.699 520.898 152.949 520.718 154.009C520.058 157.649 517.398 161.039 513.998 161.399C512.268 161.579 511.058 159.979 510.218 157.009C508.638 160.169 506.568 162.119 504.108 162.429C500.768 162.779 497.968 158.229 497.358 152.529C496.668 146.029 499.208 138.679 503.748 138.199C505.988 137.969 507.318 138.459 508.548 139.079C508.418 134.019 508.438 128.139 508.478 121.909C512.508 118.259 513.598 119.239 513.918 122.259H513.928ZM508.618 141.319C507.658 141.069 506.778 140.989 505.808 141.099C501.318 141.569 502.018 159.649 505.238 159.319C507.478 159.089 508.588 154.699 508.918 147.979C508.768 145.979 508.698 143.739 508.618 141.319Z" fill="black"/>
<path d="M535.96 137.66C535.5 136.04 536.74 134.58 538.6 134.04C541.5 137.83 544.05 137.74 546.98 135.76C547.31 135.55 547.69 135.86 547.79 136.25C548.11 137.66 544.04 139.81 541.7 139.71C542.65 146.99 540.1 158.67 534.3 159.27C526.94 160.04 525.87 140.09 529.53 119.71C531.6 117.88 535.61 116.77 535.16 119.59C530.38 146.95 533.04 156.7 535.11 156.48C538.16 156.16 538.56 148.45 535.97 137.66H535.96Z" fill="black"/>
<path d="M565.539 148.52C566.339 147.8 567.819 148.05 567.639 149.11C566.979 152.75 564.309 156.14 560.929 156.56C559.489 156.71 557.529 156.34 556.399 153.34C554.979 156.43 553.449 157.28 551.609 157.47C547.469 157.9 545.299 153.92 544.769 148.9C544.069 142.29 546.849 133.93 554.149 133.16C556.619 132.9 559.899 134.17 559.539 137.9C560.149 138.18 560.659 139.17 560.259 141.46C558.979 148.57 559.249 153.9 561.839 153.63C563.049 153.5 564.339 152.56 565.539 148.52ZM553.459 136C550.299 136.33 549.379 144.15 549.959 149.57C550.279 152.59 551.149 154.81 552.359 154.68C554.029 154.51 555.619 151.46 555.409 142.31C554.519 142.17 554.189 141.8 554.159 140.89C555.389 139.32 555.769 135.77 553.469 136.01L553.459 136Z" fill="black"/>
<path d="M571.551 139.42C570.691 139.57 569.841 139.71 569.091 139.79C569.211 143.18 568.771 146.68 567.361 150.35C566.761 151.85 565.391 151.53 564.881 150.49C565.911 147.62 566.301 143.54 566.171 139.63C564.381 139.24 563.261 137.97 562.961 135.12C562.721 132.84 563.841 128.05 567.521 129.34C567.981 131.48 568.431 133.57 568.771 135.67C571.481 135.45 574.651 134.65 575.771 133.73C576.641 133.7 577.471 133.9 577.181 135.49C575.021 147.53 576.731 152.08 578.451 151.9C579.661 151.77 580.951 150.83 582.151 146.79C582.951 146.07 584.431 146.32 584.251 147.38C583.591 151.02 580.931 154.41 577.531 154.77C574.831 155.05 570.641 152.32 571.541 139.43L571.551 139.42Z" fill="black"/>
<path d="M587.838 148.9C588.858 151.44 590.558 152.59 592.398 152.4C595.048 152.12 597.218 148.5 598.248 143.95C599.598 143 600.498 143.77 600.448 144.41C600.158 148.3 596.328 154.35 591.498 154.86C587.008 155.33 582.608 152.22 581.858 145.09C580.478 132.09 586.518 128.69 589.278 128.41C592.668 128.06 594.298 130.25 594.608 133.16C595.258 139.32 591.688 145.11 587.848 148.91L587.838 148.9ZM587.108 146.38C589.278 143.21 590.928 138.55 590.348 133.02C590.218 131.77 589.868 131.23 589.238 131.29C588.198 131.4 585.908 135.5 586.898 144.85C586.958 145.42 587.018 145.93 587.118 146.38H587.108Z" fill="black"/>
<path d="M351.719 241.709C351.349 241.749 351.279 241.689 351.239 241.319L351.119 240.149C351.079 239.779 351.119 239.649 351.499 239.609L353.289 239.359C354.469 239.169 354.549 238.789 354.059 234.109L351.209 207.069C350.719 202.389 350.549 202.029 349.369 202.089L347.619 202.209C347.239 202.189 347.109 202.139 347.069 201.769L346.949 200.599C346.909 200.229 347.029 200.159 347.399 200.119L369.519 197.799C369.949 197.749 370.039 197.929 370.079 198.299L371.339 210.249C371.389 210.679 371.339 210.809 370.899 210.859L369.599 210.999C369.289 211.029 369.209 210.919 369.109 210.489L369.029 209.689C368.229 203.919 366.629 200.599 362.529 201.029L358.179 201.489L359.889 217.689L361.939 217.479C364.419 217.219 365.019 215.159 364.829 212.129V211.569C364.789 211.139 364.829 211.009 365.209 210.969L366.329 210.849C366.769 210.799 366.849 210.979 366.889 211.349L368.329 225.019C368.369 225.449 368.329 225.579 367.889 225.629L366.769 225.749C366.399 225.789 366.319 225.669 366.279 225.239L366.129 224.379C365.759 221.429 364.679 219.549 362.189 219.809L360.139 220.019L362.049 238.129L368.259 237.479C372.609 237.019 373.309 232.399 373.159 227.309V226.749C373.189 226.369 373.229 226.179 373.539 226.149L374.839 226.009C375.269 225.959 375.359 226.139 375.399 226.509L376.109 238.579C376.149 238.949 376.109 239.139 375.669 239.189L351.749 241.699L351.719 241.709Z" fill="black"/>
<path d="M402.38 237.201C402.13 237.231 401.99 237.121 401.77 236.831L382.36 206.481H382.3L384.08 223.361C385.19 233.891 386.7 235.731 389.45 235.561L390.89 235.471C391.27 235.491 391.4 235.541 391.44 235.911L391.56 237.081C391.6 237.451 391.48 237.531 391.11 237.561L379.24 238.811C378.87 238.851 378.74 238.811 378.7 238.431L378.58 237.261C378.54 236.891 378.66 236.811 379.03 236.721L379.71 236.591C381.56 236.271 382.34 234.131 381.24 223.661L379.19 204.261C378.69 199.521 378.46 199.171 377.34 199.221L375.4 199.301C375.03 199.341 374.9 199.291 374.86 198.921L374.73 197.691C374.69 197.321 374.81 197.251 375.18 197.211L384.44 196.241C384.81 196.201 384.95 196.311 385.17 196.661L401.87 223.371H401.99L400.53 209.501C399.42 198.971 397.85 197.201 395.16 197.301L393.72 197.391C393.34 197.371 393.21 197.321 393.17 196.951L393.05 195.781C393.01 195.411 393.13 195.331 393.5 195.301L405.24 194.071C405.61 194.031 405.74 194.071 405.78 194.451L405.9 195.621C405.94 195.991 405.82 196.061 405.45 196.171L404.77 196.301C402.99 196.671 402.2 198.751 403.3 209.221L406.17 236.381C406.2 236.691 406.09 236.821 405.72 236.861L402.37 237.211L402.38 237.201Z" fill="black"/>
<path d="M438.702 232.58L423.852 234.14C423.482 234.18 423.412 234.12 423.372 233.75L423.252 232.58C423.212 232.21 423.272 232.14 423.632 232.04L425.422 231.79C426.592 231.6 426.682 231.22 426.192 226.54L423.342 199.5C422.852 194.82 422.682 194.46 421.502 194.52L419.752 194.64C419.372 194.62 419.242 194.57 419.202 194.2L419.082 193.03C419.042 192.66 419.162 192.58 419.532 192.55L434.072 191.02C439.662 190.43 445.962 191.83 446.792 199.65C447.362 205.01 444.152 208.58 439.292 210.15V210.27C444.692 210.08 449.882 212.27 450.622 219.3C451.562 228.17 445.102 231.9 438.702 232.57V232.58ZM432.772 193.66L430.282 193.92L432.002 210.24L434.552 209.97C438.282 209.58 439.782 207.18 439.142 201.08C438.452 194.55 436.372 193.27 432.772 193.65V193.66ZM434.752 212.45L432.262 212.71L434.142 230.57L437.562 230.21C441.542 229.79 443.212 227.19 442.512 220.6C441.802 213.82 439.522 211.94 434.742 212.45H434.752Z" fill="black"/>
<path d="M454.919 230.88C454.549 230.92 454.419 230.88 454.379 230.5L454.259 229.33C454.219 228.96 454.339 228.88 454.709 228.79L456.499 228.54C457.669 228.29 457.699 227.98 457.199 223.3L454.349 196.26C453.859 191.58 453.749 191.22 452.569 191.28L450.759 191.41C450.379 191.39 450.249 191.34 450.209 190.97L450.089 189.8C450.049 189.43 450.169 189.35 450.539 189.32L464.079 187.9C464.449 187.86 464.579 187.91 464.619 188.28L464.739 189.45C464.779 189.82 464.659 189.89 464.289 189.99L462.559 190.23C461.319 190.42 461.359 190.79 461.859 195.47L464.709 222.51C465.199 227.19 465.239 227.5 466.489 227.49L468.239 227.37C468.619 227.39 468.749 227.44 468.789 227.81L468.909 228.98C468.949 229.35 468.829 229.42 468.459 229.46L454.919 230.88Z" fill="black"/>
<path d="M486.689 228.359C477.119 229.359 470.749 221.999 469.399 209.129C468.019 196.009 472.879 186.159 482.569 185.139C492.139 184.139 498.509 191.499 499.859 204.369C501.239 217.489 496.379 227.339 486.689 228.359ZM482.629 187.559C476.479 188.209 476.339 196.379 477.569 208.079C478.699 218.799 480.399 226.589 486.609 225.939C492.819 225.289 492.899 217.119 491.669 205.419C490.539 194.699 488.839 186.909 482.629 187.559Z" fill="black"/>
<path d="M531.812 223.19C531.442 223.23 531.362 223.11 531.142 222.76L530.242 221.36H530.122C528.142 222.83 524.972 224.34 521.432 224.71C511.682 225.73 505.342 218.05 503.982 205.18C502.582 191.94 507.122 182.56 517.622 181.46C520.732 181.13 523.492 181.72 525.282 182.59L525.372 181.71C525.392 181.33 525.442 181.14 525.872 181.1L526.682 181.02C527.112 180.97 527.202 181.15 527.232 181.52L528.592 194.39C528.632 194.76 528.592 194.89 528.152 194.93L526.912 195.06C526.602 195.09 526.462 194.98 526.422 194.61L526.252 193.63C525.582 188.47 522.772 183.22 518.172 183.7C511.462 184.4 510.792 191.2 512.182 204.32C513.592 217.69 516.032 222.91 521.432 222.34C523.112 222.16 524.592 221.38 525.682 220.4L524.992 213.87C524.502 209.19 524.392 208.83 523.212 208.89L520.152 209.09C519.782 209.13 519.652 209.08 519.612 208.71L519.492 207.54C519.452 207.17 519.572 207.1 519.942 207.06L534.042 205.58C534.412 205.54 534.482 205.6 534.522 205.97L534.642 207.14C534.682 207.51 534.622 207.58 534.252 207.62L532.772 207.9C531.602 208.15 531.512 208.47 532.002 213.15L532.992 222.57C533.032 222.94 532.992 223.07 532.542 223.11L531.792 223.19H531.812Z" fill="black"/>
<path d="M553.702 198.47V198.59C558.632 199.32 561.272 201.78 562.332 209.39C563.262 215.83 563.992 217.37 565.292 217.24C566.042 217.16 566.352 216.01 566.372 214.39C566.402 214.07 566.512 213.94 566.892 213.96L567.662 214.13C567.982 214.16 568.062 214.34 568.042 214.71C568.042 218.32 566.212 220.01 563.232 220.32C557.952 220.87 556.012 216.78 554.862 210.11C553.682 202.51 552.222 199.99 549.062 200.32L546.512 200.59L547.902 213.77C548.392 218.45 548.432 218.82 549.682 218.75L551.492 218.62C551.862 218.58 551.942 218.7 551.982 219.07L552.102 220.24C552.142 220.61 552.082 220.68 551.712 220.72L538.102 222.15C537.732 222.19 537.662 222.13 537.622 221.76L537.502 220.59C537.462 220.22 537.512 220.09 537.882 220.05L539.672 219.8C540.842 219.61 540.932 219.23 540.442 214.55L537.592 187.51C537.102 182.83 536.932 182.47 535.752 182.53L534.002 182.65C533.622 182.63 533.492 182.58 533.452 182.21L533.332 181.04C533.292 180.67 533.412 180.6 533.782 180.56L548.572 179.01C555.092 178.33 560.582 180.3 561.362 187.7C561.942 193.18 558.822 196.93 553.702 198.47ZM547.222 181.65L544.552 181.93L546.262 198.19L548.992 197.9C552.722 197.51 554.202 194.92 553.582 189.01C552.902 182.54 550.822 181.27 547.212 181.64L547.222 181.65Z" fill="black"/>
<path d="M586.881 217.04C586.511 217.08 586.381 217.04 586.341 216.66L586.221 215.49C586.181 215.12 586.301 215.05 586.671 214.95L587.911 214.76C588.771 214.61 589.311 214.37 589.191 213.19C589.081 212.14 588.591 210.51 587.491 207.76L585.671 202.41L576.351 203.39L576.241 204.15C575.821 206.69 575.511 209.77 575.771 212.17C576.021 214.51 576.901 215.79 578.351 215.76L579.411 215.71C579.791 215.73 579.921 215.78 579.961 216.15L580.081 217.32C580.121 217.69 580.001 217.77 579.631 217.8L569.441 218.87C569.071 218.91 568.941 218.87 568.901 218.49L568.781 217.32C568.741 216.95 568.861 216.87 569.231 216.78L569.721 216.67C570.941 216.36 571.291 215.51 571.991 211.95C572.411 209.98 573.001 206.67 573.461 203.89L578.271 175.61C578.291 175.23 578.341 175.1 578.721 175.07L582.391 174.69C582.761 174.65 582.831 174.71 583.001 175.12L595.591 206.93C598.011 213.15 598.361 213.55 599.681 213.54L600.491 213.52C600.871 213.54 601.001 213.59 601.041 213.96L601.161 215.13C601.201 215.5 601.081 215.57 600.711 215.61L586.921 217.06L586.881 217.04ZM579.231 185.64H579.171L576.821 200.84L584.651 200.02L579.241 185.64H579.231Z" fill="black"/>
<path d="M602.969 215.35C602.599 215.39 602.529 215.33 602.489 214.96L602.369 213.79C602.329 213.42 602.369 213.29 602.749 213.25L604.539 213C605.709 212.81 605.799 212.43 605.309 207.75L602.459 180.71C601.969 176.03 601.799 175.67 600.619 175.73L598.869 175.85C598.489 175.83 598.359 175.78 598.319 175.41L598.199 174.24C598.159 173.87 598.279 173.79 598.649 173.76L620.769 171.44C621.209 171.39 621.289 171.57 621.329 171.94L622.709 185.06C622.749 185.43 622.709 185.62 622.269 185.67L620.969 185.81C620.659 185.84 620.509 185.67 620.479 185.3L620.279 183.39C619.599 177.55 617.869 174.24 613.769 174.67L609.419 175.13L611.259 192.56L613.309 192.35C615.859 192.08 616.389 190.03 616.199 187V186.44C616.159 186.01 616.199 185.88 616.579 185.84L617.699 185.72C618.139 185.68 618.209 185.79 618.259 186.22L619.759 200.45C619.799 200.88 619.759 201.01 619.319 201.06L618.199 201.18C617.829 201.22 617.749 201.1 617.709 200.67L617.499 199.26C617.179 196.24 616.109 194.42 613.559 194.69L611.509 194.9L612.779 206.97C613.269 211.65 613.369 212.01 614.559 211.95L617.429 211.71C617.799 211.67 617.939 211.78 617.979 212.15L618.099 213.32C618.139 213.69 618.019 213.77 617.649 213.8L602.989 215.34L602.969 215.35Z" fill="black"/>
<path d="M375.208 268.41L374.528 261.9L373.358 262.02L373.238 260.86L374.408 260.74L374.178 258.59C374.038 257.26 374.808 256.24 376.078 256.11C376.188 256.1 376.348 256.1 376.488 256.16L376.608 257.28C376.498 257.26 376.398 257.27 376.318 257.28C375.698 257.35 375.268 257.83 375.338 258.48L375.568 260.63L376.948 260.49L377.068 261.65L375.688 261.79L376.368 268.3L375.198 268.42L375.208 268.41Z" fill="black"/>
<path d="M378.23 264.22C377.99 261.98 379.64 259.95 381.8 259.72C382.72 259.62 383.51 259.84 384.16 260.28L384.1 259.72L385.25 259.6L386.05 267.27L384.9 267.39L384.84 266.83C384.29 267.4 383.56 267.78 382.65 267.88C380.49 268.11 378.47 266.48 378.23 264.22ZM384.71 265.55L384.29 261.54C383.67 261.04 382.88 260.75 382.04 260.84C380.42 261.01 379.21 262.48 379.38 264.1C379.55 265.72 381.03 266.88 382.65 266.71C383.5 266.62 384.2 266.19 384.71 265.56V265.55Z" fill="black"/>
<path d="M388.339 267.03L387.539 259.36L388.689 259.24L388.759 259.87C389.079 259.36 389.709 258.89 390.539 258.8C391.829 258.66 392.939 259.52 393.099 261.11L393.659 266.47L392.509 266.59L391.959 261.37C391.849 260.35 391.179 259.88 390.369 259.96C389.679 260.03 389.089 260.5 388.879 261.09L389.489 266.9L388.339 267.02V267.03Z" fill="black"/>
<path d="M396.242 266.2L395.552 259.67L394.382 259.79L394.262 258.65L395.432 258.53L395.162 255.96L396.272 255.26L396.602 258.41L397.982 258.26L398.102 259.4L396.722 259.55L397.412 266.08L396.242 266.2Z" fill="black"/>
<path d="M399.351 261.989C399.111 259.749 400.761 257.719 402.911 257.489C403.831 257.389 404.621 257.609 405.271 258.049L405.211 257.489L406.361 257.369L407.161 265.039L406.011 265.159L405.951 264.599C405.401 265.169 404.681 265.549 403.761 265.649C401.601 265.879 399.581 264.249 399.341 261.989H399.351ZM405.831 263.329L405.411 259.319C404.791 258.819 404.001 258.529 403.161 258.619C401.541 258.789 400.331 260.259 400.501 261.879C400.671 263.499 402.151 264.659 403.771 264.489C404.621 264.399 405.321 263.969 405.831 263.339V263.329Z" fill="black"/>
<path d="M409.039 265.06L408.919 263.9C409.029 263.92 409.169 263.93 409.279 263.92C410.039 263.84 410.479 263.24 410.399 262.54C410.339 261.98 409.979 261.58 409.579 261.16C409.109 260.64 408.589 260.08 408.489 259.13C408.359 257.87 409.249 256.82 410.619 256.67H410.669L410.789 257.8H410.739C410.119 257.87 409.639 258.38 409.719 259.1C409.779 259.66 410.139 260.05 410.519 260.47C410.999 260.97 411.499 261.5 411.599 262.46C411.739 263.77 410.799 264.9 409.389 265.05C409.279 265.06 409.119 265.06 409.029 265.05L409.039 265.06Z" fill="black"/>
<path d="M413.968 264.331L413.278 257.801L412.108 257.921L411.988 256.781L413.158 256.661L412.888 254.091L413.998 253.391L414.328 256.541L415.708 256.401L415.828 257.541L414.448 257.681L415.138 264.211L413.968 264.331Z" fill="black"/>
<path d="M416.969 254.88L416.789 253.13L417.939 253.01L418.119 254.76L416.969 254.88ZM417.919 263.91L417.119 256.24L418.269 256.12L419.069 263.79L417.919 263.91Z" fill="black"/>
<path d="M420.959 263.8L420.839 262.64C420.949 262.66 421.089 262.67 421.199 262.66C421.959 262.58 422.399 261.99 422.319 261.28C422.259 260.72 421.899 260.32 421.489 259.9C421.029 259.38 420.499 258.82 420.399 257.87C420.269 256.61 421.159 255.56 422.529 255.41H422.579L422.699 256.54H422.649C422.029 256.61 421.549 257.12 421.629 257.84C421.689 258.4 422.049 258.79 422.429 259.21C422.909 259.71 423.409 260.24 423.509 261.2C423.649 262.51 422.709 263.64 421.299 263.79C421.189 263.8 421.029 263.8 420.939 263.79L420.959 263.8Z" fill="black"/>
<path d="M425.6 263.1L424.34 251.1L425.49 250.98L426.27 258.4L428.22 255.06L429.7 254.9L427.31 258.85L430.73 262.54L429.26 262.7L426.66 259.87L426.45 260.23L426.74 262.96L425.59 263.08L425.6 263.1Z" fill="black"/>
<path d="M430.601 258.699C430.361 256.459 432.011 254.429 434.291 254.189C436.501 253.959 438.511 255.459 438.831 257.839C438.851 258.009 438.861 258.159 438.871 258.329L431.841 259.069C432.221 260.429 433.561 261.369 435.031 261.209C435.841 261.119 436.531 260.719 437.021 260.129L437.921 260.849C437.261 261.659 436.281 262.229 435.151 262.349C432.871 262.589 430.841 260.959 430.611 258.699H430.601ZM437.601 257.479C437.231 256.119 435.881 255.169 434.411 255.319C432.941 255.479 431.821 256.689 431.741 258.099L437.601 257.479Z" fill="black"/>
<path d="M446.001 260.95L445.321 254.439L444.151 254.559L444.031 253.399L445.201 253.279L444.971 251.129C444.831 249.799 445.601 248.779 446.871 248.649C446.981 248.639 447.141 248.639 447.291 248.699L447.411 249.82C447.301 249.8 447.201 249.81 447.121 249.82C446.501 249.89 446.071 250.369 446.141 251.019L446.371 253.169L447.751 253.019L447.871 254.179L446.491 254.329L447.171 260.839L446.001 260.959V260.95ZM448.921 251.509L448.741 249.759L449.891 249.639L450.071 251.389L448.921 251.509ZM449.871 260.54L449.071 252.869L450.221 252.749L451.021 260.42L449.871 260.54Z" fill="black"/>
<path d="M453.33 260.181L452.07 248.181L453.22 248.061L454.48 260.061L453.33 260.181Z" fill="black"/>
<path d="M456.769 259.82L455.969 252.15L457.119 252.03L457.189 252.66C457.509 252.15 458.139 251.67 458.969 251.59C459.779 251.5 460.529 251.83 461.009 252.47C461.399 251.79 462.189 251.25 463.089 251.15C464.429 251.01 465.539 251.87 465.709 253.46L466.269 258.82L465.119 258.94L464.569 253.72C464.459 252.7 463.789 252.22 462.979 252.31C462.269 252.38 461.659 252.87 461.459 253.48C461.489 253.62 461.529 253.76 461.539 253.9L462.099 259.26L460.949 259.38L460.399 254.16C460.289 253.14 459.619 252.66 458.809 252.75C458.119 252.82 457.529 253.29 457.319 253.88L457.929 259.69L456.779 259.81L456.769 259.82Z" fill="black"/>
<path d="M467.699 254.789C467.459 252.549 469.109 250.519 471.389 250.279C473.669 250.039 475.699 251.669 475.929 253.929C476.169 256.189 474.519 258.199 472.239 258.439C469.959 258.679 467.929 257.049 467.699 254.789ZM474.789 254.039C474.619 252.429 473.139 251.239 471.509 251.409C469.889 251.579 468.679 253.049 468.849 254.659C469.019 256.269 470.499 257.459 472.129 257.289C473.749 257.119 474.959 255.649 474.789 254.039Z" fill="black"/>
<path d="M478.529 260.801L477.379 249.891L478.529 249.771L478.589 250.331C479.139 249.761 479.869 249.381 480.789 249.291C482.939 249.061 484.969 250.711 485.209 252.951C485.449 255.211 483.799 257.221 481.649 257.451C480.729 257.551 479.939 257.331 479.289 256.881L479.689 260.681L478.539 260.801H478.529ZM484.059 253.061C483.889 251.451 482.409 250.261 480.779 250.431C479.929 250.521 479.229 250.971 478.719 251.591L479.139 255.601C479.769 256.121 480.539 256.391 481.389 256.301C483.009 256.131 484.219 254.681 484.049 253.061H484.059Z" fill="black"/>
<path d="M487.459 256.581L486.199 244.581L487.349 244.461L488.609 256.461L487.459 256.581Z" fill="black"/>
<path d="M490.058 252.43C489.818 250.19 491.468 248.16 493.748 247.92C495.958 247.69 497.968 249.19 498.288 251.57C498.308 251.74 498.318 251.89 498.318 252.06L491.288 252.8C491.658 254.16 493.008 255.1 494.478 254.94C495.288 254.86 495.978 254.45 496.478 253.86L497.378 254.58C496.708 255.39 495.738 255.96 494.608 256.08C492.328 256.32 490.298 254.69 490.068 252.43H490.058ZM497.058 251.21C496.688 249.85 495.338 248.9 493.868 249.05C492.408 249.21 491.278 250.42 491.198 251.83L497.058 251.21Z" fill="black"/>
<path d="M502.49 255.37L498.41 247.67L499.66 247.54L502.17 252.43L503.61 247.13L504.86 247L502.47 255.38L502.49 255.37Z" fill="black"/>
<path d="M505.808 250.77C505.568 248.53 507.218 246.5 509.498 246.26C511.708 246.03 513.718 247.53 514.038 249.91C514.058 250.08 514.068 250.23 514.068 250.4L507.038 251.14C507.408 252.5 508.758 253.44 510.228 253.28C511.038 253.19 511.728 252.79 512.218 252.2L513.118 252.92C512.448 253.73 511.478 254.3 510.348 254.42C508.068 254.66 506.038 253.03 505.808 250.77ZM512.808 249.55C512.438 248.19 511.088 247.24 509.618 247.39C508.148 247.54 507.028 248.76 506.948 250.17L512.808 249.55Z" fill="black"/>
<path d="M516.291 253.54L515.031 241.54L516.181 241.42L517.441 253.42L516.291 253.54Z" fill="black"/>
<path d="M519.319 253.429L519.199 252.269C519.309 252.289 519.449 252.299 519.559 252.289C520.319 252.209 520.759 251.609 520.679 250.909C520.619 250.349 520.259 249.949 519.849 249.529C519.389 249.009 518.859 248.449 518.759 247.499C518.629 246.239 519.519 245.189 520.889 245.039H520.939L521.059 246.169H521.009C520.389 246.239 519.909 246.749 519.989 247.469C520.049 248.029 520.409 248.419 520.789 248.839C521.269 249.339 521.769 249.869 521.869 250.829C522.009 252.139 521.069 253.269 519.659 253.419C519.549 253.429 519.389 253.419 519.299 253.419L519.319 253.429Z" fill="black"/>
<path d="M523.109 248.939C522.869 246.699 524.519 244.669 526.799 244.429C529.009 244.199 531.019 245.699 531.339 248.079C531.359 248.249 531.369 248.399 531.369 248.569L524.339 249.309C524.709 250.669 526.059 251.609 527.529 251.449C528.339 251.359 529.029 250.959 529.519 250.369L530.419 251.089C529.759 251.899 528.779 252.469 527.649 252.589C525.369 252.829 523.339 251.199 523.109 248.939ZM530.109 247.729C529.739 246.369 528.389 245.419 526.919 245.569C525.449 245.719 524.329 246.939 524.249 248.349L530.109 247.729Z" fill="black"/>
<path d="M533.601 251.72L532.801 244.05L533.951 243.93L534.021 244.58C534.321 244.05 534.971 243.58 535.801 243.49L535.921 244.63H535.871C535.131 244.71 534.401 245.29 534.171 245.97L534.761 251.61L533.611 251.73L533.601 251.72Z" fill="black"/>
<path d="M542.241 251.021L542.121 249.861C542.231 249.881 542.371 249.891 542.481 249.881C543.241 249.801 543.681 249.201 543.601 248.501C543.541 247.941 543.181 247.541 542.771 247.121C542.311 246.601 541.781 246.041 541.681 245.091C541.551 243.831 542.441 242.781 543.811 242.631H543.861L543.981 243.761H543.931C543.311 243.831 542.831 244.341 542.911 245.061C542.971 245.621 543.331 246.011 543.711 246.431C544.191 246.931 544.691 247.461 544.791 248.421C544.931 249.731 543.991 250.861 542.581 251.011C542.471 251.021 542.311 251.011 542.221 251.011L542.241 251.021Z" fill="black"/>
<path d="M545.93 241.28L545.75 239.53L546.9 239.41L547.08 241.16L545.93 241.28ZM546.88 250.32L546.08 242.65L547.23 242.53L548.03 250.2L546.88 250.32Z" fill="black"/>
<path d="M549.5 246.161C549.26 243.921 550.91 241.891 553.06 241.661C553.98 241.561 554.77 241.781 555.42 242.221L554.91 237.341L556.06 237.221L557.32 249.221L556.17 249.341L556.11 248.781C555.56 249.351 554.84 249.731 553.92 249.831C551.76 250.061 549.74 248.431 549.5 246.171V246.161ZM555.98 247.501L555.56 243.491C554.94 242.991 554.15 242.701 553.31 242.791C551.69 242.961 550.48 244.431 550.65 246.051C550.82 247.671 552.3 248.831 553.92 248.661C554.77 248.571 555.47 248.141 555.98 247.511V247.501Z" fill="black"/>
<path d="M558.769 245.189C558.529 242.949 560.179 240.919 562.459 240.679C564.669 240.449 566.679 241.949 566.999 244.329C567.019 244.499 567.029 244.649 567.029 244.819L559.999 245.559C560.369 246.919 561.719 247.859 563.189 247.699C563.999 247.619 564.689 247.209 565.179 246.619L566.079 247.339C565.409 248.149 564.439 248.719 563.309 248.839C561.029 249.079 558.999 247.449 558.769 245.189ZM565.759 243.969C565.389 242.609 564.039 241.659 562.569 241.809C561.099 241.969 559.979 243.179 559.899 244.589L565.759 243.969Z" fill="black"/>
<path d="M569.249 247.96L568.449 240.29L569.599 240.17L569.669 240.8C569.989 240.29 570.619 239.82 571.449 239.73C572.739 239.59 573.849 240.45 574.009 242.04L574.569 247.4L573.419 247.52L572.869 242.3C572.759 241.28 572.089 240.81 571.279 240.89C570.589 240.96 569.999 241.43 569.789 242.02L570.399 247.83L569.249 247.95V247.96Z" fill="black"/>
<path d="M582.19 246.59L581.07 235.92L582.1 234.15L583.39 246.46L582.19 246.59Z" fill="black"/>
<path d="M591.911 236.59C591.961 237.08 591.911 237.57 591.761 238.02L589.281 245.84L587.961 245.98L589.831 240.1C589.541 240.22 589.221 240.29 588.891 240.32C587.001 240.52 585.321 239.16 585.131 237.3C584.941 235.44 586.301 233.78 588.191 233.58C590.061 233.38 591.741 234.73 591.931 236.58L591.911 236.59ZM590.681 236.72C590.561 235.53 589.481 234.67 588.301 234.79C587.101 234.92 586.231 235.98 586.351 237.17C586.471 238.36 587.551 239.22 588.751 239.09C589.931 238.97 590.801 237.9 590.681 236.71V236.72Z" fill="black"/>
<path d="M595.11 245.52L594.99 244.36H595.08C596.79 244.17 598.14 242.54 597.95 240.72C597.78 239.13 596.45 237.87 594.82 237.79L595.98 234.21L593.12 234.51L593 233.32L597.72 232.82L596.39 236.94C597.9 237.56 598.96 238.95 599.13 240.58C599.39 243.05 597.58 245.24 595.22 245.49H595.13L595.11 245.52Z" fill="black"/>
<path d="M606.141 244.07L605.901 241.76L600.191 242.36L606.001 231.18L606.971 240.44L608.881 240.24L609.001 241.43L607.091 241.63L607.331 243.94L606.131 244.07H606.141ZM602.101 240.96L605.771 240.57L605.191 235.02L602.101 240.96Z" fill="black"/>
<path d="M327.57 431.881L281.12 436.671L263.75 342.231L322.85 334.961L327.57 431.881Z" fill="#DB4726"/>
<path d="M399.06 430.961L339.78 436.491L334.66 341.371L380.53 336.641L399.06 430.961Z" fill="#DB4726"/>
<path d="M455.709 416.899L403.969 421.649L389.969 325.689L452.089 319.279L455.709 416.899Z" fill="#DB4726"/>
<path d="M527.72 415.351L468.56 422.031L459.66 324.371L509.53 318.641L527.72 415.351Z" fill="#DB4726"/>
<path d="M585 401.811L538.09 407.821L519.91 311.121L578.03 305.711L585 401.811Z" fill="#DB4726"/>
<path d="M658.639 398.911L598.319 405.721L593.539 308.221L641.149 303.311L658.639 398.911Z" fill="#DB4726"/>
<path d="M722.149 388.84L671.109 394.69L658.789 297.97L721.499 291.5L722.149 388.84Z" fill="#DB4726"/>
<path d="M800.55 386.62L741.97 393.25L732.09 297.45L782.6 292.24L800.55 386.62Z" fill="#DB4726"/>
<path d="M313.952 409.789C313.502 409.839 313.412 409.699 313.142 409.269L312.062 407.569H311.912C309.532 409.339 305.732 411.159 301.482 411.599C289.782 412.809 282.202 403.499 280.592 387.929C278.942 371.909 284.402 360.579 296.992 359.279C300.722 358.899 304.032 359.609 306.172 360.669L306.292 359.599C306.322 359.139 306.372 358.919 306.892 358.859L307.862 358.759C308.382 358.709 308.482 358.919 308.522 359.369L310.132 374.939C310.182 375.389 310.122 375.539 309.602 375.599L308.112 375.749C307.742 375.789 307.572 375.659 307.532 375.209L307.332 374.029C306.542 367.789 303.172 361.429 297.662 361.999C289.612 362.829 288.802 371.049 290.442 386.919C292.112 403.089 295.022 409.409 301.502 408.749C303.512 408.539 305.302 407.609 306.612 406.419L305.802 398.519C305.222 392.859 305.092 392.419 303.672 392.489L300.002 392.719C299.552 392.769 299.402 392.709 299.352 392.259L299.202 390.839C299.152 390.389 299.292 390.299 299.742 390.259L316.652 388.519C317.102 388.469 317.182 388.539 317.232 388.989L317.382 390.409C317.432 390.859 317.362 390.939 316.912 390.989L315.142 391.319C313.742 391.609 313.632 391.999 314.212 397.659L315.392 409.059C315.442 409.509 315.382 409.659 314.852 409.719L313.962 409.809L313.952 409.789Z" fill="black"/>
<path d="M347.791 416.161C347.341 416.211 347.261 416.141 347.211 415.691L347.061 414.271C347.011 413.821 347.071 413.671 347.521 413.621L349.671 413.321C351.081 413.101 351.181 412.641 350.601 406.981L347.231 374.271C346.651 368.611 346.451 368.181 345.031 368.251L342.941 368.391C342.481 368.361 342.331 368.301 342.281 367.861L342.131 366.441C342.081 365.991 342.221 365.901 342.671 365.861L369.201 363.121C369.721 363.071 369.821 363.281 369.871 363.731L371.361 378.191C371.411 378.711 371.361 378.871 370.831 378.921L369.271 379.081C368.901 379.121 368.811 378.981 368.681 378.461L368.581 377.491C367.631 370.511 365.711 366.491 360.801 367.001L355.581 367.541L357.601 387.141L360.061 386.891C363.041 386.581 363.761 384.101 363.531 380.431V379.751C363.481 379.231 363.541 379.071 363.991 379.031L365.331 378.891C365.851 378.841 365.951 379.051 366.001 379.501L367.711 396.041C367.761 396.561 367.711 396.721 367.181 396.771L365.841 396.911C365.391 396.961 365.301 396.811 365.251 396.291L365.071 395.251C364.631 391.681 363.341 389.401 360.361 389.711L357.901 389.961L360.161 411.871L367.611 411.101C372.821 410.561 373.681 404.981 373.501 398.821V398.141C373.531 397.681 373.591 397.451 373.961 397.411L375.521 397.251C376.041 397.201 376.141 397.41 376.191 397.861L377.021 412.461C377.071 412.911 377.021 413.141 376.491 413.191L347.801 416.151L347.791 416.161Z" fill="black"/>
<path d="M440.461 395.691C440.161 395.721 440.001 395.591 439.731 395.241L416.511 358.481H416.441L418.551 378.901C419.861 391.641 421.671 393.861 424.971 393.671L426.691 393.571C427.151 393.601 427.301 393.661 427.351 394.101L427.501 395.521C427.551 395.971 427.401 396.061 426.961 396.101L412.731 397.571C412.281 397.621 412.131 397.561 412.081 397.111L411.931 395.691C411.881 395.241 412.031 395.151 412.471 395.031L413.281 394.871C415.501 394.491 416.441 391.911 415.131 379.241L412.711 355.771C412.121 350.031 411.851 349.611 410.501 349.671L408.181 349.761C407.731 349.811 407.581 349.751 407.531 349.301L407.381 347.811C407.331 347.361 407.471 347.271 407.921 347.231L419.021 346.081C419.471 346.031 419.631 346.171 419.901 346.591L439.881 378.941L440.031 378.921L438.301 362.161C436.991 349.421 435.111 347.281 431.881 347.391L430.161 347.491C429.711 347.461 429.551 347.401 429.501 346.961L429.351 345.541C429.301 345.091 429.451 345.001 429.891 344.961L443.971 343.511C444.421 343.461 444.571 343.521 444.621 343.971L444.771 345.391C444.821 345.841 444.681 345.931 444.241 346.051L443.431 346.211C441.291 346.661 440.351 349.161 441.651 361.831L445.041 394.691C445.081 395.061 444.951 395.231 444.501 395.271L440.481 395.691H440.461Z" fill="black"/>
<path d="M487.16 401.781C486.71 401.831 486.56 401.771 486.51 401.321L486.36 399.901C486.31 399.451 486.45 399.291 486.9 399.241L488.98 398.951C490.46 398.721 490.49 398.271 489.91 392.601L485.94 354.081L483.26 354.361C478.34 354.871 477.13 359.211 477.79 366.301L478.01 368.461C478.06 368.911 477.93 369.151 477.56 369.181L476 369.341C475.48 369.391 475.38 369.181 475.33 368.731L473.71 353.011C473.66 352.561 473.71 352.331 474.24 352.281L505.98 349.011C506.43 348.961 506.52 349.181 506.57 349.631L508.19 365.351C508.24 365.801 508.19 366.031 507.74 366.071L506.17 366.231C505.8 366.271 505.63 366.061 505.58 365.611L505.36 363.451C504.48 356.391 502.48 352.381 497.49 352.891L494.88 353.161L498.85 391.681C499.43 397.341 499.56 397.781 500.98 397.711L503.15 397.561C503.6 397.511 503.76 397.651 503.81 398.101L503.96 399.521C504.01 399.971 503.86 400.061 503.42 400.101L487.18 401.771L487.16 401.781Z" fill="black"/>
<path d="M559.999 382.57C548.519 383.75 540.899 374.82 539.299 359.25C537.659 343.38 543.509 331.48 555.139 330.28C566.609 329.1 574.239 338.02 575.839 353.6C577.479 369.47 571.629 381.37 559.999 382.57ZM555.209 333.21C547.829 333.97 547.649 343.85 549.109 358.01C550.449 370.97 552.469 380.41 559.919 379.64C567.369 378.87 567.479 369 566.019 354.84C564.679 341.88 562.659 332.45 555.209 333.21Z" fill="black"/>
<path d="M608.97 389.219C608.52 389.269 608.44 389.199 608.39 388.749L608.24 387.329C608.19 386.879 608.25 386.729 608.7 386.679L610.85 386.379C612.26 386.159 612.36 385.699 611.78 380.039L608.41 347.329C607.83 341.669 607.63 341.239 606.21 341.309L604.12 341.449C603.66 341.419 603.51 341.359 603.46 340.919L603.31 339.499C603.26 339.049 603.4 338.959 603.85 338.919L630.38 336.179C630.9 336.129 631 336.339 631.05 336.789L632.69 352.659C632.74 353.109 632.69 353.339 632.16 353.389L630.59 353.549C630.22 353.589 630.05 353.379 630 352.929L629.76 350.619C628.96 343.549 626.89 339.549 621.97 340.049L616.76 340.589L618.93 361.679L621.39 361.429C624.44 361.109 625.09 358.639 624.87 354.969V354.289C624.82 353.769 624.88 353.609 625.33 353.569L626.67 353.429C627.19 353.379 627.28 353.519 627.34 354.039L629.12 371.249C629.17 371.769 629.12 371.929 628.59 371.979L627.25 372.119C626.8 372.169 626.71 372.029 626.66 371.499L626.41 369.789C626.03 366.139 624.75 363.939 621.7 364.249L619.24 364.499L620.75 379.099C621.33 384.759 621.45 385.199 622.88 385.129L626.32 384.849C626.77 384.799 626.93 384.939 626.98 385.389L627.13 386.809C627.18 387.259 627.03 387.349 626.59 387.389L609.01 389.199L608.97 389.219Z" fill="black"/>
<path d="M686.11 370.961C685.66 371.011 685.51 370.951 685.46 370.501L685.31 369.081C685.26 368.631 685.4 368.471 685.85 368.421L687.93 368.131C689.41 367.901 689.44 367.451 688.86 361.781L684.89 323.261L682.21 323.541C677.29 324.051 676.08 328.391 676.74 335.471L676.96 337.631C677.01 338.081 676.88 338.321 676.51 338.351L674.95 338.511C674.43 338.561 674.33 338.351 674.28 337.901L672.66 322.181C672.61 321.731 672.66 321.501 673.19 321.451L704.93 318.181C705.38 318.131 705.47 318.351 705.52 318.801L707.14 334.521C707.19 334.971 707.14 335.201 706.69 335.241L705.13 335.401C704.76 335.441 704.59 335.231 704.54 334.781L704.32 332.621C703.44 325.561 701.44 321.551 696.45 322.061L693.84 322.331L697.81 360.851C698.39 366.511 698.52 366.951 699.94 366.881L702.11 366.731C702.56 366.681 702.72 366.821 702.77 367.271L702.92 368.691C702.97 369.141 702.83 369.231 702.38 369.271L686.14 370.941L686.11 370.961Z" fill="black"/>
<path d="M749.751 370.741C749.301 370.791 749.221 370.721 749.171 370.271L749.021 368.851C748.971 368.401 749.031 368.251 749.481 368.201L751.631 367.901C753.041 367.681 753.141 367.221 752.561 361.561L749.191 328.851C748.611 323.191 748.411 322.761 746.991 322.831L744.901 322.971C744.441 322.941 744.291 322.881 744.241 322.441L744.091 321.021C744.041 320.571 744.191 320.481 744.631 320.441L771.161 317.701C771.681 317.651 771.781 317.861 771.831 318.311L773.321 332.761C773.371 333.281 773.321 333.441 772.791 333.491L771.231 333.651C770.861 333.691 770.771 333.551 770.641 333.031L770.541 332.061C769.591 325.081 767.671 321.061 762.761 321.571L757.541 322.111L759.561 341.711L762.021 341.461C765.001 341.151 765.721 338.671 765.501 335.001V334.321C765.451 333.801 765.511 333.641 765.961 333.601L767.301 333.461C767.821 333.411 767.921 333.621 767.961 334.071L769.671 350.611C769.721 351.131 769.671 351.291 769.141 351.341L767.801 351.481C767.351 351.531 767.261 351.381 767.211 350.861L767.031 349.821C766.591 346.251 765.301 343.971 762.321 344.281L759.861 344.531L762.121 366.441L769.571 365.671C774.791 365.131 775.641 359.551 775.461 353.391V352.711C775.491 352.251 775.551 352.021 775.921 351.981L777.481 351.821C778.001 351.771 778.101 351.981 778.151 352.431L778.981 367.031C779.031 367.481 778.981 367.711 778.451 367.761L749.761 370.721L749.751 370.741Z" fill="black"/>
<path d="M664.941 513.279L618.491 518.069L601.121 423.629L660.221 416.359L664.941 513.279Z" fill="#DB4726"/>
<path d="M539.478 531.501L487.748 536.251L473.738 440.281L535.868 433.881L539.478 531.501Z" fill="#DB4726"/>
<path d="M740.551 512.52L680.231 519.33L675.461 421.83L723.071 416.92L740.551 512.52Z" fill="#DB4726"/>
<path d="M611.901 528.139L551.571 534.949L546.801 437.439L594.411 432.529L611.901 528.139Z" fill="#DB4726"/>
<path d="M565.05 514.02C564.6 514.07 564.45 514.01 564.4 513.56L564.25 512.14C564.2 511.69 564.35 511.6 564.79 511.48L566.94 511.18C568.34 510.89 568.38 510.51 567.79 504.84L564.42 472.13C563.84 466.47 563.72 466.03 562.29 466.1L560.12 466.25C559.67 466.22 559.51 466.16 559.46 465.71L559.31 464.29C559.26 463.84 559.41 463.75 559.85 463.71L576.09 462.03C576.54 461.98 576.69 462.04 576.74 462.49L576.89 463.91C576.94 464.36 576.8 464.45 576.35 464.57L574.27 464.86C572.79 465.09 572.83 465.53 573.42 471.2L576.79 503.91C577.37 509.57 577.41 509.95 578.92 509.94L581.01 509.8C581.47 509.83 581.62 509.89 581.67 510.34L581.82 511.76C581.87 512.21 581.72 512.3 581.28 512.34L565.04 514.02H565.05Z" fill="black"/>
<path d="M651.051 490.281C650.751 490.311 650.591 490.181 650.321 489.831L627.101 453.071H627.021L629.131 473.491C630.441 486.231 632.251 488.451 635.551 488.261L637.271 488.161C637.721 488.191 637.881 488.251 637.931 488.691L638.081 490.111C638.131 490.561 637.981 490.651 637.541 490.691L623.311 492.161C622.861 492.211 622.711 492.151 622.661 491.701L622.511 490.281C622.461 489.831 622.611 489.741 623.051 489.621L623.861 489.461C626.081 489.081 627.021 486.501 625.711 473.831L623.291 450.361C622.701 444.621 622.431 444.201 621.081 444.261L618.751 444.351C618.301 444.401 618.151 444.341 618.101 443.891L617.951 442.401C617.901 441.951 618.041 441.861 618.491 441.821L629.591 440.671C630.041 440.621 630.201 440.761 630.471 441.181L650.451 473.531L650.601 473.511L648.871 456.751C647.561 444.011 645.681 441.871 642.451 441.981L640.731 442.081C640.271 442.051 640.121 441.991 640.071 441.541L639.921 440.121C639.871 439.671 640.021 439.581 640.461 439.541L654.541 438.091C654.991 438.041 655.141 438.101 655.191 438.551L655.341 439.971C655.391 440.421 655.251 440.511 654.811 440.631L654.001 440.791C651.861 441.241 650.921 443.741 652.221 456.411L655.611 489.271C655.651 489.641 655.521 489.811 655.071 489.851L651.051 490.271V490.281Z" fill="black"/>
<path d="M711.882 499.861C700.412 501.041 692.782 492.121 691.182 476.541C689.542 460.671 695.392 448.771 707.022 447.571C718.492 446.391 726.122 455.321 727.722 470.891C729.362 486.761 723.502 498.661 711.882 499.861ZM707.102 450.501C699.722 451.261 699.542 461.141 701.002 475.301C702.342 488.261 704.362 497.691 711.812 496.931C719.262 496.161 719.372 486.291 717.912 472.131C716.572 459.171 714.542 449.741 707.102 450.501Z" fill="black"/>
<path d="M521.519 510.58C520.999 510.63 520.829 510.5 520.549 509.93L509.309 488.57C507.979 490.97 507.509 493.05 507.829 496.18L508.539 503.04C509.119 508.7 509.239 509.14 510.669 509.07L512.839 508.92C513.289 508.95 513.449 509.01 513.499 509.46L513.649 510.88C513.699 511.33 513.549 511.42 513.109 511.46L496.789 513.14C496.339 513.19 496.259 513.12 496.209 512.67L496.059 511.25C496.009 510.8 496.079 510.72 496.519 510.6L498.669 510.3C500.079 510.08 500.109 509.62 499.519 503.96L496.149 471.25C495.569 465.59 495.449 465.15 494.019 465.22L491.929 465.36C491.469 465.33 491.319 465.27 491.269 464.83L491.119 463.41C491.069 462.96 491.209 462.87 491.659 462.83L507.899 461.16C508.349 461.11 508.499 461.17 508.549 461.62L508.699 463.04C508.749 463.49 508.599 463.58 508.169 463.7L506.019 464C504.609 464.22 504.579 464.67 505.169 470.34L506.949 487.63H507.019C507.799 484.91 509.759 481.32 514.429 472.55C515.779 469.62 516.959 467.17 516.759 465.23C516.609 463.74 515.929 463.06 514.579 463.12L513.229 463.18C512.769 463.15 512.689 463.08 512.649 462.64L512.499 461.22C512.449 460.77 512.519 460.69 512.969 460.64L526.749 459.22C527.199 459.17 527.349 459.23 527.399 459.68L527.549 461.1C527.599 461.55 527.459 461.64 527.019 461.76L526.129 461.93C523.249 462.53 522.349 463.98 519.169 470.33L514.549 478.86L525.769 500.07C528.969 506.22 529.489 506.92 531.149 506.97H531.899C532.359 507 532.439 507.06 532.479 507.51L532.629 508.93C532.679 509.38 532.609 509.46 532.159 509.51L521.499 510.61L521.519 510.58Z" fill="black"/>
<path d="M229.141 446.5L235.641 509.48" stroke="#DB4726" stroke-width="3" stroke-miterlimit="10"/>
<path d="M202.398 480.56L264.338 474.17" stroke="#DB4726" stroke-width="3" stroke-miterlimit="10"/>
<path d="M224.371 470.99L242.481 484.77" stroke="#DB4726" stroke-width="3" stroke-miterlimit="10"/>
<path d="M240.78 468.25L226.07 487.51" stroke="#DB4726" stroke-width="3" stroke-miterlimit="10"/>
<path d="M793.612 500.49L792.352 553.52" stroke="#DB4726" stroke-width="2" stroke-miterlimit="10"/>
<path d="M766.309 525.93L821.509 527.25" stroke="#DB4726" stroke-width="2" stroke-miterlimit="10"/>
<path d="M786.691 520.33L801.111 533.72" stroke="#DB4726" stroke-width="2" stroke-miterlimit="10"/>
<path d="M801.439 519.811L786.359 534.241" stroke="#DB4726" stroke-width="2" stroke-miterlimit="10"/>
<path d="M858.771 115.311L854.551 185.411" stroke="#DB4726" stroke-width="3" stroke-miterlimit="10"/>
<path d="M823.371 147.779L892.321 151.929" stroke="#DB4726" stroke-width="3" stroke-miterlimit="10"/>
<path d="M849.141 141.26L866.491 159.6" stroke="#DB4726" stroke-width="3" stroke-miterlimit="10"/>
<path d="M867.591 141.221L848.031 159.651" stroke="#DB4726" stroke-width="3" stroke-miterlimit="10"/>
</g>
<defs>
<filter id="filter0_d_357_8375" x="11.5" y="72.5" width="979" height="612" filterUnits="userSpaceOnUse" color-interpolation-filters="sRGB">
<feFlood flood-opacity="0" result="BackgroundImageFix"/>
<feColorMatrix in="SourceAlpha" type="matrix" values="0 0 0 0 0 0 0 0 0 0 0 0 0 0 0 0 0 0 127 0" result="hardAlpha"/>
<feOffset dx="-4" dy="4"/>
<feGaussianBlur stdDeviation="6"/>
<feColorMatrix type="matrix" values="0 0 0 0 0 0 0 0 0 0 0 0 0 0 0 0 0 0 0.15 0"/>
<feBlend mode="normal" in2="BackgroundImageFix" result="effect1_dropShadow_357_8375"/>
<feBlend mode="normal" in="SourceGraphic" in2="effect1_dropShadow_357_8375" result="shape"/>
</filter>
<filter id="filter1_d_357_8375" x="5.5" y="40.5" width="947" height="610" filterUnits="userSpaceOnUse" color-interpolation-filters="sRGB">
<feFlood flood-opacity="0" result="BackgroundImageFix"/>
<feColorMatrix in="SourceAlpha" type="matrix" values="0 0 0 0 0 0 0 0 0 0 0 0 0 0 0 0 0 0 127 0" result="hardAlpha"/>
<feOffset dx="-4" dy="4"/>
<feGaussianBlur stdDeviation="6"/>
<feColorMatrix type="matrix" values="0 0 0 0 0 0 0 0 0 0 0 0 0 0 0 0 0 0 0.15 0"/>
<feBlend mode="normal" in2="BackgroundImageFix" result="effect1_dropShadow_357_8375"/>
<feBlend mode="normal" in="SourceGraphic" in2="effect1_dropShadow_357_8375" result="shape"/>
</filter>
<filter id="filter2_d_357_8375" x="45.9102" y="44.5" width="330.289" height="724.119" filterUnits="userSpaceOnUse" color-interpolation-filters="sRGB">
<feFlood flood-opacity="0" result="BackgroundImageFix"/>
<feColorMatrix in="SourceAlpha" type="matrix" values="0 0 0 0 0 0 0 0 0 0 0 0 0 0 0 0 0 0 127 0" result="hardAlpha"/>
<feOffset dx="-4" dy="4"/>
<feGaussianBlur stdDeviation="6"/>
<feColorMatrix type="matrix" values="0 0 0 0 0 0 0 0 0 0 0 0 0 0 0 0 0 0 0.15 0"/>
<feBlend mode="normal" in2="BackgroundImageFix" result="effect1_dropShadow_357_8375"/>
<feBlend mode="normal" in="SourceGraphic" in2="effect1_dropShadow_357_8375" result="shape"/>
</filter>
<clipPath id="clip0_357_8375">
<rect width="1024" height="768" fill="white"/>
</clipPath>
</defs>
</svg>
