<svg width="39" height="39" viewBox="0 0 39 39" fill="none" xmlns="http://www.w3.org/2000/svg">
<path d="M11.8563 9.91486H9.135L8.875 2.01953H12.203L11.8563 9.91486Z" stroke="#1D0803" stroke-miterlimit="10"/>
<path d="M29.8977 9.96686H27.2977L26.7344 2.01953H30.331L29.8977 9.96686Z" stroke="#1D0803" stroke-miterlimit="10"/>
<path d="M26.1738 21.988H21.3118L21.1211 17.6113L26.3644 17.7153L26.1738 21.988Z" stroke="#1D0803" stroke-miterlimit="10"/>
<path d="M33.158 17.7148H28.3047V21.9875H33.158V17.7148Z" stroke="#1D0803" stroke-miterlimit="10"/>
<path d="M11.9877 28.1068H7.1344L7.03906 23.6348H11.9877V28.1068Z" stroke="#1D0803" stroke-miterlimit="10"/>
<path d="M18.9783 27.9161H14.125V23.6348H19.0823L18.9783 27.9161Z" stroke="#1D0803" stroke-miterlimit="10"/>
<path d="M25.7861 28.1067L21.4181 28.0113L21.2188 23.834H26.0808L25.7861 28.1067Z" stroke="#1D0803" stroke-miterlimit="10"/>
<path d="M33.2652 28.1067H28.3079L28.1172 23.834H33.2652V28.1067Z" stroke="#1D0803" stroke-miterlimit="10"/>
<path d="M11.7001 34.2238H7.32348L7.13281 29.9512H12.0815L11.7001 34.2238Z" stroke="#1D0803" stroke-miterlimit="10"/>
<path d="M18.883 34.2238H14.3157L14.125 29.9512H19.0823L18.883 34.2238Z" stroke="#1D0803" stroke-miterlimit="10"/>
<path d="M26.0784 34.2255H21.2164L21.1211 29.6582L26.0784 29.9529V34.2255Z" stroke="#1D0803" stroke-miterlimit="10"/>
<path d="M33.262 34.2238H28.3047V29.9512H33.4614L33.262 34.2238Z" stroke="#1D0803" stroke-miterlimit="10"/>
<path d="M37.6627 13.4082H2.16406V37.7009H37.6627V13.4082Z" stroke="#1D0803" stroke-miterlimit="10"/>
<path d="M37.6627 13.4077H2.16406V4.06506L8.93273 3.90039L9.0974 9.96706H11.6974L12.1134 3.90039L26.8467 3.93506L27.2974 9.96706H29.8974L30.2181 4.02172L37.6627 4.06506V13.4077Z" stroke="#1D0803" stroke-miterlimit="10"/>
</svg>
