<svg width="253" height="83" viewBox="0 0 253 83" fill="none" xmlns="http://www.w3.org/2000/svg">
<path d="M148.278 82H252V42V2L1 19.3115V44.8016" stroke="#FFC145" stroke-width="2"/>
<path d="M26.556 61.892V58.9H42.176C40.768 66.292 34.3 71.616 26.776 71.616C18.108 71.616 11.068 64.576 11.068 55.952C11.068 47.284 18.108 40.244 26.776 40.244C30.956 40.244 34.916 41.916 37.864 44.864L35.708 47.02C33.332 44.688 30.12 43.324 26.776 43.324C19.824 43.324 14.192 49 14.192 55.952C14.192 62.904 19.824 68.536 26.776 68.536C31.572 68.536 35.708 65.852 37.864 61.892H26.556ZM55.1292 71.616C49.4532 71.616 44.8772 67.04 44.8772 61.364C44.8772 55.732 49.4532 51.112 55.1292 51.112C60.6292 51.112 65.2052 55.38 65.3812 61.364C65.3812 61.804 65.3812 62.156 65.3372 62.596H47.8252C48.3972 66.072 51.4772 68.756 55.1292 68.756C57.1532 68.756 58.9572 67.92 60.3212 66.6L62.3452 68.624C60.4972 70.472 57.9452 71.616 55.1292 71.616ZM47.8252 60.176H62.4332C61.8612 56.7 58.7812 53.972 55.1292 53.972C51.4772 53.972 48.3972 56.7 47.8252 60.176ZM72.8567 71H69.9967V51.728H72.8567V53.312C73.7807 52.124 75.4527 51.112 77.5207 51.112C80.7327 51.112 83.2407 53.532 83.2407 57.536V71H80.3807V57.888C80.3807 55.336 78.8407 53.972 76.8167 53.972C75.1007 53.972 73.5167 54.984 72.8567 56.392V71ZM92.5539 71H89.6499V54.588H86.7459V51.728H89.6499V45.26L92.5539 43.808V51.728H95.9859V54.588H92.5539V71ZM108.668 71.616C102.992 71.616 98.4163 67.04 98.4163 61.364C98.4163 55.732 102.992 51.112 108.668 51.112C114.344 51.112 118.92 55.688 118.92 61.364C118.92 67.04 114.344 71.616 108.668 71.616ZM108.668 68.756C112.716 68.756 116.06 65.412 116.06 61.364C116.06 57.316 112.716 53.972 108.668 53.972C104.62 53.972 101.276 57.316 101.276 61.364C101.276 65.412 104.62 68.756 108.668 68.756ZM126.924 71H124.02V54.632H121.116V51.728H124.02V46.316C124.02 42.972 126.176 40.64 129.344 40.64C129.608 40.64 130.004 40.684 130.356 40.86V43.676C130.092 43.588 129.828 43.588 129.652 43.588C128.112 43.588 126.924 44.688 126.924 46.316V51.728H130.356V54.632H126.924V71ZM137.284 71H134.38V54.588H131.476V51.728H134.38V45.26L137.284 43.808V51.728H140.716V54.588H137.284V71ZM153.399 71.616C147.723 71.616 143.147 67.04 143.147 61.364C143.147 55.732 147.723 51.112 153.399 51.112C158.899 51.112 163.475 55.38 163.651 61.364C163.651 61.804 163.651 62.156 163.607 62.596H146.095C146.667 66.072 149.747 68.756 153.399 68.756C155.423 68.756 157.227 67.92 158.591 66.6L160.615 68.624C158.767 70.472 156.215 71.616 153.399 71.616ZM146.095 60.176H160.703C160.131 56.7 157.051 53.972 153.399 53.972C149.747 53.972 146.667 56.7 146.095 60.176ZM182.857 71H179.997V40.86H182.857V59.516L188.533 51.728H192.229L185.321 60.924L192.801 71H189.149L183.473 63.3L182.857 64.136V71ZM199.185 48.296H196.325V43.896H199.185V48.296ZM199.185 71H196.325V51.728H199.185V71ZM207.822 71H204.962V51.728H207.822V53.312C208.746 52.124 210.418 51.112 212.486 51.112C215.698 51.112 218.206 53.532 218.206 57.536V71H215.346V57.888C215.346 55.336 213.806 53.972 211.782 53.972C210.066 53.972 208.482 54.984 207.822 56.392V71ZM233.063 71.616C227.387 71.616 222.811 67.04 222.811 61.364C222.811 55.732 227.387 51.112 233.063 51.112C238.739 51.112 243.315 55.688 243.315 61.364C243.315 67.04 238.739 71.616 233.063 71.616ZM233.063 68.756C237.111 68.756 240.455 65.412 240.455 61.364C240.455 57.316 237.111 53.972 233.063 53.972C229.015 53.972 225.671 57.316 225.671 61.364C225.671 65.412 229.015 68.756 233.063 68.756Z" fill="#FCF7ED"/>
</svg>
