<svg width="391" height="268" viewBox="0 0 391 268" fill="none" xmlns="http://www.w3.org/2000/svg">
<g filter="url(#filter0_d_494_4796)">
<path d="M33.0351 235.413L382.999 200.625L380.342 47.5466L26.2104 8.88953L33.0351 235.413Z" fill="#5C988D"/>
</g>
<path d="M42.3823 191.53L57.6392 183.232L62.5194 198.556L45.1545 201.887L42.392 191.53H42.3823Z" fill="#D9D9D9"/>
<path d="M23.8428 219.174L18 259.246" stroke="#7F7F7F" stroke-width="4"/>
<path d="M35.0859 216.739L42.517 267.535" stroke="#7F7F7F" stroke-width="4"/>
<path d="M0 198.17L41.4678 176.984L53.3749 213.581L6.62253 222.928L0 198.161V198.17Z" fill="#D3D2D2"/>
<path d="M32.1558 197.016C37.2969 195.642 40.2853 190.115 38.8307 184.671C37.376 179.227 32.029 175.927 26.8879 177.301C21.7468 178.675 18.7584 184.202 20.213 189.646C21.6677 195.09 27.0147 198.39 32.1558 197.016Z" fill="#B3A9A9"/>
<path d="M13.5299 201.985C17.7979 200.845 20.2788 196.256 19.0712 191.737C17.8635 187.217 13.4246 184.477 9.15661 185.618C4.88861 186.758 2.40771 191.347 3.61537 195.866C4.82303 200.386 9.26193 203.125 13.5299 201.985Z" fill="#B3A9A9"/>
<path d="M62.1537 198.691L156.092 223.044L383 200.626L380.68 47.5469L76.4576 14.2995L57.9087 183.232L62.1537 198.691Z" fill="#B3D1CB"/>
<path d="M265.691 169.082C265.691 169.082 268.386 165.52 271.312 168.37C274.238 171.219 272.102 174.068 272.102 174.068C272.102 174.068 274.595 178.342 267.472 178.698C267.472 178.698 263.91 177.986 263.91 174.78C263.91 174.78 261.417 174.424 261.773 171.575C262.129 168.726 265.691 169.082 265.691 169.082Z" fill="#F8EEC3"/>
<path d="M266.403 175.491C267.413 177.003 268.539 176.56 268.539 176.56C268.539 176.56 270.32 176.56 269.252 175.135C268.183 173.711 267.471 174.327 267.471 174.327C267.471 174.327 265.69 174.423 266.403 175.491Z" fill="#FCCB61"/>
<path d="M264.979 170.864C264.979 170.864 263.554 171.923 264.979 172.818C266.403 173.713 267.26 171.845 267.26 171.845C267.26 171.845 267.838 169.362 266.403 170.113L264.979 170.864Z" fill="#FCCB61"/>
<path d="M270.686 171.065C270.686 171.065 270.667 169.987 269.801 170.555C268.934 171.123 269.502 172.085 269.502 172.085C269.502 172.085 270.436 173.048 270.561 172.056L270.686 171.065Z" fill="#FCCB61"/>
<path d="M99.7526 60.3495C96.9227 60.8789 93.4766 60.7634 90.7718 60.5901C89.3857 60.5035 90.1172 58.5879 90.8199 57.3943C94.0734 57.9815 97.8467 57.9623 101.861 57.5869C102.698 57.5195 102.929 58.2222 102.737 59.1462C96.99 67.0971 95.0264 73.1036 92.8991 79.8224C91.513 80.3133 89.944 80.3518 90.3868 78.9079C92.2157 72.5164 95.6906 65.788 99.7526 60.3398V60.3495Z" fill="#1D0803"/>
<path d="M116.231 65.3639C116.289 75.3554 111.004 80.3608 107.337 80.3801C105.662 80.3801 102.014 79.225 101.975 71.3126C101.937 64.1029 106.211 57.0569 110.947 57.028C114.2 57.0087 116.212 60.1275 116.241 65.3639H116.231ZM113.276 66.9425C113.247 62.4088 112.015 59.4152 109.628 59.4344C107.212 59.444 105.084 64.0259 105.113 70.3789C105.133 74.0848 106.095 78.2528 108.636 78.2432C111.149 78.2335 113.305 73.2378 113.276 66.9522V66.9425Z" fill="#1D0803"/>
<path d="M133.018 72.8625L129.995 79.9952C127.233 80.8711 126.829 78.3877 128.359 69.8881C127.185 72.5448 126.174 75.6443 124.807 79.8315C122.622 80.7364 121.881 80.1011 121.939 78.9171C122.112 74.9609 122.622 69.4646 123.036 67.4239C124.836 66.4613 126.058 66.6057 125.808 67.7897C125.529 69.1951 124.903 73.2186 124.48 77.2133C127.801 66.5672 129.466 64.1608 131.661 66.6057C130.621 69.8689 130.121 74.1427 130.169 76.732C131.728 73.0165 132.421 70.7159 133.634 68.8293C134.722 67.1351 135.877 67.6357 136.887 68.9063C134.741 75.808 134.914 78.7149 136.108 78.7053C136.753 78.7053 137.523 78.2818 138.379 76.2315L138.88 68.2806C140.68 67.318 142.22 67.4624 141.97 68.6464L140.767 77.1074C143.857 65.056 144.983 65.1811 147.947 66.4998C146.908 69.763 146.321 74.2293 146.109 77.7139C147.052 73.9406 148.13 71.3512 149.247 69.3972C149.979 68.117 151.326 67.7897 153.174 68.8004C151.028 75.7021 151.201 78.6091 152.395 78.5994C153.068 78.5994 153.838 78.147 154.734 75.9716C155.215 75.6154 156.024 75.8368 155.86 76.4144C155.292 78.3973 153.627 80.1299 151.759 80.1396C149.67 80.1492 148.554 76.809 149.391 72.0154C148.111 74.1908 147.197 76.9438 146.119 80.5246C144.059 81.1695 143.443 80.2166 144.511 69.6186C143.337 72.2753 142.451 75.3748 141.094 79.562C139.034 80.4091 138.264 79.8989 138.225 78.8786C137.455 79.6775 136.493 80.2262 135.463 80.2358C133.374 80.2454 132.257 76.9053 133.008 72.8432L133.018 72.8625Z" fill="#1D0803"/>
<path d="M160.943 72.9303C161.337 67.9153 161.819 63.2853 162.416 59.1654C164.889 58.1932 166.247 58.7323 166.025 59.9066C164.745 66.8372 163.869 71.5731 163.186 76.6458C164.61 78.8694 165.679 78.7058 166.815 75.4426C166.738 73.6234 166.949 71.1977 167.671 68.0693C170.116 67.0297 170.665 67.7324 170.472 68.5602C168.903 75.3656 168.663 78.5325 170.203 78.5229C170.877 78.5229 171.647 78.0705 172.542 75.895C173.023 75.5389 173.832 75.7603 173.668 76.3378C173.1 78.3207 171.435 80.0534 169.539 80.0919C168.605 80.0919 167.671 79.4662 167.171 77.8683C166.593 78.8598 165.958 79.4662 165.246 79.6972C167.787 84.9144 164.726 90.9979 161.347 91.0171C161.029 91.0171 160.25 91.0556 160.211 89.5251C160.25 85.3764 160.394 81.324 160.625 77.4255C160.105 76.7902 159.682 76.0587 159.326 75.2982C159.509 73.3153 160.346 72.7763 160.924 72.9303H160.943ZM162.82 79.7838C162.483 82.5946 162.204 85.6267 161.934 89.3037C163.417 89.169 165.65 85.232 162.82 79.7838ZM167.979 63.9302C167.979 62.9388 168.807 62.1687 169.712 62.1687C170.617 62.1687 171.676 62.4478 171.685 63.9398C171.695 65.9805 167.998 66.0671 167.979 63.9302Z" fill="#1D0803"/>
<path d="M178.731 75.8654C179.434 75.5092 180.079 75.7306 179.857 76.3082C179.097 78.2237 177.624 80.0237 175.728 80.0333C170.742 80.0622 171.521 71.3124 174.948 56.4791C175.304 56.1229 175.718 56.1229 176.074 56.2192C180.011 57.3165 179.386 66.1241 174.842 72.3809C174.736 76.1157 175.362 78.5029 176.392 78.5029C177.066 78.5029 177.836 78.0504 178.731 75.875V75.8654ZM175.025 69.6953C176.43 66.8172 177.152 63.8428 176.652 61.4556C175.795 64.4589 175.266 67.2696 175.025 69.6953Z" fill="#1D0803"/>
<path d="M189.627 72.5541L186.605 79.6868C183.842 80.5627 183.438 78.0793 184.968 69.5797C183.794 72.2364 182.783 75.3359 181.416 79.5231C179.231 80.4279 178.49 79.7927 178.548 78.6087C178.721 74.6525 179.231 69.1562 179.645 67.1155C181.445 66.1529 182.668 66.2973 182.418 67.4813C182.138 68.8866 181.513 72.9102 181.089 76.9049C184.41 66.2588 186.075 63.8524 188.27 66.2973C187.23 69.5605 186.74 73.8343 186.778 76.4236C188.337 72.7081 189.03 70.4075 190.243 68.5209C191.331 66.8267 192.486 67.3273 193.497 68.5979C191.35 75.4996 191.524 78.4065 192.717 78.3969C193.391 78.3969 194.161 77.9445 195.056 75.7691C195.537 75.4129 196.346 75.6343 196.182 76.2119C195.615 78.1948 193.949 79.9274 192.082 79.937C189.993 79.9467 188.876 76.6065 189.627 72.5444V72.5541Z" fill="#1D0803"/>
<g filter="url(#filter1_d_494_4796)">
<path d="M276.906 105.658C276.906 105.658 278.253 100.267 274.21 98.9199C274.21 98.9199 273.537 92.1818 267.472 92.8556C267.472 92.8556 266.799 86.2909 258.039 88.5625C258.039 88.5625 256.691 78.0319 245.237 84.0962C245.237 84.0962 240.809 75.6159 233.59 82.2192C233.59 82.2192 227.044 78.0416 222.337 84.77C222.337 84.77 213.78 81.5646 211.556 89.4866C211.556 89.4866 202.797 87.4652 202.123 95.5508C202.123 95.5508 196.059 93.5294 194.037 98.9199C194.037 98.9199 187.299 97.5723 186.625 105.658H276.896H276.906Z" fill="#FFF5D2"/>
</g>
<g filter="url(#filter2_d_494_4796)">
<path d="M239.181 185.821H206.838L186.634 105.657H239.181V185.821Z" fill="#E26B50"/>
</g>
<g filter="url(#filter3_d_494_4796)">
<path d="M260.059 185.821H239.181V105.657H276.904L260.059 185.821Z" fill="#DB4726"/>
</g>
<g filter="url(#filter4_d_494_4796)">
<path d="M243.214 105.657V185.821H247.257L249.279 105.657H243.214Z" fill="#EBD5C1"/>
</g>
<g filter="url(#filter5_d_494_4796)">
<path d="M273.536 105.657H266.124L256.017 185.821H258.712L273.536 105.657Z" fill="#EBD5C1"/>
</g>
<g filter="url(#filter6_d_494_4796)">
<path d="M253.995 105.657H262.081L253.321 185.821H250.626L253.995 105.657Z" fill="#EBD5C1"/>
</g>
<g filter="url(#filter7_d_494_4796)">
<path d="M233.791 105.657V185.821H227.727L223.01 105.657H233.791Z" fill="#F8E8CE"/>
</g>
<g filter="url(#filter8_d_494_4796)">
<path d="M190.677 105.657H200.784L214.25 185.821H209.534L190.677 105.657Z" fill="#F8E8CE"/>
</g>
<g filter="url(#filter9_d_494_4796)">
<path d="M205.491 105.657H216.946L223.01 185.821H218.293L205.491 105.657Z" fill="#F8E8CE"/>
</g>
<g filter="url(#filter10_d_494_4796)">
<path d="M288.561 186.995C285.154 158.599 276.558 130.752 273.15 102.356C277.665 104.676 287.002 108.719 299.448 108.67C311.576 108.622 321.809 104.685 326.304 102.385C323.233 130.781 318.7 159.36 315.619 187.746" fill="#DB4726"/>
<path d="M272.583 101.787L273.15 106.745C273.15 106.745 298.851 119.701 326.872 105.811L328.017 100.093L272.583 101.787Z" fill="#F8E8CE"/>
<path d="M328.017 100.094C328.017 101.355 313.559 109.258 298.88 109.239C284.201 109.22 272.583 103.05 272.583 101.779C272.583 100.508 286.472 96.042 301.142 95.5126C317.121 94.9446 328.017 98.8238 328.017 100.085V100.094Z" fill="#FCF7ED"/>
<path d="M295.453 102.375L296.608 86.9356L273.179 72.6221L279.417 63.4969L301.181 85.2222L301.161 102.375C301.161 102.375 298.87 104.657 295.444 102.375H295.453Z" fill="#DB4726"/>
</g>
<path d="M270.841 194.06C270.841 194.06 269.984 200.182 264.709 198.257C259.434 196.332 262.842 192.058 262.842 192.058C262.842 192.058 260.887 188.593 262.996 186.6C265.104 184.608 266.827 184.916 268.174 186.264C268.174 186.264 270.812 185.32 272.506 188.237C274.2 191.153 270.841 194.06 270.841 194.06Z" fill="#F5E8BB"/>
<path d="M267.663 190.384C266.431 188.555 265.064 189.104 265.064 189.104C265.064 189.104 262.908 189.114 264.208 190.837C265.507 192.56 266.373 191.809 266.373 191.809C266.373 191.809 268.53 191.674 267.663 190.384Z" fill="#FCCB61"/>
<path d="M270.734 190.711C271.947 189.739 271.389 189.046 271.389 189.046C271.389 189.046 271.139 187.823 270.003 188.815C268.867 189.806 269.522 190.191 269.522 190.191C269.522 190.191 269.859 191.404 270.725 190.711H270.734Z" fill="#FCCB61"/>
<path d="M266.162 197.006C267.375 196.034 266.817 195.341 266.817 195.341C266.817 195.341 266.567 194.118 265.431 195.11C264.295 196.101 264.949 196.486 264.949 196.486C264.949 196.486 265.286 197.699 266.153 197.006H266.162Z" fill="#FCCB61"/>
<path d="M213.153 188.468C213.153 188.468 216.57 183.318 220.488 187.332C224.406 191.346 219.496 193.733 219.496 193.733C219.496 193.733 219.756 197.709 216.994 198.585C214.231 199.46 212.816 198.44 212.181 196.65C212.181 196.65 209.389 196.361 209.13 192.992C208.87 189.623 213.153 188.458 213.153 188.458V188.468Z" fill="#F5E8BB"/>
<path d="M215.858 191.855C218.014 192.317 218.611 190.97 218.611 190.97C218.611 190.97 220.151 189.458 218.023 189.131C215.896 188.804 215.79 189.94 215.79 189.94C215.79 189.94 214.327 191.538 215.848 191.855H215.858Z" fill="#FCCB61"/>
<path d="M214.76 196.409C216.233 196.909 216.522 196.062 216.522 196.062C216.522 196.062 217.417 195.186 215.963 194.772C214.51 194.358 214.549 195.109 214.549 195.109C214.549 195.109 213.711 196.052 214.76 196.399V196.409Z" fill="#FCCB61"/>
<path d="M211.468 191.991C210.737 193.368 211.517 193.782 211.517 193.782C211.517 193.782 212.229 194.812 212.874 193.445C213.519 192.078 212.768 191.991 212.768 191.991C212.768 191.991 211.979 191.019 211.459 191.991H211.468Z" fill="#FCCB61"/>
<path d="M234.811 183.377C234.811 183.377 237.506 179.815 240.432 182.665C243.359 185.514 241.222 188.363 241.222 188.363C241.222 188.363 243.715 192.637 236.592 192.993C236.592 192.993 233.03 192.281 233.03 189.075C233.03 189.075 230.537 188.719 230.893 185.87C231.249 183.021 234.811 183.377 234.811 183.377Z" fill="#F8EEC3"/>
<path d="M235.524 189.785C236.534 191.296 237.661 190.854 237.661 190.854C237.661 190.854 239.441 190.854 238.373 189.429C237.304 188.004 236.592 188.621 236.592 188.621C236.592 188.621 234.811 188.717 235.524 189.785Z" fill="#FCCB61"/>
<path d="M234.099 185.157C234.099 185.157 232.674 186.216 234.099 187.111C235.524 188.007 236.38 186.139 236.38 186.139C236.38 186.139 236.958 183.656 235.524 184.407L234.099 185.157Z" fill="#FCCB61"/>
<path d="M239.816 185.359C239.816 185.359 239.797 184.281 238.931 184.849C238.065 185.417 238.632 186.38 238.632 186.38C238.632 186.38 239.566 187.342 239.691 186.351L239.816 185.359Z" fill="#FCCB61"/>
<g filter="url(#filter11_d_494_4796)">
<path d="M127.484 140.588L128.235 182.094C126.656 181.45 124.346 180.737 121.506 180.602C116.645 180.362 106.163 181.912 104.305 182.845V141.714C105.643 140.733 108.791 139.472 112.535 137.98C117.502 135.987 124.952 133.301 141.701 131.992C146.947 131.588 153.801 131.222 161.896 131.242C158.903 131.992 128.976 139.029 127.494 140.588H127.484Z" fill="#2D2921"/>
<path d="M131.334 135.834L132.81 135.618C133.22 135.558 133.504 135.179 133.445 134.771C133.385 134.364 133.004 134.082 132.594 134.142L131.117 134.358C130.707 134.418 130.423 134.797 130.483 135.205C130.542 135.613 130.923 135.894 131.334 135.834Z" fill="#CCCCCC"/>
<path d="M122.247 141.339L122.998 182.845C122.998 182.845 162.637 201.895 199.282 182.094L200.774 141.329H122.247V141.339Z" fill="#3C3834"/>
<path d="M161.511 151.437C183.195 151.437 200.774 146.916 200.774 141.34C200.774 135.763 183.195 131.242 161.511 131.242C139.826 131.242 122.247 135.763 122.247 141.34C122.247 146.916 139.826 151.437 161.511 151.437Z" fill="#534741"/>
<path d="M104.295 141.714C104.295 141.714 110.283 158.915 134.963 155.921C153.473 153.679 162.31 160.272 165.573 163.709C167.171 165.393 169.058 166.779 171.195 167.694C175.69 169.609 183.679 172.102 194.056 171.64V205.292C194.056 205.292 171.685 209.72 164.139 201.557C157.305 194.155 145.157 191.97 139.737 191.344C138.226 191.171 136.705 191.171 135.194 191.325C129.496 191.912 111.784 192.827 104.305 182.854V141.723L104.295 141.714Z" fill="#56524D"/>
<path d="M190.302 173.123H188.81C188.395 173.123 188.059 173.457 188.059 173.869C188.059 174.281 188.395 174.615 188.81 174.615H190.302C190.717 174.615 191.053 174.281 191.053 173.869C191.053 173.457 190.717 173.123 190.302 173.123Z" fill="#CCCCCC"/>
<path d="M190.302 202.288H188.81C188.395 202.288 188.059 202.622 188.059 203.034C188.059 203.446 188.395 203.78 188.81 203.78H190.302C190.717 203.78 191.053 203.446 191.053 203.034C191.053 202.622 190.717 202.288 190.302 202.288Z" fill="#CCCCCC"/>
<path d="M179.267 171.834L177.822 171.461C177.421 171.358 177.012 171.597 176.909 171.996C176.806 172.395 177.048 172.802 177.449 172.906L178.894 173.279C179.295 173.383 179.704 173.143 179.807 172.744C179.91 172.345 179.668 171.938 179.267 171.834Z" fill="#CCCCCC"/>
<path d="M176.185 202.434L174.712 202.194C174.303 202.127 173.918 202.403 173.851 202.81C173.785 203.216 174.063 203.6 174.472 203.667L175.945 203.907C176.354 203.973 176.74 203.698 176.806 203.291C176.872 202.884 176.594 202.501 176.185 202.434Z" fill="#CCCCCC"/>
<path d="M168.887 168.364L167.595 167.618C167.235 167.411 166.777 167.532 166.571 167.889C166.365 168.246 166.489 168.703 166.849 168.91L168.141 169.656C168.5 169.864 168.958 169.743 169.164 169.386C169.37 169.029 169.246 168.572 168.887 168.364Z" fill="#CCCCCC"/>
<path d="M165.196 197.667L164.016 196.754C163.689 196.5 163.218 196.558 162.966 196.883C162.714 197.209 162.775 197.679 163.103 197.933L164.282 198.847C164.61 199.101 165.08 199.043 165.332 198.717C165.585 198.391 165.524 197.921 165.196 197.667Z" fill="#CCCCCC"/>
<path d="M144.742 156.746L143.256 156.616C142.843 156.58 142.479 156.884 142.443 157.295C142.407 157.705 142.713 158.067 143.127 158.103L144.613 158.232C145.026 158.268 145.39 157.964 145.426 157.554C145.461 157.143 145.155 156.782 144.742 156.746Z" fill="#CCCCCC"/>
<path d="M134.815 151.276L136.278 151.566C136.685 151.647 137.08 151.385 137.16 150.981C137.24 150.576 136.975 150.183 136.568 150.103L135.105 149.813C134.698 149.732 134.303 149.994 134.223 150.399C134.143 150.803 134.408 151.196 134.815 151.276Z" fill="#CCCCCC"/>
<path d="M147.615 153.605L149.102 153.735C149.515 153.77 149.879 153.467 149.914 153.056C149.95 152.646 149.644 152.284 149.231 152.248L147.744 152.119C147.331 152.083 146.968 152.387 146.932 152.797C146.896 153.207 147.202 153.569 147.615 153.605Z" fill="#CCCCCC"/>
<path d="M161.146 154.43H162.638C163.053 154.43 163.389 154.096 163.389 153.684C163.389 153.272 163.053 152.938 162.638 152.938H161.146C160.731 152.938 160.395 153.272 160.395 153.684C160.395 154.096 160.731 154.43 161.146 154.43Z" fill="#CCCCCC"/>
<path d="M174.673 153.713L176.161 153.597C176.574 153.564 176.883 153.205 176.851 152.795C176.819 152.384 176.458 152.077 176.044 152.109L174.557 152.226C174.144 152.258 173.834 152.617 173.867 153.028C173.899 153.439 174.26 153.745 174.673 153.713Z" fill="#CCCCCC"/>
<path d="M188.245 151.574L189.7 151.245C190.104 151.154 190.358 150.754 190.268 150.352C190.177 149.95 189.775 149.698 189.371 149.79L187.916 150.119C187.511 150.21 187.257 150.61 187.348 151.012C187.439 151.414 187.84 151.665 188.245 151.574Z" fill="#CCCCCC"/>
<path d="M198.253 147.976L199.545 147.23C199.904 147.023 200.028 146.565 199.822 146.209C199.616 145.852 199.158 145.731 198.799 145.938L197.507 146.684C197.148 146.891 197.024 147.349 197.23 147.705C197.436 148.062 197.894 148.183 198.253 147.976Z" fill="#CCCCCC"/>
<path d="M196.637 182.355L198.007 181.763C198.387 181.598 198.563 181.158 198.4 180.78C198.236 180.402 197.795 180.229 197.414 180.393L196.045 180.986C195.664 181.151 195.489 181.591 195.652 181.969C195.816 182.347 196.257 182.52 196.637 182.355Z" fill="#CCCCCC"/>
<path d="M124.22 147.22L125.512 147.966C125.871 148.174 126.33 148.053 126.536 147.696C126.742 147.339 126.617 146.882 126.258 146.674L124.966 145.928C124.607 145.721 124.149 145.842 123.943 146.199C123.737 146.556 123.861 147.013 124.22 147.22Z" fill="#CCCCCC"/>
<path d="M130.468 158.916H131.96C132.374 158.916 132.71 158.582 132.71 158.17C132.71 157.758 132.374 157.424 131.96 157.424H130.468C130.053 157.424 129.717 157.758 129.717 158.17C129.717 158.582 130.053 158.916 130.468 158.916Z" fill="#CCCCCC"/>
<path d="M118.324 157.211L119.768 157.584C120.17 157.688 120.579 157.449 120.682 157.05C120.785 156.651 120.543 156.243 120.141 156.14L118.697 155.767C118.295 155.663 117.886 155.902 117.783 156.301C117.68 156.7 117.922 157.108 118.324 157.211Z" fill="#CCCCCC"/>
<path d="M116.83 188.625L118.275 188.998C118.676 189.102 119.085 188.863 119.188 188.464C119.291 188.065 119.049 187.658 118.648 187.554L117.203 187.181C116.801 187.077 116.392 187.316 116.289 187.715C116.186 188.114 116.428 188.522 116.83 188.625Z" fill="#CCCCCC"/>
<path d="M106.232 182.946L107.385 183.892C107.706 184.155 108.178 184.11 108.439 183.792C108.701 183.473 108.653 183.002 108.332 182.739L107.179 181.792C106.858 181.529 106.387 181.574 106.125 181.893C105.864 182.211 105.912 182.682 106.232 182.946Z" fill="#CCCCCC"/>
<path d="M106.977 150.046L108.131 150.993C108.451 151.256 108.923 151.211 109.184 150.892C109.446 150.574 109.398 150.103 109.077 149.84L107.924 148.893C107.603 148.63 107.132 148.675 106.87 148.993C106.609 149.312 106.657 149.783 106.977 150.046Z" fill="#CCCCCC"/>
<path d="M108.391 142.685L109.766 142.106C110.148 141.945 110.328 141.507 110.169 141.127C110.009 140.748 109.57 140.57 109.187 140.731L107.812 141.31C107.43 141.47 107.25 141.909 107.409 142.288C107.569 142.668 108.009 142.846 108.391 142.685Z" fill="#CCCCCC"/>
<path d="M119.518 138.172L120.938 137.712C121.332 137.585 121.549 137.163 121.422 136.771C121.295 136.379 120.873 136.165 120.478 136.293L119.059 136.752C118.664 136.88 118.447 137.301 118.574 137.693C118.701 138.085 119.123 138.299 119.518 138.172Z" fill="#CCCCCC"/>
<path d="M130.435 190.304L131.926 190.357C132.34 190.372 132.688 190.05 132.703 189.638C132.717 189.226 132.393 188.881 131.979 188.866L130.488 188.813C130.073 188.799 129.726 189.12 129.711 189.532C129.696 189.944 130.02 190.29 130.435 190.304Z" fill="#CCCCCC"/>
<path d="M144.026 188.969L142.554 188.729C142.144 188.663 141.759 188.938 141.693 189.345C141.626 189.752 141.904 190.135 142.314 190.202L143.786 190.442C144.196 190.509 144.581 190.233 144.647 189.826C144.714 189.42 144.435 189.036 144.026 188.969Z" fill="#CCCCCC"/>
<path d="M157.082 159.496L155.665 159.03C155.271 158.9 154.847 159.113 154.719 159.504C154.59 159.896 154.805 160.318 155.199 160.447L156.617 160.913C157.011 161.042 157.434 160.83 157.563 160.439C157.691 160.047 157.476 159.625 157.082 159.496Z" fill="#CCCCCC"/>
<path d="M155.097 191.03L153.679 190.564C153.285 190.434 152.862 190.647 152.733 191.038C152.604 191.43 152.819 191.852 153.213 191.981L154.631 192.447C155.025 192.577 155.448 192.364 155.577 191.973C155.706 191.581 155.49 191.159 155.097 191.03Z" fill="#CCCCCC"/>
<path d="M161.511 143.207C165.849 143.207 169.365 142.371 169.365 141.34C169.365 140.308 165.849 139.472 161.511 139.472C157.173 139.472 153.656 140.308 153.656 141.34C153.656 142.371 157.173 143.207 161.511 143.207Z" fill="#CCCCCC"/>
</g>
<defs>
<filter id="filter0_d_494_4796" x="10.2104" y="0.889526" width="380.789" height="250.523" filterUnits="userSpaceOnUse" color-interpolation-filters="sRGB">
<feFlood flood-opacity="0" result="BackgroundImageFix"/>
<feColorMatrix in="SourceAlpha" type="matrix" values="0 0 0 0 0 0 0 0 0 0 0 0 0 0 0 0 0 0 127 0" result="hardAlpha"/>
<feOffset dx="-4" dy="4"/>
<feGaussianBlur stdDeviation="6"/>
<feColorMatrix type="matrix" values="0 0 0 0 0 0 0 0 0 0 0 0 0 0 0 0 0 0 0.15 0"/>
<feBlend mode="normal" in2="BackgroundImageFix" result="effect1_dropShadow_494_4796"/>
<feBlend mode="normal" in="SourceGraphic" in2="effect1_dropShadow_494_4796" result="shape"/>
</filter>
<filter id="filter1_d_494_4796" x="172.625" y="68.7028" width="114.496" height="49.9551" filterUnits="userSpaceOnUse" color-interpolation-filters="sRGB">
<feFlood flood-opacity="0" result="BackgroundImageFix"/>
<feColorMatrix in="SourceAlpha" type="matrix" values="0 0 0 0 0 0 0 0 0 0 0 0 0 0 0 0 0 0 127 0" result="hardAlpha"/>
<feOffset dx="-2" dy="1"/>
<feGaussianBlur stdDeviation="6"/>
<feColorMatrix type="matrix" values="0 0 0 0 0 0 0 0 0 0 0 0 0 0 0 0 0 0 0.1 0"/>
<feBlend mode="normal" in2="BackgroundImageFix" result="effect1_dropShadow_494_4796"/>
<feBlend mode="normal" in="SourceGraphic" in2="effect1_dropShadow_494_4796" result="shape"/>
</filter>
<filter id="filter2_d_494_4796" x="172.634" y="94.6573" width="76.5469" height="104.163" filterUnits="userSpaceOnUse" color-interpolation-filters="sRGB">
<feFlood flood-opacity="0" result="BackgroundImageFix"/>
<feColorMatrix in="SourceAlpha" type="matrix" values="0 0 0 0 0 0 0 0 0 0 0 0 0 0 0 0 0 0 127 0" result="hardAlpha"/>
<feOffset dx="-2" dy="1"/>
<feGaussianBlur stdDeviation="6"/>
<feColorMatrix type="matrix" values="0 0 0 0 0 0 0 0 0 0 0 0 0 0 0 0 0 0 0.1 0"/>
<feBlend mode="normal" in2="BackgroundImageFix" result="effect1_dropShadow_494_4796"/>
<feBlend mode="normal" in="SourceGraphic" in2="effect1_dropShadow_494_4796" result="shape"/>
</filter>
<filter id="filter3_d_494_4796" x="225.181" y="94.6573" width="61.7236" height="104.163" filterUnits="userSpaceOnUse" color-interpolation-filters="sRGB">
<feFlood flood-opacity="0" result="BackgroundImageFix"/>
<feColorMatrix in="SourceAlpha" type="matrix" values="0 0 0 0 0 0 0 0 0 0 0 0 0 0 0 0 0 0 127 0" result="hardAlpha"/>
<feOffset dx="-2" dy="1"/>
<feGaussianBlur stdDeviation="6"/>
<feColorMatrix type="matrix" values="0 0 0 0 0 0 0 0 0 0 0 0 0 0 0 0 0 0 0.1 0"/>
<feBlend mode="normal" in2="BackgroundImageFix" result="effect1_dropShadow_494_4796"/>
<feBlend mode="normal" in="SourceGraphic" in2="effect1_dropShadow_494_4796" result="shape"/>
</filter>
<filter id="filter4_d_494_4796" x="229.214" y="94.6573" width="30.0645" height="104.163" filterUnits="userSpaceOnUse" color-interpolation-filters="sRGB">
<feFlood flood-opacity="0" result="BackgroundImageFix"/>
<feColorMatrix in="SourceAlpha" type="matrix" values="0 0 0 0 0 0 0 0 0 0 0 0 0 0 0 0 0 0 127 0" result="hardAlpha"/>
<feOffset dx="-2" dy="1"/>
<feGaussianBlur stdDeviation="6"/>
<feColorMatrix type="matrix" values="0 0 0 0 0 0 0 0 0 0 0 0 0 0 0 0 0 0 0.1 0"/>
<feBlend mode="normal" in2="BackgroundImageFix" result="effect1_dropShadow_494_4796"/>
<feBlend mode="normal" in="SourceGraphic" in2="effect1_dropShadow_494_4796" result="shape"/>
</filter>
<filter id="filter5_d_494_4796" x="242.017" y="94.6573" width="41.519" height="104.163" filterUnits="userSpaceOnUse" color-interpolation-filters="sRGB">
<feFlood flood-opacity="0" result="BackgroundImageFix"/>
<feColorMatrix in="SourceAlpha" type="matrix" values="0 0 0 0 0 0 0 0 0 0 0 0 0 0 0 0 0 0 127 0" result="hardAlpha"/>
<feOffset dx="-2" dy="1"/>
<feGaussianBlur stdDeviation="6"/>
<feColorMatrix type="matrix" values="0 0 0 0 0 0 0 0 0 0 0 0 0 0 0 0 0 0 0.1 0"/>
<feBlend mode="normal" in2="BackgroundImageFix" result="effect1_dropShadow_494_4796"/>
<feBlend mode="normal" in="SourceGraphic" in2="effect1_dropShadow_494_4796" result="shape"/>
</filter>
<filter id="filter6_d_494_4796" x="236.626" y="94.6573" width="35.4546" height="104.163" filterUnits="userSpaceOnUse" color-interpolation-filters="sRGB">
<feFlood flood-opacity="0" result="BackgroundImageFix"/>
<feColorMatrix in="SourceAlpha" type="matrix" values="0 0 0 0 0 0 0 0 0 0 0 0 0 0 0 0 0 0 127 0" result="hardAlpha"/>
<feOffset dx="-2" dy="1"/>
<feGaussianBlur stdDeviation="6"/>
<feColorMatrix type="matrix" values="0 0 0 0 0 0 0 0 0 0 0 0 0 0 0 0 0 0 0.1 0"/>
<feBlend mode="normal" in2="BackgroundImageFix" result="effect1_dropShadow_494_4796"/>
<feBlend mode="normal" in="SourceGraphic" in2="effect1_dropShadow_494_4796" result="shape"/>
</filter>
<filter id="filter7_d_494_4796" x="209.01" y="94.6573" width="34.7808" height="104.163" filterUnits="userSpaceOnUse" color-interpolation-filters="sRGB">
<feFlood flood-opacity="0" result="BackgroundImageFix"/>
<feColorMatrix in="SourceAlpha" type="matrix" values="0 0 0 0 0 0 0 0 0 0 0 0 0 0 0 0 0 0 127 0" result="hardAlpha"/>
<feOffset dx="-2" dy="1"/>
<feGaussianBlur stdDeviation="6"/>
<feColorMatrix type="matrix" values="0 0 0 0 0 0 0 0 0 0 0 0 0 0 0 0 0 0 0.1 0"/>
<feBlend mode="normal" in2="BackgroundImageFix" result="effect1_dropShadow_494_4796"/>
<feBlend mode="normal" in="SourceGraphic" in2="effect1_dropShadow_494_4796" result="shape"/>
</filter>
<filter id="filter8_d_494_4796" x="176.677" y="94.6573" width="47.5737" height="104.163" filterUnits="userSpaceOnUse" color-interpolation-filters="sRGB">
<feFlood flood-opacity="0" result="BackgroundImageFix"/>
<feColorMatrix in="SourceAlpha" type="matrix" values="0 0 0 0 0 0 0 0 0 0 0 0 0 0 0 0 0 0 127 0" result="hardAlpha"/>
<feOffset dx="-2" dy="1"/>
<feGaussianBlur stdDeviation="6"/>
<feColorMatrix type="matrix" values="0 0 0 0 0 0 0 0 0 0 0 0 0 0 0 0 0 0 0.1 0"/>
<feBlend mode="normal" in2="BackgroundImageFix" result="effect1_dropShadow_494_4796"/>
<feBlend mode="normal" in="SourceGraphic" in2="effect1_dropShadow_494_4796" result="shape"/>
</filter>
<filter id="filter9_d_494_4796" x="191.491" y="94.6573" width="41.519" height="104.163" filterUnits="userSpaceOnUse" color-interpolation-filters="sRGB">
<feFlood flood-opacity="0" result="BackgroundImageFix"/>
<feColorMatrix in="SourceAlpha" type="matrix" values="0 0 0 0 0 0 0 0 0 0 0 0 0 0 0 0 0 0 127 0" result="hardAlpha"/>
<feOffset dx="-2" dy="1"/>
<feGaussianBlur stdDeviation="6"/>
<feColorMatrix type="matrix" values="0 0 0 0 0 0 0 0 0 0 0 0 0 0 0 0 0 0 0.1 0"/>
<feBlend mode="normal" in2="BackgroundImageFix" result="effect1_dropShadow_494_4796"/>
<feBlend mode="normal" in="SourceGraphic" in2="effect1_dropShadow_494_4796" result="shape"/>
</filter>
<filter id="filter10_d_494_4796" x="260.583" y="55.4969" width="75.4346" height="144.249" filterUnits="userSpaceOnUse" color-interpolation-filters="sRGB">
<feFlood flood-opacity="0" result="BackgroundImageFix"/>
<feColorMatrix in="SourceAlpha" type="matrix" values="0 0 0 0 0 0 0 0 0 0 0 0 0 0 0 0 0 0 127 0" result="hardAlpha"/>
<feOffset dx="-2" dy="2"/>
<feGaussianBlur stdDeviation="5"/>
<feColorMatrix type="matrix" values="0 0 0 0 0 0 0 0 0 0 0 0 0 0 0 0 0 0 0.08 0"/>
<feBlend mode="normal" in2="BackgroundImageFix" result="effect1_dropShadow_494_4796"/>
<feBlend mode="normal" in="SourceGraphic" in2="effect1_dropShadow_494_4796" result="shape"/>
</filter>
<filter id="filter11_d_494_4796" x="92.2954" y="123.241" width="116.479" height="95.2501" filterUnits="userSpaceOnUse" color-interpolation-filters="sRGB">
<feFlood flood-opacity="0" result="BackgroundImageFix"/>
<feColorMatrix in="SourceAlpha" type="matrix" values="0 0 0 0 0 0 0 0 0 0 0 0 0 0 0 0 0 0 127 0" result="hardAlpha"/>
<feOffset dx="-2" dy="2"/>
<feGaussianBlur stdDeviation="5"/>
<feColorMatrix type="matrix" values="0 0 0 0 0 0 0 0 0 0 0 0 0 0 0 0 0 0 0.08 0"/>
<feBlend mode="normal" in2="BackgroundImageFix" result="effect1_dropShadow_494_4796"/>
<feBlend mode="normal" in="SourceGraphic" in2="effect1_dropShadow_494_4796" result="shape"/>
</filter>
</defs>
</svg>
