<svg width="271" height="271" viewBox="0 0 271 271" fill="none" xmlns="http://www.w3.org/2000/svg">
<g filter="url(#filter0_d_531_2493)">
<path d="M242.785 259L39.7953 248.893L12 28.2148L263 8L242.785 259Z" fill="#B3D1CB"/>
<g filter="url(#filter1_d_531_2493)">
<path d="M163.957 90.6791C163.957 90.6791 165.582 84.1851 160.714 82.5679C160.714 82.5679 159.905 74.4568 152.603 75.2653C152.603 75.2653 151.794 67.3563 141.24 70.0937C141.24 70.0937 139.615 57.4174 125.818 64.72C125.818 64.72 120.478 54.5031 111.786 62.4542C111.786 62.4542 103.902 57.4174 98.2249 65.5286C98.2249 65.5286 87.9153 61.6625 85.2453 71.2055C85.2453 71.2055 74.6999 68.7714 73.8829 78.5081C73.8829 78.5081 66.5803 76.0739 64.1461 82.5679C64.1461 82.5679 56.035 80.9423 55.218 90.6791H163.957Z" fill="#FFF5D2"/>
</g>
<g filter="url(#filter2_d_531_2493)">
<path d="M118.515 187.246H79.5599L55.218 90.6785H118.515V187.246Z" fill="#E26B50"/>
</g>
<g filter="url(#filter3_d_531_2493)">
<path d="M143.666 187.246H118.516V90.6785H163.957L143.666 187.246Z" fill="#DB4726"/>
</g>
<g filter="url(#filter4_d_531_2493)">
<path d="M123.384 90.6785V187.246H128.252L130.686 90.6785H123.384Z" fill="#EBD5C1"/>
</g>
<g filter="url(#filter5_d_531_2493)">
<path d="M159.895 90.6785H150.967L138.796 187.246H142.048L159.895 90.6785Z" fill="#EBD5C1"/>
</g>
<g filter="url(#filter6_d_531_2493)">
<path d="M136.363 90.6785H146.1L135.554 187.246H132.303L136.363 90.6785Z" fill="#EBD5C1"/>
</g>
<g filter="url(#filter7_d_531_2493)">
<path d="M112.021 90.6785V187.246H104.718L99.0331 90.6785H112.021Z" fill="#F8E8CE"/>
</g>
<g filter="url(#filter8_d_531_2493)">
<path d="M60.0858 90.6785H72.2567L88.4875 187.246H82.8021L60.0858 90.6785Z" fill="#F8E8CE"/>
</g>
<g filter="url(#filter9_d_531_2493)">
<path d="M77.9332 90.6785H91.7298L99.0324 187.246H93.3554L77.9332 90.6785Z" fill="#F8E8CE"/>
</g>
<path d="M72.4168 177.358C72.4168 177.358 71.6082 174.343 68.9634 175.413C66.3186 176.482 66.9504 178.891 66.9504 178.891C66.9504 178.891 64.2129 181.005 68.7276 183.111C68.7276 183.111 71.2207 183.591 72.063 181.511C72.063 181.511 73.7728 181.94 74.2866 179.995C74.8004 178.049 72.4083 177.35 72.4083 177.35L72.4168 177.358Z" fill="#F8EEC3"/>
<path d="M70.2692 181.316C69.2164 182.032 68.6015 181.442 68.6015 181.442C68.6015 181.442 67.4476 180.97 68.5173 180.33C69.587 179.69 69.8818 180.271 69.8818 180.271C69.8818 180.271 71.0104 180.802 70.2692 181.307V181.316Z" fill="#FCCB61"/>
<path d="M72.4166 178.698C72.4166 178.698 73.0568 179.759 71.9028 179.961C70.7489 180.163 70.6899 178.731 70.6899 178.731C70.6899 178.731 70.9679 176.979 71.7007 177.838L72.425 178.698H72.4166Z" fill="#FCCB61"/>
<path d="M68.6606 177.324C68.6606 177.324 68.9554 176.633 69.3681 177.232C69.7808 177.83 69.1576 178.301 69.1576 178.301C69.1576 178.301 68.2984 178.68 68.4837 178.006L68.669 177.333L68.6606 177.324Z" fill="#FCCB61"/>
<path d="M62.5115 192.173C62.5115 192.173 61.4587 196.359 65.3753 196.502C69.2919 196.645 68.2222 192.981 68.2222 192.981C68.2222 192.981 70.3953 191.246 69.5614 189.41C68.7275 187.574 67.5231 187.313 66.3018 187.827C66.3018 187.827 64.8362 186.521 62.9748 187.961C61.1133 189.402 62.5199 192.173 62.5199 192.173H62.5115Z" fill="#F5E8BB"/>
<path d="M65.536 190.632C66.8163 189.773 67.5575 190.489 67.5575 190.489C67.5575 190.489 68.9557 191.062 67.6502 191.837C66.3446 192.611 65.9909 191.896 65.9909 191.896C65.9909 191.896 64.6264 191.239 65.536 190.632Z" fill="#FCCB61"/>
<path d="M63.4544 190.034C62.9238 189.082 63.4713 188.779 63.4713 188.779C63.4713 188.779 63.9598 188.055 64.4231 188.998C64.8863 189.941 64.3725 190.017 64.3725 190.017C64.3725 190.017 63.8335 190.708 63.4544 190.034Z" fill="#FCCB61"/>
<path d="M64.7607 195.315C64.23 194.363 64.7775 194.06 64.7775 194.06C64.7775 194.06 65.266 193.335 65.7293 194.279C66.1925 195.222 65.6788 195.298 65.6788 195.298C65.6788 195.298 65.1397 195.988 64.7607 195.315Z" fill="#FCCB61"/>
<path d="M101.332 203.737C101.332 203.737 100.473 199.501 96.876 201.067C93.2794 202.634 95.8316 205.472 95.8316 205.472C95.8316 205.472 94.6187 207.974 96.1685 209.271C97.7183 210.568 98.9143 210.282 99.7987 209.288C99.7987 209.288 101.685 209.836 102.738 207.73C103.791 205.624 101.323 203.737 101.323 203.737H101.332Z" fill="#F5E8BB"/>
<path d="M98.6879 205.221C97.1718 204.951 97.1381 203.923 97.1381 203.923C97.1381 203.923 96.5317 202.542 98.0057 202.887C99.4796 203.233 99.2354 203.999 99.2354 203.999C99.2354 203.999 99.7576 205.414 98.6879 205.221Z" fill="#FCCB61"/>
<path d="M98.1986 208.463C97.112 208.396 97.1457 207.772 97.1457 207.772C97.1457 207.772 96.7919 206.972 97.8448 207.082C98.8977 207.191 98.6702 207.68 98.6702 207.68C98.6702 207.68 98.965 208.505 98.1901 208.463H98.1986Z" fill="#FCCB61"/>
<path d="M101.493 206.466C101.611 207.553 100.988 207.612 100.988 207.612C100.988 207.612 100.255 208.092 100.196 207.039C100.137 205.986 100.642 206.121 100.642 206.121C100.642 206.121 101.409 205.7 101.493 206.466Z" fill="#FCCB61"/>
<path d="M88.6472 194.734C88.6472 194.734 87.8386 191.718 85.1938 192.788C82.549 193.858 83.1808 196.267 83.1808 196.267C83.1808 196.267 80.4433 198.381 84.958 200.487C84.958 200.487 87.4511 200.967 88.2934 198.886C88.2934 198.886 90.0032 199.316 90.517 197.37C91.0308 195.424 88.6387 194.725 88.6387 194.725L88.6472 194.734Z" fill="#F8EEC3"/>
<path d="M86.4996 198.701C85.4467 199.417 84.8319 198.827 84.8319 198.827C84.8319 198.827 83.6779 198.355 84.7476 197.715C85.8173 197.075 86.1121 197.656 86.1121 197.656C86.1121 197.656 87.2408 198.187 86.4996 198.692V198.701Z" fill="#FCCB61"/>
<path d="M88.6388 196.081C88.6388 196.081 89.2789 197.142 88.125 197.345C86.971 197.547 86.9121 196.115 86.9121 196.115C86.9121 196.115 87.19 194.363 87.9228 195.222L88.6472 196.081H88.6388Z" fill="#FCCB61"/>
<path d="M84.8828 194.709C84.8828 194.709 85.1776 194.019 85.5903 194.617C86.003 195.215 85.3797 195.686 85.3797 195.686C85.3797 195.686 84.5206 196.065 84.7059 195.392L84.8912 194.718L84.8828 194.709Z" fill="#FCCB61"/>
<g filter="url(#filter10_d_531_2493)">
<path d="M181.036 195.071C176.732 159.215 165.875 124.067 161.58 88.2195C167.274 91.1506 179.066 96.2549 194.774 96.1875C210.078 96.1201 222.999 91.159 228.676 88.2447C224.793 124.092 219.074 160.167 215.191 196.015" fill="#DB4726"/>
<path d="M160.856 87.4946L161.572 93.7528C161.572 93.7528 194.017 110.118 229.393 92.582L230.833 85.3636L160.848 87.503L160.856 87.4946Z" fill="#F8E8CE"/>
<path d="M230.841 85.3558C230.841 86.9477 212.589 96.9204 194.05 96.9035C175.512 96.8867 160.856 89.0871 160.856 87.4952C160.856 85.9033 178.392 80.2516 196.914 79.5862C217.087 78.8618 230.841 83.7639 230.841 85.3643V85.3558Z" fill="#FCF7ED"/>
<path d="M189.73 88.2446L191.187 68.7542L161.606 50.6872L169.481 39.1648L196.957 66.5979L196.94 88.253C196.94 88.253 194.051 91.1336 189.721 88.253L189.73 88.2446Z" fill="#DB4726"/>
</g>
<g filter="url(#filter11_d_531_2493)">
<path d="M205.708 217.323L96.2706 230.084L94.3754 223.447C94.3754 223.447 100.625 218.663 93.2047 215.277L91.1495 205.877C91.1495 205.877 97.7867 200.587 90.2482 196.57L88.6142 188.846C88.6142 188.846 95.2177 183.716 87.6961 181.021L86.18 172.674L192.468 143.843L194.725 152.72C194.725 152.72 180.583 160.25 195.567 162.297L196.831 170.964C196.831 170.964 180.667 179.656 199.282 183.32L200.907 194.127C200.907 194.127 185.359 202.878 203.333 206.34L205.708 217.332V217.323Z" fill="#AF381D"/>
</g>
<path d="M189.393 211.909L103.227 217.83L97.0112 181.73L181.105 155.653L189.393 211.909Z" fill="#FFF3DB"/>
<path d="M116.923 199.636C116.309 199.796 115.744 199.611 115.23 199.173H115.214L114.944 199.948C114.91 200.049 114.885 200.074 114.835 200.083L114.691 200.116C114.607 200.142 114.582 200.116 114.557 200.024L112.224 190.902C111.937 189.798 111.903 189.714 111.634 189.765L111.188 189.866C111.103 189.891 111.07 189.883 111.044 189.79L110.994 189.588C110.969 189.504 110.994 189.478 111.086 189.453L112.704 189.04C112.838 189.007 112.847 189.04 112.88 189.167L113.933 193.294H113.959C114.152 192.511 114.557 191.913 115.264 191.727C116.334 191.449 117.623 192.376 118.288 194.987C118.894 197.345 118.456 199.232 116.923 199.628V199.636ZM115.045 192.553C114.447 192.704 114.211 193.328 114.136 194.119L115.289 198.626C115.643 199.013 116.149 199.24 116.662 199.114C117.766 198.836 117.639 197.379 117.142 195.425C116.578 193.226 115.887 192.334 115.045 192.553Z" fill="#1D0803"/>
<path d="M118.667 188.905C118.246 189.015 117.892 188.762 117.791 188.341C117.69 187.937 117.892 187.524 118.288 187.423C118.667 187.322 119.046 187.583 119.156 187.987C119.265 188.408 119.055 188.804 118.667 188.897V188.905ZM119.838 198.693C119.754 198.718 119.72 198.709 119.695 198.617L119.644 198.415C119.619 198.33 119.644 198.305 119.737 198.28L120.175 198.154C120.453 198.069 120.445 197.977 120.158 196.873L119.089 192.696C118.802 191.592 118.768 191.508 118.49 191.575L118.044 191.66C117.96 191.685 117.926 191.676 117.901 191.592L117.85 191.39C117.825 191.306 117.85 191.281 117.943 191.255L119.56 190.843C119.678 190.809 119.703 190.843 119.737 190.969L121.177 196.612C121.464 197.716 121.497 197.8 121.784 197.741L122.23 197.64C122.314 197.615 122.348 197.623 122.373 197.716L122.424 197.918C122.449 198.002 122.424 198.027 122.331 198.053L119.855 198.684L119.838 198.693Z" fill="#1D0803"/>
<path d="M125.405 197.462C123.78 197.875 122.575 196.67 121.977 194.329C121.371 191.945 121.834 190.059 123.485 189.637C125.111 189.225 126.307 190.404 126.905 192.745C127.511 195.129 127.039 197.049 125.405 197.462ZM123.569 190.109C122.516 190.379 122.592 191.861 123.14 193.984C123.645 195.963 124.26 197.26 125.313 196.99C126.357 196.721 126.273 195.196 125.734 193.082C125.228 191.103 124.605 189.84 123.569 190.101V190.109Z" fill="#1D0803"/>
<path d="M131.629 198.769C130.559 199.047 129.237 198.71 128.925 197.48C128.723 196.697 129.035 196.124 129.515 195.577V195.56C128.933 195.509 128.571 195.181 128.42 194.6C128.26 193.985 128.445 193.522 128.816 193.151C128.175 192.957 127.636 192.326 127.384 191.332C127.013 189.875 127.485 188.611 128.765 188.283C129.06 188.207 129.38 188.19 129.675 188.249L131.157 187.87C131.258 187.845 131.292 187.853 131.309 187.92L131.376 188.182C131.401 188.266 131.376 188.291 131.283 188.316L130.475 188.586C130.812 188.872 131.149 189.386 131.334 190.119C131.705 191.576 131.216 192.848 129.944 193.168C129.725 193.227 129.371 193.252 129.169 193.21C128.933 193.446 128.858 193.707 128.95 194.061C129.068 194.524 129.523 194.642 130.071 194.532L131.182 194.297C132.311 194.052 133.145 194.457 133.44 195.594C133.827 197.093 133.002 198.415 131.629 198.769ZM128.841 188.746C128.049 188.948 128.159 190.001 128.42 191.02C128.664 191.963 129.077 192.924 129.86 192.73C130.643 192.536 130.534 191.441 130.273 190.422C130.028 189.479 129.624 188.544 128.841 188.746ZM131.199 195.274L129.801 195.602C129.633 195.973 129.582 196.402 129.742 197.009C130.003 198.045 130.61 198.525 131.629 198.264C132.538 198.028 132.968 197.329 132.707 196.301C132.437 195.24 131.89 195.114 131.208 195.274H131.199Z" fill="#1D0803"/>
<path d="M133.734 195.139C133.65 195.164 133.616 195.155 133.591 195.063L133.541 194.861C133.515 194.776 133.541 194.751 133.633 194.726L134.071 194.6C134.349 194.515 134.341 194.423 134.054 193.319L133.01 189.234C132.707 188.038 132.564 187.988 132.294 188.038L131.94 188.114C131.856 188.139 131.822 188.131 131.797 188.047L131.747 187.844C131.721 187.76 131.747 187.735 131.839 187.71L133.347 187.322C133.482 187.289 133.49 187.322 133.524 187.449L133.81 188.586H133.844C133.92 187.642 134.24 186.893 134.888 186.733C135.478 186.581 135.975 187.12 136.143 187.794C136.261 188.249 136.084 188.493 135.722 188.586C135.326 188.687 135.057 188.544 134.964 188.19C134.905 187.954 134.897 187.693 134.947 187.449C134.88 187.432 134.855 187.449 134.821 187.449C134.324 187.575 134.181 188.358 134.088 189.217L135.074 193.075C135.36 194.178 135.394 194.263 135.672 194.204L136.303 194.061C136.387 194.035 136.421 194.044 136.446 194.128L136.497 194.33C136.522 194.414 136.497 194.44 136.404 194.465L133.734 195.147V195.139Z" fill="#1D0803"/>
<path d="M142.057 192.603C142.251 192.552 142.234 192.249 142.15 191.819C142.133 191.743 142.15 191.676 142.225 191.676H142.369C142.461 191.659 142.478 191.735 142.487 191.828C142.621 192.611 142.47 193.099 141.922 193.243C141.333 193.394 140.911 193.007 140.634 192.072H140.608C140.431 193.099 140.002 193.74 139.294 193.916C138.519 194.119 137.753 193.681 137.424 192.409C137.104 191.171 137.424 190.505 138.519 189.663C139.665 188.779 139.64 188.677 139.53 188.223L139.437 187.86C139.117 186.597 138.452 186.378 137.921 186.513C137.584 186.597 137.357 186.824 137.231 187.043C137.391 187.296 137.517 187.54 137.576 187.793C137.66 188.113 137.576 188.366 137.214 188.458C136.894 188.543 136.666 188.442 136.565 188.054C136.38 187.338 136.995 186.176 138.149 185.881C139.134 185.628 140.069 186.117 140.499 187.802L141.476 191.625C141.686 192.451 141.83 192.653 142.049 192.594L142.057 192.603ZM139.774 189.2C139.429 189.444 139.109 189.722 138.839 190.008C138.401 190.488 138.267 191.019 138.486 191.853C138.713 192.737 139.075 193.192 139.606 193.057C140.078 192.939 140.297 192.341 140.398 191.634L139.774 189.208V189.2Z" fill="#1D0803"/>
<path d="M143.042 192.754C142.958 192.78 142.924 192.771 142.899 192.678L142.848 192.476C142.823 192.392 142.848 192.367 142.941 192.342L143.379 192.215C143.64 192.131 143.631 192.038 143.345 190.935L141.989 185.637L141.273 185.822C141.189 185.848 141.155 185.839 141.13 185.746L141.071 185.528C141.046 185.443 141.071 185.418 141.155 185.384L141.854 185.123L141.703 184.542C141.29 182.925 141.778 181.594 142.932 181.299C143.665 181.114 144.356 181.552 144.541 182.268C144.634 182.647 144.491 182.857 144.162 182.933C143.792 183.026 143.581 182.866 143.505 182.563C143.438 182.318 143.446 182.032 143.463 181.779C143.354 181.712 143.227 181.712 143.084 181.754C142.368 181.939 142.309 182.63 142.595 183.75L142.882 184.854L144.053 184.55C144.154 184.525 144.171 184.534 144.196 184.618L144.272 184.904C144.297 185.005 144.288 185.022 144.196 185.047L143.008 185.351L144.364 190.649C144.651 191.752 144.684 191.836 144.954 191.786L145.619 191.634C145.703 191.609 145.737 191.617 145.762 191.701L145.813 191.904C145.838 191.988 145.813 192.013 145.72 192.038L143.033 192.729L143.042 192.754Z" fill="#1D0803"/>
<path d="M152.232 190.606C151.617 190.766 151.053 190.581 150.539 190.143H150.522L150.253 190.918C150.219 191.019 150.194 191.044 150.143 191.053L150 191.087C149.916 191.112 149.89 191.087 149.865 190.994L147.532 181.872C147.246 180.769 147.212 180.684 146.942 180.735L146.496 180.836C146.412 180.861 146.378 180.853 146.353 180.76L146.302 180.558C146.277 180.474 146.302 180.449 146.395 180.423L148.012 180.011C148.147 179.977 148.155 180.011 148.189 180.137L149.242 184.264H149.267C149.461 183.481 149.865 182.883 150.573 182.697C151.642 182.419 152.931 183.346 153.596 185.957C154.203 188.315 153.765 190.202 152.232 190.598V190.606ZM150.362 183.523C149.764 183.674 149.528 184.298 149.452 185.09L150.606 189.596C150.96 189.983 151.465 190.211 151.979 190.084C153.083 189.806 152.956 188.349 152.459 186.395C151.895 184.197 151.204 183.304 150.362 183.523Z" fill="#1D0803"/>
<path d="M153.976 179.867C153.555 179.977 153.201 179.724 153.1 179.303C152.999 178.899 153.201 178.486 153.597 178.385C153.976 178.284 154.355 178.545 154.464 178.949C154.574 179.37 154.363 179.766 153.976 179.859V179.867ZM155.147 189.655C155.062 189.68 155.029 189.671 155.003 189.579L154.953 189.377C154.928 189.292 154.953 189.267 155.045 189.242L155.483 189.116C155.761 189.031 155.753 188.939 155.467 187.835L154.397 183.658C154.111 182.554 154.077 182.47 153.799 182.537L153.352 182.622C153.268 182.647 153.235 182.638 153.209 182.554L153.159 182.352C153.133 182.268 153.159 182.242 153.251 182.217L154.869 181.805C154.986 181.771 155.012 181.804 155.045 181.931L156.486 187.574C156.772 188.678 156.806 188.762 157.092 188.703L157.539 188.602C157.623 188.576 157.657 188.585 157.682 188.669L157.732 188.871C157.758 188.955 157.732 188.981 157.64 189.006L155.163 189.638L155.147 189.655Z" fill="#1D0803"/>
<path d="M158.187 188.879C158.103 188.905 158.069 188.896 158.044 188.803L157.993 188.601C157.968 188.517 157.993 188.492 158.086 188.467L158.524 188.34C158.802 188.256 158.793 188.163 158.507 187.06L156.587 179.555C156.3 178.452 156.267 178.368 155.989 178.427L155.542 178.528C155.458 178.553 155.424 178.544 155.399 178.46L155.348 178.258C155.323 178.174 155.348 178.149 155.441 178.123L157.058 177.711C157.176 177.677 157.202 177.711 157.235 177.837L159.526 186.807C159.813 187.911 159.846 187.995 160.133 187.936L160.579 187.835C160.663 187.81 160.697 187.818 160.722 187.902L160.773 188.104C160.798 188.189 160.773 188.214 160.68 188.239L158.204 188.871L158.187 188.879Z" fill="#1D0803"/>
<path d="M161.227 188.106C161.143 188.131 161.109 188.123 161.084 188.039L161.033 187.836C161.008 187.752 161.033 187.727 161.126 187.702L161.564 187.575C161.842 187.491 161.834 187.398 161.547 186.295L159.627 178.79C159.34 177.687 159.307 177.603 159.029 177.662L158.582 177.763C158.498 177.788 158.464 177.78 158.439 177.695L158.389 177.493C158.363 177.409 158.389 177.384 158.481 177.358L160.098 176.946C160.216 176.912 160.242 176.946 160.275 177.072L162.575 186.042C162.861 187.146 162.895 187.23 163.173 187.171L163.619 187.07C163.703 187.045 163.737 187.053 163.762 187.146L163.813 187.348C163.838 187.432 163.813 187.457 163.72 187.483L161.244 188.114L161.227 188.106Z" fill="#1D0803"/>
<path d="M166.829 186.867C165.212 187.28 163.957 186.101 163.35 183.726C162.794 181.561 163.157 179.48 164.74 179.076C165.81 178.798 167.04 179.497 167.553 181.519L167.587 181.637C167.68 182.016 167.595 182.159 167.124 182.285L164.369 182.993L164.445 183.296C165.018 185.536 165.793 186.379 166.879 186.101C167.654 185.899 167.915 185.216 167.755 184.096C167.755 184.02 167.755 183.961 167.84 183.953L168.025 183.936C168.134 183.928 168.16 183.961 168.168 184.054C168.404 185.385 168.101 186.547 166.829 186.876V186.867ZM164.765 179.59C163.889 179.817 163.856 180.988 164.252 182.53L165.793 182.134C166.332 181.99 166.45 181.83 166.332 181.376C165.978 180.011 165.439 179.422 164.765 179.59Z" fill="#1D0803"/>
<path d="M171.318 185.722C170.569 185.916 169.769 185.343 169.406 183.936L168.135 178.967L167.419 179.152C167.318 179.177 167.284 179.169 167.259 179.085L167.2 178.866C167.174 178.782 167.2 178.773 167.292 178.731L168 178.453L167.629 176.996C167.604 176.912 167.612 176.878 167.671 176.802C167.848 176.524 168.059 176.187 168.177 175.85C168.202 175.749 168.202 175.716 168.261 175.707H168.303C168.345 175.682 168.379 175.69 168.404 175.775L169.019 178.192L170.19 177.889C170.291 177.863 170.325 177.872 170.35 177.956L170.426 178.242C170.451 178.344 170.426 178.369 170.341 178.386L169.154 178.689L170.468 183.835C170.687 184.694 170.923 185.132 171.411 185.006C171.723 184.93 171.824 184.61 171.714 183.987C171.714 183.894 171.723 183.844 171.815 183.818L172.001 183.802C172.102 183.776 172.135 183.827 172.144 183.919C172.321 184.93 171.933 185.554 171.318 185.705V185.722Z" fill="#1D0803"/>
</g>
<defs>
<filter id="filter0_d_531_2493" x="0" y="0" width="271" height="271" filterUnits="userSpaceOnUse" color-interpolation-filters="sRGB">
<feFlood flood-opacity="0" result="BackgroundImageFix"/>
<feColorMatrix in="SourceAlpha" type="matrix" values="0 0 0 0 0 0 0 0 0 0 0 0 0 0 0 0 0 0 127 0" result="hardAlpha"/>
<feOffset dx="-2" dy="2"/>
<feGaussianBlur stdDeviation="5"/>
<feComposite in2="hardAlpha" operator="out"/>
<feColorMatrix type="matrix" values="0 0 0 0 0 0 0 0 0 0 0 0 0 0 0 0 0 0 0.25 0"/>
<feBlend mode="normal" in2="BackgroundImageFix" result="effect1_dropShadow_531_2493"/>
<feBlend mode="normal" in="SourceGraphic" in2="effect1_dropShadow_531_2493" result="shape"/>
</filter>
<filter id="filter1_d_531_2493" x="41.218" y="48.4253" width="132.999" height="55.2538" filterUnits="userSpaceOnUse" color-interpolation-filters="sRGB">
<feFlood flood-opacity="0" result="BackgroundImageFix"/>
<feColorMatrix in="SourceAlpha" type="matrix" values="0 0 0 0 0 0 0 0 0 0 0 0 0 0 0 0 0 0 127 0" result="hardAlpha"/>
<feOffset dx="-2" dy="1"/>
<feGaussianBlur stdDeviation="6"/>
<feColorMatrix type="matrix" values="0 0 0 0 0 0 0 0 0 0 0 0 0 0 0 0 0 0 0.1 0"/>
<feBlend mode="normal" in2="BackgroundImageFix" result="effect1_dropShadow_531_2493"/>
<feBlend mode="normal" in="SourceGraphic" in2="effect1_dropShadow_531_2493" result="shape"/>
</filter>
<filter id="filter2_d_531_2493" x="41.218" y="79.6785" width="87.2975" height="120.568" filterUnits="userSpaceOnUse" color-interpolation-filters="sRGB">
<feFlood flood-opacity="0" result="BackgroundImageFix"/>
<feColorMatrix in="SourceAlpha" type="matrix" values="0 0 0 0 0 0 0 0 0 0 0 0 0 0 0 0 0 0 127 0" result="hardAlpha"/>
<feOffset dx="-2" dy="1"/>
<feGaussianBlur stdDeviation="6"/>
<feColorMatrix type="matrix" values="0 0 0 0 0 0 0 0 0 0 0 0 0 0 0 0 0 0 0.1 0"/>
<feBlend mode="normal" in2="BackgroundImageFix" result="effect1_dropShadow_531_2493"/>
<feBlend mode="normal" in="SourceGraphic" in2="effect1_dropShadow_531_2493" result="shape"/>
</filter>
<filter id="filter3_d_531_2493" x="104.516" y="79.6785" width="69.4411" height="120.568" filterUnits="userSpaceOnUse" color-interpolation-filters="sRGB">
<feFlood flood-opacity="0" result="BackgroundImageFix"/>
<feColorMatrix in="SourceAlpha" type="matrix" values="0 0 0 0 0 0 0 0 0 0 0 0 0 0 0 0 0 0 127 0" result="hardAlpha"/>
<feOffset dx="-2" dy="1"/>
<feGaussianBlur stdDeviation="6"/>
<feColorMatrix type="matrix" values="0 0 0 0 0 0 0 0 0 0 0 0 0 0 0 0 0 0 0.1 0"/>
<feBlend mode="normal" in2="BackgroundImageFix" result="effect1_dropShadow_531_2493"/>
<feBlend mode="normal" in="SourceGraphic" in2="effect1_dropShadow_531_2493" result="shape"/>
</filter>
<filter id="filter4_d_531_2493" x="109.384" y="79.6785" width="31.3026" height="120.568" filterUnits="userSpaceOnUse" color-interpolation-filters="sRGB">
<feFlood flood-opacity="0" result="BackgroundImageFix"/>
<feColorMatrix in="SourceAlpha" type="matrix" values="0 0 0 0 0 0 0 0 0 0 0 0 0 0 0 0 0 0 127 0" result="hardAlpha"/>
<feOffset dx="-2" dy="1"/>
<feGaussianBlur stdDeviation="6"/>
<feColorMatrix type="matrix" values="0 0 0 0 0 0 0 0 0 0 0 0 0 0 0 0 0 0 0.1 0"/>
<feBlend mode="normal" in2="BackgroundImageFix" result="effect1_dropShadow_531_2493"/>
<feBlend mode="normal" in="SourceGraphic" in2="effect1_dropShadow_531_2493" result="shape"/>
</filter>
<filter id="filter5_d_531_2493" x="124.796" y="79.6785" width="45.0992" height="120.568" filterUnits="userSpaceOnUse" color-interpolation-filters="sRGB">
<feFlood flood-opacity="0" result="BackgroundImageFix"/>
<feColorMatrix in="SourceAlpha" type="matrix" values="0 0 0 0 0 0 0 0 0 0 0 0 0 0 0 0 0 0 127 0" result="hardAlpha"/>
<feOffset dx="-2" dy="1"/>
<feGaussianBlur stdDeviation="6"/>
<feColorMatrix type="matrix" values="0 0 0 0 0 0 0 0 0 0 0 0 0 0 0 0 0 0 0.1 0"/>
<feBlend mode="normal" in2="BackgroundImageFix" result="effect1_dropShadow_531_2493"/>
<feBlend mode="normal" in="SourceGraphic" in2="effect1_dropShadow_531_2493" result="shape"/>
</filter>
<filter id="filter6_d_531_2493" x="118.303" y="79.6785" width="37.7966" height="120.568" filterUnits="userSpaceOnUse" color-interpolation-filters="sRGB">
<feFlood flood-opacity="0" result="BackgroundImageFix"/>
<feColorMatrix in="SourceAlpha" type="matrix" values="0 0 0 0 0 0 0 0 0 0 0 0 0 0 0 0 0 0 127 0" result="hardAlpha"/>
<feOffset dx="-2" dy="1"/>
<feGaussianBlur stdDeviation="6"/>
<feColorMatrix type="matrix" values="0 0 0 0 0 0 0 0 0 0 0 0 0 0 0 0 0 0 0.1 0"/>
<feBlend mode="normal" in2="BackgroundImageFix" result="effect1_dropShadow_531_2493"/>
<feBlend mode="normal" in="SourceGraphic" in2="effect1_dropShadow_531_2493" result="shape"/>
</filter>
<filter id="filter7_d_531_2493" x="85.0331" y="79.6785" width="36.988" height="120.568" filterUnits="userSpaceOnUse" color-interpolation-filters="sRGB">
<feFlood flood-opacity="0" result="BackgroundImageFix"/>
<feColorMatrix in="SourceAlpha" type="matrix" values="0 0 0 0 0 0 0 0 0 0 0 0 0 0 0 0 0 0 127 0" result="hardAlpha"/>
<feOffset dx="-2" dy="1"/>
<feGaussianBlur stdDeviation="6"/>
<feColorMatrix type="matrix" values="0 0 0 0 0 0 0 0 0 0 0 0 0 0 0 0 0 0 0.1 0"/>
<feBlend mode="normal" in2="BackgroundImageFix" result="effect1_dropShadow_531_2493"/>
<feBlend mode="normal" in="SourceGraphic" in2="effect1_dropShadow_531_2493" result="shape"/>
</filter>
<filter id="filter8_d_531_2493" x="46.0858" y="79.6785" width="52.4017" height="120.568" filterUnits="userSpaceOnUse" color-interpolation-filters="sRGB">
<feFlood flood-opacity="0" result="BackgroundImageFix"/>
<feColorMatrix in="SourceAlpha" type="matrix" values="0 0 0 0 0 0 0 0 0 0 0 0 0 0 0 0 0 0 127 0" result="hardAlpha"/>
<feOffset dx="-2" dy="1"/>
<feGaussianBlur stdDeviation="6"/>
<feColorMatrix type="matrix" values="0 0 0 0 0 0 0 0 0 0 0 0 0 0 0 0 0 0 0.1 0"/>
<feBlend mode="normal" in2="BackgroundImageFix" result="effect1_dropShadow_531_2493"/>
<feBlend mode="normal" in="SourceGraphic" in2="effect1_dropShadow_531_2493" result="shape"/>
</filter>
<filter id="filter9_d_531_2493" x="63.9332" y="79.6785" width="45.0992" height="120.568" filterUnits="userSpaceOnUse" color-interpolation-filters="sRGB">
<feFlood flood-opacity="0" result="BackgroundImageFix"/>
<feColorMatrix in="SourceAlpha" type="matrix" values="0 0 0 0 0 0 0 0 0 0 0 0 0 0 0 0 0 0 127 0" result="hardAlpha"/>
<feOffset dx="-2" dy="1"/>
<feGaussianBlur stdDeviation="6"/>
<feColorMatrix type="matrix" values="0 0 0 0 0 0 0 0 0 0 0 0 0 0 0 0 0 0 0.1 0"/>
<feBlend mode="normal" in2="BackgroundImageFix" result="effect1_dropShadow_531_2493"/>
<feBlend mode="normal" in="SourceGraphic" in2="effect1_dropShadow_531_2493" result="shape"/>
</filter>
<filter id="filter10_d_531_2493" x="148.848" y="31.1648" width="89.9935" height="176.85" filterUnits="userSpaceOnUse" color-interpolation-filters="sRGB">
<feFlood flood-opacity="0" result="BackgroundImageFix"/>
<feColorMatrix in="SourceAlpha" type="matrix" values="0 0 0 0 0 0 0 0 0 0 0 0 0 0 0 0 0 0 127 0" result="hardAlpha"/>
<feOffset dx="-2" dy="2"/>
<feGaussianBlur stdDeviation="5"/>
<feColorMatrix type="matrix" values="0 0 0 0 0 0 0 0 0 0 0 0 0 0 0 0 0 0 0.08 0"/>
<feBlend mode="normal" in2="BackgroundImageFix" result="effect1_dropShadow_531_2493"/>
<feBlend mode="normal" in="SourceGraphic" in2="effect1_dropShadow_531_2493" result="shape"/>
</filter>
<filter id="filter11_d_531_2493" x="74.18" y="135.843" width="139.528" height="106.241" filterUnits="userSpaceOnUse" color-interpolation-filters="sRGB">
<feFlood flood-opacity="0" result="BackgroundImageFix"/>
<feColorMatrix in="SourceAlpha" type="matrix" values="0 0 0 0 0 0 0 0 0 0 0 0 0 0 0 0 0 0 127 0" result="hardAlpha"/>
<feOffset dx="-2" dy="2"/>
<feGaussianBlur stdDeviation="5"/>
<feColorMatrix type="matrix" values="0 0 0 0 0 0 0 0 0 0 0 0 0 0 0 0 0 0 0.08 0"/>
<feBlend mode="normal" in2="BackgroundImageFix" result="effect1_dropShadow_531_2493"/>
<feBlend mode="normal" in="SourceGraphic" in2="effect1_dropShadow_531_2493" result="shape"/>
</filter>
</defs>
</svg>
