<svg width="271" height="271" viewBox="0 0 271 271" fill="none" xmlns="http://www.w3.org/2000/svg">
<g filter="url(#filter0_d_531_3786)">
<path d="M242.785 259L39.7953 248.893L12 28.2148L263 8L242.785 259Z" fill="#B3D1CB"/>
<g filter="url(#filter1_d_531_3786)">
<path d="M197.496 72.8722C197.496 72.8722 198.415 69.2167 195.669 68.2986C195.669 68.2986 195.214 63.725 191.095 64.1798C191.095 64.1798 190.64 59.7242 184.694 61.2655C184.694 61.2655 183.776 54.1146 176.001 58.2333C176.001 58.2333 172.994 52.4721 168.092 56.953C168.092 56.953 163.654 54.1146 160.444 58.6881C160.444 58.6881 154.633 56.5066 153.125 61.8888C153.125 61.8888 147.179 60.5159 146.724 66.0076C146.724 66.0076 142.605 64.6347 141.232 68.2986C141.232 68.2986 136.658 67.3805 136.204 72.8722H197.505H197.496Z" fill="#FFF5D2"/>
</g>
<g filter="url(#filter2_d_531_3786)">
<path d="M171.883 127.309H149.924L136.204 72.8722H171.883V127.309Z" fill="#E26B50"/>
</g>
<g filter="url(#filter3_d_531_3786)">
<path d="M186.066 127.309H171.882V72.8722H197.496L186.066 127.309Z" fill="#DB4726"/>
</g>
<g filter="url(#filter4_d_531_3786)">
<path d="M174.628 72.8722V127.309H177.374L178.747 72.8722H174.628Z" fill="#EBD5C1"/>
</g>
<g filter="url(#filter5_d_531_3786)">
<path d="M195.213 72.8722H190.177L183.32 127.309H185.148L195.213 72.8722Z" fill="#EBD5C1"/>
</g>
<g filter="url(#filter6_d_531_3786)">
<path d="M181.948 72.8722H187.44L181.493 127.309H179.657L181.948 72.8722Z" fill="#EBD5C1"/>
</g>
<g filter="url(#filter7_d_531_3786)">
<path d="M168.226 72.8722V127.309H164.107L160.906 72.8722H168.226Z" fill="#F8E8CE"/>
</g>
<g filter="url(#filter8_d_531_3786)">
<path d="M138.949 72.8722H145.806L154.953 127.309H151.752L138.949 72.8722Z" fill="#F8E8CE"/>
</g>
<g filter="url(#filter9_d_531_3786)">
<path d="M149.006 72.8722H156.788L160.907 127.309H157.698L149.006 72.8722Z" fill="#F8E8CE"/>
</g>
<path d="M145.897 121.733C145.897 121.733 145.442 120.031 143.951 120.638C142.46 121.244 142.814 122.6 142.814 122.6C142.814 122.6 141.273 123.788 143.816 124.975C143.816 124.975 145.223 125.245 145.695 124.074C145.695 124.074 146.655 124.319 146.95 123.224C147.244 122.129 145.888 121.733 145.888 121.733H145.897Z" fill="#F8EEC3"/>
<path d="M144.684 123.965C144.094 124.37 143.749 124.041 143.749 124.041C143.749 124.041 143.101 123.78 143.699 123.418C144.297 123.056 144.465 123.384 144.465 123.384C144.465 123.384 145.097 123.688 144.684 123.965Z" fill="#FCCB61"/>
<path d="M145.898 122.483C145.898 122.483 146.26 123.081 145.611 123.199C144.963 123.317 144.929 122.508 144.929 122.508C144.929 122.508 145.089 121.514 145.494 122.003L145.906 122.491L145.898 122.483Z" fill="#FCCB61"/>
<path d="M143.784 121.717C143.784 121.717 143.953 121.329 144.18 121.666C144.407 122.003 144.062 122.264 144.062 122.264C144.062 122.264 143.582 122.475 143.683 122.096L143.784 121.717Z" fill="#FCCB61"/>
<path d="M140.313 130.08C140.313 130.08 139.715 132.438 141.93 132.522C144.137 132.598 143.531 130.535 143.531 130.535C143.531 130.535 144.76 129.557 144.28 128.521C143.8 127.485 143.135 127.342 142.444 127.629C142.444 127.629 141.619 126.896 140.566 127.704C139.513 128.513 140.313 130.08 140.313 130.08Z" fill="#F5E8BB"/>
<path d="M142.014 129.212C142.73 128.732 143.151 129.128 143.151 129.128C143.151 129.128 143.934 129.456 143.202 129.886C142.469 130.315 142.267 129.92 142.267 129.92C142.267 129.92 141.5 129.549 142.006 129.212H142.014Z" fill="#FCCB61"/>
<path d="M140.844 128.876C140.541 128.336 140.844 128.168 140.844 128.168C140.844 128.168 141.122 127.755 141.383 128.294C141.645 128.833 141.35 128.867 141.35 128.867C141.35 128.867 141.047 129.255 140.836 128.876H140.844Z" fill="#FCCB61"/>
<path d="M141.585 131.858C141.281 131.319 141.585 131.151 141.585 131.151C141.585 131.151 141.863 130.738 142.124 131.277C142.385 131.816 142.09 131.85 142.09 131.85C142.09 131.85 141.787 132.237 141.576 131.858H141.585Z" fill="#FCCB61"/>
<path d="M162.195 136.608C162.195 136.608 161.715 134.224 159.685 135.108C157.655 135.993 159.095 137.593 159.095 137.593C159.095 137.593 158.413 139.008 159.289 139.732C160.165 140.457 160.839 140.305 161.336 139.741C161.336 139.741 162.397 140.044 162.995 138.856C163.593 137.669 162.204 136.608 162.204 136.608H162.195Z" fill="#F5E8BB"/>
<path d="M160.705 137.442C159.855 137.29 159.829 136.709 159.829 136.709C159.829 136.709 159.492 135.925 160.318 136.128C161.143 136.33 161.008 136.751 161.008 136.751C161.008 136.751 161.303 137.551 160.705 137.442Z" fill="#FCCB61"/>
<path d="M160.436 139.261C159.821 139.228 159.846 138.874 159.846 138.874C159.846 138.874 159.652 138.419 160.242 138.486C160.831 138.554 160.705 138.823 160.705 138.823C160.705 138.823 160.874 139.287 160.436 139.261Z" fill="#FCCB61"/>
<path d="M162.288 138.141C162.356 138.756 162.002 138.789 162.002 138.789C162.002 138.789 161.589 139.059 161.555 138.461C161.522 137.863 161.808 137.947 161.808 137.947C161.808 137.947 162.238 137.711 162.288 138.141Z" fill="#FCCB61"/>
<path d="M155.045 131.529C155.045 131.529 154.59 129.828 153.099 130.434C151.609 131.041 151.962 132.397 151.962 132.397C151.962 132.397 150.421 133.584 152.965 134.772C152.965 134.772 154.371 135.042 154.843 133.871C154.843 133.871 155.803 134.115 156.098 133.02C156.393 131.925 155.037 131.529 155.037 131.529H155.045Z" fill="#F8EEC3"/>
<path d="M153.832 133.76C153.243 134.165 152.897 133.836 152.897 133.836C152.897 133.836 152.249 133.575 152.847 133.213C153.445 132.851 153.613 133.179 153.613 133.179C153.613 133.179 154.245 133.482 153.832 133.76Z" fill="#FCCB61"/>
<path d="M155.044 132.288C155.044 132.288 155.407 132.886 154.758 133.003C154.11 133.121 154.076 132.313 154.076 132.313C154.076 132.313 154.236 131.319 154.64 131.807L155.053 132.296L155.044 132.288Z" fill="#FCCB61"/>
<path d="M152.923 131.512C152.923 131.512 153.091 131.124 153.318 131.461C153.546 131.798 153.201 132.059 153.201 132.059C153.201 132.059 152.72 132.27 152.821 131.891L152.923 131.512Z" fill="#FCCB61"/>
<g filter="url(#filter10_d_531_3786)">
<path d="M207.133 131.715C204.707 111.5 198.584 91.6899 196.166 71.4835C199.375 73.1344 206.021 76.015 214.882 75.9729C223.507 75.9392 230.792 73.1344 233.993 71.5004C231.803 91.7067 228.577 112.048 226.396 132.254" fill="#DB4726"/>
<path d="M195.753 71.079L196.158 74.6081C196.158 74.6081 214.444 83.8311 234.389 73.9512L235.206 69.8829L195.753 71.0874V71.079Z" fill="#F8E8CE"/>
<path d="M235.206 69.8742C235.206 70.7755 224.913 76.3935 214.469 76.3851C204.016 76.3766 195.753 71.9799 195.753 71.0787C195.753 70.1774 205.642 66.9936 216.078 66.623C227.448 66.2187 235.206 68.9814 235.197 69.8742H235.206Z" fill="#FCF7ED"/>
<path d="M212.026 71.5001L212.852 60.5168L196.174 50.3336L200.613 43.8396L216.103 59.3039V71.5086C216.103 71.5086 214.46 73.1342 212.026 71.5086V71.5001Z" fill="#DB4726"/>
</g>
<g filter="url(#filter11_d_531_3786)">
<path d="M113.824 104.997C113.824 104.997 114.767 101.207 111.928 100.264C111.928 100.264 111.457 95.5301 107.195 96.0018C107.195 96.0018 106.723 91.3861 100.566 92.9865C100.566 92.9865 99.6227 85.5912 91.5705 89.8532C91.5705 89.8532 88.454 83.8982 83.3835 88.5308C83.3835 88.5308 78.7846 85.5912 75.4744 90.3248C75.4744 90.3248 69.4606 88.0675 67.9023 93.635C67.9023 93.635 61.7537 92.2116 61.2736 97.897C61.2736 97.897 57.0116 96.4735 55.5966 100.264C55.5966 100.264 50.863 99.3204 50.3913 104.997H113.815H113.824Z" fill="#FFF5D2"/>
</g>
<g filter="url(#filter12_d_531_3786)">
<path d="M87.3167 161.321H64.6003L50.3995 104.997H87.3167V161.321Z" fill="#E26B50"/>
</g>
<g filter="url(#filter13_d_531_3786)">
<path d="M101.989 161.321H87.3168V104.997H113.823L101.989 161.321Z" fill="#DB4726"/>
</g>
<g filter="url(#filter14_d_531_3786)">
<path d="M90.1545 104.997V161.321H92.993L94.4165 104.997H90.1545Z" fill="#EBD5C1"/>
</g>
<g filter="url(#filter15_d_531_3786)">
<path d="M111.457 104.997H106.244L99.1515 161.321H101.038L111.457 104.997Z" fill="#EBD5C1"/>
</g>
<g filter="url(#filter16_d_531_3786)">
<path d="M97.728 104.997H103.405L97.2563 161.321H95.3612L97.728 104.997Z" fill="#EBD5C1"/>
</g>
<g filter="url(#filter17_d_531_3786)">
<path d="M83.5263 104.997V161.321H79.2728L75.9542 104.997H83.5263Z" fill="#F8E8CE"/>
</g>
<g filter="url(#filter18_d_531_3786)">
<path d="M53.2389 104.997H60.3393L69.8066 161.321H66.488L53.2389 104.997Z" fill="#F8E8CE"/>
</g>
<g filter="url(#filter19_d_531_3786)">
<path d="M63.649 104.997H71.6928L75.9547 161.321H72.6446L63.649 104.997Z" fill="#F8E8CE"/>
</g>
<path d="M60.431 155.551C60.431 155.551 59.9593 153.791 58.4179 154.422C56.8766 155.054 57.2472 156.452 57.2472 156.452C57.2472 156.452 55.6468 157.682 58.2832 158.912C58.2832 158.912 59.7403 159.19 60.2289 157.977C60.2289 157.977 61.2227 158.221 61.526 157.093C61.8292 155.964 60.431 155.551 60.431 155.551Z" fill="#F8EEC3"/>
<path d="M59.1765 157.859C58.5616 158.272 58.2079 157.935 58.2079 157.935C58.2079 157.935 57.534 157.665 58.1573 157.286C58.7806 156.907 58.9575 157.252 58.9575 157.252C58.9575 157.252 59.6145 157.564 59.1849 157.859H59.1765Z" fill="#FCCB61"/>
<path d="M60.4319 156.334C60.4319 156.334 60.8109 156.949 60.1287 157.075C59.4464 157.201 59.4211 156.359 59.4211 156.359C59.4211 156.359 59.5896 155.331 60.0107 155.837L60.4319 156.342V156.334Z" fill="#FCCB61"/>
<path d="M58.2413 155.534C58.2413 155.534 58.4097 155.129 58.654 155.475C58.8983 155.82 58.5277 156.098 58.5277 156.098C58.5277 156.098 58.0307 156.317 58.1318 155.921L58.2413 155.525V155.534Z" fill="#FCCB61"/>
<path d="M54.6526 164.192C54.6526 164.192 54.0378 166.635 56.3203 166.719C58.6029 166.803 57.9796 164.664 57.9796 164.664C57.9796 164.664 59.2515 163.653 58.763 162.583C58.2744 161.514 57.5753 161.362 56.8594 161.657C56.8594 161.657 56.0087 160.899 54.9222 161.733C53.8356 162.567 54.6611 164.192 54.6611 164.192H54.6526Z" fill="#F5E8BB"/>
<path d="M56.4128 163.291C57.154 162.794 57.592 163.206 57.592 163.206C57.592 163.206 58.409 163.543 57.651 163.99C56.8929 164.436 56.6824 164.023 56.6824 164.023C56.6824 164.023 55.8906 163.644 56.4128 163.291Z" fill="#FCCB61"/>
<path d="M55.2084 162.946C54.8967 162.39 55.2084 162.213 55.2084 162.213C55.2084 162.213 55.4948 161.792 55.7643 162.34C56.0338 162.887 55.7306 162.929 55.7306 162.929C55.7306 162.929 55.419 163.334 55.2 162.938L55.2084 162.946Z" fill="#FCCB61"/>
<path d="M55.9668 166.021C55.6551 165.465 55.9668 165.288 55.9668 165.288C55.9668 165.288 56.2531 164.867 56.5227 165.414C56.7922 165.962 56.489 166.004 56.489 166.004C56.489 166.004 56.1773 166.408 55.9583 166.012L55.9668 166.021Z" fill="#FCCB61"/>
<path d="M77.2932 170.94C77.2932 170.94 76.7963 168.472 74.699 169.382C72.6017 170.3 74.0925 171.95 74.0925 171.95C74.0925 171.95 73.385 173.408 74.2947 174.166C75.2044 174.924 75.895 174.755 76.4088 174.174C76.4088 174.174 77.5038 174.494 78.1271 173.264C78.7504 172.035 77.3016 170.94 77.3016 170.94H77.2932Z" fill="#F5E8BB"/>
<path d="M75.7515 171.798C74.8671 171.638 74.8419 171.04 74.8419 171.04C74.8419 171.04 74.4881 170.231 75.3472 170.433C76.2064 170.635 76.0632 171.082 76.0632 171.082C76.0632 171.082 76.3664 171.907 75.7431 171.798H75.7515Z" fill="#FCCB61"/>
<path d="M75.4663 173.693C74.8346 173.651 74.8514 173.289 74.8514 173.289C74.8514 173.289 74.6493 172.818 75.2557 172.885C75.8622 172.952 75.7358 173.23 75.7358 173.23C75.7358 173.23 75.9043 173.71 75.4579 173.685L75.4663 173.693Z" fill="#FCCB61"/>
<path d="M77.3861 172.532C77.4535 173.163 77.0913 173.205 77.0913 173.205C77.0913 173.205 76.6617 173.483 76.628 172.869C76.5944 172.254 76.8892 172.338 76.8892 172.338C76.8892 172.338 77.3356 172.094 77.3861 172.54V172.532Z" fill="#FCCB61"/>
<path d="M69.8984 165.683C69.8984 165.683 69.4267 163.923 67.8854 164.555C66.344 165.186 66.7146 166.584 66.7146 166.584C66.7146 166.584 65.1142 167.814 67.7506 169.044C67.7506 169.044 69.2077 169.322 69.6963 168.109C69.6963 168.109 70.6902 168.353 70.9934 167.225C71.2966 166.096 69.8984 165.683 69.8984 165.683Z" fill="#F8EEC3"/>
<path d="M68.6439 167.999C68.0291 168.412 67.6753 168.075 67.6753 168.075C67.6753 168.075 67.0015 167.806 67.6248 167.427C68.2481 167.048 68.425 167.393 68.425 167.393C68.425 167.393 69.0819 167.705 68.6524 167.999H68.6439Z" fill="#FCCB61"/>
<path d="M69.8895 166.468C69.8895 166.468 70.2685 167.082 69.5862 167.209C68.904 167.335 68.8787 166.493 68.8787 166.493C68.8787 166.493 69.0472 165.465 69.4683 165.971L69.8895 166.476V166.468Z" fill="#FCCB61"/>
<path d="M67.7005 165.676C67.7005 165.676 67.869 165.271 68.1132 165.617C68.3575 165.962 67.9869 166.24 67.9869 166.24C67.9869 166.24 67.4899 166.459 67.591 166.063L67.7005 165.667V165.676Z" fill="#FCCB61"/>
<g filter="url(#filter20_d_531_3786)">
<path d="M123.779 165.878C121.269 144.965 114.935 124.472 112.433 103.558C115.752 105.268 122.634 108.241 131.798 108.207C140.726 108.174 148.256 105.276 151.574 103.575C149.309 124.48 145.973 145.52 143.707 166.434" fill="#DB4726"/>
<path d="M112.012 103.136L112.433 106.783C112.433 106.783 131.351 116.326 151.987 106.101L152.829 101.89L112.012 103.136Z" fill="#F8E8CE"/>
<path d="M152.829 101.889C152.829 102.816 142.183 108.636 131.376 108.627C120.561 108.619 112.012 104.071 112.012 103.136C112.012 102.201 122.238 98.9075 133.044 98.52C144.811 98.0989 152.829 100.954 152.829 101.889Z" fill="#FCF7ED"/>
<path d="M128.849 103.574L129.7 92.2116L112.45 81.6747L117.049 74.9532L133.077 90.9482V103.574C133.077 103.574 131.384 105.259 128.858 103.574H128.849Z" fill="#DB4726"/>
</g>
<g filter="url(#filter21_d_531_3786)">
<path d="M191.188 185.561L115.408 207.671L113.268 203.216C113.268 203.216 117.109 199.089 111.466 197.581L108.888 191.188C108.888 191.188 112.948 186.656 107.136 184.719L105.056 179.463C105.056 179.463 109.107 175.05 103.472 174.047L101.4 168.337L173.028 135.252L175.69 141.249C175.69 141.249 166.601 148.265 177.425 147.92L179.354 153.892C179.354 153.892 168.977 161.969 182.563 162.323L185.005 169.76C185.005 169.76 175.075 177.796 188.181 178.099L191.171 185.578L191.188 185.561Z" fill="#AF381D"/>
</g>
<path d="M179.007 183.683L118.852 198.179L110.142 173.424L166.424 144.938L179.007 183.683Z" fill="#FFF3DB"/>
<g filter="url(#filter22_d_531_3786)">
<path d="M219.387 224.534L140.515 221.316L139.917 216.406C139.917 216.406 144.87 213.719 140.01 210.493L139.606 203.612C139.606 203.612 144.895 200.605 140.01 196.924L139.715 191.281C139.715 191.281 144.963 188.392 139.943 185.637L139.808 179.564L218.25 171.049L218.856 177.585C218.856 177.585 208.007 181.333 218.376 184.458L218.3 190.733C218.3 190.733 205.885 195.079 218.654 199.745L218.595 207.57C218.595 207.57 206.618 212.018 218.949 216.49L219.395 224.534H219.387Z" fill="#AF381D"/>
</g>
<path d="M126.349 183.682C125.936 183.868 125.515 183.809 125.094 183.556H125.086L124.985 184.137C124.968 184.213 124.959 184.23 124.926 184.247L124.824 184.289C124.766 184.314 124.749 184.297 124.723 184.238L121.986 178.073C121.657 177.323 121.615 177.273 121.438 177.34L121.135 177.466C121.076 177.492 121.051 177.492 121.026 177.433L120.967 177.298C120.942 177.239 120.958 177.222 121.017 177.197L122.104 176.708C122.197 176.666 122.205 176.692 122.239 176.776L123.477 179.564H123.494C123.536 178.983 123.755 178.511 124.226 178.3C124.951 177.98 125.97 178.477 126.753 180.238C127.461 181.829 127.377 183.219 126.349 183.682ZM124.176 178.907C123.772 179.084 123.679 179.555 123.721 180.12L125.077 183.169C125.372 183.404 125.759 183.497 126.105 183.346C126.846 183.017 126.585 181.998 126.004 180.684C125.347 179.202 124.749 178.654 124.176 178.907Z" fill="#1D0803"/>
<path d="M126.298 175.891C126.012 176.018 125.734 175.883 125.607 175.597C125.481 175.319 125.582 175.007 125.852 174.889C126.113 174.771 126.408 174.914 126.534 175.184C126.66 175.47 126.559 175.774 126.298 175.891ZM128.294 182.672C128.235 182.697 128.21 182.697 128.185 182.638L128.126 182.503C128.101 182.444 128.117 182.428 128.176 182.402L128.471 182.259C128.657 182.166 128.64 182.099 128.303 181.358L127.048 178.536C126.719 177.787 126.677 177.736 126.492 177.82L126.189 177.93C126.13 177.955 126.104 177.955 126.079 177.896L126.02 177.761C125.995 177.702 126.012 177.686 126.071 177.66L127.157 177.172C127.233 177.138 127.258 177.155 127.292 177.239L128.985 181.055C129.313 181.804 129.356 181.855 129.549 181.787L129.853 181.661C129.912 181.636 129.937 181.636 129.962 181.695L130.021 181.83C130.046 181.889 130.029 181.905 129.97 181.931L128.294 182.672Z" fill="#1D0803"/>
<path d="M132.076 181.139C130.973 181.627 129.979 180.92 129.28 179.336C128.564 177.728 128.674 176.338 129.777 175.841C130.88 175.352 131.866 176.043 132.565 177.627C133.281 179.235 133.171 180.65 132.076 181.139ZM129.903 176.161C129.187 176.481 129.423 177.517 130.063 178.949C130.661 180.288 131.242 181.13 131.958 180.81C132.658 180.499 132.422 179.429 131.79 177.997C131.192 176.658 130.602 175.841 129.903 176.153V176.161Z" fill="#1D0803"/>
<path d="M136.632 181.316C135.908 181.636 134.939 181.56 134.568 180.727C134.333 180.196 134.484 179.75 134.762 179.312C134.349 179.337 134.055 179.143 133.878 178.756C133.692 178.343 133.768 177.998 133.979 177.686C133.499 177.627 133.044 177.24 132.749 176.574C132.311 175.589 132.496 174.637 133.356 174.258C133.558 174.174 133.777 174.115 133.996 174.123L134.998 173.677C135.065 173.643 135.091 173.643 135.116 173.694L135.192 173.87C135.217 173.929 135.2 173.946 135.141 173.971L134.602 174.258C134.872 174.418 135.175 174.746 135.394 175.235C135.832 176.22 135.638 177.172 134.779 177.56C134.627 177.627 134.383 177.686 134.24 177.678C134.097 177.871 134.08 178.065 134.189 178.301C134.333 178.612 134.661 178.646 135.04 178.503L135.798 178.2C136.565 177.897 137.205 178.082 137.542 178.848C137.988 179.859 137.575 180.895 136.64 181.308L136.632 181.316ZM133.465 174.569C132.934 174.805 133.137 175.538 133.44 176.229C133.726 176.869 134.13 177.501 134.661 177.265C135.183 177.029 134.981 176.271 134.678 175.589C134.392 174.949 133.996 174.342 133.465 174.569ZM135.916 178.899L134.964 179.295C134.888 179.573 134.905 179.884 135.091 180.297C135.402 180.996 135.891 181.266 136.573 180.962C137.188 180.693 137.407 180.145 137.095 179.446C136.775 178.73 136.371 178.705 135.916 178.899Z" fill="#1D0803"/>
<path d="M137.685 178.494C137.626 178.519 137.601 178.519 137.575 178.46L137.516 178.326C137.491 178.267 137.508 178.25 137.567 178.225L137.862 178.081C138.047 177.989 138.03 177.921 137.693 177.172L136.464 174.409C136.101 173.601 136 173.575 135.815 173.651L135.571 173.744C135.512 173.769 135.487 173.769 135.461 173.71L135.402 173.575C135.377 173.516 135.394 173.499 135.453 173.474L136.472 173.019C136.565 172.977 136.573 173.002 136.607 173.087L136.944 173.853H136.961C136.902 173.179 137.045 172.607 137.474 172.413C137.87 172.236 138.283 172.556 138.485 173.011C138.62 173.314 138.527 173.508 138.283 173.617C138.013 173.735 137.803 173.668 137.702 173.432C137.634 173.272 137.601 173.087 137.601 172.91C137.55 172.91 137.533 172.91 137.516 172.927C137.18 173.078 137.171 173.643 137.205 174.266L138.359 176.869C138.687 177.618 138.729 177.669 138.923 177.601L139.353 177.424C139.412 177.399 139.437 177.399 139.462 177.458L139.521 177.593C139.546 177.652 139.53 177.669 139.471 177.694L137.668 178.494H137.685Z" fill="#1D0803"/>
<path d="M143.262 175.715C143.388 175.656 143.346 175.446 143.237 175.151C143.211 175.1 143.22 175.05 143.27 175.042L143.371 175.025C143.439 175.008 143.456 175.058 143.472 175.117C143.666 175.656 143.616 176.019 143.245 176.179C142.849 176.355 142.504 176.136 142.201 175.505H142.184C142.184 176.254 141.956 176.76 141.476 176.97C140.954 177.206 140.356 176.987 139.977 176.128C139.606 175.294 139.75 174.78 140.423 174.056C141.131 173.298 141.097 173.222 140.962 172.919L140.853 172.675C140.474 171.816 139.977 171.748 139.623 171.9C139.396 172.001 139.261 172.186 139.202 172.363C139.345 172.523 139.463 172.683 139.539 172.852C139.632 173.071 139.615 173.256 139.362 173.365C139.143 173.466 138.975 173.424 138.857 173.155C138.646 172.675 138.933 171.782 139.716 171.428C140.381 171.133 141.097 171.369 141.611 172.506L142.756 175.092C143.009 175.656 143.127 175.774 143.279 175.707L143.262 175.715ZM141.249 173.584C141.038 173.795 140.844 174.039 140.684 174.267C140.432 174.662 140.407 175.05 140.651 175.614C140.92 176.212 141.232 176.49 141.586 176.33C141.906 176.187 141.99 175.741 141.973 175.227L141.24 173.584H141.249Z" fill="#1D0803"/>
<path d="M143.977 175.698C143.918 175.723 143.893 175.723 143.868 175.664L143.809 175.529C143.783 175.47 143.8 175.453 143.859 175.428L144.154 175.285C144.331 175.192 144.314 175.133 143.977 174.384L142.385 170.804L141.897 171.023C141.838 171.048 141.812 171.048 141.787 170.989L141.72 170.846C141.694 170.787 141.711 170.77 141.762 170.728L142.225 170.467L142.048 170.071C141.56 168.976 141.745 167.982 142.528 167.629C143.025 167.41 143.564 167.637 143.783 168.117C143.893 168.37 143.817 168.538 143.598 168.639C143.354 168.749 143.177 168.665 143.084 168.454C143.008 168.286 142.983 168.092 142.958 167.907C142.874 167.873 142.781 167.89 142.688 167.932C142.2 168.151 142.242 168.648 142.579 169.406L142.907 170.155L143.699 169.802C143.766 169.768 143.783 169.776 143.809 169.835L143.893 170.029C143.927 170.096 143.918 170.113 143.859 170.139L143.059 170.492L144.651 174.072C144.979 174.822 145.021 174.872 145.198 174.805L145.645 174.62C145.704 174.594 145.729 174.594 145.754 174.653L145.813 174.788C145.838 174.847 145.822 174.864 145.763 174.889L143.952 175.698H143.977Z" fill="#1D0803"/>
<path d="M150.209 173.078C149.797 173.264 149.375 173.205 148.954 172.952H148.946L148.845 173.533C148.828 173.609 148.819 173.626 148.786 173.643L148.685 173.685C148.626 173.71 148.609 173.693 148.584 173.634L145.846 167.469C145.518 166.719 145.476 166.668 145.299 166.736L144.995 166.862C144.937 166.887 144.911 166.887 144.886 166.828L144.827 166.694C144.802 166.635 144.819 166.618 144.878 166.593L145.964 166.104C146.057 166.062 146.065 166.087 146.099 166.171L147.337 168.959H147.354C147.396 168.378 147.615 167.907 148.087 167.696C148.811 167.376 149.83 167.873 150.614 169.633C151.321 171.225 151.237 172.615 150.209 173.078ZM148.036 168.302C147.632 168.479 147.539 168.951 147.581 169.515L148.937 172.564C149.232 172.8 149.62 172.893 149.965 172.741C150.706 172.413 150.445 171.394 149.864 170.08C149.207 168.597 148.609 168.05 148.036 168.302Z" fill="#1D0803"/>
<path d="M150.152 165.287C149.865 165.414 149.587 165.279 149.461 164.992C149.335 164.714 149.436 164.403 149.705 164.285C149.966 164.167 150.261 164.31 150.388 164.58C150.514 164.866 150.413 165.169 150.152 165.287ZM152.156 172.068C152.097 172.093 152.072 172.093 152.047 172.034L151.988 171.899C151.963 171.84 151.98 171.823 152.038 171.798L152.333 171.655C152.519 171.562 152.502 171.495 152.165 170.754L150.91 167.932C150.581 167.182 150.539 167.132 150.354 167.216L150.051 167.326C149.992 167.351 149.966 167.351 149.941 167.292L149.882 167.157C149.857 167.098 149.874 167.081 149.933 167.056L151.019 166.568C151.095 166.534 151.12 166.551 151.154 166.635L152.847 170.45C153.176 171.2 153.218 171.251 153.411 171.183L153.715 171.057C153.774 171.032 153.799 171.032 153.824 171.091L153.883 171.225C153.908 171.284 153.891 171.301 153.833 171.326L152.156 172.068Z" fill="#1D0803"/>
<path d="M154.21 171.15C154.151 171.175 154.126 171.175 154.101 171.116L154.042 170.981C154.017 170.922 154.033 170.906 154.092 170.88L154.387 170.737C154.573 170.644 154.556 170.577 154.219 169.836L151.961 164.765C151.633 164.016 151.591 163.965 151.397 164.033L151.094 164.159C151.035 164.184 151.01 164.184 150.984 164.125L150.925 163.99C150.9 163.931 150.917 163.915 150.976 163.889L152.063 163.401C152.138 163.367 152.164 163.384 152.197 163.468L154.893 169.533C155.221 170.282 155.263 170.333 155.457 170.265L155.76 170.139C155.819 170.114 155.844 170.114 155.87 170.173L155.929 170.307C155.954 170.366 155.937 170.383 155.878 170.409L154.202 171.15H154.21Z" fill="#1D0803"/>
<path d="M156.258 170.24C156.199 170.265 156.174 170.265 156.149 170.206L156.09 170.072C156.065 170.013 156.082 169.996 156.141 169.971L156.435 169.827C156.621 169.735 156.604 169.667 156.267 168.926L154.01 163.856C153.681 163.106 153.639 163.055 153.445 163.123L153.142 163.249C153.083 163.274 153.058 163.274 153.032 163.215L152.974 163.081C152.948 163.022 152.965 163.005 153.024 162.98L154.111 162.491C154.186 162.457 154.212 162.474 154.245 162.559L156.941 168.623C157.269 169.373 157.311 169.423 157.505 169.356L157.808 169.229C157.867 169.204 157.892 169.204 157.918 169.263L157.977 169.398C158.002 169.457 157.985 169.474 157.926 169.499L156.25 170.24H156.258Z" fill="#1D0803"/>
<path d="M160.074 168.699C158.987 169.187 157.951 168.497 157.244 166.896C156.595 165.431 156.595 163.923 157.665 163.443C158.389 163.123 159.332 163.468 159.947 164.833L159.981 164.908C160.091 165.161 160.048 165.279 159.737 165.414L157.875 166.239L157.968 166.45C158.642 167.966 159.29 168.463 160.023 168.134C160.545 167.899 160.655 167.385 160.402 166.61C160.394 166.559 160.385 166.509 160.444 166.5L160.571 166.467C160.646 166.45 160.663 166.467 160.68 166.534C161 167.452 160.933 168.303 160.074 168.69V168.699ZM157.749 163.797C157.151 164.058 157.277 164.892 157.741 165.936L158.785 165.473C159.156 165.313 159.215 165.178 159.08 164.875C158.667 163.948 158.212 163.603 157.757 163.805L157.749 163.797Z" fill="#1D0803"/>
<path d="M163.106 167.351C162.601 167.578 161.969 167.267 161.539 166.315L160.048 162.954L159.56 163.173C159.493 163.207 159.467 163.207 159.442 163.139L159.375 162.996C159.349 162.937 159.375 162.929 159.425 162.895L159.897 162.617L159.459 161.632C159.434 161.573 159.434 161.548 159.459 161.489C159.552 161.27 159.661 161.008 159.703 160.756C159.703 160.688 159.703 160.663 159.745 160.646L159.779 160.629C159.779 160.629 159.829 160.621 159.863 160.68L160.588 162.314L161.379 161.96C161.447 161.927 161.472 161.927 161.497 161.994L161.581 162.188C161.615 162.255 161.598 162.272 161.539 162.306L160.739 162.659L162.289 166.138C162.55 166.719 162.769 166.997 163.098 166.854C163.308 166.761 163.342 166.517 163.19 166.096C163.173 166.028 163.182 165.995 163.241 165.97L163.367 165.936C163.434 165.902 163.46 165.936 163.477 166.003C163.721 166.694 163.527 167.182 163.106 167.368V167.351Z" fill="#1D0803"/>
<path d="M208.993 218.537L147.253 214.502L146.285 188.282L208.487 177.795L208.993 218.537Z" fill="#FFF3DB"/>
<path d="M159.651 204.075C159.197 204.092 158.826 203.881 158.531 203.502H158.523L158.22 203.999C158.177 204.066 158.161 204.075 158.127 204.083H158.017C157.95 204.083 157.942 204.066 157.942 204.007L157.647 197.269C157.613 196.452 157.596 196.393 157.403 196.385H157.074C157.007 196.385 156.99 196.385 156.981 196.317V196.166C156.973 196.098 156.99 196.09 157.057 196.09L158.253 196.039C158.354 196.039 158.354 196.056 158.354 196.157L158.489 199.206H158.514C158.759 198.693 159.138 198.33 159.66 198.305C160.452 198.271 161.218 199.105 161.302 201.034C161.378 202.778 160.797 204.041 159.668 204.092L159.651 204.075ZM159.382 198.836C158.935 198.853 158.683 199.257 158.514 199.804L158.658 203.14C158.843 203.468 159.171 203.696 159.55 203.679C160.359 203.645 160.494 202.601 160.426 201.161C160.359 199.535 159.997 198.811 159.382 198.836Z" fill="#1D0803"/>
<path d="M161.842 203.839C161.774 203.839 161.758 203.839 161.749 203.771V203.62C161.741 203.552 161.758 203.544 161.825 203.544L162.153 203.519C162.356 203.502 162.364 203.434 162.33 202.617L162.196 199.535C162.162 198.718 162.145 198.65 161.943 198.659H161.614C161.547 198.659 161.53 198.642 161.522 198.583V198.431C161.513 198.364 161.53 198.355 161.598 198.355L162.794 198.305C162.878 198.305 162.895 198.322 162.895 198.423L163.08 202.592C163.114 203.409 163.131 203.477 163.333 203.477H163.661C163.729 203.477 163.745 203.477 163.754 203.544V203.695C163.762 203.763 163.745 203.771 163.678 203.771L161.85 203.856L161.842 203.839ZM162.448 196.806C162.137 196.822 161.926 196.595 161.918 196.283C161.901 195.98 162.111 195.728 162.406 195.711C162.684 195.702 162.912 195.938 162.928 196.233C162.945 196.545 162.735 196.789 162.457 196.806H162.448Z" fill="#1D0803"/>
<path d="M165.918 203.805C164.714 203.855 164.048 202.828 163.972 201.101C163.897 199.341 164.503 198.086 165.716 198.035C166.92 197.984 167.586 198.987 167.662 200.713C167.737 202.474 167.123 203.754 165.918 203.805ZM165.716 198.372C164.933 198.406 164.773 199.458 164.848 201.025C164.916 202.491 165.152 203.493 165.935 203.451C166.701 203.417 166.87 202.331 166.802 200.772C166.735 199.307 166.491 198.33 165.716 198.364V198.372Z" fill="#1D0803"/>
<path d="M170.096 205.633C169.304 205.666 168.428 205.245 168.386 204.327C168.361 203.746 168.664 203.392 169.077 203.081C168.681 202.946 168.47 202.668 168.453 202.238C168.436 201.783 168.63 201.489 168.942 201.278C168.521 201.051 168.234 200.52 168.201 199.796C168.15 198.718 168.672 197.901 169.616 197.858C169.835 197.85 170.062 197.884 170.264 197.968L171.359 197.917C171.435 197.917 171.46 197.917 171.46 197.976V198.17C171.469 198.237 171.452 198.246 171.384 198.246L170.778 198.313C170.972 198.566 171.132 198.979 171.157 199.518C171.208 200.596 170.677 201.413 169.734 201.455C169.574 201.455 169.321 201.43 169.186 201.371C168.984 201.497 168.9 201.674 168.908 201.935C168.925 202.28 169.22 202.424 169.624 202.432H170.441C171.267 202.432 171.797 202.828 171.831 203.67C171.881 204.774 171.115 205.591 170.096 205.633ZM169.616 198.187C169.034 198.212 168.959 198.97 168.992 199.72C169.026 200.419 169.178 201.152 169.75 201.126C170.323 201.101 170.407 200.318 170.374 199.568C170.34 198.869 170.188 198.153 169.616 198.178V198.187ZM170.306 203.114L169.279 203.14C169.102 203.375 169.009 203.67 169.026 204.117C169.06 204.883 169.414 205.304 170.163 205.271C170.837 205.237 171.241 204.816 171.208 204.049C171.174 203.266 170.803 203.097 170.306 203.106V203.114Z" fill="#1D0803"/>
<path d="M172.101 203.393C172.033 203.393 172.016 203.393 172.008 203.325V203.174C172 203.106 172.016 203.098 172.084 203.098L172.412 203.072C172.614 203.056 172.623 202.988 172.589 202.171L172.454 199.147C172.412 198.263 172.328 198.204 172.134 198.204H171.873C171.806 198.204 171.789 198.204 171.781 198.137V197.985C171.772 197.918 171.789 197.909 171.856 197.909L172.977 197.859C173.078 197.859 173.078 197.876 173.078 197.977L173.111 198.819H173.137C173.322 198.17 173.659 197.699 174.139 197.673C174.569 197.657 174.838 198.103 174.863 198.6C174.88 198.928 174.72 199.08 174.451 199.088C174.156 199.105 173.987 198.962 173.979 198.701C173.979 198.533 174.004 198.347 174.072 198.179C174.029 198.162 174.004 198.162 173.987 198.162C173.617 198.179 173.406 198.701 173.212 199.291L173.339 202.138C173.372 202.955 173.389 203.022 173.591 203.022H174.055C174.122 203.005 174.139 203.022 174.147 203.081V203.232C174.156 203.3 174.139 203.308 174.072 203.308L172.101 203.393Z" fill="#1D0803"/>
<path d="M178.309 202.836C178.452 202.836 178.486 202.609 178.495 202.297C178.495 202.246 178.511 202.196 178.57 202.204L178.671 202.221C178.739 202.221 178.739 202.28 178.73 202.348C178.714 202.92 178.528 203.24 178.132 203.257C177.703 203.274 177.459 202.946 177.408 202.246H177.383C177.113 202.937 176.717 203.325 176.195 203.341C175.622 203.367 175.142 202.946 175.109 202.011C175.066 201.101 175.387 200.671 176.279 200.25C177.214 199.795 177.214 199.728 177.197 199.391V199.122C177.147 198.187 176.709 197.934 176.322 197.951C176.069 197.959 175.884 198.086 175.757 198.22C175.833 198.423 175.884 198.616 175.892 198.793C175.9 199.029 175.816 199.197 175.538 199.206C175.302 199.214 175.151 199.113 175.142 198.827C175.117 198.305 175.715 197.572 176.574 197.538C177.299 197.504 177.888 197.985 177.939 199.231L178.065 202.061C178.09 202.676 178.166 202.836 178.326 202.828L178.309 202.836ZM177.214 200.116C176.936 200.233 176.675 200.385 176.439 200.545C176.06 200.823 175.892 201.168 175.917 201.783C175.942 202.44 176.136 202.811 176.524 202.794C176.869 202.777 177.113 202.39 177.29 201.91L177.214 200.116Z" fill="#1D0803"/>
<path d="M178.982 203.089C178.914 203.089 178.898 203.089 178.889 203.013V202.861C178.881 202.794 178.898 202.786 178.965 202.786L179.293 202.76C179.487 202.743 179.496 202.676 179.462 201.859L179.293 197.951L178.763 197.976C178.695 197.976 178.679 197.976 178.67 197.909V197.749C178.662 197.681 178.679 197.673 178.746 197.656L179.277 197.58L179.26 197.151C179.209 195.955 179.748 195.096 180.599 195.053C181.138 195.028 181.559 195.441 181.585 195.972C181.593 196.25 181.458 196.376 181.222 196.384C180.953 196.393 180.826 196.25 180.818 196.022C180.818 195.837 180.852 195.643 180.902 195.466C180.835 195.407 180.751 195.39 180.641 195.39C180.111 195.416 179.967 195.896 180.001 196.721L180.035 197.538L180.902 197.505C180.978 197.505 180.986 197.505 180.995 197.572V197.782C181.012 197.858 180.995 197.867 180.936 197.875L180.06 197.917L180.228 201.825C180.262 202.642 180.279 202.71 180.473 202.71H180.961C181.029 202.693 181.045 202.71 181.054 202.769V202.92C181.062 202.988 181.045 202.996 180.978 202.996L178.999 203.08L178.982 203.089Z" fill="#1D0803"/>
<path d="M185.746 202.93C185.291 202.947 184.92 202.736 184.626 202.357H184.617L184.314 202.854C184.272 202.921 184.255 202.93 184.221 202.938H184.112C184.044 202.938 184.036 202.921 184.036 202.862L183.741 196.124C183.707 195.307 183.691 195.248 183.497 195.24H183.168C183.101 195.24 183.084 195.24 183.076 195.172V195.021C183.067 194.953 183.084 194.945 183.152 194.945L184.348 194.894C184.449 194.894 184.449 194.911 184.449 195.012L184.583 198.061H184.609C184.861 197.548 185.232 197.185 185.754 197.16C186.546 197.126 187.312 197.96 187.397 199.889C187.472 201.633 186.891 202.896 185.763 202.947L185.746 202.93ZM185.468 197.691C185.021 197.708 184.769 198.112 184.6 198.659L184.743 201.995C184.929 202.323 185.257 202.551 185.636 202.534C186.445 202.5 186.58 201.456 186.512 200.015C186.445 198.39 186.083 197.666 185.468 197.691Z" fill="#1D0803"/>
<path d="M187.928 202.694C187.861 202.694 187.844 202.694 187.835 202.627V202.475C187.827 202.408 187.844 202.399 187.911 202.399L188.24 202.374C188.442 202.357 188.45 202.29 188.417 201.473L188.282 198.39C188.248 197.573 188.231 197.505 188.029 197.514H187.701C187.633 197.514 187.616 197.497 187.608 197.438V197.286C187.6 197.219 187.616 197.211 187.684 197.211L188.88 197.16C188.964 197.16 188.981 197.177 188.981 197.278L189.166 201.447C189.2 202.264 189.217 202.332 189.419 202.332H189.747C189.815 202.332 189.832 202.332 189.84 202.399V202.551C189.848 202.618 189.832 202.627 189.764 202.627L187.936 202.711L187.928 202.694ZM188.543 195.652C188.231 195.669 188.021 195.442 188.012 195.13C187.995 194.827 188.206 194.574 188.501 194.557C188.779 194.549 189.006 194.785 189.023 195.08C189.04 195.391 188.829 195.636 188.551 195.652H188.543Z" fill="#1D0803"/>
<path d="M190.168 202.592C190.101 202.592 190.084 202.592 190.075 202.524V202.373C190.067 202.305 190.084 202.297 190.151 202.297L190.48 202.272C190.682 202.255 190.69 202.187 190.656 201.37L190.412 195.828C190.378 195.011 190.362 194.952 190.159 194.944H189.831C189.764 194.944 189.747 194.944 189.738 194.876V194.725C189.73 194.657 189.747 194.649 189.814 194.649L191.01 194.598C191.094 194.598 191.111 194.615 191.111 194.716L191.406 201.345C191.44 202.162 191.457 202.229 191.659 202.229H191.987C192.055 202.229 192.071 202.229 192.08 202.297V202.448C192.088 202.516 192.071 202.524 192.004 202.524L190.176 202.608L190.168 202.592Z" fill="#1D0803"/>
<path d="M192.409 202.491C192.341 202.491 192.324 202.491 192.316 202.424V202.272C192.307 202.205 192.324 202.197 192.392 202.197L192.72 202.171C192.922 202.154 192.931 202.087 192.897 201.27L192.653 195.728C192.619 194.911 192.602 194.852 192.4 194.843H192.072C192.004 194.843 191.987 194.843 191.979 194.776V194.624C191.971 194.557 191.987 194.549 192.055 194.549L193.251 194.498C193.335 194.498 193.352 194.515 193.352 194.616L193.647 201.245C193.68 202.062 193.697 202.129 193.899 202.129H194.228C194.295 202.129 194.312 202.129 194.32 202.197V202.348C194.329 202.416 194.312 202.424 194.245 202.424L192.417 202.508L192.409 202.491Z" fill="#1D0803"/>
<path d="M196.526 202.458C195.33 202.509 194.623 201.498 194.547 199.746C194.48 198.146 195.035 196.739 196.206 196.689C196.998 196.655 197.756 197.321 197.823 198.811V198.896C197.84 199.174 197.756 199.266 197.411 199.283L195.372 199.376V199.603C195.457 201.254 195.878 201.962 196.678 201.928C197.251 201.903 197.537 201.456 197.588 200.648C197.596 200.597 197.604 200.546 197.672 200.555L197.807 200.572C197.882 200.572 197.891 200.614 197.891 200.673C197.857 201.641 197.478 202.416 196.535 202.458H196.526ZM196.147 197.043C195.499 197.068 195.305 197.885 195.356 199.022L196.493 198.971C196.897 198.955 196.998 198.854 196.981 198.517C196.939 197.506 196.644 197.017 196.147 197.034V197.043Z" fill="#1D0803"/>
<path d="M199.845 202.306C199.289 202.332 198.817 201.818 198.767 200.773L198.607 197.101L198.076 197.126C198 197.126 197.975 197.126 197.975 197.059V196.899C197.967 196.831 197.984 196.831 198.051 196.823L198.59 196.73L198.539 195.652C198.539 195.585 198.539 195.568 198.598 195.517C198.767 195.349 198.961 195.147 199.095 194.928C199.129 194.86 199.137 194.844 199.18 194.835H199.213C199.213 194.835 199.272 194.835 199.272 194.903L199.348 196.688L200.216 196.655C200.291 196.655 200.317 196.655 200.317 196.722V196.932C200.334 197.008 200.308 197.017 200.241 197.025L199.365 197.067L199.533 200.874C199.559 201.506 199.66 201.851 200.022 201.835C200.249 201.826 200.367 201.616 200.384 201.161C200.384 201.093 200.409 201.06 200.477 201.06L200.611 201.077C200.687 201.077 200.704 201.119 200.696 201.178C200.67 201.91 200.308 202.289 199.853 202.315L199.845 202.306Z" fill="#1D0803"/>
</g>
<defs>
<filter id="filter0_d_531_3786" x="0" y="0" width="271" height="271" filterUnits="userSpaceOnUse" color-interpolation-filters="sRGB">
<feFlood flood-opacity="0" result="BackgroundImageFix"/>
<feColorMatrix in="SourceAlpha" type="matrix" values="0 0 0 0 0 0 0 0 0 0 0 0 0 0 0 0 0 0 127 0" result="hardAlpha"/>
<feOffset dx="-2" dy="2"/>
<feGaussianBlur stdDeviation="5"/>
<feComposite in2="hardAlpha" operator="out"/>
<feColorMatrix type="matrix" values="0 0 0 0 0 0 0 0 0 0 0 0 0 0 0 0 0 0 0.25 0"/>
<feBlend mode="normal" in2="BackgroundImageFix" result="effect1_dropShadow_531_3786"/>
<feBlend mode="normal" in="SourceGraphic" in2="effect1_dropShadow_531_3786" result="shape"/>
</filter>
<filter id="filter1_d_531_3786" x="122.204" y="44.2467" width="85.4403" height="41.6255" filterUnits="userSpaceOnUse" color-interpolation-filters="sRGB">
<feFlood flood-opacity="0" result="BackgroundImageFix"/>
<feColorMatrix in="SourceAlpha" type="matrix" values="0 0 0 0 0 0 0 0 0 0 0 0 0 0 0 0 0 0 127 0" result="hardAlpha"/>
<feOffset dx="-2" dy="1"/>
<feGaussianBlur stdDeviation="6"/>
<feColorMatrix type="matrix" values="0 0 0 0 0 0 0 0 0 0 0 0 0 0 0 0 0 0 0.1 0"/>
<feBlend mode="normal" in2="BackgroundImageFix" result="effect1_dropShadow_531_3786"/>
<feBlend mode="normal" in="SourceGraphic" in2="effect1_dropShadow_531_3786" result="shape"/>
</filter>
<filter id="filter2_d_531_3786" x="122.204" y="61.8722" width="59.6791" height="78.4366" filterUnits="userSpaceOnUse" color-interpolation-filters="sRGB">
<feFlood flood-opacity="0" result="BackgroundImageFix"/>
<feColorMatrix in="SourceAlpha" type="matrix" values="0 0 0 0 0 0 0 0 0 0 0 0 0 0 0 0 0 0 127 0" result="hardAlpha"/>
<feOffset dx="-2" dy="1"/>
<feGaussianBlur stdDeviation="6"/>
<feColorMatrix type="matrix" values="0 0 0 0 0 0 0 0 0 0 0 0 0 0 0 0 0 0 0.1 0"/>
<feBlend mode="normal" in2="BackgroundImageFix" result="effect1_dropShadow_531_3786"/>
<feBlend mode="normal" in="SourceGraphic" in2="effect1_dropShadow_531_3786" result="shape"/>
</filter>
<filter id="filter3_d_531_3786" x="157.882" y="61.8722" width="49.6138" height="78.4366" filterUnits="userSpaceOnUse" color-interpolation-filters="sRGB">
<feFlood flood-opacity="0" result="BackgroundImageFix"/>
<feColorMatrix in="SourceAlpha" type="matrix" values="0 0 0 0 0 0 0 0 0 0 0 0 0 0 0 0 0 0 127 0" result="hardAlpha"/>
<feOffset dx="-2" dy="1"/>
<feGaussianBlur stdDeviation="6"/>
<feColorMatrix type="matrix" values="0 0 0 0 0 0 0 0 0 0 0 0 0 0 0 0 0 0 0.1 0"/>
<feBlend mode="normal" in2="BackgroundImageFix" result="effect1_dropShadow_531_3786"/>
<feBlend mode="normal" in="SourceGraphic" in2="effect1_dropShadow_531_3786" result="shape"/>
</filter>
<filter id="filter4_d_531_3786" x="160.628" y="61.8722" width="28.1188" height="78.4366" filterUnits="userSpaceOnUse" color-interpolation-filters="sRGB">
<feFlood flood-opacity="0" result="BackgroundImageFix"/>
<feColorMatrix in="SourceAlpha" type="matrix" values="0 0 0 0 0 0 0 0 0 0 0 0 0 0 0 0 0 0 127 0" result="hardAlpha"/>
<feOffset dx="-2" dy="1"/>
<feGaussianBlur stdDeviation="6"/>
<feColorMatrix type="matrix" values="0 0 0 0 0 0 0 0 0 0 0 0 0 0 0 0 0 0 0.1 0"/>
<feBlend mode="normal" in2="BackgroundImageFix" result="effect1_dropShadow_531_3786"/>
<feBlend mode="normal" in="SourceGraphic" in2="effect1_dropShadow_531_3786" result="shape"/>
</filter>
<filter id="filter5_d_531_3786" x="169.32" y="61.8722" width="35.8931" height="78.4366" filterUnits="userSpaceOnUse" color-interpolation-filters="sRGB">
<feFlood flood-opacity="0" result="BackgroundImageFix"/>
<feColorMatrix in="SourceAlpha" type="matrix" values="0 0 0 0 0 0 0 0 0 0 0 0 0 0 0 0 0 0 127 0" result="hardAlpha"/>
<feOffset dx="-2" dy="1"/>
<feGaussianBlur stdDeviation="6"/>
<feColorMatrix type="matrix" values="0 0 0 0 0 0 0 0 0 0 0 0 0 0 0 0 0 0 0.1 0"/>
<feBlend mode="normal" in2="BackgroundImageFix" result="effect1_dropShadow_531_3786"/>
<feBlend mode="normal" in="SourceGraphic" in2="effect1_dropShadow_531_3786" result="shape"/>
</filter>
<filter id="filter6_d_531_3786" x="165.657" y="61.8722" width="31.7827" height="78.4366" filterUnits="userSpaceOnUse" color-interpolation-filters="sRGB">
<feFlood flood-opacity="0" result="BackgroundImageFix"/>
<feColorMatrix in="SourceAlpha" type="matrix" values="0 0 0 0 0 0 0 0 0 0 0 0 0 0 0 0 0 0 127 0" result="hardAlpha"/>
<feOffset dx="-2" dy="1"/>
<feGaussianBlur stdDeviation="6"/>
<feColorMatrix type="matrix" values="0 0 0 0 0 0 0 0 0 0 0 0 0 0 0 0 0 0 0.1 0"/>
<feBlend mode="normal" in2="BackgroundImageFix" result="effect1_dropShadow_531_3786"/>
<feBlend mode="normal" in="SourceGraphic" in2="effect1_dropShadow_531_3786" result="shape"/>
</filter>
<filter id="filter7_d_531_3786" x="146.906" y="61.8722" width="31.3195" height="78.4366" filterUnits="userSpaceOnUse" color-interpolation-filters="sRGB">
<feFlood flood-opacity="0" result="BackgroundImageFix"/>
<feColorMatrix in="SourceAlpha" type="matrix" values="0 0 0 0 0 0 0 0 0 0 0 0 0 0 0 0 0 0 127 0" result="hardAlpha"/>
<feOffset dx="-2" dy="1"/>
<feGaussianBlur stdDeviation="6"/>
<feColorMatrix type="matrix" values="0 0 0 0 0 0 0 0 0 0 0 0 0 0 0 0 0 0 0.1 0"/>
<feBlend mode="normal" in2="BackgroundImageFix" result="effect1_dropShadow_531_3786"/>
<feBlend mode="normal" in="SourceGraphic" in2="effect1_dropShadow_531_3786" result="shape"/>
</filter>
<filter id="filter8_d_531_3786" x="124.949" y="61.8722" width="40.0033" height="78.4366" filterUnits="userSpaceOnUse" color-interpolation-filters="sRGB">
<feFlood flood-opacity="0" result="BackgroundImageFix"/>
<feColorMatrix in="SourceAlpha" type="matrix" values="0 0 0 0 0 0 0 0 0 0 0 0 0 0 0 0 0 0 127 0" result="hardAlpha"/>
<feOffset dx="-2" dy="1"/>
<feGaussianBlur stdDeviation="6"/>
<feColorMatrix type="matrix" values="0 0 0 0 0 0 0 0 0 0 0 0 0 0 0 0 0 0 0.1 0"/>
<feBlend mode="normal" in2="BackgroundImageFix" result="effect1_dropShadow_531_3786"/>
<feBlend mode="normal" in="SourceGraphic" in2="effect1_dropShadow_531_3786" result="shape"/>
</filter>
<filter id="filter9_d_531_3786" x="135.006" y="61.8722" width="35.9015" height="78.4366" filterUnits="userSpaceOnUse" color-interpolation-filters="sRGB">
<feFlood flood-opacity="0" result="BackgroundImageFix"/>
<feColorMatrix in="SourceAlpha" type="matrix" values="0 0 0 0 0 0 0 0 0 0 0 0 0 0 0 0 0 0 127 0" result="hardAlpha"/>
<feOffset dx="-2" dy="1"/>
<feGaussianBlur stdDeviation="6"/>
<feColorMatrix type="matrix" values="0 0 0 0 0 0 0 0 0 0 0 0 0 0 0 0 0 0 0.1 0"/>
<feBlend mode="normal" in2="BackgroundImageFix" result="effect1_dropShadow_531_3786"/>
<feBlend mode="normal" in="SourceGraphic" in2="effect1_dropShadow_531_3786" result="shape"/>
</filter>
<filter id="filter10_d_531_3786" x="183.753" y="35.8396" width="59.4525" height="108.415" filterUnits="userSpaceOnUse" color-interpolation-filters="sRGB">
<feFlood flood-opacity="0" result="BackgroundImageFix"/>
<feColorMatrix in="SourceAlpha" type="matrix" values="0 0 0 0 0 0 0 0 0 0 0 0 0 0 0 0 0 0 127 0" result="hardAlpha"/>
<feOffset dx="-2" dy="2"/>
<feGaussianBlur stdDeviation="5"/>
<feColorMatrix type="matrix" values="0 0 0 0 0 0 0 0 0 0 0 0 0 0 0 0 0 0 0.08 0"/>
<feBlend mode="normal" in2="BackgroundImageFix" result="effect1_dropShadow_531_3786"/>
<feBlend mode="normal" in="SourceGraphic" in2="effect1_dropShadow_531_3786" result="shape"/>
</filter>
<filter id="filter11_d_531_3786" x="36.3913" y="75.7665" width="87.5827" height="42.2308" filterUnits="userSpaceOnUse" color-interpolation-filters="sRGB">
<feFlood flood-opacity="0" result="BackgroundImageFix"/>
<feColorMatrix in="SourceAlpha" type="matrix" values="0 0 0 0 0 0 0 0 0 0 0 0 0 0 0 0 0 0 127 0" result="hardAlpha"/>
<feOffset dx="-2" dy="1"/>
<feGaussianBlur stdDeviation="6"/>
<feColorMatrix type="matrix" values="0 0 0 0 0 0 0 0 0 0 0 0 0 0 0 0 0 0 0.1 0"/>
<feBlend mode="normal" in2="BackgroundImageFix" result="effect1_dropShadow_531_3786"/>
<feBlend mode="normal" in="SourceGraphic" in2="effect1_dropShadow_531_3786" result="shape"/>
</filter>
<filter id="filter12_d_531_3786" x="36.3995" y="93.9973" width="60.9172" height="80.3234" filterUnits="userSpaceOnUse" color-interpolation-filters="sRGB">
<feFlood flood-opacity="0" result="BackgroundImageFix"/>
<feColorMatrix in="SourceAlpha" type="matrix" values="0 0 0 0 0 0 0 0 0 0 0 0 0 0 0 0 0 0 127 0" result="hardAlpha"/>
<feOffset dx="-2" dy="1"/>
<feGaussianBlur stdDeviation="6"/>
<feColorMatrix type="matrix" values="0 0 0 0 0 0 0 0 0 0 0 0 0 0 0 0 0 0 0.1 0"/>
<feBlend mode="normal" in2="BackgroundImageFix" result="effect1_dropShadow_531_3786"/>
<feBlend mode="normal" in="SourceGraphic" in2="effect1_dropShadow_531_3786" result="shape"/>
</filter>
<filter id="filter13_d_531_3786" x="73.3168" y="93.9973" width="50.5066" height="80.3234" filterUnits="userSpaceOnUse" color-interpolation-filters="sRGB">
<feFlood flood-opacity="0" result="BackgroundImageFix"/>
<feColorMatrix in="SourceAlpha" type="matrix" values="0 0 0 0 0 0 0 0 0 0 0 0 0 0 0 0 0 0 127 0" result="hardAlpha"/>
<feOffset dx="-2" dy="1"/>
<feGaussianBlur stdDeviation="6"/>
<feColorMatrix type="matrix" values="0 0 0 0 0 0 0 0 0 0 0 0 0 0 0 0 0 0 0.1 0"/>
<feBlend mode="normal" in2="BackgroundImageFix" result="effect1_dropShadow_531_3786"/>
<feBlend mode="normal" in="SourceGraphic" in2="effect1_dropShadow_531_3786" result="shape"/>
</filter>
<filter id="filter14_d_531_3786" x="76.1545" y="93.9973" width="28.262" height="80.3234" filterUnits="userSpaceOnUse" color-interpolation-filters="sRGB">
<feFlood flood-opacity="0" result="BackgroundImageFix"/>
<feColorMatrix in="SourceAlpha" type="matrix" values="0 0 0 0 0 0 0 0 0 0 0 0 0 0 0 0 0 0 127 0" result="hardAlpha"/>
<feOffset dx="-2" dy="1"/>
<feGaussianBlur stdDeviation="6"/>
<feColorMatrix type="matrix" values="0 0 0 0 0 0 0 0 0 0 0 0 0 0 0 0 0 0 0.1 0"/>
<feBlend mode="normal" in2="BackgroundImageFix" result="effect1_dropShadow_531_3786"/>
<feBlend mode="normal" in="SourceGraphic" in2="effect1_dropShadow_531_3786" result="shape"/>
</filter>
<filter id="filter15_d_531_3786" x="85.1515" y="93.9973" width="36.3058" height="80.3234" filterUnits="userSpaceOnUse" color-interpolation-filters="sRGB">
<feFlood flood-opacity="0" result="BackgroundImageFix"/>
<feColorMatrix in="SourceAlpha" type="matrix" values="0 0 0 0 0 0 0 0 0 0 0 0 0 0 0 0 0 0 127 0" result="hardAlpha"/>
<feOffset dx="-2" dy="1"/>
<feGaussianBlur stdDeviation="6"/>
<feColorMatrix type="matrix" values="0 0 0 0 0 0 0 0 0 0 0 0 0 0 0 0 0 0 0.1 0"/>
<feBlend mode="normal" in2="BackgroundImageFix" result="effect1_dropShadow_531_3786"/>
<feBlend mode="normal" in="SourceGraphic" in2="effect1_dropShadow_531_3786" result="shape"/>
</filter>
<filter id="filter16_d_531_3786" x="81.3612" y="93.9973" width="32.0438" height="80.3234" filterUnits="userSpaceOnUse" color-interpolation-filters="sRGB">
<feFlood flood-opacity="0" result="BackgroundImageFix"/>
<feColorMatrix in="SourceAlpha" type="matrix" values="0 0 0 0 0 0 0 0 0 0 0 0 0 0 0 0 0 0 127 0" result="hardAlpha"/>
<feOffset dx="-2" dy="1"/>
<feGaussianBlur stdDeviation="6"/>
<feColorMatrix type="matrix" values="0 0 0 0 0 0 0 0 0 0 0 0 0 0 0 0 0 0 0.1 0"/>
<feBlend mode="normal" in2="BackgroundImageFix" result="effect1_dropShadow_531_3786"/>
<feBlend mode="normal" in="SourceGraphic" in2="effect1_dropShadow_531_3786" result="shape"/>
</filter>
<filter id="filter17_d_531_3786" x="61.9542" y="93.9973" width="31.5721" height="80.3234" filterUnits="userSpaceOnUse" color-interpolation-filters="sRGB">
<feFlood flood-opacity="0" result="BackgroundImageFix"/>
<feColorMatrix in="SourceAlpha" type="matrix" values="0 0 0 0 0 0 0 0 0 0 0 0 0 0 0 0 0 0 127 0" result="hardAlpha"/>
<feOffset dx="-2" dy="1"/>
<feGaussianBlur stdDeviation="6"/>
<feColorMatrix type="matrix" values="0 0 0 0 0 0 0 0 0 0 0 0 0 0 0 0 0 0 0.1 0"/>
<feBlend mode="normal" in2="BackgroundImageFix" result="effect1_dropShadow_531_3786"/>
<feBlend mode="normal" in="SourceGraphic" in2="effect1_dropShadow_531_3786" result="shape"/>
</filter>
<filter id="filter18_d_531_3786" x="39.2389" y="93.9973" width="40.5677" height="80.3234" filterUnits="userSpaceOnUse" color-interpolation-filters="sRGB">
<feFlood flood-opacity="0" result="BackgroundImageFix"/>
<feColorMatrix in="SourceAlpha" type="matrix" values="0 0 0 0 0 0 0 0 0 0 0 0 0 0 0 0 0 0 127 0" result="hardAlpha"/>
<feOffset dx="-2" dy="1"/>
<feGaussianBlur stdDeviation="6"/>
<feColorMatrix type="matrix" values="0 0 0 0 0 0 0 0 0 0 0 0 0 0 0 0 0 0 0.1 0"/>
<feBlend mode="normal" in2="BackgroundImageFix" result="effect1_dropShadow_531_3786"/>
<feBlend mode="normal" in="SourceGraphic" in2="effect1_dropShadow_531_3786" result="shape"/>
</filter>
<filter id="filter19_d_531_3786" x="49.649" y="93.9973" width="36.3057" height="80.3234" filterUnits="userSpaceOnUse" color-interpolation-filters="sRGB">
<feFlood flood-opacity="0" result="BackgroundImageFix"/>
<feColorMatrix in="SourceAlpha" type="matrix" values="0 0 0 0 0 0 0 0 0 0 0 0 0 0 0 0 0 0 127 0" result="hardAlpha"/>
<feOffset dx="-2" dy="1"/>
<feGaussianBlur stdDeviation="6"/>
<feColorMatrix type="matrix" values="0 0 0 0 0 0 0 0 0 0 0 0 0 0 0 0 0 0 0.1 0"/>
<feBlend mode="normal" in2="BackgroundImageFix" result="effect1_dropShadow_531_3786"/>
<feBlend mode="normal" in="SourceGraphic" in2="effect1_dropShadow_531_3786" result="shape"/>
</filter>
<filter id="filter20_d_531_3786" x="100.012" y="66.9532" width="60.817" height="111.481" filterUnits="userSpaceOnUse" color-interpolation-filters="sRGB">
<feFlood flood-opacity="0" result="BackgroundImageFix"/>
<feColorMatrix in="SourceAlpha" type="matrix" values="0 0 0 0 0 0 0 0 0 0 0 0 0 0 0 0 0 0 127 0" result="hardAlpha"/>
<feOffset dx="-2" dy="2"/>
<feGaussianBlur stdDeviation="5"/>
<feColorMatrix type="matrix" values="0 0 0 0 0 0 0 0 0 0 0 0 0 0 0 0 0 0 0.08 0"/>
<feBlend mode="normal" in2="BackgroundImageFix" result="effect1_dropShadow_531_3786"/>
<feBlend mode="normal" in="SourceGraphic" in2="effect1_dropShadow_531_3786" result="shape"/>
</filter>
<filter id="filter21_d_531_3786" x="89.4004" y="127.252" width="109.787" height="92.4194" filterUnits="userSpaceOnUse" color-interpolation-filters="sRGB">
<feFlood flood-opacity="0" result="BackgroundImageFix"/>
<feColorMatrix in="SourceAlpha" type="matrix" values="0 0 0 0 0 0 0 0 0 0 0 0 0 0 0 0 0 0 127 0" result="hardAlpha"/>
<feOffset dx="-2" dy="2"/>
<feGaussianBlur stdDeviation="5"/>
<feColorMatrix type="matrix" values="0 0 0 0 0 0 0 0 0 0 0 0 0 0 0 0 0 0 0.08 0"/>
<feBlend mode="normal" in2="BackgroundImageFix" result="effect1_dropShadow_531_3786"/>
<feBlend mode="normal" in="SourceGraphic" in2="effect1_dropShadow_531_3786" result="shape"/>
</filter>
<filter id="filter22_d_531_3786" x="127.606" y="163.049" width="99.7893" height="73.4849" filterUnits="userSpaceOnUse" color-interpolation-filters="sRGB">
<feFlood flood-opacity="0" result="BackgroundImageFix"/>
<feColorMatrix in="SourceAlpha" type="matrix" values="0 0 0 0 0 0 0 0 0 0 0 0 0 0 0 0 0 0 127 0" result="hardAlpha"/>
<feOffset dx="-2" dy="2"/>
<feGaussianBlur stdDeviation="5"/>
<feColorMatrix type="matrix" values="0 0 0 0 0 0 0 0 0 0 0 0 0 0 0 0 0 0 0.08 0"/>
<feBlend mode="normal" in2="BackgroundImageFix" result="effect1_dropShadow_531_3786"/>
<feBlend mode="normal" in="SourceGraphic" in2="effect1_dropShadow_531_3786" result="shape"/>
</filter>
</defs>
</svg>
