<svg width="271" height="271" viewBox="0 0 271 271" fill="none" xmlns="http://www.w3.org/2000/svg">
<g filter="url(#filter0_d_531_3168)">
<path d="M242.785 259L39.7953 248.893L12 28.2148L263 8L242.785 259Z" fill="#B3D1CB"/>
</g>
<g filter="url(#filter1_d_531_3168)">
<path d="M166.071 169.442C162.862 142.413 154.768 115.915 151.567 88.8861C155.812 91.0929 164.606 94.9421 176.313 94.8916C187.726 94.841 197.353 91.1013 201.59 88.903C198.701 115.923 194.431 143.129 191.542 170.149" fill="#DB4726"/>
<path d="M151.027 88.3463L151.558 93.0631C151.558 93.0631 175.74 105.394 202.12 92.1787L203.198 86.7375L151.027 88.3463Z" fill="#F8E8CE"/>
<path d="M203.198 86.7298C203.198 87.9343 189.587 95.4474 175.774 95.439C161.96 95.4306 151.027 89.5431 151.027 88.347C151.027 87.151 164.1 82.8806 177.913 82.3837C192.956 81.8362 203.207 85.5338 203.207 86.7383L203.198 86.7298Z" fill="#FCF7ED"/>
<path d="M172.548 88.9026L173.634 74.2132L151.583 60.5935L157.454 51.9095L177.938 72.5876L177.922 88.911C177.922 88.911 175.765 91.0841 172.539 88.911L172.548 88.9026Z" fill="#DB4726"/>
</g>
<g filter="url(#filter2_d_531_3168)">
<path d="M95.4275 165.76C92.2184 138.731 84.1241 112.233 80.9234 85.2043C85.1685 87.4111 93.9619 91.2604 105.67 91.2098C117.083 91.1593 126.71 87.4195 130.947 85.2212C128.057 112.242 123.787 139.447 120.898 166.468" fill="#DB4726"/>
<path d="M80.3838 84.6564L80.9144 89.3731C80.9144 89.3731 105.096 101.704 131.477 88.4887L132.555 83.0476L80.3838 84.6564Z" fill="#F8E8CE"/>
<path d="M132.563 83.0481C132.563 84.2525 118.952 91.7657 105.138 91.7573C91.3164 91.7488 80.392 85.8613 80.392 84.6652C80.392 83.4692 93.4642 79.1988 107.278 78.7019C122.321 78.1544 132.571 81.852 132.571 83.0565L132.563 83.0481Z" fill="#FCF7ED"/>
<path d="M101.912 85.2208L102.999 70.5314L80.9481 56.9117L86.8188 48.2278L107.303 68.9058L107.286 85.2292C107.286 85.2292 105.13 87.4023 101.904 85.2292L101.912 85.2208Z" fill="#DB4726"/>
</g>
<g filter="url(#filter3_d_531_3168)">
<path d="M166.248 182.42L76.57 208.371L74.0768 203.031C74.0768 203.031 78.642 198.12 71.9796 196.293L68.9726 188.636C68.9726 188.636 73.7905 183.246 66.9427 180.896L64.517 174.595C64.517 174.595 69.3348 169.348 62.6724 168.11L60.2634 161.27L145.106 122.18L148.214 129.365C148.214 129.365 137.433 137.687 150.228 137.341L152.468 144.484C152.468 144.484 140.154 154.069 156.208 154.583L159.046 163.486C159.046 163.486 147.254 173.029 162.752 173.467L166.239 182.42H166.248Z" fill="#AF381D"/>
</g>
<path d="M151.877 180.103L80.6961 197.05L70.5551 167.41L137.239 133.727L151.877 180.103Z" fill="#FFF3DB"/>
<g filter="url(#filter4_d_531_3168)">
<path d="M199.331 229.166L106.15 224.837L105.467 218.966C105.467 218.966 111.338 215.782 105.61 211.899L105.172 203.67C105.172 203.67 111.439 200.116 105.686 195.677L105.375 188.93C105.375 188.93 111.591 185.51 105.678 182.192L105.552 174.931L198.295 165.245L198.969 173.061C198.969 173.061 186.124 177.475 198.363 181.274L198.236 188.77C198.236 188.77 183.547 193.883 198.598 199.543L198.48 208.892C198.48 208.892 184.296 214.14 198.843 219.547L199.323 229.157L199.331 229.166Z" fill="#AF381D"/>
</g>
<path d="M89.6497 179.783C89.1528 180.002 88.6643 179.927 88.1673 179.623H88.1589L88.0325 180.314C88.0157 180.407 87.9989 180.424 87.9652 180.44L87.8472 180.491C87.7799 180.525 87.7546 180.508 87.7209 180.432L84.5202 173.054C84.1328 172.161 84.0907 172.093 83.8717 172.178L83.5179 172.321C83.4505 172.355 83.4168 172.355 83.3916 172.279L83.3242 172.11C83.2905 172.043 83.3158 172.018 83.3831 171.984L84.6718 171.411C84.7813 171.361 84.7898 171.386 84.8319 171.495L86.2806 174.839H86.3059C86.3564 174.149 86.6175 173.584 87.1818 173.332C88.041 172.953 89.237 173.559 90.1551 175.665C90.9805 177.568 90.871 179.228 89.6581 179.775L89.6497 179.783ZM87.1145 174.064C86.6344 174.275 86.5249 174.831 86.567 175.513L88.1505 179.16C88.4958 179.438 88.9506 179.564 89.3633 179.379C90.2477 178.992 89.9445 177.779 89.2623 176.204C88.4874 174.427 87.7883 173.77 87.1145 174.064Z" fill="#1D0803"/>
<path d="M89.6332 170.475C89.2963 170.627 88.9678 170.459 88.8246 170.122C88.6814 169.793 88.7994 169.414 89.1194 169.279C89.4227 169.145 89.7764 169.313 89.9196 169.642C90.0712 169.987 89.9449 170.341 89.6416 170.484L89.6332 170.475ZM91.9579 178.578C91.8905 178.612 91.8568 178.603 91.8316 178.536L91.7642 178.368C91.7305 178.3 91.7473 178.275 91.8232 178.241L92.1685 178.073C92.3875 177.963 92.3706 177.888 91.9832 176.995L90.5176 173.617C90.1302 172.724 90.0881 172.657 89.8606 172.758L89.4985 172.893C89.4311 172.927 89.3974 172.927 89.3721 172.851L89.3047 172.682C89.271 172.615 89.2963 172.59 89.3637 172.556L90.6524 171.983C90.745 171.941 90.7703 171.958 90.8124 172.067L92.7918 176.633C93.1792 177.525 93.2213 177.593 93.4488 177.509L93.8025 177.365C93.8699 177.332 93.9036 177.332 93.9289 177.407L93.9962 177.576C94.0299 177.643 94.0047 177.669 93.9373 177.702L91.9579 178.578Z" fill="#1D0803"/>
<path d="M96.4299 176.776C95.1244 177.357 93.9621 176.498 93.1366 174.603C92.3028 172.674 92.4375 171.014 93.7515 170.433C95.057 169.852 96.2109 170.686 97.0364 172.581C97.8702 174.51 97.7355 176.203 96.4299 176.776ZM93.8947 170.812C93.0524 171.183 93.3219 172.43 94.0631 174.148C94.7538 175.748 95.4445 176.759 96.2952 176.388C97.129 176.018 96.8511 174.737 96.1099 173.036C95.4192 171.436 94.7201 170.45 93.8947 170.821V170.812Z" fill="#1D0803"/>
<path d="M101.813 177.012C100.954 177.391 99.8087 177.299 99.3791 176.296C99.1012 175.665 99.278 175.134 99.6149 174.612C99.1264 174.637 98.7811 174.41 98.5705 173.938C98.36 173.441 98.4442 173.028 98.7053 172.658C98.141 172.582 97.6019 172.119 97.2566 171.318C96.7428 170.139 96.9702 169.002 97.9893 168.556C98.2252 168.455 98.4947 168.387 98.7474 168.404L99.935 167.882C100.019 167.848 100.045 167.848 100.07 167.907L100.162 168.118C100.196 168.185 100.171 168.21 100.103 168.244L99.4633 168.581C99.7834 168.775 100.137 169.171 100.39 169.752C100.904 170.931 100.668 172.068 99.6486 172.523C99.4718 172.599 99.1854 172.674 99.0085 172.666C98.8401 172.893 98.8148 173.129 98.9411 173.416C99.1012 173.795 99.497 173.828 99.9434 173.66L100.836 173.306C101.746 172.944 102.504 173.171 102.9 174.09C103.422 175.302 102.925 176.532 101.822 177.021L101.813 177.012ZM98.1157 168.935C97.484 169.213 97.7198 170.089 98.082 170.914C98.4105 171.681 98.8906 172.439 99.5139 172.161C100.137 171.883 99.9013 170.981 99.5391 170.156C99.2107 169.39 98.739 168.657 98.1157 168.935ZM100.979 174.115L99.8508 174.586C99.7581 174.923 99.775 175.294 99.994 175.782C100.356 176.616 100.929 176.936 101.738 176.583C102.462 176.263 102.731 175.614 102.369 174.772C101.999 173.913 101.527 173.887 100.979 174.115Z" fill="#1D0803"/>
<path d="M103.076 173.652C103.009 173.686 102.975 173.686 102.95 173.61L102.882 173.441C102.849 173.374 102.866 173.349 102.941 173.315L103.287 173.147C103.506 173.037 103.489 172.961 103.101 172.068L101.67 168.758C101.248 167.79 101.131 167.764 100.912 167.849L100.625 167.958C100.558 167.992 100.524 167.992 100.499 167.916L100.431 167.748C100.398 167.68 100.423 167.655 100.49 167.621L101.703 167.082C101.813 167.032 101.821 167.057 101.863 167.166L102.259 168.084H102.284C102.217 167.276 102.386 166.602 102.899 166.366C103.371 166.156 103.86 166.543 104.095 167.082C104.255 167.444 104.146 167.68 103.851 167.806C103.531 167.95 103.287 167.857 103.16 167.579C103.076 167.394 103.042 167.166 103.042 166.956C102.984 166.956 102.958 166.956 102.941 166.973C102.546 167.15 102.529 167.832 102.571 168.565L103.918 171.681C104.306 172.574 104.348 172.641 104.575 172.557L105.089 172.346C105.157 172.313 105.19 172.321 105.216 172.388L105.283 172.557C105.317 172.624 105.291 172.65 105.224 172.683L103.085 173.627L103.076 173.652Z" fill="#1D0803"/>
<path d="M109.679 170.358C109.83 170.291 109.78 170.038 109.653 169.684C109.628 169.625 109.628 169.566 109.696 169.558L109.813 169.533C109.889 169.516 109.915 169.575 109.931 169.651C110.159 170.299 110.091 170.729 109.653 170.922C109.182 171.133 108.777 170.863 108.424 170.105H108.398C108.398 171.007 108.121 171.605 107.556 171.849C106.933 172.127 106.234 171.857 105.787 170.838C105.349 169.836 105.526 169.229 106.326 168.37C107.169 167.469 107.127 167.385 106.975 167.023L106.849 166.728C106.402 165.709 105.821 165.616 105.4 165.801C105.13 165.919 104.97 166.147 104.895 166.349C105.063 166.543 105.198 166.728 105.29 166.93C105.4 167.191 105.375 167.41 105.08 167.545C104.819 167.663 104.617 167.612 104.482 167.292C104.229 166.711 104.583 165.65 105.509 165.237C106.293 164.892 107.143 165.17 107.741 166.534L109.081 169.625C109.376 170.299 109.519 170.442 109.696 170.366L109.679 170.358ZM107.312 167.798C107.059 168.05 106.832 168.337 106.647 168.615C106.343 169.086 106.31 169.549 106.604 170.223C106.916 170.939 107.278 171.268 107.708 171.082C108.087 170.914 108.188 170.383 108.171 169.768L107.32 167.806L107.312 167.798Z" fill="#1D0803"/>
<path d="M110.53 170.349C110.462 170.383 110.429 170.383 110.403 170.307L110.336 170.139C110.302 170.071 110.319 170.046 110.395 170.012L110.74 169.844C110.951 169.743 110.926 169.667 110.538 168.766L108.685 164.478L108.112 164.731C108.045 164.765 108.011 164.765 107.986 164.689L107.91 164.512C107.876 164.445 107.902 164.42 107.961 164.377L108.508 164.066L108.306 163.594C107.742 162.289 107.961 161.093 108.887 160.68C109.477 160.419 110.109 160.697 110.361 161.278C110.496 161.581 110.395 161.783 110.142 161.893C109.847 162.019 109.645 161.918 109.544 161.665C109.46 161.463 109.426 161.227 109.401 161.008C109.3 160.966 109.199 160.983 109.081 161.042C108.508 161.295 108.55 161.893 108.946 162.794L109.334 163.687L110.269 163.274C110.353 163.24 110.37 163.24 110.395 163.316L110.496 163.552C110.53 163.636 110.521 163.653 110.454 163.678L109.502 164.099L111.355 168.387C111.743 169.279 111.785 169.347 112.004 169.263L112.534 169.044C112.602 169.01 112.635 169.018 112.661 169.086L112.728 169.254C112.762 169.322 112.745 169.347 112.669 169.381L110.521 170.332L110.53 170.349Z" fill="#1D0803"/>
<path d="M117.909 167.259C117.412 167.478 116.924 167.402 116.427 167.099H116.418L116.292 167.79C116.275 167.882 116.258 167.899 116.224 167.916L116.107 167.966C116.039 168 116.014 167.983 115.98 167.908L112.78 160.529C112.392 159.636 112.35 159.569 112.131 159.653L111.777 159.796C111.71 159.83 111.676 159.83 111.651 159.754L111.583 159.586C111.55 159.518 111.575 159.493 111.642 159.459L112.931 158.887C113.041 158.845 113.049 158.861 113.091 158.971L114.54 162.315H114.565C114.616 161.624 114.877 161.06 115.441 160.807C116.3 160.428 117.496 161.035 118.414 163.14C119.24 165.044 119.139 166.703 117.917 167.251L117.909 167.259ZM115.374 161.531C114.894 161.742 114.784 162.298 114.826 162.98L116.41 166.627C116.755 166.905 117.21 167.032 117.623 166.846C118.499 166.459 118.204 165.246 117.522 163.662C116.747 161.885 116.048 161.228 115.374 161.523V161.531Z" fill="#1D0803"/>
<path d="M117.892 157.952C117.556 158.103 117.227 157.935 117.084 157.598C116.941 157.269 117.059 156.89 117.379 156.755C117.682 156.621 118.036 156.789 118.179 157.118C118.33 157.463 118.204 157.817 117.901 157.96L117.892 157.952ZM120.217 166.054C120.15 166.088 120.116 166.08 120.091 166.012L120.023 165.844C119.99 165.776 120.007 165.751 120.082 165.717L120.428 165.549C120.647 165.439 120.63 165.364 120.242 164.471L118.777 161.093C118.389 160.2 118.347 160.133 118.12 160.234L117.758 160.369C117.69 160.403 117.657 160.403 117.631 160.327L117.564 160.158C117.53 160.091 117.556 160.066 117.623 160.032L118.912 159.459C119.004 159.417 119.03 159.434 119.072 159.543L121.051 164.109C121.438 165.001 121.481 165.069 121.708 164.985L122.062 164.841C122.129 164.808 122.163 164.808 122.188 164.884L122.255 165.052C122.289 165.119 122.264 165.145 122.196 165.178L120.217 166.054Z" fill="#1D0803"/>
<path d="M122.642 164.976C122.575 165.01 122.541 165.01 122.516 164.934L122.448 164.765C122.415 164.698 122.44 164.673 122.507 164.639L122.853 164.471C123.072 164.361 123.055 164.285 122.667 163.393L120.039 157.32C119.652 156.427 119.61 156.359 119.382 156.444L119.029 156.587C118.961 156.621 118.928 156.621 118.902 156.545L118.835 156.376C118.801 156.309 118.827 156.284 118.894 156.25L120.183 155.677C120.275 155.635 120.301 155.652 120.343 155.761L123.493 163.022C123.88 163.915 123.922 163.982 124.15 163.898L124.503 163.755C124.571 163.721 124.605 163.729 124.63 163.797L124.697 163.965C124.731 164.033 124.706 164.058 124.638 164.092L122.65 164.968L122.642 164.976Z" fill="#1D0803"/>
<path d="M125.077 163.898C125.009 163.932 124.976 163.924 124.95 163.856L124.883 163.688C124.849 163.62 124.866 163.595 124.942 163.561L125.287 163.393C125.506 163.284 125.49 163.208 125.102 162.315L122.474 156.242C122.087 155.349 122.045 155.282 121.817 155.366L121.463 155.509C121.396 155.543 121.362 155.543 121.337 155.467L121.27 155.299C121.236 155.231 121.261 155.206 121.329 155.172L122.617 154.6C122.71 154.557 122.735 154.574 122.777 154.684L125.927 161.944C126.315 162.837 126.357 162.904 126.584 162.82L126.938 162.677C127.006 162.643 127.039 162.643 127.065 162.719L127.132 162.888C127.166 162.955 127.14 162.98 127.073 163.014L125.085 163.89L125.077 163.898Z" fill="#1D0803"/>
<path d="M129.59 162.078C128.302 162.651 127.089 161.826 126.255 159.905C125.497 158.153 125.514 156.351 126.777 155.787C127.636 155.408 128.748 155.82 129.464 157.463L129.506 157.555C129.641 157.859 129.582 157.993 129.211 158.162L127.004 159.139L127.114 159.383C127.897 161.194 128.664 161.801 129.531 161.413C130.155 161.135 130.281 160.52 129.986 159.594C129.969 159.526 129.961 159.476 130.037 159.459L130.188 159.417C130.273 159.392 130.306 159.417 130.323 159.501C130.702 160.596 130.609 161.615 129.59 162.07V162.078ZM126.87 156.216C126.162 156.528 126.305 157.522 126.844 158.768L128.074 158.221C128.512 158.027 128.58 157.867 128.419 157.505C127.939 156.401 127.409 155.972 126.87 156.216Z" fill="#1D0803"/>
<path d="M133.188 160.487C132.589 160.757 131.84 160.386 131.343 159.241L129.599 155.215L129.027 155.467C128.942 155.501 128.917 155.501 128.883 155.434L128.808 155.257C128.774 155.189 128.808 155.173 128.867 155.13L129.423 154.802L128.909 153.623C128.875 153.555 128.883 153.522 128.917 153.446C129.027 153.185 129.161 152.873 129.212 152.57C129.212 152.486 129.212 152.452 129.262 152.435L129.296 152.418C129.296 152.418 129.364 152.401 129.389 152.477L130.24 154.431L131.183 154.019C131.267 153.985 131.292 153.985 131.326 154.052L131.427 154.288C131.461 154.372 131.444 154.389 131.377 154.423L130.425 154.844L132.227 159.013C132.531 159.704 132.783 160.041 133.171 159.873C133.415 159.763 133.457 159.477 133.28 158.963C133.263 158.887 133.272 158.845 133.339 158.811L133.491 158.769C133.575 158.735 133.609 158.769 133.625 158.853C133.912 159.679 133.676 160.26 133.179 160.479L133.188 160.487Z" fill="#1D0803"/>
<path d="M187.093 221.939L114.16 216.742L113.174 185.392L186.748 173.255L187.093 221.939Z" fill="#FFF3DB"/>
<path d="M128.884 204.352C128.345 204.377 127.915 204.116 127.561 203.661H127.545L127.182 204.251C127.132 204.327 127.107 204.344 127.073 204.344H126.947C126.871 204.344 126.854 204.327 126.854 204.251L126.542 196.199C126.509 195.222 126.492 195.146 126.256 195.146H125.868C125.793 195.146 125.767 195.146 125.759 195.062V194.885C125.751 194.809 125.776 194.792 125.852 194.792L127.258 194.733C127.376 194.733 127.376 194.759 127.376 194.868L127.519 198.515H127.545C127.839 197.9 128.286 197.471 128.901 197.445C129.836 197.412 130.737 198.414 130.821 200.713C130.905 202.794 130.198 204.302 128.867 204.352H128.884ZM128.589 198.086C128.067 198.111 127.764 198.583 127.553 199.231L127.705 203.215C127.924 203.603 128.311 203.889 128.757 203.872C129.718 203.838 129.878 202.592 129.81 200.874C129.735 198.936 129.313 198.06 128.589 198.094V198.086Z" fill="#1D0803"/>
<path d="M131.461 204.084C131.385 204.084 131.36 204.075 131.351 203.999V203.822C131.343 203.747 131.368 203.73 131.444 203.73L131.831 203.705C132.076 203.679 132.084 203.603 132.05 202.626L131.907 198.937C131.873 197.96 131.857 197.884 131.612 197.893H131.225C131.149 197.893 131.124 197.876 131.115 197.8V197.623C131.107 197.547 131.132 197.531 131.208 197.531L132.615 197.472C132.716 197.472 132.732 197.488 132.732 197.606L132.926 202.593C132.96 203.57 132.977 203.646 133.221 203.646H133.608C133.684 203.646 133.71 203.646 133.718 203.73V203.907C133.726 203.982 133.701 203.999 133.625 203.999L131.461 204.084ZM132.227 195.686C131.857 195.703 131.612 195.425 131.595 195.054C131.579 194.692 131.823 194.389 132.177 194.372C132.514 194.355 132.775 194.642 132.791 195.004C132.808 195.374 132.564 195.669 132.227 195.686Z" fill="#1D0803"/>
<path d="M136.287 204.067C134.863 204.126 134.088 202.896 134.004 200.824C133.92 198.718 134.644 197.227 136.085 197.168C137.508 197.109 138.283 198.314 138.367 200.386C138.451 202.492 137.71 204.016 136.287 204.067ZM136.076 197.581C135.15 197.615 134.956 198.87 135.032 200.748C135.099 202.492 135.377 203.696 136.295 203.654C137.205 203.62 137.415 202.323 137.34 200.462C137.272 198.718 136.986 197.547 136.076 197.581Z" fill="#1D0803"/>
<path d="M141.207 206.273C140.272 206.307 139.236 205.793 139.194 204.707C139.168 204.016 139.522 203.586 140.019 203.224C139.547 203.064 139.303 202.727 139.286 202.213C139.269 201.674 139.497 201.321 139.867 201.068C139.37 200.79 139.034 200.158 139 199.291C138.949 198.01 139.564 197.033 140.684 196.991C140.937 196.983 141.215 197.025 141.451 197.126L142.748 197.076C142.841 197.076 142.866 197.076 142.866 197.143V197.379C142.874 197.455 142.849 197.471 142.773 197.471L142.057 197.547C142.285 197.842 142.47 198.339 142.495 198.979C142.546 200.268 141.914 201.236 140.802 201.287C140.609 201.287 140.314 201.253 140.154 201.186C139.918 201.337 139.808 201.548 139.817 201.851C139.834 202.264 140.188 202.441 140.659 202.449H141.619C142.596 202.449 143.22 202.938 143.253 203.94C143.304 205.262 142.394 206.223 141.19 206.273H141.207ZM140.684 197.379C139.994 197.404 139.901 198.314 139.935 199.206C139.969 200.04 140.145 200.925 140.819 200.899C141.501 200.874 141.603 199.939 141.569 199.046C141.535 198.213 141.367 197.353 140.684 197.387V197.379ZM141.476 203.266L140.255 203.292C140.044 203.57 139.935 203.923 139.952 204.462C139.985 205.372 140.407 205.886 141.291 205.852C142.083 205.818 142.563 205.313 142.529 204.403C142.495 203.468 142.066 203.266 141.476 203.275V203.266Z" fill="#1D0803"/>
<path d="M143.59 203.611C143.514 203.611 143.489 203.602 143.48 203.527V203.35C143.472 203.274 143.497 203.257 143.573 203.257L143.96 203.232C144.205 203.207 144.213 203.131 144.179 202.154L144.045 198.54C144.003 197.487 143.902 197.412 143.666 197.412H143.354C143.278 197.412 143.253 197.403 143.245 197.327V197.151C143.236 197.075 143.261 197.058 143.337 197.058L144.66 197.007C144.777 197.007 144.777 197.033 144.777 197.142L144.82 198.144H144.845C145.072 197.378 145.477 196.805 146.041 196.788C146.555 196.772 146.866 197.311 146.892 197.9C146.908 198.296 146.723 198.473 146.403 198.49C146.058 198.507 145.856 198.33 145.847 198.027C145.847 197.824 145.881 197.597 145.965 197.403C145.915 197.378 145.889 197.378 145.864 197.378C145.426 197.395 145.173 198.018 144.938 198.726L145.072 202.128C145.106 203.105 145.123 203.181 145.367 203.181H145.915C145.99 203.173 146.016 203.181 146.016 203.257V203.434C146.024 203.51 145.999 203.527 145.923 203.527L143.59 203.619V203.611Z" fill="#1D0803"/>
<path d="M150.934 202.988C151.102 202.988 151.145 202.718 151.153 202.348C151.153 202.28 151.178 202.23 151.237 202.238L151.355 202.255C151.431 202.264 151.431 202.331 151.422 202.407C151.397 203.089 151.178 203.468 150.707 203.493C150.193 203.51 149.906 203.114 149.847 202.28H149.822C149.494 203.106 149.022 203.561 148.407 203.586C147.725 203.611 147.169 203.106 147.127 201.994C147.085 200.899 147.464 200.402 148.525 199.897C149.637 199.366 149.628 199.273 149.612 198.878V198.558C149.553 197.437 149.047 197.142 148.584 197.159C148.289 197.168 148.062 197.319 147.919 197.479C148.003 197.724 148.062 197.951 148.07 198.17C148.079 198.448 147.969 198.65 147.649 198.659C147.371 198.667 147.194 198.549 147.186 198.204C147.161 197.572 147.876 196.713 148.887 196.671C149.746 196.637 150.437 197.218 150.496 198.701L150.622 202.078C150.648 202.811 150.732 202.996 150.926 202.996L150.934 202.988ZM149.654 199.728C149.325 199.871 149.014 200.048 148.736 200.242C148.289 200.571 148.087 200.983 148.112 201.716C148.146 202.499 148.365 202.937 148.828 202.921C149.241 202.904 149.527 202.44 149.738 201.868L149.654 199.72V199.728Z" fill="#1D0803"/>
<path d="M151.726 203.291C151.651 203.291 151.625 203.283 151.617 203.207V203.03C151.608 202.954 151.634 202.938 151.71 202.938L152.097 202.912C152.324 202.887 152.341 202.811 152.299 201.834L152.122 197.159L151.491 197.185C151.415 197.185 151.389 197.176 151.381 197.101V196.907C151.373 196.831 151.398 196.814 151.474 196.797L152.097 196.705L152.08 196.191C152.03 194.767 152.661 193.731 153.681 193.698C154.321 193.672 154.818 194.169 154.843 194.793C154.86 195.13 154.691 195.273 154.413 195.281C154.093 195.29 153.942 195.121 153.933 194.852C153.933 194.633 153.984 194.397 154.034 194.195C153.958 194.119 153.849 194.094 153.723 194.102C153.091 194.127 152.922 194.7 152.965 195.685L152.998 196.663L154.026 196.62C154.118 196.62 154.127 196.62 154.135 196.705V196.957C154.152 197.05 154.135 197.058 154.06 197.067L153.024 197.109L153.2 201.784C153.234 202.761 153.251 202.836 153.487 202.836H154.068C154.144 202.828 154.169 202.836 154.177 202.912V203.089C154.186 203.165 154.161 203.182 154.085 203.182L151.743 203.274L151.726 203.291Z" fill="#1D0803"/>
<path d="M159.711 203.14C159.172 203.165 158.742 202.904 158.389 202.449H158.372L158.01 203.039C157.959 203.114 157.934 203.131 157.9 203.131H157.774C157.698 203.131 157.681 203.114 157.681 203.039L157.369 194.986C157.336 194.009 157.319 193.933 157.083 193.933H156.696C156.62 193.933 156.595 193.933 156.586 193.849V193.672C156.578 193.597 156.603 193.58 156.679 193.58L158.085 193.521C158.203 193.521 158.203 193.546 158.203 193.656L158.347 197.303H158.372C158.667 196.688 159.113 196.258 159.728 196.233C160.663 196.199 161.564 197.202 161.648 199.501C161.724 201.581 161.025 203.089 159.694 203.14H159.711ZM159.425 196.881C158.902 196.898 158.599 197.378 158.389 198.027L158.54 202.011C158.759 202.398 159.147 202.685 159.593 202.668C160.553 202.634 160.713 201.388 160.646 199.669C160.57 197.732 160.149 196.856 159.425 196.89V196.881Z" fill="#1D0803"/>
<path d="M162.296 202.871C162.22 202.871 162.195 202.862 162.187 202.786V202.61C162.178 202.534 162.203 202.517 162.279 202.517L162.667 202.492C162.911 202.466 162.919 202.391 162.886 201.413L162.743 197.724C162.709 196.747 162.692 196.671 162.448 196.68H162.06C161.984 196.68 161.959 196.663 161.951 196.587V196.41C161.942 196.335 161.968 196.318 162.043 196.318L163.45 196.259C163.551 196.259 163.568 196.284 163.568 196.393L163.762 201.38C163.795 202.357 163.812 202.433 164.056 202.433H164.444C164.52 202.433 164.545 202.433 164.553 202.517V202.694C164.562 202.77 164.537 202.786 164.461 202.786L162.296 202.871ZM163.063 194.473C162.692 194.49 162.448 194.212 162.439 193.841C162.422 193.479 162.667 193.176 163.012 193.159C163.349 193.151 163.61 193.429 163.627 193.791C163.644 194.161 163.399 194.456 163.063 194.473Z" fill="#1D0803"/>
<path d="M164.942 202.77C164.866 202.77 164.841 202.761 164.833 202.685V202.509C164.824 202.433 164.85 202.416 164.925 202.416L165.313 202.391C165.557 202.365 165.566 202.29 165.532 201.312L165.279 194.684C165.246 193.707 165.229 193.631 164.984 193.631H164.597C164.521 193.631 164.496 193.631 164.487 193.547V193.37C164.479 193.294 164.504 193.277 164.58 193.277L165.987 193.218C166.088 193.218 166.105 193.243 166.105 193.353L166.408 201.279C166.442 202.256 166.458 202.332 166.703 202.332H167.09C167.166 202.332 167.191 202.332 167.2 202.416V202.593C167.208 202.669 167.183 202.685 167.107 202.685L164.942 202.77Z" fill="#1D0803"/>
<path d="M167.594 202.668C167.518 202.668 167.493 202.659 167.485 202.583V202.406C167.476 202.331 167.502 202.314 167.577 202.314L167.965 202.289C168.209 202.263 168.217 202.187 168.184 201.21L167.931 194.582C167.897 193.605 167.881 193.529 167.636 193.529H167.249C167.173 193.529 167.148 193.529 167.139 193.445V193.268C167.131 193.192 167.156 193.175 167.232 193.175L168.639 193.116C168.74 193.116 168.757 193.141 168.757 193.251L169.06 201.177C169.093 202.154 169.11 202.23 169.355 202.23H169.742C169.818 202.23 169.843 202.23 169.852 202.314V202.491C169.86 202.566 169.835 202.583 169.759 202.583L167.594 202.668Z" fill="#1D0803"/>
<path d="M172.454 202.642C171.047 202.701 170.213 201.48 170.138 199.391C170.062 197.479 170.727 195.803 172.117 195.753C173.052 195.719 173.945 196.519 174.012 198.305V198.406C174.029 198.743 173.928 198.844 173.524 198.861L171.115 198.953V199.223C171.199 201.202 171.696 202.044 172.648 202.002C173.33 201.977 173.667 201.446 173.734 200.478C173.743 200.41 173.759 200.36 173.835 200.368L173.987 200.385C174.08 200.394 174.088 200.436 174.08 200.511C174.037 201.674 173.583 202.592 172.462 202.634L172.454 202.642ZM172.041 196.174C171.275 196.207 171.039 197.176 171.089 198.541L172.437 198.49C172.909 198.473 173.035 198.347 173.018 197.951C172.968 196.746 172.631 196.157 172.041 196.174Z" fill="#1D0803"/>
<path d="M176.38 202.492C175.723 202.517 175.167 201.894 175.116 200.647L174.948 196.259L174.316 196.284C174.224 196.284 174.198 196.276 174.198 196.2V196.006C174.19 195.931 174.215 195.931 174.291 195.914L174.931 195.813L174.881 194.524C174.881 194.448 174.889 194.423 174.948 194.364C175.142 194.162 175.378 193.926 175.538 193.656C175.571 193.581 175.588 193.555 175.639 193.555H175.681C175.681 193.555 175.748 193.555 175.748 193.64L175.832 195.771L176.86 195.729C176.953 195.729 176.978 195.729 176.978 195.813V196.065C176.995 196.158 176.969 196.166 176.894 196.175L175.858 196.217L176.035 200.765C176.06 201.523 176.178 201.928 176.607 201.911C176.877 201.902 177.02 201.65 177.037 201.111C177.045 201.035 177.071 200.993 177.146 200.993L177.298 201.01C177.391 201.01 177.399 201.06 177.391 201.136C177.357 202.012 176.927 202.467 176.388 202.492H176.38Z" fill="#1D0803"/>
<defs>
<filter id="filter0_d_531_3168" x="0" y="0" width="271" height="271" filterUnits="userSpaceOnUse" color-interpolation-filters="sRGB">
<feFlood flood-opacity="0" result="BackgroundImageFix"/>
<feColorMatrix in="SourceAlpha" type="matrix" values="0 0 0 0 0 0 0 0 0 0 0 0 0 0 0 0 0 0 127 0" result="hardAlpha"/>
<feOffset dx="-2" dy="2"/>
<feGaussianBlur stdDeviation="5"/>
<feComposite in2="hardAlpha" operator="out"/>
<feColorMatrix type="matrix" values="0 0 0 0 0 0 0 0 0 0 0 0 0 0 0 0 0 0 0.25 0"/>
<feBlend mode="normal" in2="BackgroundImageFix" result="effect1_dropShadow_531_3168"/>
<feBlend mode="normal" in="SourceGraphic" in2="effect1_dropShadow_531_3168" result="shape"/>
</filter>
<filter id="filter1_d_531_3168" x="139.027" y="43.9095" width="72.1794" height="138.24" filterUnits="userSpaceOnUse" color-interpolation-filters="sRGB">
<feFlood flood-opacity="0" result="BackgroundImageFix"/>
<feColorMatrix in="SourceAlpha" type="matrix" values="0 0 0 0 0 0 0 0 0 0 0 0 0 0 0 0 0 0 127 0" result="hardAlpha"/>
<feOffset dx="-2" dy="2"/>
<feGaussianBlur stdDeviation="5"/>
<feColorMatrix type="matrix" values="0 0 0 0 0 0 0 0 0 0 0 0 0 0 0 0 0 0 0.08 0"/>
<feBlend mode="normal" in2="BackgroundImageFix" result="effect1_dropShadow_531_3168"/>
<feBlend mode="normal" in="SourceGraphic" in2="effect1_dropShadow_531_3168" result="shape"/>
</filter>
<filter id="filter2_d_531_3168" x="68.3838" y="40.2278" width="72.1876" height="138.24" filterUnits="userSpaceOnUse" color-interpolation-filters="sRGB">
<feFlood flood-opacity="0" result="BackgroundImageFix"/>
<feColorMatrix in="SourceAlpha" type="matrix" values="0 0 0 0 0 0 0 0 0 0 0 0 0 0 0 0 0 0 127 0" result="hardAlpha"/>
<feOffset dx="-2" dy="2"/>
<feGaussianBlur stdDeviation="5"/>
<feColorMatrix type="matrix" values="0 0 0 0 0 0 0 0 0 0 0 0 0 0 0 0 0 0 0.08 0"/>
<feBlend mode="normal" in2="BackgroundImageFix" result="effect1_dropShadow_531_3168"/>
<feBlend mode="normal" in="SourceGraphic" in2="effect1_dropShadow_531_3168" result="shape"/>
</filter>
<filter id="filter3_d_531_3168" x="48.2634" y="114.18" width="125.984" height="106.191" filterUnits="userSpaceOnUse" color-interpolation-filters="sRGB">
<feFlood flood-opacity="0" result="BackgroundImageFix"/>
<feColorMatrix in="SourceAlpha" type="matrix" values="0 0 0 0 0 0 0 0 0 0 0 0 0 0 0 0 0 0 127 0" result="hardAlpha"/>
<feOffset dx="-2" dy="2"/>
<feGaussianBlur stdDeviation="5"/>
<feColorMatrix type="matrix" values="0 0 0 0 0 0 0 0 0 0 0 0 0 0 0 0 0 0 0.08 0"/>
<feBlend mode="normal" in2="BackgroundImageFix" result="effect1_dropShadow_531_3168"/>
<feBlend mode="normal" in="SourceGraphic" in2="effect1_dropShadow_531_3168" result="shape"/>
</filter>
<filter id="filter4_d_531_3168" x="93.1725" y="157.245" width="114.159" height="83.9208" filterUnits="userSpaceOnUse" color-interpolation-filters="sRGB">
<feFlood flood-opacity="0" result="BackgroundImageFix"/>
<feColorMatrix in="SourceAlpha" type="matrix" values="0 0 0 0 0 0 0 0 0 0 0 0 0 0 0 0 0 0 127 0" result="hardAlpha"/>
<feOffset dx="-2" dy="2"/>
<feGaussianBlur stdDeviation="5"/>
<feColorMatrix type="matrix" values="0 0 0 0 0 0 0 0 0 0 0 0 0 0 0 0 0 0 0.08 0"/>
<feBlend mode="normal" in2="BackgroundImageFix" result="effect1_dropShadow_531_3168"/>
<feBlend mode="normal" in="SourceGraphic" in2="effect1_dropShadow_531_3168" result="shape"/>
</filter>
</defs>
</svg>
