<svg width="401" height="273" viewBox="0 0 401 273" fill="none" xmlns="http://www.w3.org/2000/svg">
<path d="M275.166 257.173L387.484 117.833L227.636 103.184L11.125 193.69L275.166 257.173Z" fill="#832A16"/>
<path d="M387.484 117.833L227.303 105.136L229.589 11.3538L393.018 25.5364L387.484 117.833Z" fill="#F8E8CE"/>
<path d="M233.39 78.1903L227.637 78.4379L229.256 11.0394L239.371 11.9919L233.39 78.1903Z" fill="#DB4726"/>
<path d="M242.362 85.429L229.256 83.724V78.0566L243.305 78.3233L242.362 85.429Z" fill="#FFAC05"/>
<path d="M237.171 78.1902H233.39L239.371 11.9919L248.115 12.9349L237.171 78.1902Z" fill="#AF381D"/>
<path d="M243.305 78.3236L237.171 78.1902L248.115 12.9349L259.859 14.1922L243.305 78.3236Z" fill="#DB4726"/>
<path d="M236.361 105.86L229.256 105.232V83.7242L233.866 84.3815L236.361 105.86Z" fill="#DB4726"/>
<path d="M241.552 106.489L236.361 105.86L233.866 84.3815L237.171 84.772L241.552 106.489Z" fill="#AF381D"/>
<path d="M248.934 107.117L241.552 106.489L237.171 84.772L242.362 85.4292L248.934 107.117Z" fill="#DB4726"/>
<path d="M384.093 91.9252L389.017 92.0966L393.38 25.2125L381.302 24.5839L384.093 91.9252Z" fill="#DB4726"/>
<path d="M372.959 98.4974L388.646 97.7449L389.018 92.0967L372.292 91.3347L372.959 98.4974Z" fill="#FFAC05"/>
<path d="M379.607 91.649L384.093 91.9252L381.302 24.5839L370.558 23.6409L379.607 91.649Z" fill="#AF381D"/>
<path d="M372.292 91.3346L379.607 91.649L370.558 23.6409L356.233 22.3836L372.292 91.3346Z" fill="#DB4726"/>
<path d="M379.026 117.204L387.484 117.833L388.646 97.7449L383.131 98.0688L379.026 117.204Z" fill="#DB4726"/>
<path d="M371.863 116.566L379.026 117.204L383.131 98.0688L379.178 98.2212L371.863 116.566Z" fill="#AF381D"/>
<path d="M363.072 115.938L371.863 116.566L379.178 98.2212L372.959 98.4974L363.072 115.938Z" fill="#DB4726"/>
<path d="M11.1443 193.69L227.922 120.11L229.256 11.0394L10.4775 32.8515L11.1443 193.69Z" fill="#943012"/>
<g filter="url(#filter0_d_494_4553)">
<path d="M328.782 118.719L329.192 110.375L333.059 109.965L332.04 118.1L328.782 118.709V118.719Z" fill="#DB4726"/>
<path d="M333.059 109.965L333.668 106.098L329.401 106.508L329.201 110.375L333.068 109.965H333.059Z" fill="#E66245"/>
<path d="M329.801 101.022L314.342 98.3736L316.171 117.29L328.782 118.709L329.801 101.012V101.022Z" fill="#AF381D"/>
</g>
<g filter="url(#filter1_d_494_4553)">
<path d="M346.898 122.529L347.308 114.185L351.175 113.775L350.156 121.91L346.898 122.519V122.529Z" fill="#DB4726"/>
<path d="M351.175 113.785L351.785 109.918L347.517 110.327L347.317 114.195L351.185 113.785H351.175Z" fill="#E66245"/>
<path d="M347.917 104.832L332.458 102.184L334.287 121.1L346.898 122.519L347.917 104.822V104.832Z" fill="#AF381D"/>
</g>
<g filter="url(#filter2_d_494_4553)">
<path d="M363.729 125.053L364.139 116.709L368.006 116.299L366.987 124.434L363.729 125.043V125.053Z" fill="#DB4726"/>
<path d="M367.996 116.309L368.606 112.442L364.339 112.851L364.139 116.719L368.006 116.309H367.996Z" fill="#E66245"/>
<path d="M364.739 107.356L349.28 104.708L351.109 123.624L363.72 125.043L364.739 107.346V107.356Z" fill="#AF381D"/>
</g>
<g filter="url(#filter3_d_494_4553)">
<path d="M299.217 145.732L299.693 135.883L304.255 135.407L303.055 145.017L299.207 145.741L299.217 145.732Z" fill="#DB4726"/>
<path d="M304.255 135.397L304.979 130.835L299.931 131.311L299.693 135.873L304.255 135.397Z" fill="#E66245"/>
<path d="M300.417 124.824L282.157 121.7L284.319 144.046L299.216 145.732L300.417 124.824Z" fill="#AF381D"/>
</g>
<g filter="url(#filter4_d_494_4553)">
<path d="M318.057 130.12L318.466 121.776L322.333 121.367L321.314 129.501L318.057 130.111V130.12Z" fill="#DB4726"/>
<path d="M322.324 121.367L322.934 117.5L318.666 117.909L318.466 121.776L322.333 121.367H322.324Z" fill="#E66245"/>
<path d="M319.066 112.423L303.607 109.775L305.436 128.691L318.047 130.111L319.066 112.413V112.423Z" fill="#AF381D"/>
</g>
<g filter="url(#filter5_d_494_4553)">
<path d="M336.173 133.93L336.583 125.586L340.45 125.177L339.431 133.311L336.173 133.921V133.93Z" fill="#DB4726"/>
<path d="M340.441 125.186L341.05 121.319L336.783 121.729L336.583 125.596L340.45 125.186H340.441Z" fill="#E66245"/>
<path d="M337.192 116.233L321.733 113.585L323.562 132.501L336.173 133.921L337.192 116.223V116.233Z" fill="#AF381D"/>
</g>
<g filter="url(#filter6_d_494_4553)">
<path d="M352.995 136.454L353.404 128.11L357.271 127.701L356.252 135.835L352.995 136.445V136.454Z" fill="#DB4726"/>
<path d="M357.271 127.71L357.881 123.843L353.614 124.253L353.414 128.12L357.281 127.71H357.271Z" fill="#E66245"/>
<path d="M354.014 118.757L338.555 116.109L340.383 135.026L352.995 136.445L354.014 118.747V118.757Z" fill="#AF381D"/>
</g>
<g filter="url(#filter7_d_494_4553)">
<path d="M320.619 150.237L321.096 140.388L325.658 139.912L324.458 149.522L320.61 150.246L320.619 150.237Z" fill="#DB4726"/>
<path d="M325.667 139.912L326.391 135.349L321.343 135.826L321.105 140.388L325.667 139.912Z" fill="#E66245"/>
<path d="M321.819 129.33L303.56 126.205L305.722 148.551L320.619 150.237L321.819 129.33Z" fill="#AF381D"/>
</g>
<g filter="url(#filter8_d_494_4553)">
<path d="M340.498 153.218L340.974 143.369L345.536 142.893L344.336 152.504L340.488 153.227L340.498 153.218Z" fill="#DB4726"/>
<path d="M345.546 142.893L346.27 138.33L341.222 138.807L340.983 143.369L345.546 142.893Z" fill="#E66245"/>
<path d="M341.698 132.311L323.438 129.187L325.601 151.532L340.498 153.218L341.698 132.311Z" fill="#AF381D"/>
</g>
<g filter="url(#filter9_d_494_4553)">
<path d="M271.718 157.8L272.194 147.951L276.757 147.475L275.557 157.085L271.708 157.809L271.718 157.8Z" fill="#DB4726"/>
<path d="M276.766 147.475L277.49 142.912L272.442 143.388L272.204 147.951L276.766 147.475Z" fill="#E66245"/>
<path d="M272.918 136.892L254.659 133.768L256.821 156.114L271.718 157.8L272.918 136.892Z" fill="#AF381D"/>
</g>
<g filter="url(#filter10_d_494_4553)">
<path d="M293.121 162.315L293.597 152.466L298.16 151.99L296.959 161.6L293.111 162.324L293.121 162.315Z" fill="#DB4726"/>
<path d="M298.169 151.98L298.893 147.417L293.845 147.894L293.606 152.456L298.169 151.98Z" fill="#E66245"/>
<path d="M294.321 141.407L276.062 138.283L278.224 160.629L293.121 162.315L294.321 141.407Z" fill="#AF381D"/>
</g>
<g filter="url(#filter11_d_494_4553)">
<path d="M312.999 165.296L313.475 155.447L318.038 154.971L316.838 164.581L312.99 165.305L312.999 165.296Z" fill="#DB4726"/>
<path d="M318.047 154.961L318.771 150.399L313.723 150.875L313.485 155.438L318.047 154.961Z" fill="#E66245"/>
<path d="M314.199 144.389L295.94 141.264L298.102 163.61L312.999 165.296L314.199 144.389Z" fill="#AF381D"/>
</g>
<g filter="url(#filter12_d_494_4553)">
<path d="M242.877 165.181L243.353 155.333L247.915 154.856L246.715 164.467L242.867 165.191L242.877 165.181Z" fill="#DB4726"/>
<path d="M247.925 154.847L248.649 150.284L243.6 150.761L243.362 155.323L247.925 154.847Z" fill="#E66245"/>
<path d="M244.077 144.274L225.817 141.15L227.98 163.496L242.877 165.182L244.077 144.274Z" fill="#AF381D"/>
</g>
<g filter="url(#filter13_d_494_4553)">
<path d="M264.289 169.687L264.765 159.838L269.328 159.362L268.127 168.972L264.279 169.696L264.289 169.687Z" fill="#DB4726"/>
<path d="M269.328 159.352L270.051 154.79L265.003 155.266L264.765 159.828L269.328 159.352Z" fill="#E66245"/>
<path d="M265.489 148.78L247.229 145.655L249.392 168.001L264.289 169.687L265.489 148.78Z" fill="#AF381D"/>
</g>
<g filter="url(#filter14_d_494_4553)">
<path d="M284.158 172.668L284.634 162.819L289.197 162.343L287.996 171.954L284.148 172.678L284.158 172.668Z" fill="#DB4726"/>
<path d="M289.206 162.334L289.93 157.771L284.882 158.247L284.644 162.81L289.206 162.334Z" fill="#E66245"/>
<path d="M285.358 151.761L267.099 148.637L269.261 170.982L284.158 172.668L285.358 151.761Z" fill="#AF381D"/>
</g>
<g filter="url(#filter15_d_494_4553)">
<path d="M305.75 206.872L306.293 195.728L311.456 195.185L310.094 206.053L305.75 206.872Z" fill="#DB4726"/>
<path d="M311.456 195.195L312.275 190.032L306.57 190.575L306.293 195.737L311.456 195.195Z" fill="#E66245"/>
<path d="M307.112 183.241L286.462 179.707L288.91 204.977L305.76 206.882L307.122 183.241H307.112Z" fill="#AF381D"/>
</g>
<g filter="url(#filter16_d_494_4553)">
<path d="M211.882 177.478L212.435 166.163L217.683 165.61L216.302 176.65L211.882 177.478Z" fill="#DB4726"/>
<path d="M217.683 165.61L218.511 160.362L212.711 160.914L212.435 166.163L217.683 165.61Z" fill="#E66245"/>
<path d="M213.263 153.456L192.28 149.865L194.766 175.545L211.882 177.478L213.263 153.456Z" fill="#AF381D"/>
</g>
<g filter="url(#filter17_d_494_4553)">
<path d="M237.152 182.66L237.705 171.344L242.953 170.792L241.572 181.831L237.152 182.66Z" fill="#DB4726"/>
<path d="M242.953 170.782L243.782 165.534L237.981 166.086L237.705 171.335L242.953 170.782Z" fill="#E66245"/>
<path d="M238.533 158.638L217.55 155.047L220.036 180.726L237.152 182.66L238.533 158.638Z" fill="#AF381D"/>
</g>
<g filter="url(#filter18_d_494_4553)">
<path d="M259.983 187.422L260.536 176.107L265.784 175.554L264.403 186.594L259.983 187.422Z" fill="#DB4726"/>
<path d="M265.784 175.554L266.613 170.306L260.812 170.858L260.536 176.107L265.784 175.554Z" fill="#E66245"/>
<path d="M261.364 163.4L240.381 159.809L242.867 185.489L259.983 187.422L261.364 163.4Z" fill="#AF381D"/>
</g>
<g filter="url(#filter19_d_494_4553)">
<path d="M189.766 195.718L190.413 182.422L196.576 181.774L194.957 194.747L189.766 195.718Z" fill="#DB4726"/>
<path d="M196.576 181.774L197.547 175.611L190.737 176.259L190.413 182.422L196.576 181.774Z" fill="#E66245"/>
<path d="M191.394 167.496L166.744 163.277L169.658 193.442L189.765 195.709L191.385 167.487L191.394 167.496Z" fill="#AF381D"/>
</g>
<g filter="url(#filter20_d_494_4553)">
<path d="M285.672 216.511L286.32 203.215L292.482 202.567L290.863 215.54L285.672 216.511Z" fill="#DB4726"/>
<path d="M292.482 202.557L293.454 196.395L286.644 197.042L286.32 203.205L292.482 202.557Z" fill="#E66245"/>
<path d="M287.291 188.289L262.641 184.069L265.555 214.235L285.662 216.502L287.282 188.279L287.291 188.289Z" fill="#AF381D"/>
</g>
<g filter="url(#filter21_d_494_4553)">
<path d="M223.303 202.424L223.95 189.127L230.113 188.48L228.494 201.453L223.303 202.424Z" fill="#DB4726"/>
<path d="M230.113 188.48L231.085 182.317L224.275 182.965L223.951 189.127L230.113 188.48Z" fill="#E66245"/>
<path d="M224.922 174.202L200.271 169.982L203.186 200.148L223.293 202.415L224.913 174.192L224.922 174.202Z" fill="#AF381D"/>
</g>
<g filter="url(#filter22_d_494_4553)">
<path d="M256.945 227.665L257.593 214.368L263.755 213.721L262.136 226.694L256.945 227.665Z" fill="#DB4726"/>
<path d="M263.755 213.721L264.727 207.558L257.917 208.206L257.593 214.368L263.755 213.721Z" fill="#E66245"/>
<path d="M258.564 199.443L233.914 195.223L236.828 225.389L256.935 227.656L258.555 199.433L258.564 199.443Z" fill="#AF381D"/>
</g>
<g filter="url(#filter23_d_494_4553)">
<path d="M283.776 231.685L284.424 218.388L290.587 217.74L288.967 230.713L283.776 231.685Z" fill="#DB4726"/>
<path d="M290.587 217.74L291.559 211.578L284.748 212.225L284.424 218.388L290.587 217.74Z" fill="#E66245"/>
<path d="M285.396 203.472L260.745 199.252L263.66 229.418L283.767 231.685L285.386 203.462L285.396 203.472Z" fill="#AF381D"/>
</g>
<g filter="url(#filter24_d_494_4553)">
<path d="M238.724 241.324L239.371 228.027L245.534 227.379L243.915 240.352L238.724 241.324Z" fill="#DB4726"/>
<path d="M245.534 227.37L246.505 221.207L239.695 221.855L239.371 228.018L245.534 227.37Z" fill="#E66245"/>
<path d="M240.352 213.102L215.702 208.882L218.616 239.047L238.723 241.314L240.343 213.092L240.352 213.102Z" fill="#AF381D"/>
</g>
<g filter="url(#filter25_d_494_4553)">
<path d="M268.908 248.029L269.556 234.733L275.719 234.085L274.099 247.058L268.908 248.029Z" fill="#DB4726"/>
<path d="M275.719 234.085L276.69 227.922L269.88 228.57L269.556 234.733L275.719 234.085Z" fill="#E66245"/>
<path d="M270.527 219.807L245.877 215.588L248.792 245.753L268.899 248.02L270.518 219.798L270.527 219.807Z" fill="#AF381D"/>
</g>
<g filter="url(#filter26_d_494_4553)">
<path d="M52.2822 196.385L52.9299 183.088L59.0926 182.441L57.4733 195.414L52.2822 196.385Z" fill="#DB4726"/>
<path d="M59.0928 182.441L60.0644 176.278L53.254 176.926L52.9302 183.088L59.0928 182.441Z" fill="#E66245"/>
<path d="M53.9015 168.172L29.251 163.953L32.1656 194.118L52.2728 196.385L53.892 168.163L53.9015 168.172Z" fill="#AF381D"/>
</g>
<g filter="url(#filter27_d_494_4553)">
<path d="M169.087 206.205L169.735 192.909L175.897 192.261L174.278 205.234L169.087 206.205Z" fill="#DB4726"/>
<path d="M175.907 192.261L176.878 186.098L170.068 186.746L169.744 192.909L175.907 192.261Z" fill="#E66245"/>
<path d="M170.715 177.983L146.065 173.763L148.98 203.929L169.087 206.196L170.706 177.974L170.715 177.983Z" fill="#AF381D"/>
</g>
<g filter="url(#filter28_d_494_4553)">
<path d="M201.281 213.578L201.928 200.281L208.091 199.633L206.472 212.606L201.281 213.578Z" fill="#DB4726"/>
<path d="M208.091 199.633L209.063 193.471L202.253 194.118L201.929 200.281L208.091 199.633Z" fill="#E66245"/>
<path d="M202.9 185.365L178.25 181.145L181.164 211.311L201.271 213.578L202.891 185.355L202.9 185.365Z" fill="#AF381D"/>
</g>
<g filter="url(#filter29_d_494_4553)">
<path d="M98.564 208.463L99.2117 195.166L105.374 194.518L103.755 207.491L98.564 208.463Z" fill="#DB4726"/>
<path d="M105.375 194.509L106.346 188.346L99.5358 188.994L99.2119 195.157L105.375 194.509Z" fill="#E66245"/>
<path d="M100.183 180.24L75.5327 176.021L78.4473 206.186L98.5545 208.453L100.174 180.231L100.183 180.24Z" fill="#AF381D"/>
</g>
<g filter="url(#filter30_d_494_4553)">
<path d="M130.873 217.483L131.521 204.186L137.683 203.538L136.064 216.511L130.873 217.483Z" fill="#DB4726"/>
<path d="M137.683 203.538L138.655 197.376L131.844 198.023L131.521 204.186L137.683 203.538Z" fill="#E66245"/>
<path d="M132.502 189.261L107.851 185.041L110.766 215.207L130.873 217.473L132.492 189.251L132.502 189.261Z" fill="#AF381D"/>
</g>
<g filter="url(#filter31_d_494_4553)">
<path d="M158.981 224.265L159.629 210.968L165.791 210.32L164.172 223.293L158.981 224.265Z" fill="#DB4726"/>
<path d="M165.792 210.311L166.763 204.148L159.953 204.796L159.629 210.958L165.792 210.311Z" fill="#E66245"/>
<path d="M160.6 196.042L135.95 191.823L138.864 221.988L158.971 224.255L160.591 196.033L160.6 196.042Z" fill="#AF381D"/>
</g>
<g filter="url(#filter32_d_494_4553)">
<path d="M189.213 231.018L189.861 217.721L196.023 217.073L194.404 230.046L189.213 231.018Z" fill="#DB4726"/>
<path d="M196.023 217.073L196.995 210.911L190.185 211.558L189.861 217.721L196.023 217.073Z" fill="#E66245"/>
<path d="M190.832 202.795L166.182 198.576L169.096 228.741L189.203 231.008L190.823 202.786L190.832 202.795Z" fill="#AF381D"/>
</g>
<g filter="url(#filter33_d_494_4553)">
<path d="M288.767 23.0504L104.669 55.7304C104.669 55.7304 178.25 102.422 139.245 191.032L323.676 134.044C323.676 134.044 349.117 107.727 334.906 66.3507C324 34.6041 308.551 26.2603 288.777 23.0504H288.767Z" fill="#DABC9B"/>
<path d="M323.514 133.883C262.145 152.961 200.776 172.039 139.407 191.118L150.379 142.369C213.273 124.996 276.166 107.622 339.049 90.2488C339.411 95.097 339.383 102.984 336.468 112.051C332.982 122.891 327.048 130.149 323.514 133.883Z" fill="#CBAE8E"/>
<path d="M339.05 90.2393C277.68 109.318 213.892 123.586 152.523 142.665L140.607 93.6683C203.5 76.2948 263.898 65.7602 326.791 48.3867C329.315 51.9205 332.211 56.1019 335.573 67.4271C337.868 75.1709 338.888 84.4767 339.05 90.2488V90.2393Z" fill="#CFB497"/>
<path d="M154.837 122.062C163.514 165.162 150.103 203.434 114.232 207.034C108.022 207.653 102.012 207.425 96.2778 206.282C95.0777 206.044 93.8871 205.758 92.706 205.443C69.9414 199.262 51.7392 177.993 41.7571 138.207C31.1558 95.9733 51.263 59.5118 84.124 52.7301C92.2297 51.0537 97.9638 51.7871 102.783 52.9111C120.585 57.0639 147.17 84.0005 154.837 122.062Z" fill="#438479"/>
<path d="M58.0255 66.6365C58.0255 66.6365 96.973 23.7457 135.397 102.46C168.029 169.315 120.223 220.645 87.6862 203.805C61.3878 190.194 50.7866 171.058 41.7569 138.216C32.7368 105.374 47.71 74.9803 58.0255 66.646V66.6365Z" fill="#D9CCBC"/>
<path d="M109.889 205.872C109.889 205.872 69.8557 207.053 52.206 142.265C34.5563 77.4854 78.7234 54.7684 78.7234 54.7684C78.7234 54.7684 23.6407 64.9601 41.7571 138.197C62.7311 222.979 109.813 206.225 109.889 205.872Z" fill="#538279"/>
<path d="M76.3136 166.058L107.498 154.771C107.498 154.771 120.195 118.976 89.0865 104.965L65.8647 110.499C65.8647 110.499 101.479 127.148 76.3136 166.058Z" fill="#215955"/>
<path d="M71.0866 167.857C82.1799 166.171 89.206 151.861 86.78 135.895C84.3539 119.929 73.3943 108.352 62.301 110.037C51.2077 111.723 44.1816 126.033 46.6077 141.999C49.0338 157.966 59.9934 169.543 71.0866 167.857Z" fill="#80B2A9"/>
<path d="M61.4166 114.185C61.4166 114.185 77.5613 115.747 81.5809 135.187C85.6004 154.628 73.6371 161.667 73.6371 161.667C73.6371 161.667 50.2629 168.372 43.8716 143.922C39.0806 125.605 61.407 114.185 61.407 114.185H61.4166Z" fill="#D4E8D7"/>
<path d="M196.652 156.723L200.252 142.293C200.252 142.293 184.983 143.531 182.917 152.809C181.383 159.695 182.193 160.581 196.652 156.714V156.723Z" fill="#B99A7E"/>
<path d="M197.49 150.142L198.738 145.446L190.489 147.418C190.489 147.418 186.108 150.075 189.594 151.694L197.49 150.142Z" fill="#484036"/>
<path d="M196.194 155.676L197.252 151.485L188.651 153.609C188.651 153.609 185.174 155.133 187.289 157.104L196.194 155.676Z" fill="#484036"/>
<path d="M201.538 104.26L196.757 87.7152C196.757 87.7152 179.345 89.5726 182.422 99.4023C185.365 108.813 192.099 106.336 201.538 104.26Z" fill="#C5A582"/>
<path d="M198.766 95.1161L197.633 90.6489L187.994 93.2301C187.994 93.2301 186.327 96.0305 189.479 97.5449L198.766 95.1161Z" fill="#484036"/>
<path d="M200.319 101.479L191.375 103.755C191.375 103.755 188.222 102.241 190.241 99.288L199.185 97.0115L200.319 101.479Z" fill="#484036"/>
<path d="M219.007 150.418L222.607 135.988C222.607 135.988 207.338 137.226 205.272 146.503C203.738 153.39 204.548 154.275 219.007 150.408V150.418Z" fill="#B99A7E"/>
<path d="M219.836 143.836L221.083 139.14L212.835 141.112C212.835 141.112 208.453 143.769 211.939 145.389L219.836 143.836Z" fill="#484036"/>
<path d="M218.549 149.38L219.607 145.189L211.006 147.313C211.006 147.313 207.529 148.837 209.644 150.808L218.549 149.38Z" fill="#484036"/>
<path d="M223.798 99.7642L219.016 83.2194C219.016 83.2194 201.605 85.0768 204.681 94.9065C207.625 104.317 214.359 101.841 223.798 99.7642Z" fill="#C5A582"/>
<path d="M221.026 90.6203L219.893 86.1531L210.253 88.7343C210.253 88.7343 208.586 91.5347 211.739 93.0491L221.026 90.6203Z" fill="#484036"/>
<path d="M222.579 96.9829L213.635 99.2594C213.635 99.2594 210.482 97.7449 212.501 94.7922L221.445 92.5157L222.579 96.9829Z" fill="#484036"/>
<path d="M239.505 144.932L243.105 130.501C243.105 130.501 227.837 131.739 225.77 141.017C224.236 147.903 225.046 148.789 239.505 144.922V144.932Z" fill="#B99A7E"/>
<path d="M240.343 138.35L241.591 133.654L233.342 135.626C233.342 135.626 228.961 138.283 232.447 139.902L240.343 138.35Z" fill="#484036"/>
<path d="M239.047 143.893L240.105 139.702L231.504 141.826C231.504 141.826 228.027 143.35 230.142 145.322L239.047 143.893Z" fill="#484036"/>
<path d="M244.295 94.2683L239.514 77.7235C239.514 77.7235 222.102 79.5809 225.179 89.4106C228.122 98.8213 234.856 96.3448 244.295 94.2683Z" fill="#C5A582"/>
<path d="M241.524 85.1339L240.39 80.6667L230.751 83.248C230.751 83.248 229.084 86.0483 232.237 87.5628L241.524 85.1339Z" fill="#484036"/>
<path d="M243.076 91.4966L234.133 93.773C234.133 93.773 230.98 92.2586 232.999 89.3058L241.943 87.0294L243.076 91.4966Z" fill="#484036"/>
<path d="M260.793 138.226L264.393 123.796C264.393 123.796 249.125 125.034 247.058 134.311C245.524 141.198 246.334 142.084 260.793 138.216V138.226Z" fill="#B99A7E"/>
<path d="M261.631 131.635L262.879 126.939L254.63 128.911C254.63 128.911 250.249 131.568 253.735 133.187L261.631 131.635Z" fill="#484036"/>
<path d="M260.336 137.178L261.393 132.987L252.792 135.111C252.792 135.111 249.315 136.635 251.43 138.607L260.336 137.178Z" fill="#484036"/>
<path d="M266.232 89.0392L261.45 72.4943C261.45 72.4943 244.038 74.3517 247.115 84.1814C250.192 94.0112 256.792 91.1156 266.232 89.0392Z" fill="#C5A582"/>
<path d="M263.46 79.8952L262.326 75.428L252.687 78.0092C252.687 78.0092 251.02 80.8096 254.173 82.324L263.46 79.8952Z" fill="#484036"/>
<path d="M265.012 86.2578L256.069 88.5343C256.069 88.5343 252.916 87.0198 254.935 84.0671L263.879 81.7906L265.012 86.2578Z" fill="#484036"/>
<path d="M281.452 133.102L285.053 118.671C285.053 118.671 269.784 119.91 267.717 129.187C266.184 136.073 266.993 136.959 281.452 133.092V133.102Z" fill="#B99A7E"/>
<path d="M282.291 126.52L283.538 121.824L275.29 123.796C275.29 123.796 270.908 126.453 274.394 128.072L282.291 126.52Z" fill="#484036"/>
<path d="M280.995 132.063L282.052 127.872L273.451 129.996C273.451 129.996 269.975 131.52 272.089 133.492L280.995 132.063Z" fill="#484036"/>
<path d="M284.586 84.029L280.214 69.1701C280.214 69.1701 264.555 70.9036 267.365 79.7428C270.051 88.2009 276.099 85.9435 284.586 84.029Z" fill="#C5A582"/>
<path d="M282.052 75.8185L281.014 71.799L272.356 74.1612C272.356 74.1612 270.87 76.6948 273.709 78.0379L282.062 75.8185H282.052Z" fill="#484036"/>
<path d="M283.481 81.5335L275.442 83.6099C275.442 83.6099 272.603 82.2574 274.404 79.5904L282.443 77.514L283.481 81.5335Z" fill="#484036"/>
<path d="M300.483 128.263L304.084 113.833C304.084 113.833 288.815 115.071 286.748 124.348C285.215 131.235 286.024 132.12 300.483 128.253V128.263Z" fill="#B99A7E"/>
<path d="M301.312 121.681L302.559 116.985L294.311 118.957C294.311 118.957 289.929 121.614 293.415 123.234L301.312 121.681Z" fill="#484036"/>
<path d="M300.026 127.225L301.083 123.034L292.482 125.158C292.482 125.158 289.006 126.682 291.12 128.653L300.026 127.225Z" fill="#484036"/>
<path d="M303.95 79.2476L299.074 64.5411C299.074 64.5411 283.481 66.808 286.596 75.5424C289.568 83.8958 295.53 81.4383 303.95 79.2476Z" fill="#C5A582"/>
<path d="M301.131 71.1322L299.95 67.1508L291.377 69.7988C291.377 69.7988 289.977 72.38 292.863 73.6278L301.131 71.1227V71.1322Z" fill="#484036"/>
<path d="M302.75 76.7996L294.787 79.1523C294.787 79.1523 291.901 77.895 293.606 75.1708L301.569 72.8182L302.75 76.7996Z" fill="#484036"/>
<path d="M319.552 122.529L323.152 108.099C323.152 108.099 307.884 109.337 305.817 118.614C304.283 125.501 305.093 126.386 319.552 122.519V122.529Z" fill="#B99A7E"/>
<path d="M320.381 115.947L321.629 111.252L313.38 113.223C313.38 113.223 308.999 115.881 312.485 117.5L320.381 115.947Z" fill="#484036"/>
<path d="M319.095 121.481L320.152 117.29L311.551 119.414C311.551 119.414 308.074 120.938 310.189 122.91L319.095 121.481Z" fill="#484036"/>
<path d="M209.186 42.8146L221.559 51.9205C221.559 51.9205 206.643 59.0261 200.033 52.1872C195.128 47.1104 194.842 47.0723 209.186 42.8242V42.8146Z" fill="#C5A582"/>
<path d="M213.301 47.1675L217.369 50.1964L209.31 52.8253C209.31 52.8253 204.186 52.8539 206.31 49.644L213.311 47.1675H213.301Z" fill="#484036"/>
<path d="M209.139 43.71L212.739 46.3484L204.3 49.0344C204.3 49.0344 200.538 49.5487 201.309 46.7675L209.139 43.7195V43.71Z" fill="#484036"/>
<path d="M231.399 39.2142L243.772 48.32C243.772 48.32 228.856 55.4256 222.245 48.5867C217.34 43.5099 217.054 43.4718 231.399 39.2237V39.2142Z" fill="#C5A582"/>
<path d="M235.513 43.5766L239.58 46.6055L231.522 49.2344C231.522 49.2344 226.398 49.263 228.522 46.0531L235.523 43.5766H235.513Z" fill="#484036"/>
<path d="M231.351 40.119L234.952 42.7574L226.513 45.4435C226.513 45.4435 222.75 45.9578 223.522 43.1765L231.351 40.1285V40.119Z" fill="#484036"/>
<path d="M254.192 34.928L266.565 44.0338C266.565 44.0338 251.649 51.1394 245.038 44.3005C240.133 39.2237 239.847 39.1856 254.192 34.9375V34.928Z" fill="#C5A582"/>
<path d="M258.307 39.2904L262.374 42.3193L254.316 44.9482C254.316 44.9482 249.191 44.9768 251.315 41.7669L258.316 39.2904H258.307Z" fill="#484036"/>
<path d="M254.144 35.8328L257.745 38.4712L249.306 41.1573C249.306 41.1573 245.543 41.6716 246.315 38.8903L254.144 35.8424V35.8328Z" fill="#484036"/>
<path d="M273.909 30.6703L286.282 39.7761C286.282 39.7761 271.365 46.8817 264.755 40.0428C259.85 34.966 259.564 34.9279 273.909 30.6798V30.6703Z" fill="#C5A582"/>
<path d="M278.023 35.0232L282.09 38.0521L274.032 40.681C274.032 40.681 268.908 40.7096 271.032 37.4997L278.033 35.0232H278.023Z" fill="#484036"/>
<path d="M273.861 31.5657L277.461 34.2041L269.022 36.8901C269.022 36.8901 265.26 37.4045 266.032 34.6232L273.861 31.5752V31.5657Z" fill="#484036"/>
<path d="M323.228 75.2471L318.495 60.3215C318.495 60.3215 302.712 62.417 305.741 71.2847C308.636 79.7714 314.694 77.3616 323.238 75.2471H323.228Z" fill="#C5A582"/>
<path d="M320.485 67.0079L319.352 62.9694L310.646 65.5411C310.646 65.5411 309.198 68.1319 312.094 69.4368L320.485 67.0175V67.0079Z" fill="#484036"/>
<path d="M322.047 72.7515L313.97 75.028C313.97 75.028 311.075 73.7231 312.837 70.9894L320.914 68.713L322.047 72.7515Z" fill="#484036"/>
<path d="M168.21 62.2836C168.21 62.2836 166.077 62.636 164.772 60.8263C163.315 58.8165 164.696 58.3974 165.191 58.1498C165.686 57.9021 170.173 56.4162 172.163 58.2069C174.764 60.5596 168.21 62.2836 168.21 62.2836Z" fill="#EC666A"/>
<path d="M179.85 59.9214C179.85 59.9214 176.116 57.083 175.726 54.5112L174.649 54.0064L174.773 54.9018L174.249 55.0446C174.249 55.0446 171.611 54.4827 172.525 56.0733C172.525 56.0733 173.173 57.4068 174.678 55.9971L175.154 55.8161L176.116 57.0925L175.335 57.3116C175.335 57.3116 172.22 56.521 173.392 58.1212C174.563 59.7309 175.821 57.9497 175.821 57.9497L176.602 57.7307L177.669 58.7213L176.792 59.2356C176.792 59.2356 174.192 59.1975 175.44 60.4262C176.688 61.6549 177.869 60.2452 177.545 59.8071L178.583 59.5023L179.659 60.5024L179.85 59.9214Z" fill="#FCCB61"/>
<path d="M174.649 54.0064C174.649 54.0064 168.858 52.9301 171.563 56.5495C174.316 60.2262 174.554 60.5405 174.554 60.5405C174.554 60.5405 176.687 63.8266 179.659 60.5119L179.335 60.0833C179.335 60.0833 176.887 63.2265 175.021 60.2928L172.106 56.4067C172.106 56.4067 169.877 53.4349 174.706 54.3588L174.659 54.0159L174.649 54.0064Z" fill="#FCCB61"/>
<path d="M159.257 80.9525L160.161 82.2288C160.161 82.2288 160.19 82.286 160.152 82.2955L160.038 82.3241C160.038 82.3241 159.981 82.3241 159.952 82.286L159.8 82.0955C159.704 81.9716 159.666 81.9716 159.142 82.0955L156.085 82.8289C155.57 82.9527 155.542 82.9718 155.618 83.0956L155.742 83.2956C155.742 83.2956 155.771 83.3528 155.732 83.3623L155.628 83.3909C155.628 83.3909 155.57 83.3909 155.542 83.3528L154.713 82.1717C154.008 81.162 154.227 80.2667 155.723 79.8952C157.237 79.5237 158.618 80.0857 159.247 80.9715L159.257 80.9525ZM154.98 82.105L155.199 82.4098L159.285 81.4192L159.019 81.0477C158.447 80.2476 157.628 80.1143 156.199 80.4667C154.694 80.8382 154.437 81.343 154.98 82.0955V82.105Z" fill="#FCCB61"/>
<path d="M156.847 77.4283C157.495 78.3427 156.981 79.057 155.561 79.4095C154.123 79.7619 152.742 79.4857 152.094 78.5617C151.456 77.6569 151.98 76.952 153.38 76.5996C154.809 76.2376 156.19 76.5043 156.857 77.4283H156.847ZM152.332 78.5236C152.847 79.2571 153.942 79.1047 155.114 78.8189C156.18 78.5522 157.123 78.2093 156.6 77.4759C156.076 76.7329 154.98 76.8949 153.809 77.1901C152.752 77.4568 151.818 77.7997 152.332 78.5332V78.5236Z" fill="#FCCB61"/>
<path d="M153.828 73.2944C153.828 73.2944 153.837 73.342 153.799 73.3611L153.713 73.4087C153.999 73.5897 154.275 73.8469 154.485 74.1326C155.104 75.0089 154.533 75.809 153.209 76.1424C151.827 76.4948 150.446 76.2471 149.808 75.3327C149.618 75.066 149.541 74.7898 149.57 74.6184H149.456C149.408 74.6184 149.38 74.6184 149.36 74.5803L149.303 74.5041C149.303 74.5041 149.294 74.4565 149.332 74.4469L150.646 74.104C150.646 74.104 150.713 74.104 150.742 74.1421L150.818 74.2469C150.818 74.2469 150.837 74.2945 150.789 74.3041L150.684 74.3422C150.075 74.5041 149.789 74.9137 150.056 75.2947C150.542 75.9805 151.485 75.8852 152.808 75.5518C154.037 75.2375 154.685 74.7708 154.256 74.1707C153.932 73.723 153.294 73.5516 152.532 73.6754L152.351 73.704C152.351 73.704 152.294 73.704 152.266 73.6659L152.189 73.5611C152.189 73.5611 152.17 73.504 152.208 73.4944L153.694 73.1896C153.694 73.1896 153.761 73.1896 153.79 73.2182L153.847 73.2944H153.828Z" fill="#FCCB61"/>
<path d="M153.027 72.2181C153.027 72.2181 153.056 72.2752 153.018 72.2847L152.913 72.3133C152.913 72.3133 152.856 72.3133 152.827 72.2752L152.675 72.0847C152.58 71.9704 152.542 71.9704 152.037 72.1038L148.57 73.0086L148.779 73.3039C149.046 73.6754 149.474 73.7421 150.075 73.5897L150.265 73.542C150.265 73.542 150.332 73.542 150.36 73.5801L150.437 73.6849C150.437 73.6849 150.456 73.7421 150.417 73.7516L149.113 74.085C149.113 74.085 149.055 74.085 149.017 74.0373L147.312 71.618C147.274 71.5704 147.284 71.5609 147.322 71.5513L148.617 71.2084C148.617 71.2084 148.684 71.2084 148.713 71.2465L148.779 71.3513C148.779 71.3513 148.798 71.3989 148.751 71.4085L148.56 71.4561C147.97 71.618 147.75 71.8466 148.017 72.2276L148.217 72.5133L151.684 71.6085C152.189 71.4751 152.218 71.4656 152.141 71.3418L152.018 71.1513C152.018 71.1513 151.989 71.0941 152.027 71.0846L152.132 71.056C152.132 71.056 152.189 71.056 152.218 71.0941L153.037 72.2466L153.027 72.2181Z" fill="#FCCB61"/>
<path d="M148.132 69.2272C148.017 68.8081 148.16 68.5605 148.951 68.3033C149.608 68.0938 149.789 67.9795 149.694 67.8366C149.637 67.7509 149.475 67.7509 149.265 67.789C149.237 67.789 149.208 67.789 149.189 67.7509L149.17 67.6937C149.17 67.6937 149.17 67.6461 149.218 67.6366C149.627 67.5604 149.894 67.6747 150.065 67.9128C150.399 68.3795 149.932 68.5796 149.332 68.7986C148.551 69.0558 148.313 69.2653 148.551 69.5987L148.779 69.9226L150.227 69.5416C150.732 69.4082 150.761 69.3892 150.675 69.2749L150.551 69.0844C150.551 69.0844 150.523 69.0367 150.561 69.0177L150.665 68.9891C150.665 68.9891 150.723 68.9891 150.751 69.0272L151.561 70.1702C151.561 70.1702 151.589 70.2178 151.551 70.2369L151.446 70.2655C151.446 70.2655 151.389 70.2655 151.361 70.2274L151.208 70.0464C151.113 69.9226 151.075 69.9226 150.57 70.0559L147.627 70.837C147.132 70.9703 147.103 70.9798 147.179 71.1132L147.294 71.3037C147.294 71.3037 147.322 71.3513 147.284 71.3704L147.179 71.3989C147.179 71.3989 147.122 71.3989 147.094 71.3608L146.303 70.2369C145.836 69.5797 145.76 69.0177 146.532 68.8177C147.122 68.6557 147.665 68.8558 148.113 69.2653L148.132 69.2272ZM146.551 70.1416L146.77 70.4464L148.532 69.9797L148.303 69.6559C148.008 69.2463 147.608 69.132 146.979 69.2939C146.284 69.4844 146.274 69.7511 146.551 70.1321V70.1416Z" fill="#FCCB61"/>
<path d="M149.561 67.3509C149.561 67.3509 149.589 67.3985 149.551 67.4175L149.446 67.4461C149.446 67.4461 149.389 67.4461 149.36 67.408L149.218 67.2271C149.122 67.1128 149.094 67.1128 148.589 67.2461L145.674 68.0367C145.179 68.17 145.15 68.1891 145.227 68.3034L145.341 68.4939C145.341 68.4939 145.37 68.5415 145.331 68.5605L145.227 68.5891C145.227 68.5891 145.17 68.5891 145.15 68.551L144.36 67.4271C144.36 67.4271 144.331 67.3795 144.369 67.3699L144.474 67.3413C144.474 67.3413 144.531 67.3413 144.55 67.3794L144.693 67.5604C144.779 67.6747 144.817 67.6747 145.312 67.5414L148.217 66.7508C148.713 66.6175 148.741 66.5984 148.665 66.4841L148.541 66.2936C148.541 66.2936 148.513 66.246 148.551 66.2365L148.656 66.2079C148.656 66.2079 148.713 66.2079 148.741 66.246L149.541 67.3699L149.561 67.3509Z" fill="#FCCB61"/>
<path d="M147.055 63.6933C147.055 63.6933 147.065 63.7314 147.055 63.7599L144.607 66.3126L146.646 65.7697C147.76 65.4649 147.836 65.3125 147.674 65.0458L147.598 64.922C147.598 64.922 147.57 64.8744 147.608 64.8648L147.712 64.8363C147.712 64.8363 147.77 64.8363 147.789 64.8744L148.56 65.9602C148.56 65.9602 148.589 66.0078 148.551 66.0269L148.446 66.0554C148.446 66.0554 148.389 66.0554 148.37 66.0173L148.313 65.9507C148.17 65.7792 147.932 65.7221 146.827 66.0269L144.674 66.6174C144.188 66.7508 144.179 66.7793 144.245 66.8841L144.36 67.0746C144.36 67.0746 144.388 67.1222 144.35 67.1318L144.236 67.1603C144.236 67.1603 144.179 67.1603 144.16 67.1222L143.655 66.4079C143.655 66.4079 143.636 66.3602 143.655 66.3317L145.912 64.0266L144.083 64.5219C142.988 64.8267 142.912 64.9887 143.074 65.2363L143.15 65.3601C143.15 65.3601 143.179 65.4078 143.141 65.4173L143.036 65.4459C143.036 65.4459 142.979 65.4458 142.96 65.4077L142.207 64.341C142.207 64.341 142.178 64.2933 142.217 64.2838L142.321 64.2552C142.321 64.2552 142.379 64.2552 142.398 64.2933L142.455 64.36C142.598 64.5219 142.826 64.5791 143.912 64.2743L146.827 63.4647C146.827 63.4647 146.884 63.4647 146.903 63.4932L147.046 63.6933H147.055Z" fill="#FCCB61"/>
<path d="M145.369 61.4739C145.369 61.4739 145.398 61.5216 145.36 61.5311L145.255 61.5597C145.255 61.5597 145.198 61.5597 145.179 61.5216L145.084 61.4073C145.007 61.3215 144.96 61.2644 144.826 61.293C144.703 61.3311 144.55 61.4168 144.293 61.5787L143.779 61.8645L144.445 62.8074H144.56C144.893 62.7884 145.284 62.7693 145.55 62.6931C145.798 62.6265 145.874 62.5217 145.788 62.3883L145.731 62.2836C145.731 62.2836 145.703 62.2359 145.741 62.2264L145.846 62.1978C145.846 62.1978 145.903 62.1978 145.922 62.2359L146.579 63.1503C146.579 63.1503 146.608 63.1979 146.569 63.2075L146.465 63.236C146.465 63.236 146.408 63.236 146.379 63.1979L146.35 63.1598C146.246 63.0455 146.103 63.0265 145.76 63.036C145.531 63.0265 145.112 63.036 144.788 63.036L141.34 63.1027C141.34 63.1027 141.274 63.1027 141.255 63.0646L141.131 62.8836C141.131 62.8836 141.112 62.8455 141.15 62.8169L143.912 60.9977C144.464 60.6262 144.512 60.5786 144.445 60.4643L144.417 60.3976C144.417 60.3976 144.388 60.35 144.426 60.3405L144.531 60.3119C144.531 60.3119 144.588 60.3119 144.607 60.35L145.369 61.4263V61.4739ZM142.169 62.9027L144.169 62.836L143.588 62.0169L142.169 62.9027Z" fill="#FCCB61"/>
<path d="M142.941 58.0735C142.941 58.0735 142.969 58.1212 142.931 58.1307L142.826 58.1593C142.826 58.1593 142.769 58.1593 142.75 58.1212L142.607 57.9402C142.521 57.8354 142.483 57.8354 142.007 57.9783L139.235 58.7784L143.331 58.5593C143.369 58.5593 143.388 58.5593 143.398 58.5784L143.531 58.7689C143.531 58.7689 143.541 58.7974 143.512 58.8165L140.521 60.6167L142.569 60.0452C143.664 59.7309 143.788 59.6356 143.617 59.3784L143.56 59.2832C143.56 59.2832 143.531 59.2356 143.569 59.2261L143.674 59.1975C143.674 59.1975 143.731 59.1975 143.75 59.2356L144.426 60.1881C144.426 60.1881 144.455 60.2357 144.417 60.2452L144.312 60.2738C144.312 60.2738 144.255 60.2738 144.236 60.2357L144.188 60.1785C144.045 60.0071 143.826 59.9785 142.741 60.2833L140.626 60.8834C140.15 61.0167 140.14 61.0548 140.197 61.1406L140.312 61.3215C140.312 61.3215 140.34 61.3692 140.302 61.3787L140.197 61.4073C140.197 61.4073 140.14 61.4073 140.121 61.3692L139.569 60.5786C139.569 60.5786 139.55 60.531 139.588 60.5119L142.445 58.8165V58.7974L138.55 59.026C138.502 59.026 138.483 59.007 138.464 58.9879L137.921 58.2069C137.921 58.2069 137.892 58.1593 137.93 58.1497L138.035 58.1212C138.035 58.1212 138.083 58.1212 138.111 58.1593L138.245 58.3212C138.321 58.4164 138.359 58.4355 138.826 58.2926L141.655 57.4735C142.14 57.3306 142.169 57.3211 142.093 57.2068L141.979 57.0258C141.979 57.0258 141.95 56.9782 141.988 56.9686L142.093 56.9401C142.093 56.9401 142.14 56.9401 142.169 56.9782L142.941 58.064V58.0735Z" fill="#FCCB61"/>
<path d="M141.969 56.702C141.969 56.702 141.998 56.7496 141.96 56.7591L141.855 56.7877C141.855 56.7877 141.807 56.7877 141.779 56.7496L141.636 56.5782C141.54 56.4639 141.512 56.4639 141.026 56.6067L138.216 57.4259C137.74 57.5688 137.711 57.5878 137.788 57.7021L137.902 57.8831C137.902 57.8831 137.931 57.9307 137.892 57.9402L137.797 57.9688C137.797 57.9688 137.75 57.9688 137.721 57.9307L136.416 56.0733C136.416 56.0733 136.387 56.0162 136.426 56.0067L137.53 55.6828C137.53 55.6828 137.588 55.6733 137.616 55.7114L137.683 55.8066C137.683 55.8066 137.702 55.8543 137.664 55.8733L137.597 55.8924C137.045 56.0733 136.835 56.2829 137.083 56.6258L137.407 57.083L139.093 56.5877L138.95 56.3781C138.769 56.121 138.531 56.1019 138.245 56.1686L138.188 56.1876C138.188 56.1876 138.131 56.1876 138.102 56.1591L138.045 56.0829C138.045 56.0829 138.026 56.0352 138.064 56.0162L139.35 55.6352C139.35 55.6352 139.407 55.6352 139.435 55.6638L139.493 55.74C139.493 55.74 139.512 55.7876 139.474 55.8066L139.388 55.8352C139.121 55.9209 138.988 56.0638 139.169 56.3115L139.312 56.521L141.198 55.9686L140.74 55.3209C140.464 54.9399 139.931 54.978 139.464 55.0923H139.435C139.435 55.0923 139.378 55.1018 139.359 55.0637L139.293 54.9684C139.293 54.9684 139.264 54.9113 139.302 54.9018L140.464 54.6255C140.464 54.6255 140.521 54.6256 140.55 54.6636L141.988 56.6829L141.969 56.702Z" fill="#FCCB61"/>
<path d="M139.893 53.7873C139.893 53.7873 139.921 53.8349 139.883 53.8445L139.778 53.873C139.778 53.873 139.721 53.873 139.702 53.8349L139.559 53.654C139.474 53.5397 139.435 53.5492 138.959 53.6921L135.692 54.6636L135.883 54.9398C136.13 55.2827 136.53 55.3304 137.092 55.1684L137.273 55.1113C137.273 55.1113 137.34 55.1113 137.359 55.1399L137.426 55.2351C137.426 55.2351 137.445 55.2827 137.407 55.3018L136.178 55.6637C136.178 55.6637 136.121 55.6637 136.083 55.6161L134.502 53.3682C134.502 53.3682 134.473 53.3111 134.511 53.3016L135.73 52.9396C135.73 52.9396 135.787 52.9301 135.816 52.9682L135.883 53.0634C135.883 53.0634 135.902 53.1111 135.854 53.1206L135.673 53.1777C135.121 53.3492 134.911 53.5778 135.149 53.9302L135.34 54.1969L138.607 53.2254C139.083 53.0825 139.112 53.0634 139.035 52.9587L138.921 52.7777C138.921 52.7777 138.892 52.7301 138.931 52.7205L139.026 52.692C139.026 52.692 139.073 52.692 139.102 52.7301L139.864 53.7968L139.893 53.7873Z" fill="#FCCB61"/>
<path d="M168.324 69.3511L169.182 70.5607C169.182 70.5607 169.21 70.6084 169.172 70.6179L169.067 70.6369C169.067 70.6369 169.01 70.6369 168.991 70.5988L168.848 70.4179C168.753 70.3036 168.724 70.3036 168.22 70.4083L165.286 71.0179C164.781 71.1227 164.753 71.1322 164.838 71.2561L164.962 71.4466C164.962 71.4466 164.991 71.4942 164.953 71.5037L164.848 71.5228C164.848 71.5228 164.791 71.5228 164.762 71.4847L163.914 70.3512C163.181 69.3701 163.371 68.5033 164.867 68.1986C166.362 67.8938 167.715 68.4843 168.324 69.3511ZM164.181 70.3131L164.4 70.6084L168.353 69.7892L168.105 69.4368C167.553 68.6653 166.753 68.5034 165.362 68.7891C163.876 69.0939 163.638 69.5701 164.191 70.3131H164.181Z" fill="#FCCB61"/>
<path d="M166.953 67.4176C166.953 67.4176 166.981 67.4747 166.953 67.4747L166.848 67.4938C166.848 67.4938 166.791 67.4938 166.762 67.4461L166.61 67.2556C166.515 67.1318 166.477 67.1318 165.962 67.2366L162.943 67.8462C162.429 67.951 162.4 67.9605 162.486 68.0938L162.619 68.2938C162.619 68.2938 162.648 68.351 162.619 68.351L162.514 68.37C162.514 68.37 162.457 68.37 162.429 68.3319L161.533 67.1413C161.533 67.1413 161.505 67.0842 161.533 67.0747L161.648 67.0556C161.648 67.0556 161.705 67.0556 161.733 67.1032L161.895 67.3033C162 67.4271 162.038 67.4271 162.552 67.3223L165.581 66.7222C166.096 66.6175 166.124 66.6079 166.039 66.4841L165.915 66.2841C165.915 66.2841 165.886 66.2269 165.915 66.2174L166.019 66.1984C166.019 66.1984 166.077 66.1984 166.105 66.246L166.953 67.4366V67.4176Z" fill="#FCCB61"/>
<path d="M162.276 64.722C162.133 64.2743 162.276 64.0267 163.114 63.8171C163.81 63.6457 164 63.5409 163.886 63.3885C163.819 63.3028 163.648 63.2742 163.429 63.3028C163.4 63.3028 163.362 63.2933 163.343 63.2552L163.314 63.198C163.314 63.198 163.314 63.1409 163.362 63.1409C163.8 63.0932 164.086 63.2361 164.267 63.4933C164.629 64.0076 164.143 64.1791 163.514 64.3601C162.705 64.5696 162.457 64.7791 162.714 65.1316L162.972 65.484L164.476 65.1887C164.991 65.0839 165.029 65.0744 164.943 64.9411L164.81 64.7315C164.81 64.7315 164.781 64.6744 164.81 64.6648L164.924 64.6458C164.924 64.6458 164.981 64.6458 165.01 64.6934L165.877 65.9126C165.877 65.9126 165.905 65.9698 165.877 65.9793L165.772 65.9983C165.772 65.9983 165.715 65.9983 165.686 65.9507L165.534 65.7507C165.429 65.6173 165.391 65.6173 164.877 65.7221L161.819 66.3222C161.295 66.427 161.267 66.4365 161.362 66.5794L161.495 66.7794C161.495 66.7794 161.524 66.8365 161.495 66.8461L161.381 66.8651C161.381 66.8651 161.324 66.8651 161.295 66.8175L160.39 65.6078C159.847 64.8839 159.733 64.2934 160.562 64.1315C161.19 64.0076 161.79 64.2553 162.295 64.722H162.276ZM160.619 65.5602L160.867 65.8936L162.733 65.5316L162.476 65.1887C162.152 64.7411 161.705 64.5886 161.038 64.722C160.295 64.8649 160.305 65.1506 160.619 65.5697V65.5602Z" fill="#FCCB61"/>
<path d="M163.724 62.8551C163.724 62.8551 163.753 62.9122 163.724 62.9218L163.61 62.9408C163.61 62.9408 163.553 62.9408 163.524 62.8932L163.362 62.6837C163.257 62.5503 163.219 62.5503 162.695 62.6551L159.562 63.2552C159.028 63.3599 158.99 63.3694 159.085 63.5028L159.228 63.7123C159.228 63.7123 159.266 63.7695 159.228 63.779L159.114 63.7981C159.114 63.7981 159.057 63.7981 159.019 63.7504L158.066 62.4741C158.066 62.4741 158.028 62.417 158.066 62.4074L158.181 62.3884C158.181 62.3884 158.238 62.3884 158.276 62.436L158.447 62.6455C158.552 62.7789 158.6 62.7789 159.133 62.6741L162.286 62.0741C162.819 61.9693 162.848 61.9598 162.762 61.8264L162.629 61.6073C162.629 61.6073 162.591 61.5502 162.629 61.5407L162.743 61.5216C162.743 61.5216 162.8 61.5216 162.829 61.5692L163.734 62.8361L163.724 62.8551Z" fill="#FCCB61"/>
<path d="M160.733 58.5784C160.733 58.5784 160.762 58.6355 160.733 58.6641L160.619 58.826V58.8451C160.952 59.026 161.314 59.3213 161.571 59.6833C162.257 60.6548 161.667 61.4168 160.257 61.6835C158.79 61.9597 157.285 61.6168 156.466 60.531C156.228 60.2071 156.114 59.8833 156.114 59.6928H155.98C155.933 59.6928 155.904 59.6928 155.866 59.6356L155.809 59.5499C155.771 59.5023 155.79 59.4832 155.828 59.4832L157.276 59.2165C157.323 59.2165 157.342 59.2165 157.38 59.2642L157.466 59.3785C157.466 59.3785 157.485 59.4356 157.438 59.4451L157.323 59.4737C156.714 59.5975 156.323 59.969 156.714 60.5024C157.342 61.3501 158.352 61.2835 159.771 61.0168C161.238 60.7405 161.752 60.3405 161.276 59.6642C161.105 59.4261 160.838 59.2261 160.6 59.0927L159.886 59.2261C159.343 59.3308 159.305 59.3404 159.4 59.4737L159.638 59.8357C159.638 59.8357 159.676 59.8928 159.638 59.9023L159.524 59.9214C159.524 59.9214 159.466 59.9214 159.428 59.8738L158.419 58.4831C158.419 58.4831 158.381 58.426 158.419 58.4165L158.533 58.3974C158.533 58.3974 158.6 58.3974 158.628 58.445L158.781 58.6165C158.885 58.7593 158.933 58.7593 159.476 58.6546L160.571 58.4545C160.571 58.4545 160.638 58.4545 160.667 58.4926L160.724 58.5688L160.733 58.5784Z" fill="#FCCB61"/>
<path d="M160.171 57.864C160.171 57.864 160.209 57.9211 160.171 57.9307L160.057 57.9497C160.057 57.9497 160 57.9497 159.962 57.9021L159.79 57.683C159.676 57.5306 159.638 57.5306 159.085 57.6354L155.818 58.2259C155.256 58.3307 155.228 58.3498 155.332 58.4926L155.485 58.7212C155.485 58.7212 155.523 58.7784 155.485 58.7879L155.371 58.807C155.371 58.807 155.304 58.807 155.275 58.7593L153.494 56.3781C153.447 56.3114 153.456 56.3019 153.494 56.3019L154.818 56.0733C154.866 56.0733 154.894 56.0733 154.932 56.1209L155.028 56.2447C155.028 56.2447 155.056 56.3019 155.009 56.3209L154.923 56.34C154.266 56.4829 154.028 56.7019 154.361 57.1496L154.799 57.7402L156.78 57.3877L156.59 57.121C156.352 56.7972 156.056 56.7305 155.723 56.7781H155.656C155.609 56.7877 155.59 56.7781 155.552 56.74L155.475 56.6448C155.437 56.5876 155.447 56.5781 155.485 56.5686L156.999 56.3019C157.047 56.3019 157.066 56.3019 157.104 56.3495L157.18 56.4448C157.18 56.4448 157.209 56.5114 157.161 56.5114L157.056 56.5305C156.742 56.5972 156.59 56.74 156.828 57.0639L157.018 57.3306L159.209 56.9401L158.619 56.1114C158.266 55.6161 157.628 55.5875 157.076 55.6542H157.037C157.037 55.6542 156.971 55.6542 156.942 55.6066L156.856 55.4828C156.809 55.4256 156.818 55.4065 156.856 55.4065L158.228 55.2542C158.228 55.2542 158.295 55.2542 158.333 55.3113L160.162 57.8926L160.171 57.864Z" fill="#FCCB61"/>
<path d="M162.676 78.1807L160.438 77.314L147.751 58.9404L145.169 59.4547L144.76 58.3212L146.931 57.7878L145.531 55.7209L146.684 55.4447L148.313 57.4926L150.913 56.7687L151.703 57.8926L149.265 58.5022L162.59 76.6091L162.676 78.1807Z" fill="#FCCB61"/>
<path d="M176.145 53.6445C176.145 53.6445 178.707 62.1979 186.346 59.8452C193.489 57.645 184.831 51.3966 184.831 51.3966L184.346 51.5204C184.346 51.5204 191.718 57.2259 185.717 59.0451C179.288 60.9882 176.707 53.5778 176.707 53.5778L176.145 53.6445Z" fill="#FCCB61"/>
</g>
<defs>
<filter id="filter0_d_494_4553" x="308.342" y="88.3736" width="39.3262" height="40.3453" filterUnits="userSpaceOnUse" color-interpolation-filters="sRGB">
<feFlood flood-opacity="0" result="BackgroundImageFix"/>
<feColorMatrix in="SourceAlpha" type="matrix" values="0 0 0 0 0 0 0 0 0 0 0 0 0 0 0 0 0 0 127 0" result="hardAlpha"/>
<feOffset dx="4"/>
<feGaussianBlur stdDeviation="5"/>
<feColorMatrix type="matrix" values="0 0 0 0 0 0 0 0 0 0 0 0 0 0 0 0 0 0 0.26 0"/>
<feBlend mode="normal" in2="BackgroundImageFix" result="effect1_dropShadow_494_4553"/>
<feBlend mode="normal" in="SourceGraphic" in2="effect1_dropShadow_494_4553" result="shape"/>
</filter>
<filter id="filter1_d_494_4553" x="326.458" y="92.1836" width="39.3262" height="40.3453" filterUnits="userSpaceOnUse" color-interpolation-filters="sRGB">
<feFlood flood-opacity="0" result="BackgroundImageFix"/>
<feColorMatrix in="SourceAlpha" type="matrix" values="0 0 0 0 0 0 0 0 0 0 0 0 0 0 0 0 0 0 127 0" result="hardAlpha"/>
<feOffset dx="4"/>
<feGaussianBlur stdDeviation="5"/>
<feColorMatrix type="matrix" values="0 0 0 0 0 0 0 0 0 0 0 0 0 0 0 0 0 0 0.26 0"/>
<feBlend mode="normal" in2="BackgroundImageFix" result="effect1_dropShadow_494_4553"/>
<feBlend mode="normal" in="SourceGraphic" in2="effect1_dropShadow_494_4553" result="shape"/>
</filter>
<filter id="filter2_d_494_4553" x="343.28" y="94.7076" width="39.3262" height="40.3453" filterUnits="userSpaceOnUse" color-interpolation-filters="sRGB">
<feFlood flood-opacity="0" result="BackgroundImageFix"/>
<feColorMatrix in="SourceAlpha" type="matrix" values="0 0 0 0 0 0 0 0 0 0 0 0 0 0 0 0 0 0 127 0" result="hardAlpha"/>
<feOffset dx="4"/>
<feGaussianBlur stdDeviation="5"/>
<feColorMatrix type="matrix" values="0 0 0 0 0 0 0 0 0 0 0 0 0 0 0 0 0 0 0.26 0"/>
<feBlend mode="normal" in2="BackgroundImageFix" result="effect1_dropShadow_494_4553"/>
<feBlend mode="normal" in="SourceGraphic" in2="effect1_dropShadow_494_4553" result="shape"/>
</filter>
<filter id="filter3_d_494_4553" x="276.157" y="111.7" width="42.8218" height="44.041" filterUnits="userSpaceOnUse" color-interpolation-filters="sRGB">
<feFlood flood-opacity="0" result="BackgroundImageFix"/>
<feColorMatrix in="SourceAlpha" type="matrix" values="0 0 0 0 0 0 0 0 0 0 0 0 0 0 0 0 0 0 127 0" result="hardAlpha"/>
<feOffset dx="4"/>
<feGaussianBlur stdDeviation="5"/>
<feColorMatrix type="matrix" values="0 0 0 0 0 0 0 0 0 0 0 0 0 0 0 0 0 0 0.26 0"/>
<feBlend mode="normal" in2="BackgroundImageFix" result="effect1_dropShadow_494_4553"/>
<feBlend mode="normal" in="SourceGraphic" in2="effect1_dropShadow_494_4553" result="shape"/>
</filter>
<filter id="filter4_d_494_4553" x="297.607" y="99.775" width="39.3262" height="40.3453" filterUnits="userSpaceOnUse" color-interpolation-filters="sRGB">
<feFlood flood-opacity="0" result="BackgroundImageFix"/>
<feColorMatrix in="SourceAlpha" type="matrix" values="0 0 0 0 0 0 0 0 0 0 0 0 0 0 0 0 0 0 127 0" result="hardAlpha"/>
<feOffset dx="4"/>
<feGaussianBlur stdDeviation="5"/>
<feColorMatrix type="matrix" values="0 0 0 0 0 0 0 0 0 0 0 0 0 0 0 0 0 0 0.26 0"/>
<feBlend mode="normal" in2="BackgroundImageFix" result="effect1_dropShadow_494_4553"/>
<feBlend mode="normal" in="SourceGraphic" in2="effect1_dropShadow_494_4553" result="shape"/>
</filter>
<filter id="filter5_d_494_4553" x="315.733" y="103.585" width="39.3169" height="40.3453" filterUnits="userSpaceOnUse" color-interpolation-filters="sRGB">
<feFlood flood-opacity="0" result="BackgroundImageFix"/>
<feColorMatrix in="SourceAlpha" type="matrix" values="0 0 0 0 0 0 0 0 0 0 0 0 0 0 0 0 0 0 127 0" result="hardAlpha"/>
<feOffset dx="4"/>
<feGaussianBlur stdDeviation="5"/>
<feColorMatrix type="matrix" values="0 0 0 0 0 0 0 0 0 0 0 0 0 0 0 0 0 0 0.26 0"/>
<feBlend mode="normal" in2="BackgroundImageFix" result="effect1_dropShadow_494_4553"/>
<feBlend mode="normal" in="SourceGraphic" in2="effect1_dropShadow_494_4553" result="shape"/>
</filter>
<filter id="filter6_d_494_4553" x="332.555" y="106.109" width="39.3262" height="40.3453" filterUnits="userSpaceOnUse" color-interpolation-filters="sRGB">
<feFlood flood-opacity="0" result="BackgroundImageFix"/>
<feColorMatrix in="SourceAlpha" type="matrix" values="0 0 0 0 0 0 0 0 0 0 0 0 0 0 0 0 0 0 127 0" result="hardAlpha"/>
<feOffset dx="4"/>
<feGaussianBlur stdDeviation="5"/>
<feColorMatrix type="matrix" values="0 0 0 0 0 0 0 0 0 0 0 0 0 0 0 0 0 0 0.26 0"/>
<feBlend mode="normal" in2="BackgroundImageFix" result="effect1_dropShadow_494_4553"/>
<feBlend mode="normal" in="SourceGraphic" in2="effect1_dropShadow_494_4553" result="shape"/>
</filter>
<filter id="filter7_d_494_4553" x="297.56" y="116.205" width="42.8311" height="44.041" filterUnits="userSpaceOnUse" color-interpolation-filters="sRGB">
<feFlood flood-opacity="0" result="BackgroundImageFix"/>
<feColorMatrix in="SourceAlpha" type="matrix" values="0 0 0 0 0 0 0 0 0 0 0 0 0 0 0 0 0 0 127 0" result="hardAlpha"/>
<feOffset dx="4"/>
<feGaussianBlur stdDeviation="5"/>
<feColorMatrix type="matrix" values="0 0 0 0 0 0 0 0 0 0 0 0 0 0 0 0 0 0 0.26 0"/>
<feBlend mode="normal" in2="BackgroundImageFix" result="effect1_dropShadow_494_4553"/>
<feBlend mode="normal" in="SourceGraphic" in2="effect1_dropShadow_494_4553" result="shape"/>
</filter>
<filter id="filter8_d_494_4553" x="317.438" y="119.187" width="42.8311" height="44.041" filterUnits="userSpaceOnUse" color-interpolation-filters="sRGB">
<feFlood flood-opacity="0" result="BackgroundImageFix"/>
<feColorMatrix in="SourceAlpha" type="matrix" values="0 0 0 0 0 0 0 0 0 0 0 0 0 0 0 0 0 0 127 0" result="hardAlpha"/>
<feOffset dx="4"/>
<feGaussianBlur stdDeviation="5"/>
<feColorMatrix type="matrix" values="0 0 0 0 0 0 0 0 0 0 0 0 0 0 0 0 0 0 0.26 0"/>
<feBlend mode="normal" in2="BackgroundImageFix" result="effect1_dropShadow_494_4553"/>
<feBlend mode="normal" in="SourceGraphic" in2="effect1_dropShadow_494_4553" result="shape"/>
</filter>
<filter id="filter9_d_494_4553" x="248.659" y="123.768" width="42.8311" height="44.0409" filterUnits="userSpaceOnUse" color-interpolation-filters="sRGB">
<feFlood flood-opacity="0" result="BackgroundImageFix"/>
<feColorMatrix in="SourceAlpha" type="matrix" values="0 0 0 0 0 0 0 0 0 0 0 0 0 0 0 0 0 0 127 0" result="hardAlpha"/>
<feOffset dx="4"/>
<feGaussianBlur stdDeviation="5"/>
<feColorMatrix type="matrix" values="0 0 0 0 0 0 0 0 0 0 0 0 0 0 0 0 0 0 0.26 0"/>
<feBlend mode="normal" in2="BackgroundImageFix" result="effect1_dropShadow_494_4553"/>
<feBlend mode="normal" in="SourceGraphic" in2="effect1_dropShadow_494_4553" result="shape"/>
</filter>
<filter id="filter10_d_494_4553" x="270.062" y="128.283" width="42.8311" height="44.041" filterUnits="userSpaceOnUse" color-interpolation-filters="sRGB">
<feFlood flood-opacity="0" result="BackgroundImageFix"/>
<feColorMatrix in="SourceAlpha" type="matrix" values="0 0 0 0 0 0 0 0 0 0 0 0 0 0 0 0 0 0 127 0" result="hardAlpha"/>
<feOffset dx="4"/>
<feGaussianBlur stdDeviation="5"/>
<feColorMatrix type="matrix" values="0 0 0 0 0 0 0 0 0 0 0 0 0 0 0 0 0 0 0.26 0"/>
<feBlend mode="normal" in2="BackgroundImageFix" result="effect1_dropShadow_494_4553"/>
<feBlend mode="normal" in="SourceGraphic" in2="effect1_dropShadow_494_4553" result="shape"/>
</filter>
<filter id="filter11_d_494_4553" x="289.94" y="131.264" width="42.8311" height="44.041" filterUnits="userSpaceOnUse" color-interpolation-filters="sRGB">
<feFlood flood-opacity="0" result="BackgroundImageFix"/>
<feColorMatrix in="SourceAlpha" type="matrix" values="0 0 0 0 0 0 0 0 0 0 0 0 0 0 0 0 0 0 127 0" result="hardAlpha"/>
<feOffset dx="4"/>
<feGaussianBlur stdDeviation="5"/>
<feColorMatrix type="matrix" values="0 0 0 0 0 0 0 0 0 0 0 0 0 0 0 0 0 0 0.26 0"/>
<feBlend mode="normal" in2="BackgroundImageFix" result="effect1_dropShadow_494_4553"/>
<feBlend mode="normal" in="SourceGraphic" in2="effect1_dropShadow_494_4553" result="shape"/>
</filter>
<filter id="filter12_d_494_4553" x="219.817" y="131.15" width="42.8311" height="44.0409" filterUnits="userSpaceOnUse" color-interpolation-filters="sRGB">
<feFlood flood-opacity="0" result="BackgroundImageFix"/>
<feColorMatrix in="SourceAlpha" type="matrix" values="0 0 0 0 0 0 0 0 0 0 0 0 0 0 0 0 0 0 127 0" result="hardAlpha"/>
<feOffset dx="4"/>
<feGaussianBlur stdDeviation="5"/>
<feColorMatrix type="matrix" values="0 0 0 0 0 0 0 0 0 0 0 0 0 0 0 0 0 0 0.26 0"/>
<feBlend mode="normal" in2="BackgroundImageFix" result="effect1_dropShadow_494_4553"/>
<feBlend mode="normal" in="SourceGraphic" in2="effect1_dropShadow_494_4553" result="shape"/>
</filter>
<filter id="filter13_d_494_4553" x="241.229" y="135.655" width="42.8218" height="44.041" filterUnits="userSpaceOnUse" color-interpolation-filters="sRGB">
<feFlood flood-opacity="0" result="BackgroundImageFix"/>
<feColorMatrix in="SourceAlpha" type="matrix" values="0 0 0 0 0 0 0 0 0 0 0 0 0 0 0 0 0 0 127 0" result="hardAlpha"/>
<feOffset dx="4"/>
<feGaussianBlur stdDeviation="5"/>
<feColorMatrix type="matrix" values="0 0 0 0 0 0 0 0 0 0 0 0 0 0 0 0 0 0 0.26 0"/>
<feBlend mode="normal" in2="BackgroundImageFix" result="effect1_dropShadow_494_4553"/>
<feBlend mode="normal" in="SourceGraphic" in2="effect1_dropShadow_494_4553" result="shape"/>
</filter>
<filter id="filter14_d_494_4553" x="261.099" y="138.637" width="42.8311" height="44.041" filterUnits="userSpaceOnUse" color-interpolation-filters="sRGB">
<feFlood flood-opacity="0" result="BackgroundImageFix"/>
<feColorMatrix in="SourceAlpha" type="matrix" values="0 0 0 0 0 0 0 0 0 0 0 0 0 0 0 0 0 0 127 0" result="hardAlpha"/>
<feOffset dx="4"/>
<feGaussianBlur stdDeviation="5"/>
<feColorMatrix type="matrix" values="0 0 0 0 0 0 0 0 0 0 0 0 0 0 0 0 0 0 0.26 0"/>
<feBlend mode="normal" in2="BackgroundImageFix" result="effect1_dropShadow_494_4553"/>
<feBlend mode="normal" in="SourceGraphic" in2="effect1_dropShadow_494_4553" result="shape"/>
</filter>
<filter id="filter15_d_494_4553" x="280.462" y="169.707" width="45.8125" height="47.1747" filterUnits="userSpaceOnUse" color-interpolation-filters="sRGB">
<feFlood flood-opacity="0" result="BackgroundImageFix"/>
<feColorMatrix in="SourceAlpha" type="matrix" values="0 0 0 0 0 0 0 0 0 0 0 0 0 0 0 0 0 0 127 0" result="hardAlpha"/>
<feOffset dx="4"/>
<feGaussianBlur stdDeviation="5"/>
<feColorMatrix type="matrix" values="0 0 0 0 0 0 0 0 0 0 0 0 0 0 0 0 0 0 0.26 0"/>
<feBlend mode="normal" in2="BackgroundImageFix" result="effect1_dropShadow_494_4553"/>
<feBlend mode="normal" in="SourceGraphic" in2="effect1_dropShadow_494_4553" result="shape"/>
</filter>
<filter id="filter16_d_494_4553" x="186.28" y="139.865" width="46.2319" height="47.6129" filterUnits="userSpaceOnUse" color-interpolation-filters="sRGB">
<feFlood flood-opacity="0" result="BackgroundImageFix"/>
<feColorMatrix in="SourceAlpha" type="matrix" values="0 0 0 0 0 0 0 0 0 0 0 0 0 0 0 0 0 0 127 0" result="hardAlpha"/>
<feOffset dx="4"/>
<feGaussianBlur stdDeviation="5"/>
<feColorMatrix type="matrix" values="0 0 0 0 0 0 0 0 0 0 0 0 0 0 0 0 0 0 0.26 0"/>
<feBlend mode="normal" in2="BackgroundImageFix" result="effect1_dropShadow_494_4553"/>
<feBlend mode="normal" in="SourceGraphic" in2="effect1_dropShadow_494_4553" result="shape"/>
</filter>
<filter id="filter17_d_494_4553" x="211.55" y="145.047" width="46.2319" height="47.6129" filterUnits="userSpaceOnUse" color-interpolation-filters="sRGB">
<feFlood flood-opacity="0" result="BackgroundImageFix"/>
<feColorMatrix in="SourceAlpha" type="matrix" values="0 0 0 0 0 0 0 0 0 0 0 0 0 0 0 0 0 0 127 0" result="hardAlpha"/>
<feOffset dx="4"/>
<feGaussianBlur stdDeviation="5"/>
<feColorMatrix type="matrix" values="0 0 0 0 0 0 0 0 0 0 0 0 0 0 0 0 0 0 0.26 0"/>
<feBlend mode="normal" in2="BackgroundImageFix" result="effect1_dropShadow_494_4553"/>
<feBlend mode="normal" in="SourceGraphic" in2="effect1_dropShadow_494_4553" result="shape"/>
</filter>
<filter id="filter18_d_494_4553" x="234.381" y="149.809" width="46.2319" height="47.6129" filterUnits="userSpaceOnUse" color-interpolation-filters="sRGB">
<feFlood flood-opacity="0" result="BackgroundImageFix"/>
<feColorMatrix in="SourceAlpha" type="matrix" values="0 0 0 0 0 0 0 0 0 0 0 0 0 0 0 0 0 0 127 0" result="hardAlpha"/>
<feOffset dx="4"/>
<feGaussianBlur stdDeviation="5"/>
<feColorMatrix type="matrix" values="0 0 0 0 0 0 0 0 0 0 0 0 0 0 0 0 0 0 0.26 0"/>
<feBlend mode="normal" in2="BackgroundImageFix" result="effect1_dropShadow_494_4553"/>
<feBlend mode="normal" in="SourceGraphic" in2="effect1_dropShadow_494_4553" result="shape"/>
</filter>
<filter id="filter19_d_494_4553" x="160.744" y="153.277" width="50.8037" height="52.442" filterUnits="userSpaceOnUse" color-interpolation-filters="sRGB">
<feFlood flood-opacity="0" result="BackgroundImageFix"/>
<feColorMatrix in="SourceAlpha" type="matrix" values="0 0 0 0 0 0 0 0 0 0 0 0 0 0 0 0 0 0 127 0" result="hardAlpha"/>
<feOffset dx="4"/>
<feGaussianBlur stdDeviation="5"/>
<feColorMatrix type="matrix" values="0 0 0 0 0 0 0 0 0 0 0 0 0 0 0 0 0 0 0.26 0"/>
<feBlend mode="normal" in2="BackgroundImageFix" result="effect1_dropShadow_494_4553"/>
<feBlend mode="normal" in="SourceGraphic" in2="effect1_dropShadow_494_4553" result="shape"/>
</filter>
<filter id="filter20_d_494_4553" x="256.641" y="174.069" width="50.8135" height="52.442" filterUnits="userSpaceOnUse" color-interpolation-filters="sRGB">
<feFlood flood-opacity="0" result="BackgroundImageFix"/>
<feColorMatrix in="SourceAlpha" type="matrix" values="0 0 0 0 0 0 0 0 0 0 0 0 0 0 0 0 0 0 127 0" result="hardAlpha"/>
<feOffset dx="4"/>
<feGaussianBlur stdDeviation="5"/>
<feColorMatrix type="matrix" values="0 0 0 0 0 0 0 0 0 0 0 0 0 0 0 0 0 0 0.26 0"/>
<feBlend mode="normal" in2="BackgroundImageFix" result="effect1_dropShadow_494_4553"/>
<feBlend mode="normal" in="SourceGraphic" in2="effect1_dropShadow_494_4553" result="shape"/>
</filter>
<filter id="filter21_d_494_4553" x="194.271" y="159.982" width="50.8135" height="52.442" filterUnits="userSpaceOnUse" color-interpolation-filters="sRGB">
<feFlood flood-opacity="0" result="BackgroundImageFix"/>
<feColorMatrix in="SourceAlpha" type="matrix" values="0 0 0 0 0 0 0 0 0 0 0 0 0 0 0 0 0 0 127 0" result="hardAlpha"/>
<feOffset dx="4"/>
<feGaussianBlur stdDeviation="5"/>
<feColorMatrix type="matrix" values="0 0 0 0 0 0 0 0 0 0 0 0 0 0 0 0 0 0 0.26 0"/>
<feBlend mode="normal" in2="BackgroundImageFix" result="effect1_dropShadow_494_4553"/>
<feBlend mode="normal" in="SourceGraphic" in2="effect1_dropShadow_494_4553" result="shape"/>
</filter>
<filter id="filter22_d_494_4553" x="227.914" y="185.223" width="50.8135" height="52.442" filterUnits="userSpaceOnUse" color-interpolation-filters="sRGB">
<feFlood flood-opacity="0" result="BackgroundImageFix"/>
<feColorMatrix in="SourceAlpha" type="matrix" values="0 0 0 0 0 0 0 0 0 0 0 0 0 0 0 0 0 0 127 0" result="hardAlpha"/>
<feOffset dx="4"/>
<feGaussianBlur stdDeviation="5"/>
<feColorMatrix type="matrix" values="0 0 0 0 0 0 0 0 0 0 0 0 0 0 0 0 0 0 0.26 0"/>
<feBlend mode="normal" in2="BackgroundImageFix" result="effect1_dropShadow_494_4553"/>
<feBlend mode="normal" in="SourceGraphic" in2="effect1_dropShadow_494_4553" result="shape"/>
</filter>
<filter id="filter23_d_494_4553" x="254.745" y="189.252" width="50.8135" height="52.4324" filterUnits="userSpaceOnUse" color-interpolation-filters="sRGB">
<feFlood flood-opacity="0" result="BackgroundImageFix"/>
<feColorMatrix in="SourceAlpha" type="matrix" values="0 0 0 0 0 0 0 0 0 0 0 0 0 0 0 0 0 0 127 0" result="hardAlpha"/>
<feOffset dx="4"/>
<feGaussianBlur stdDeviation="5"/>
<feColorMatrix type="matrix" values="0 0 0 0 0 0 0 0 0 0 0 0 0 0 0 0 0 0 0.26 0"/>
<feBlend mode="normal" in2="BackgroundImageFix" result="effect1_dropShadow_494_4553"/>
<feBlend mode="normal" in="SourceGraphic" in2="effect1_dropShadow_494_4553" result="shape"/>
</filter>
<filter id="filter24_d_494_4553" x="209.702" y="198.882" width="50.8037" height="52.442" filterUnits="userSpaceOnUse" color-interpolation-filters="sRGB">
<feFlood flood-opacity="0" result="BackgroundImageFix"/>
<feColorMatrix in="SourceAlpha" type="matrix" values="0 0 0 0 0 0 0 0 0 0 0 0 0 0 0 0 0 0 127 0" result="hardAlpha"/>
<feOffset dx="4"/>
<feGaussianBlur stdDeviation="5"/>
<feColorMatrix type="matrix" values="0 0 0 0 0 0 0 0 0 0 0 0 0 0 0 0 0 0 0.26 0"/>
<feBlend mode="normal" in2="BackgroundImageFix" result="effect1_dropShadow_494_4553"/>
<feBlend mode="normal" in="SourceGraphic" in2="effect1_dropShadow_494_4553" result="shape"/>
</filter>
<filter id="filter25_d_494_4553" x="239.877" y="205.588" width="50.8135" height="52.442" filterUnits="userSpaceOnUse" color-interpolation-filters="sRGB">
<feFlood flood-opacity="0" result="BackgroundImageFix"/>
<feColorMatrix in="SourceAlpha" type="matrix" values="0 0 0 0 0 0 0 0 0 0 0 0 0 0 0 0 0 0 127 0" result="hardAlpha"/>
<feOffset dx="4"/>
<feGaussianBlur stdDeviation="5"/>
<feColorMatrix type="matrix" values="0 0 0 0 0 0 0 0 0 0 0 0 0 0 0 0 0 0 0.26 0"/>
<feBlend mode="normal" in2="BackgroundImageFix" result="effect1_dropShadow_494_4553"/>
<feBlend mode="normal" in="SourceGraphic" in2="effect1_dropShadow_494_4553" result="shape"/>
</filter>
<filter id="filter26_d_494_4553" x="23.251" y="153.953" width="50.8135" height="52.4324" filterUnits="userSpaceOnUse" color-interpolation-filters="sRGB">
<feFlood flood-opacity="0" result="BackgroundImageFix"/>
<feColorMatrix in="SourceAlpha" type="matrix" values="0 0 0 0 0 0 0 0 0 0 0 0 0 0 0 0 0 0 127 0" result="hardAlpha"/>
<feOffset dx="4"/>
<feGaussianBlur stdDeviation="5"/>
<feColorMatrix type="matrix" values="0 0 0 0 0 0 0 0 0 0 0 0 0 0 0 0 0 0 0.26 0"/>
<feBlend mode="normal" in2="BackgroundImageFix" result="effect1_dropShadow_494_4553"/>
<feBlend mode="normal" in="SourceGraphic" in2="effect1_dropShadow_494_4553" result="shape"/>
</filter>
<filter id="filter27_d_494_4553" x="140.065" y="163.763" width="50.8135" height="52.442" filterUnits="userSpaceOnUse" color-interpolation-filters="sRGB">
<feFlood flood-opacity="0" result="BackgroundImageFix"/>
<feColorMatrix in="SourceAlpha" type="matrix" values="0 0 0 0 0 0 0 0 0 0 0 0 0 0 0 0 0 0 127 0" result="hardAlpha"/>
<feOffset dx="4"/>
<feGaussianBlur stdDeviation="5"/>
<feColorMatrix type="matrix" values="0 0 0 0 0 0 0 0 0 0 0 0 0 0 0 0 0 0 0.26 0"/>
<feBlend mode="normal" in2="BackgroundImageFix" result="effect1_dropShadow_494_4553"/>
<feBlend mode="normal" in="SourceGraphic" in2="effect1_dropShadow_494_4553" result="shape"/>
</filter>
<filter id="filter28_d_494_4553" x="172.25" y="171.145" width="50.8135" height="52.4324" filterUnits="userSpaceOnUse" color-interpolation-filters="sRGB">
<feFlood flood-opacity="0" result="BackgroundImageFix"/>
<feColorMatrix in="SourceAlpha" type="matrix" values="0 0 0 0 0 0 0 0 0 0 0 0 0 0 0 0 0 0 127 0" result="hardAlpha"/>
<feOffset dx="4"/>
<feGaussianBlur stdDeviation="5"/>
<feColorMatrix type="matrix" values="0 0 0 0 0 0 0 0 0 0 0 0 0 0 0 0 0 0 0.26 0"/>
<feBlend mode="normal" in2="BackgroundImageFix" result="effect1_dropShadow_494_4553"/>
<feBlend mode="normal" in="SourceGraphic" in2="effect1_dropShadow_494_4553" result="shape"/>
</filter>
<filter id="filter29_d_494_4553" x="69.5327" y="166.021" width="50.8135" height="52.442" filterUnits="userSpaceOnUse" color-interpolation-filters="sRGB">
<feFlood flood-opacity="0" result="BackgroundImageFix"/>
<feColorMatrix in="SourceAlpha" type="matrix" values="0 0 0 0 0 0 0 0 0 0 0 0 0 0 0 0 0 0 127 0" result="hardAlpha"/>
<feOffset dx="4"/>
<feGaussianBlur stdDeviation="5"/>
<feColorMatrix type="matrix" values="0 0 0 0 0 0 0 0 0 0 0 0 0 0 0 0 0 0 0.26 0"/>
<feBlend mode="normal" in2="BackgroundImageFix" result="effect1_dropShadow_494_4553"/>
<feBlend mode="normal" in="SourceGraphic" in2="effect1_dropShadow_494_4553" result="shape"/>
</filter>
<filter id="filter30_d_494_4553" x="101.851" y="175.041" width="50.8037" height="52.442" filterUnits="userSpaceOnUse" color-interpolation-filters="sRGB">
<feFlood flood-opacity="0" result="BackgroundImageFix"/>
<feColorMatrix in="SourceAlpha" type="matrix" values="0 0 0 0 0 0 0 0 0 0 0 0 0 0 0 0 0 0 127 0" result="hardAlpha"/>
<feOffset dx="4"/>
<feGaussianBlur stdDeviation="5"/>
<feColorMatrix type="matrix" values="0 0 0 0 0 0 0 0 0 0 0 0 0 0 0 0 0 0 0.26 0"/>
<feBlend mode="normal" in2="BackgroundImageFix" result="effect1_dropShadow_494_4553"/>
<feBlend mode="normal" in="SourceGraphic" in2="effect1_dropShadow_494_4553" result="shape"/>
</filter>
<filter id="filter31_d_494_4553" x="129.95" y="181.823" width="50.8135" height="52.442" filterUnits="userSpaceOnUse" color-interpolation-filters="sRGB">
<feFlood flood-opacity="0" result="BackgroundImageFix"/>
<feColorMatrix in="SourceAlpha" type="matrix" values="0 0 0 0 0 0 0 0 0 0 0 0 0 0 0 0 0 0 127 0" result="hardAlpha"/>
<feOffset dx="4"/>
<feGaussianBlur stdDeviation="5"/>
<feColorMatrix type="matrix" values="0 0 0 0 0 0 0 0 0 0 0 0 0 0 0 0 0 0 0.26 0"/>
<feBlend mode="normal" in2="BackgroundImageFix" result="effect1_dropShadow_494_4553"/>
<feBlend mode="normal" in="SourceGraphic" in2="effect1_dropShadow_494_4553" result="shape"/>
</filter>
<filter id="filter32_d_494_4553" x="160.182" y="188.576" width="50.8135" height="52.442" filterUnits="userSpaceOnUse" color-interpolation-filters="sRGB">
<feFlood flood-opacity="0" result="BackgroundImageFix"/>
<feColorMatrix in="SourceAlpha" type="matrix" values="0 0 0 0 0 0 0 0 0 0 0 0 0 0 0 0 0 0 127 0" result="hardAlpha"/>
<feOffset dx="4"/>
<feGaussianBlur stdDeviation="5"/>
<feColorMatrix type="matrix" values="0 0 0 0 0 0 0 0 0 0 0 0 0 0 0 0 0 0 0.26 0"/>
<feBlend mode="normal" in2="BackgroundImageFix" result="effect1_dropShadow_494_4553"/>
<feBlend mode="normal" in="SourceGraphic" in2="effect1_dropShadow_494_4553" result="shape"/>
</filter>
<filter id="filter33_d_494_4553" x="18.1001" y="18.0504" width="341.122" height="224.39" filterUnits="userSpaceOnUse" color-interpolation-filters="sRGB">
<feFlood flood-opacity="0" result="BackgroundImageFix"/>
<feColorMatrix in="SourceAlpha" type="matrix" values="0 0 0 0 0 0 0 0 0 0 0 0 0 0 0 0 0 0 127 0" result="hardAlpha"/>
<feOffset dy="15"/>
<feGaussianBlur stdDeviation="10"/>
<feColorMatrix type="matrix" values="0 0 0 0 0 0 0 0 0 0 0 0 0 0 0 0 0 0 0.16 0"/>
<feBlend mode="normal" in2="BackgroundImageFix" result="effect1_dropShadow_494_4553"/>
<feBlend mode="normal" in="SourceGraphic" in2="effect1_dropShadow_494_4553" result="shape"/>
</filter>
</defs>
</svg>
