<svg width="50" height="50" viewBox="0 0 50 50" fill="none" xmlns="http://www.w3.org/2000/svg">
<g clip-path="url(#clip0_598_25442)">
<rect width="50" height="50" fill="white"/>
<rect width="50" height="50" fill="#45726A"/>
<path d="M28.6442 47H46V25.5V4L4 13.3049V27.0058" stroke="#FFC145" stroke-width="2"/>
<path d="M19.172 31.204V29.3H29.112C28.216 34.004 24.1 37.392 19.312 37.392C13.796 37.392 9.316 32.912 9.316 27.424C9.316 21.908 13.796 17.428 19.312 17.428C21.972 17.428 24.492 18.492 26.368 20.368L24.996 21.74C23.484 20.256 21.44 19.388 19.312 19.388C14.888 19.388 11.304 23 11.304 27.424C11.304 31.848 14.888 35.432 19.312 35.432C22.364 35.432 24.996 33.724 26.368 31.204H19.172ZM34.1415 37H32.2375V17.82H34.1415V26.052L39.0135 17.82H41.2535L35.9335 26.668L42.1215 37H39.9095L34.8135 28.544L34.1415 29.692V37Z" fill="#FEFBF6"/>
</g>
<defs>
<clipPath id="clip0_598_25442">
<rect width="50" height="50" fill="white"/>
</clipPath>
</defs>
</svg>
